<svg width="19" height="23" viewBox="0 0 19 23" fill="none" xmlns="http://www.w3.org/2000/svg">
<path d="M9.50275 22.9995C7.81774 22.9995 6.13272 22.9995 4.44771 22.9995C4.19254 22.9995 3.97623 22.9182 3.82005 22.7107C3.58101 22.3939 3.6866 21.9214 4.04149 21.7342C4.18008 21.6607 4.32746 21.6197 4.48731 21.6204C5.07538 21.6226 5.66344 21.6204 6.25151 21.6226C6.3285 21.6226 6.36077 21.6024 6.3813 21.5254C6.49055 21.1084 6.60641 20.6936 6.72079 20.278C6.86451 19.7523 7.00676 19.2266 7.15194 18.7016C7.2524 18.3379 7.35799 17.9756 7.45844 17.6127C7.57063 17.2058 7.67988 16.7982 7.79134 16.3913C7.94899 15.8166 8.10664 15.2426 8.26649 14.6686C8.40947 14.1552 8.55465 13.6424 8.69764 13.1296C8.71377 13.072 8.72477 13.013 8.7365 12.9546C8.74896 12.892 8.78196 12.874 8.84795 12.8848C9.09139 12.9265 9.33557 12.9525 9.5834 12.9489C9.77332 12.946 9.9603 12.9265 10.1451 12.8884C10.225 12.8718 10.2551 12.8977 10.2741 12.9698C10.4171 13.4984 10.5623 14.0262 10.7075 14.5541C10.9487 15.4313 11.19 16.3085 11.4327 17.1856C11.66 18.0081 11.8895 18.829 12.1168 19.6515C12.2906 20.2802 12.4643 20.9089 12.6345 21.539C12.6543 21.6125 12.6939 21.6226 12.7591 21.6219C13.3655 21.6204 13.9719 21.6197 14.5783 21.6219C14.9105 21.6233 15.228 21.8624 15.2998 22.1584C15.4003 22.5739 15.0872 22.9722 14.6399 22.9981C14.5944 23.001 14.5482 22.9995 14.5028 22.9995C12.8361 22.9995 11.1694 22.9995 9.50275 22.9995Z" fill="#153330"/>
<path d="M16.0624 9.98777C17.0039 9.98777 17.9454 9.98777 18.8869 9.98777C19.0056 9.98777 19.002 9.98921 18.9954 10.1023C18.9558 10.8116 18.7945 11.4987 18.5767 12.172C18.2013 13.3315 17.6103 14.3772 16.8169 15.3127C16.6944 15.4567 16.6922 15.456 16.5544 15.3235C15.2727 14.0906 14.0129 12.8346 12.7429 11.5901C12.6931 11.5419 12.6484 11.4879 12.5956 11.4439C12.5472 11.4036 12.5501 11.3698 12.5824 11.3215C12.707 11.1328 12.817 10.9362 12.9035 10.7281C12.9937 10.5121 13.0714 10.2917 13.1103 10.0605C13.122 9.98993 13.1638 9.98633 13.2203 9.98633C14.1677 9.98705 15.115 9.98633 16.0624 9.98633V9.98777Z" fill="#153330"/>
<path d="M2.93414 9.98726C3.86023 9.98726 4.78633 9.98726 5.71243 9.98726C5.89501 9.98726 5.88327 9.99158 5.92214 10.1695C6.00059 10.5317 6.14211 10.8716 6.34009 11.1878C6.48821 11.4247 6.47647 11.3671 6.29683 11.5443C4.99017 12.829 3.68205 14.1131 2.37613 15.3986C2.32554 15.4483 2.29768 15.444 2.25368 15.3928C1.54169 14.5646 0.983691 13.6464 0.592868 12.6324C0.395624 12.1204 0.24824 11.594 0.141919 11.0545C0.078126 10.7305 0.0465962 10.405 0.00186791 10.0794C-0.00913085 10.0002 0.0289982 9.98438 0.10159 9.98438C1.04602 9.98582 1.99044 9.98582 2.93414 9.98582V9.98726Z" fill="#153330"/>
<path d="M8.82524 2.88546C8.82524 3.80728 8.82377 4.72837 8.8267 5.65019C8.8267 5.74453 8.80177 5.78918 8.70132 5.80718C8.30463 5.87776 7.93947 6.03187 7.59631 6.23784C7.3866 6.36315 7.42619 6.35379 7.27074 6.20616C6.38938 5.36644 5.53074 4.5044 4.6611 3.65388C4.21015 3.21314 3.7636 2.76663 3.31339 2.32445C3.27159 2.2834 3.27379 2.25892 3.31632 2.22363C4.1251 1.56251 5.00793 1.02311 5.98902 0.642138C6.47443 0.453454 6.97011 0.300059 7.47899 0.191313C7.88301 0.104893 8.2907 0.0357571 8.70425 0.00334956C8.82377 -0.00601262 8.8267 -0.00385212 8.8267 0.120737C8.8267 1.04255 8.8267 1.96365 8.8267 2.88546H8.82597H8.82524Z" fill="#153330"/>
<path d="M10.1831 2.87863C10.1831 1.94529 10.1838 1.01196 10.1816 0.0778994C10.1816 -0.0114015 10.2308 -0.00203929 10.288 0.00300189C10.6641 0.0361296 11.0359 0.0930229 11.4062 0.1672C12.7488 0.436543 13.9696 0.971628 15.0805 1.75517C15.2858 1.89992 15.4786 2.06052 15.6774 2.21392C15.7243 2.24993 15.7367 2.27873 15.6854 2.32842C14.8327 3.16166 13.9806 3.99705 13.13 4.83245C12.6432 5.31064 12.157 5.78883 11.6723 6.26918C11.6159 6.32536 11.5697 6.33688 11.4993 6.29079C11.1671 6.07186 10.8027 5.9235 10.417 5.82556C10.1838 5.76651 10.1846 5.77083 10.1846 5.53533C10.1853 4.64953 10.1846 3.76372 10.1846 2.87863C10.1846 2.87863 10.1838 2.87863 10.1831 2.87863Z" fill="#153330"/>
<path d="M16.0627 8.66695C15.13 8.66695 14.198 8.66695 13.2654 8.66695C13.1319 8.66695 13.1312 8.66551 13.1004 8.53588C13.005 8.13763 12.8511 7.76098 12.6304 7.4117C12.557 7.29575 12.5607 7.29431 12.6626 7.19421C13.2895 6.57846 13.9165 5.96272 14.5434 5.34698C15.2459 4.65706 15.9483 3.96714 16.6493 3.27578C16.6977 3.22752 16.727 3.23545 16.7659 3.28226C17.3914 4.02835 17.9134 4.8371 18.2911 5.73083C18.5602 6.36818 18.7523 7.02713 18.8857 7.70553C18.9429 7.99792 18.97 8.29102 18.9994 8.58485C19.0052 8.64319 18.9818 8.66839 18.9231 8.66767C18.8315 8.66695 18.7405 8.66767 18.6489 8.66767C17.7866 8.66767 16.9243 8.66767 16.062 8.66767V8.66623L16.0627 8.66695Z" fill="#153330"/>
<path d="M2.94131 8.66834C1.99981 8.66834 1.05832 8.66835 0.116824 8.66907C0.0442317 8.66907 -0.00782909 8.66546 0.000969919 8.56968C0.0456982 8.09293 0.124889 7.62122 0.239276 7.15599C0.399125 6.50568 0.626433 5.87841 0.924133 5.27635C1.25923 4.60084 1.66618 3.97069 2.15599 3.39312C2.29751 3.22532 2.29825 3.2282 2.45296 3.37943C2.90611 3.82306 3.36073 4.26452 3.81314 4.70886C4.25456 5.1424 4.69378 5.57883 5.13519 6.01237C5.55095 6.4207 5.96743 6.8276 6.38539 7.23377C6.43231 7.27986 6.44185 7.31875 6.40445 7.3742C6.20647 7.66875 6.06715 7.98923 5.95863 8.32482C5.93297 8.40548 5.91684 8.48686 5.90584 8.56968C5.89631 8.64386 5.85745 8.66907 5.78339 8.66834C5.45416 8.66618 5.12493 8.66762 4.79643 8.66762C4.17757 8.66762 3.55944 8.66762 2.94057 8.66762L2.94131 8.66834Z" fill="#153330"/>
<path d="M9.4848 11.6119C8.30426 11.5882 7.23371 10.7117 7.16992 9.32683C7.25205 7.98372 8.19501 7.11447 9.51046 7.04102C10.8758 7.10655 11.818 8.11983 11.8202 9.33619C11.8217 10.5792 10.801 11.604 9.4848 11.6126V11.6119Z" fill="#153330"/>
<path d="M7.48213 12.418C7.433 12.5526 7.39414 12.6996 7.35381 12.8472C7.1947 13.4305 7.03411 14.0131 6.8728 14.595C6.72102 15.1431 6.5663 15.6897 6.41378 16.2377C6.2576 16.7995 6.11242 17.3648 5.94524 17.9237C5.92544 17.9899 5.90124 17.9899 5.84331 17.9661C4.93702 17.5931 4.11358 17.0897 3.35833 16.474C3.30553 16.4307 3.285 16.4005 3.34586 16.34C4.53226 15.1784 5.71573 14.0146 6.89993 12.8508C7.06124 12.6924 7.22329 12.5339 7.38607 12.3762C7.40441 12.3589 7.42494 12.3323 7.45647 12.3452C7.48213 12.356 7.4836 12.3827 7.4814 12.4173L7.48213 12.418Z" fill="#153330"/>
<path d="M11.5642 12.3506C11.6068 12.3599 11.6339 12.3902 11.6618 12.4168C11.7959 12.5479 11.9272 12.6804 12.0607 12.8115C12.6099 13.3509 13.1605 13.8889 13.7097 14.4283C14.3301 15.0375 14.9482 15.6482 15.5678 16.2589C15.5957 16.2863 15.6221 16.3166 15.6536 16.3396C15.7188 16.3857 15.7144 16.4203 15.6536 16.4707C15.0472 16.9669 14.3931 17.3925 13.6841 17.7338C13.5198 17.8131 13.349 17.8779 13.1855 17.9571C13.1041 17.9967 13.0667 17.9729 13.0454 17.8973C12.9853 17.6813 12.9266 17.4645 12.8672 17.2477C12.7088 16.6738 12.5512 16.0991 12.3921 15.5251C12.2388 14.9713 12.0834 14.4182 11.9309 13.8637C11.8018 13.3934 11.6816 12.9202 11.5393 12.4536C11.5283 12.4183 11.4997 12.3708 11.5642 12.3513V12.3506Z" fill="#153330"/>
</svg>
