<svg width="11" height="15" viewBox="0 0 11 15" fill="none" xmlns="http://www.w3.org/2000/svg">
<path d="M8.51067 4.60225C8.83984 4.60361 9.16834 4.60565 9.49751 4.60497C9.63887 4.60497 9.78022 4.62337 9.91428 4.66016C10.0716 4.70309 10.2275 4.77123 10.3536 4.88161C10.645 5.13577 10.8752 5.43762 10.9648 5.82942C10.9947 5.96092 11 6.0972 11 6.23348C11 8.3846 10.9987 10.5364 11 12.6875C11 12.8776 10.9841 13.063 10.925 13.2463C10.8195 13.572 10.6297 13.8268 10.3622 14.0299C10.2667 14.1021 10.1685 14.1716 10.0729 14.2424C10.0291 14.2752 9.9468 14.2758 9.88309 14.2963C9.75766 14.3365 9.62825 14.3481 9.49817 14.3481C6.84426 14.3481 4.19102 14.3521 1.5371 14.3453C0.850233 14.3433 0.211808 13.85 0.0551881 13.1481C0.0160331 12.973 -0.0131672 12.7925 0.00607845 12.6092C0.00939666 12.5758 0.00674209 12.541 0.00674209 12.507C0.00674209 10.4437 0.00674209 8.38051 0.00475116 6.3166C0.00475116 5.87302 0.10828 5.46556 0.398956 5.12827C0.654458 4.83187 0.974998 4.65471 1.36721 4.62064C1.68974 4.59271 2.01227 4.6111 2.3348 4.60906C2.39652 4.60906 2.45758 4.60702 2.5193 4.60293C2.88032 4.60361 3.24201 4.60634 3.60303 4.60293C3.6528 4.60293 3.70324 4.63836 3.75301 4.60293C3.83928 4.61451 3.92622 4.60225 4.0125 4.60293C5.05176 4.6077 6.09103 4.60565 7.13029 4.60702C7.16879 4.60702 7.19998 4.59884 7.22785 4.57227C7.24975 4.64722 7.30682 4.60429 7.34598 4.60429C7.73421 4.60565 8.12244 4.60429 8.51067 4.60225ZM4.75976 10.4049H4.75909C4.75909 10.5412 4.75909 10.6775 4.75909 10.8137C4.75909 10.95 4.76308 11.0863 4.75909 11.2226C4.75246 11.4508 4.85333 11.7213 5.05309 11.8767C5.18449 11.9789 5.33912 12.0607 5.50901 12.0457C5.73664 12.0259 5.93706 11.9339 6.08439 11.7404C6.2138 11.5694 6.24964 11.3738 6.24897 11.1646C6.24897 10.6338 6.25163 10.103 6.24897 9.57225C6.24897 9.49662 6.27287 9.44824 6.32728 9.39918C6.65645 9.09869 6.78055 8.71235 6.72481 8.27285C6.69627 8.04732 6.62991 7.82723 6.46333 7.65348C6.36511 7.55059 6.27486 7.44361 6.14611 7.37547C6.07178 7.33663 5.98418 7.31687 5.92246 7.27872C5.83353 7.22421 5.74461 7.20717 5.65501 7.19695C5.34177 7.16288 5.05773 7.23783 4.79228 7.42453C4.56863 7.58193 4.42263 7.79589 4.32441 8.03846C4.23083 8.27081 4.24013 8.52974 4.30384 8.77026C4.3702 9.02033 4.49297 9.24928 4.69937 9.41485C4.74914 9.45505 4.76175 9.50139 4.76109 9.56203C4.75909 9.84276 4.76042 10.1242 4.76042 10.4049H4.75976Z" fill="#153330"/>
<path d="M8.5108 4.60233C8.12256 4.60369 7.73433 4.60573 7.3461 4.60437C7.30695 4.60437 7.24987 4.64662 7.22797 4.57235C7.23328 4.53896 7.2439 4.50625 7.2439 4.47286C7.24523 4.03882 7.24722 3.60478 7.24523 3.17074C7.24456 2.98677 7.23395 2.80279 7.18749 2.62427C7.07069 2.17592 6.80921 1.83591 6.4389 1.57699C6.32011 1.49386 6.20065 1.4155 6.06129 1.37189C5.79583 1.28876 5.52971 1.25129 5.25164 1.29898C4.98884 1.34395 4.74395 1.42708 4.53292 1.59743C4.34311 1.75006 4.1699 1.91904 4.0385 2.12891C3.87126 2.39601 3.77238 2.68696 3.76641 3.00448C3.76043 3.32746 3.76641 3.65112 3.76442 3.97477C3.76309 4.18464 3.75778 4.39382 3.7538 4.60369C3.70469 4.63912 3.65359 4.60369 3.60382 4.60369C3.24279 4.60641 2.88111 4.60369 2.52008 4.60369C2.52008 4.08039 2.52738 3.55709 2.51809 3.03446C2.51079 2.64744 2.58114 2.27881 2.71851 1.92109C2.77227 1.7814 2.84461 1.65262 2.92292 1.52588C3.05299 1.31602 3.17311 1.09798 3.35561 0.928993C3.70203 0.60738 4.07898 0.336871 4.52495 0.171977C4.75723 0.0861225 4.99879 0.0684066 5.23704 0.0207098C5.49454 -0.0310753 5.74008 0.0275236 5.99161 0.0527348C6.19003 0.0724949 6.37917 0.128368 6.56168 0.192418C6.78997 0.272821 7.00698 0.385931 7.20143 0.547419C7.31226 0.639405 7.43702 0.717083 7.54519 0.815883C7.70381 0.961018 7.83587 1.12932 7.96064 1.3058C8.12655 1.54087 8.25529 1.79367 8.35019 2.06758C8.44709 2.34899 8.47363 2.64063 8.49221 2.93362C8.52805 3.48895 8.50151 4.04564 8.51279 4.60164L8.5108 4.60233Z" fill="#153330"/>
<path d="M4.76122 10.4054C4.76122 10.1246 4.75989 9.84324 4.76188 9.56251C4.76188 9.50186 4.74994 9.45485 4.70016 9.41533C4.49377 9.24975 4.37099 9.02081 4.30463 8.77074C4.24092 8.53089 4.23163 8.27197 4.3252 8.03894C4.42276 7.79568 4.56942 7.58173 4.79307 7.42501C5.05853 7.23831 5.34257 7.16336 5.65581 7.19743C5.74606 7.20697 5.83499 7.224 5.92326 7.27919C5.98498 7.31735 6.07258 7.33711 6.14691 7.37595C6.27565 7.44341 6.36591 7.55107 6.46413 7.65395C6.6307 7.82771 6.69707 8.04779 6.7256 8.27333C6.78135 8.71282 6.65791 9.09848 6.32808 9.39966C6.27366 9.4494 6.24977 9.49709 6.24977 9.57273C6.25242 10.1035 6.24977 10.6343 6.24977 11.1651C6.24977 11.3743 6.2146 11.5699 6.08519 11.7409C5.93852 11.9351 5.73744 12.0264 5.50981 12.0461C5.33991 12.0611 5.18529 11.9801 5.05388 11.8772C4.85413 11.7218 4.75325 11.4513 4.75989 11.223C4.76387 11.0868 4.75989 10.9505 4.75989 10.8142C4.75989 10.6779 4.75989 10.5417 4.75989 10.4054H4.76055H4.76122Z" fill="white"/>
</svg>
