<svg width="46" height="44" viewBox="0 0 46 44" fill="none" xmlns="http://www.w3.org/2000/svg">
<path d="M43.0672 42.3495C42.4103 42.3525 41.8602 42.3599 41.3189 42.2928C40.6307 42.207 39.94 42.1481 39.2527 42.0493C38.7148 41.9718 38.1765 41.8878 37.6369 41.8167C37.1738 41.7561 36.7198 41.6305 36.2588 41.5486C35.8452 41.475 35.4733 41.3056 35.0949 41.1328C34.1543 40.7027 33.2476 40.7984 32.3787 41.3615C31.8934 41.676 31.3834 41.9497 30.8477 42.1754C30.2395 42.4314 29.6425 42.7159 29.0126 42.9147C28.7415 43.0005 28.4799 43.1179 28.1828 43.1317C27.9464 43.143 27.75 43.3197 27.5137 43.3717C26.8963 43.5077 26.282 43.6533 25.6525 43.7342C25.026 43.8148 24.4026 43.9166 23.77 43.9508C22.9993 43.9928 22.2277 44.0206 21.4574 43.9833C20.7779 43.9504 20.1006 43.8871 19.4246 43.7845C18.776 43.6862 18.1308 43.5697 17.4965 43.4168C16.6398 43.2101 15.7895 42.9702 14.9693 42.6345C14.5231 42.4522 14.0747 42.2754 13.6299 42.0892C12.456 41.598 11.3459 40.9873 10.2793 40.3021C9.2397 39.6342 8.25522 38.8892 7.33549 38.0593C6.91754 37.6824 6.49004 37.3156 6.11032 36.901C5.80708 36.5701 5.51816 36.2236 5.22143 35.8879C4.79523 35.4058 4.3938 34.9077 4.01843 34.388C3.72387 33.9804 3.43235 33.5693 3.1669 33.1423C2.61558 32.2552 2.13203 31.3317 1.71321 30.3741C1.2288 29.267 0.835617 28.1317 0.551919 26.957C0.395515 26.3086 0.281688 25.6524 0.165255 24.9971C0.100955 24.6345 0.121375 24.2577 0.0653302 23.8934C0.0175403 23.5825 -0.00201016 23.2654 0.000162115 22.9596C0.00363775 22.5087 0.0240571 22.0552 0.00711338 21.6056C-0.0102648 21.1482 0.0210159 20.6925 0.0405663 20.2395C0.0627235 19.7262 0.11312 19.2108 0.186108 18.6984C0.237809 18.3358 0.306887 17.9737 0.341643 17.6064C0.37553 17.2491 0.480234 16.8978 0.56278 16.5461C0.888186 15.1579 1.35088 13.816 1.95347 12.5235C2.22283 11.9462 2.52043 11.3831 2.83671 10.8282C3.50099 9.66266 4.30864 8.60623 5.18711 7.59789C5.54076 7.19203 5.88962 6.78142 6.28802 6.41931C7.12173 5.66132 7.97761 4.92975 8.90213 4.27961C9.62723 3.7698 10.3758 3.29422 11.1552 2.87754C12.124 2.35993 13.1159 1.88088 14.1603 1.52224C14.6695 1.34726 15.1917 1.20865 15.6931 1.01937C16.3174 0.783308 16.9738 0.686285 17.6138 0.527756C18.1769 0.388719 18.7616 0.315518 19.3425 0.240152C19.9177 0.165652 20.4964 0.118873 21.0708 0.038309C21.3049 0.00539042 21.5478 0.038309 21.7867 0.0305125C22.0005 0.0240154 22.226 -0.0132346 22.4262 0.00495728C22.9341 0.0513032 23.4446 -0.0136677 23.9499 0.066463C24.1124 0.0920182 24.2818 0.0712276 24.4478 0.0759921C25.0073 0.0915851 25.5552 0.201169 26.1082 0.271338C26.5796 0.331111 27.0458 0.418172 27.5068 0.519093C27.949 0.615683 28.3926 0.716605 28.8279 0.849579C29.4127 1.02846 29.9966 1.20692 30.5727 1.41396C31.3347 1.68814 32.0546 2.05197 32.7862 2.39199C33.7807 2.85415 34.6809 3.46877 35.568 4.09942C36.2132 4.55812 36.8102 5.08048 37.3893 5.6258C38.0049 6.20534 38.5736 6.8243 39.1254 7.46015C39.4781 7.86643 39.7762 8.31733 40.0972 8.7496C40.5669 9.38242 40.98 10.0499 41.3558 10.7373C41.686 11.3419 41.9945 11.9592 42.263 12.5985C42.6818 13.5964 43.131 14.5805 43.4795 15.6066C43.7479 16.3975 43.9534 17.2058 44.1133 18.0227C44.2059 18.4957 44.2597 18.9795 44.3014 19.4637C44.3575 20.1139 44.4209 20.764 44.3757 21.4142C44.3301 22.0691 44.2684 22.7231 44.1776 23.3758C44.0925 23.9883 43.9621 24.5899 43.8548 25.1968C43.794 25.5385 43.691 25.8738 43.5968 26.209C43.4573 26.7067 43.3096 27.2026 43.1636 27.6986C43.1245 27.832 43.0567 27.9533 42.9981 28.0784C42.9216 28.2417 42.9229 28.4362 42.866 28.6164C42.641 29.3315 42.442 30.0548 42.2326 30.7747C42.0818 31.2932 42.0023 31.8255 41.9007 32.354C41.786 32.9513 41.8138 33.5507 41.8229 34.1489C41.8285 34.5036 41.9163 34.8549 42.0114 35.2001C42.074 35.4271 42.1969 35.6328 42.2195 35.8758C42.2274 35.9629 42.3364 36.0356 42.3786 36.1249C42.8651 37.1588 43.6172 37.9804 44.4561 38.7358C44.7754 39.0234 45.1156 39.2846 45.4384 39.567C46.1705 40.2072 46.2165 41.3775 45.3954 41.9103C45.0613 42.1273 44.6885 42.2425 44.2928 42.3014C43.8483 42.3681 43.4021 42.3291 43.0672 42.3482V42.3495ZM42.4372 40.0638C42.4237 39.9577 42.3681 39.9291 42.3295 39.8897C41.6904 39.24 41.1191 38.5413 40.6538 37.7535C39.9704 36.5961 39.6015 35.3482 39.5172 34.0146C39.4725 33.3086 39.5442 32.6052 39.6545 31.9091C39.8474 30.6929 40.2037 29.516 40.5673 28.3426C41.0287 26.8531 41.5127 25.3704 41.8007 23.8341C41.9289 23.1497 42.0423 22.4606 42.0666 21.7663C42.0949 20.9689 42.0953 20.1706 41.9975 19.3723C41.8811 18.4207 41.6995 17.4839 41.3949 16.5782C40.9192 15.1653 40.3318 13.7957 39.6667 12.4599C38.8521 10.8248 37.8103 9.34733 36.5547 8.02106C35.9495 7.38175 35.3043 6.78358 34.6044 6.24606C32.937 4.9644 31.1119 3.97511 29.1121 3.31544C27.9547 2.93341 26.773 2.65663 25.5617 2.49161C24.6672 2.3699 23.7696 2.32398 22.8707 2.2889C22.1925 2.26248 21.5156 2.31445 20.8388 2.366C20.1128 2.42101 19.3942 2.52106 18.6791 2.64884C17.3627 2.88403 16.0832 3.25393 14.832 3.72216C13.3792 4.26531 12.0041 4.9644 10.716 5.82461C9.46083 6.66317 8.29128 7.60655 7.26814 8.72405C6.67381 9.37289 6.10989 10.0443 5.60896 10.7676C5.09978 11.5026 4.64404 12.2676 4.24695 13.071C3.85942 13.8546 3.5288 14.6589 3.25596 15.4858C2.9992 16.2633 2.80196 17.0576 2.65555 17.865C2.47612 18.8556 2.36055 19.8514 2.33101 20.8576C2.32319 21.117 2.32145 21.3773 2.33101 21.6368C2.33622 21.7823 2.28105 21.8278 2.14202 21.8196C1.9917 21.8105 1.84051 21.8174 1.68975 21.8174C1.84138 21.8599 1.99213 21.8607 2.14289 21.8594C2.22326 21.8586 2.29278 21.8707 2.28539 21.9729C2.27062 22.1756 2.32666 22.374 2.32579 22.5741C2.32319 23.2368 2.37532 23.8939 2.45483 24.5518C2.58343 25.6178 2.81412 26.6599 3.14344 27.6799C3.56486 28.9854 4.11922 30.2311 4.81435 31.4192C5.62591 32.807 6.61038 34.0601 7.69608 35.2391C8.0771 35.6527 8.50677 36.0179 8.92819 36.3908C9.66155 37.0396 10.4197 37.6543 11.2412 38.1892C12.1058 38.7523 12.9969 39.2651 13.9296 39.7117C14.6204 40.0426 15.3238 40.3462 16.0454 40.5897C17.0816 40.9388 18.1364 41.2294 19.2226 41.4053C20.2918 41.5785 21.3623 41.6894 22.4454 41.6998C22.8655 41.7037 23.2817 41.6517 23.7005 41.6534C24.0911 41.6552 24.479 41.6062 24.8622 41.5521C25.6886 41.4356 26.5075 41.2762 27.3126 41.0479C28.5677 40.6923 29.765 40.2007 30.9081 39.5761C31.2683 39.3795 31.6163 39.1612 31.9921 38.9918C33.1816 38.4556 34.3894 38.4218 35.6119 38.8614C35.9573 38.9857 36.2832 39.1759 36.6355 39.2656C37.5348 39.4938 38.4572 39.6108 39.3752 39.7433C39.9017 39.8195 40.4313 39.8737 40.9609 39.9287C41.4471 39.9794 41.9345 40.0188 42.4394 40.0651L42.4372 40.0638ZM1.11671 21.8473C1.11671 21.8404 1.11671 21.833 1.11671 21.8261H0.378137C0.378137 21.833 0.378137 21.8404 0.378137 21.8473H1.11671Z" fill="white"/>
<path d="M42.4371 40.0633C41.9322 40.017 41.4448 39.9776 40.9586 39.9269C40.4294 39.8715 39.8994 39.8173 39.3729 39.7415C38.4553 39.6085 37.5329 39.492 36.6332 39.2638C36.2804 39.1741 35.9546 38.9839 35.6096 38.8596C34.3871 38.42 33.1793 38.4538 31.9897 38.99C31.6139 39.1594 31.2659 39.3777 30.9058 39.5743C29.7627 40.1989 28.5654 40.6905 27.3102 41.0461C26.5048 41.2744 25.6858 41.4334 24.8599 41.5503C24.4767 41.6044 24.0888 41.653 23.6982 41.6517C23.2794 41.6499 22.8632 41.7019 22.443 41.698C21.36 41.6876 20.289 41.5763 19.2203 41.4035C18.1346 41.2276 17.0793 40.937 16.0431 40.5879C15.321 40.3444 14.6181 40.0408 13.9273 39.7099C12.995 39.2633 12.1035 38.7501 11.2389 38.1874C10.4174 37.6525 9.65924 37.0374 8.92588 36.389C8.50446 36.0161 8.07478 35.6514 7.69377 35.2373C6.6085 34.0583 5.62403 32.8052 4.81203 31.4174C4.11734 30.2298 3.56298 28.9841 3.14112 27.6782C2.81181 26.6581 2.58068 25.616 2.45251 24.55C2.37344 23.8921 2.32087 23.235 2.32348 22.5723C2.32435 22.3722 2.2683 22.1738 2.28308 21.9711C2.29046 21.8689 2.22051 21.8568 2.14057 21.8576C1.98982 21.8589 1.83863 21.8576 1.68744 21.8156C1.83819 21.8156 1.98938 21.8087 2.13971 21.8178C2.27873 21.8264 2.33391 21.7805 2.32869 21.635C2.31957 21.3755 2.32131 21.1152 2.32869 20.8558C2.35824 19.85 2.47424 18.8542 2.65323 17.8632C2.79921 17.0559 2.99688 16.2615 3.25365 15.484C3.52692 14.6571 3.8571 13.8528 4.24464 13.0692C4.64216 12.2662 5.09747 11.5008 5.60665 10.7658C6.10757 10.0429 6.6715 9.37153 7.26583 8.72225C8.28897 7.60475 9.45852 6.66138 10.7137 5.82282C12.0014 4.96261 13.3769 4.26352 14.8297 3.72036C16.0809 3.25257 17.3604 2.88267 18.6768 2.64705C19.3919 2.51927 20.1105 2.41921 20.8364 2.36421C21.5133 2.3131 22.1902 2.26069 22.8684 2.28711C23.7673 2.32219 24.6648 2.36767 25.5594 2.48982C26.7706 2.65484 27.9524 2.93162 29.1097 3.31365C31.1095 3.97332 32.9347 4.96304 34.6021 6.24427C35.302 6.78222 35.9472 7.37996 36.5524 8.01927C37.8084 9.34554 38.8502 10.823 39.6644 12.4581C40.3295 13.7939 40.9169 15.1635 41.3926 16.5764C41.6976 17.4816 41.8788 18.4189 41.9952 19.3705C42.093 20.1688 42.0925 20.9671 42.0643 21.7645C42.04 22.4588 41.9266 23.148 41.7984 23.8323C41.5104 25.3687 41.0268 26.8517 40.565 28.3409C40.2014 29.5142 39.8451 30.6915 39.6522 31.9073C39.5419 32.6034 39.4702 33.3068 39.5149 34.0128C39.5992 35.3464 39.9681 36.5943 40.6515 37.7517C41.1168 38.5396 41.6881 39.2382 42.3271 39.8879C42.3658 39.9273 42.4214 39.9559 42.4349 40.062L42.4371 40.0633Z" fill="#C5F8DC"/>
</svg>
