<svg width="25" height="27" viewBox="0 0 25 27" fill="none" xmlns="http://www.w3.org/2000/svg">
<mask id="mask0_96_19" style="mask-type:luminance" maskUnits="userSpaceOnUse" x="0" y="0" width="25" height="27">
<path d="M24.82 0H0V26.79H24.82V0Z" fill="white"/>
</mask>
<g mask="url(#mask0_96_19)">
<path d="M23.8891 1.33972C23.8891 1.33972 23.8606 1.24684 23.8226 1.20556C23.7941 1.16427 23.7466 1.14363 23.7086 1.13331C20.6984 0.33862 13.7474 3.18713 9.98707 7.27414C9.31286 7.99659 8.70512 8.78097 8.15436 9.62726C6.99586 9.51374 5.82786 9.60663 4.84028 10.0814C2.04848 11.4128 1.23184 14.8909 1.00393 16.3977C0.994437 16.4802 1.00393 16.5628 1.01343 16.6454C1.03242 16.7279 1.0704 16.8002 1.12738 16.8621C1.18436 16.924 1.24133 16.9653 1.3173 16.9963C1.39327 17.0272 1.46923 17.0376 1.5452 17.0272L6.02727 16.4906C6.02727 16.8621 6.04627 17.2233 6.08425 17.5949C6.10324 17.8529 6.2077 18.0903 6.37862 18.2657L8.11638 20.1441C8.27781 20.3299 8.49621 20.4331 8.73361 20.464C9.06597 20.5053 9.40782 20.526 9.74018 20.526L9.24639 25.3973C9.24639 25.4799 9.24639 25.5625 9.27488 25.645C9.30337 25.7276 9.34135 25.7895 9.39833 25.8515C9.4553 25.9134 9.52177 25.9547 9.59774 25.9753C9.67371 25.996 9.74968 26.0063 9.82564 25.996C11.2025 25.7586 14.4121 24.871 15.6371 21.8367C16.0644 20.7633 16.1594 19.5042 16.0549 18.2451C16.8336 17.6568 17.5553 16.986 18.22 16.2532C21.9994 12.1662 24.6013 4.78685 23.8796 1.35005L23.8891 1.33972ZM14.4596 11.3715C14.1178 10.9999 13.8804 10.5149 13.7854 9.99883C13.6904 9.48278 13.7379 8.93579 13.9278 8.45071C14.1178 7.96564 14.4311 7.54249 14.8395 7.24319C15.2478 6.94389 15.7226 6.78908 16.2069 6.78908C16.6912 6.78908 17.1754 6.94389 17.5743 7.24319C17.9826 7.54249 18.296 7.95532 18.4859 8.45071C18.6758 8.93579 18.7233 9.48278 18.6283 9.99883C18.5334 10.5149 18.296 10.9999 17.9541 11.3715C17.7262 11.6192 17.4508 11.8153 17.1565 11.9494C16.8621 12.0836 16.5392 12.1559 16.2164 12.1559C15.8935 12.1559 15.5706 12.0836 15.2763 11.9494C14.9819 11.8153 14.7065 11.6192 14.4786 11.3715H14.4596Z" fill="#A19AFF"/>
<path d="M8.24942 21.4646C7.95906 21.7677 7.50416 21.8788 6.95247 21.9798C5.70391 22.202 4.61022 21.0808 4.83283 19.7677C4.91994 19.2727 5.17159 18.5758 5.32644 18.404C5.36516 18.3737 5.38452 18.3232 5.3942 18.2727C5.3942 18.2222 5.3942 18.1717 5.37484 18.1313C5.35548 18.0909 5.31677 18.0505 5.27805 18.0303C5.23934 18.0101 5.19094 18 5.14255 18C4.44568 18.0909 3.79721 18.4141 3.30359 18.9394C2.0744 20.2222 1.95825 25 1.95825 25C1.95825 25 6.53628 24.8788 7.76548 23.596C8.2591 23.0808 8.57849 22.404 8.6656 21.6768C8.68496 21.4444 8.41395 21.3131 8.26877 21.4747L8.24942 21.4646Z" fill="#A19AFF"/>
</g>
</svg>
