<svg width="25" height="25" viewBox="0 0 25 25" fill="none" xmlns="http://www.w3.org/2000/svg">
<g clip-path="url(#clip0_4136_11035)">
<path d="M15.4986 24.9889C13.0958 24.9928 10.6931 24.9967 8.29037 24.9993C7.69555 24.9993 7.10008 24.9928 6.50526 24.9889C5.96517 24.7186 5.83487 24.331 6.11111 23.7885C6.26812 23.4798 6.43686 23.1769 6.60299 22.8728C7.58871 21.0699 8.59202 19.2769 9.51845 17.4428C9.75234 17.0214 9.99144 16.6026 10.2162 16.176C10.2683 16.0776 10.3276 16.0008 10.4175 15.9421C10.6175 16.1838 10.8175 16.4261 11.0169 16.6677C11.011 16.7087 11.0338 16.7237 11.0703 16.727C11.1381 16.8155 11.2065 16.9041 11.2742 16.9927C11.2703 17.0337 11.2931 17.0507 11.3303 17.0539C11.3974 17.1419 11.4645 17.2298 11.5322 17.3184C11.5316 17.3581 11.5524 17.3776 11.5909 17.3822C11.6593 17.4695 11.727 17.5574 11.7954 17.6447C11.8137 17.6662 11.8326 17.6883 11.8508 17.7098C12.2104 18.1514 12.5043 18.6496 12.9597 19.0098C12.9642 19.0463 12.9799 19.0697 13.0216 19.0632C13.4437 19.1114 13.761 18.9747 14.0073 18.6054C14.3057 18.1586 14.6516 17.7437 14.9767 17.3145C15.0145 17.3118 15.038 17.2962 15.0301 17.2539L15.4328 16.7179C15.4549 16.727 15.4771 16.7361 15.4992 16.7452C15.4992 19.4931 15.4992 22.241 15.4992 24.9889H15.4986Z" fill="#19DEC1"/>
<path d="M15.4985 24.9889C15.4985 22.241 15.4985 19.4931 15.4985 16.7452C15.7793 16.996 15.9552 17.3307 16.1936 17.6154C16.5773 18.0739 16.8516 18.621 17.322 19.0092C17.3266 19.0463 17.3429 19.0697 17.3852 19.0632C17.7188 19.1127 18.0321 19.0925 18.2621 18.8007C18.7814 18.1416 19.2843 17.4701 19.8212 16.826C20.0661 16.5322 20.2479 16.1799 20.5736 15.9558C20.7424 16.1733 20.857 16.4222 20.9802 16.6664C20.9743 16.7074 20.9978 16.7244 21.0342 16.7302C21.1463 16.9478 21.2584 17.1646 21.3704 17.3822C21.3646 17.4239 21.3867 17.4421 21.4245 17.4486C21.5366 17.6655 21.6486 17.8817 21.7607 18.0986C21.7548 18.1403 21.7776 18.1592 21.8147 18.1664C21.9933 18.5129 22.1711 18.8594 22.3496 19.2059C22.3412 19.2495 22.3646 19.2645 22.403 19.2658C22.5158 19.4846 22.6285 19.7035 22.7405 19.9223C22.734 19.964 22.7562 19.9796 22.7933 19.9829C22.9054 20.2011 23.0181 20.4199 23.1301 20.6381C23.1243 20.6791 23.1471 20.6961 23.1835 20.7006C23.2493 20.9423 23.3751 21.1526 23.5204 21.3526C23.5008 21.4535 23.5569 21.5063 23.6409 21.5415C23.7302 21.718 23.8201 21.8938 23.9093 22.0703C23.9035 22.112 23.9256 22.1303 23.9634 22.1368C24.2813 22.7457 24.6168 23.3463 24.912 23.9657C25.1726 24.5134 24.8234 24.9973 24.1914 24.998C21.8037 24.9999 19.4153 24.9993 17.0275 24.998C16.5174 24.998 16.0079 24.9915 15.4978 24.9876L15.4985 24.9889Z" fill="#17CEB4"/>
<path d="M9.51907 17.4422C8.59264 19.2763 7.58867 21.0693 6.60361 22.8722C6.43747 23.1763 6.26939 23.4792 6.11172 23.7879C5.83549 24.3305 5.96514 24.718 6.50588 24.9883C4.57484 24.9916 2.64444 24.9948 0.713397 24.9968C0.205227 24.9968 -0.162219 24.5252 0.0729725 23.9338C0.12379 23.8055 0.203272 23.6876 0.269725 23.5652C0.287967 23.5443 0.306209 23.5235 0.324451 23.5033C1.1043 22.1505 1.88414 20.7978 2.66334 19.4443C2.90895 19.0177 3.15196 18.5891 3.39627 18.1612C3.41452 18.1404 3.43276 18.1189 3.45035 18.0981C4.15332 16.8827 4.85694 15.6674 5.5599 14.452C5.63873 14.439 5.66414 14.3869 5.66154 14.3139C5.74363 14.0456 5.89673 13.8085 6.05504 13.5871C6.39447 13.1116 7.06356 13.1709 7.35869 13.6835C8.0799 14.9359 8.79916 16.1891 9.51907 17.4422Z" fill="#11AD94"/>
<path d="M15.4998 0.00846707C17.4394 0.0052105 19.3789 0 21.319 0C21.652 0 21.9295 0.119842 22.0429 0.459827C22.1425 0.758128 22.0657 1.02126 21.8376 1.24661C21.3288 1.74943 20.8304 2.26201 20.3183 2.76092C20.188 2.88792 20.1802 2.96087 20.3151 3.09178C20.82 3.58222 21.3151 4.08373 21.8096 4.58524C22.1249 4.90504 22.1621 5.23981 21.9386 5.59348C21.7751 5.8514 21.5158 5.85661 21.2565 5.85661C19.6961 5.85791 18.1352 5.85661 16.5748 5.85791C16.4556 5.85791 16.337 5.86442 16.2178 5.86833C15.9774 5.86833 15.737 5.86833 15.4966 5.86768L15.4998 5.84749C15.4998 3.90137 15.4998 1.95524 15.5005 0.00846707H15.4998Z" fill="#FD3018"/>
<path d="M17.3221 19.0093C16.8517 18.6204 16.5775 18.074 16.1937 17.6154C15.9553 17.3308 15.7794 16.9961 15.4986 16.7453C15.4764 16.7362 15.4543 16.7271 15.4321 16.7179C15.4321 16.6789 15.4328 16.6404 15.4334 16.6014C15.5429 16.4932 15.496 16.3558 15.496 16.2314C15.4999 13.2784 15.5005 10.3253 15.5025 7.3716C15.5025 7.35857 15.5005 7.3462 15.496 7.33447C15.8237 7.3475 16.023 7.55918 16.2061 7.79495C16.7788 8.87287 17.3469 9.95275 17.9261 11.0274C18.5658 12.2148 19.2186 13.3949 19.8604 14.5816C20.106 15.0356 20.3796 15.4759 20.5744 15.9572C20.2487 16.1819 20.0669 16.5336 19.8219 16.8274C19.2851 17.4715 18.7815 18.143 18.2629 18.8021C18.0336 19.0933 17.7195 19.1141 17.386 19.0646C17.3651 19.0464 17.3436 19.0281 17.3228 19.0106L17.3221 19.0093Z" fill="#D9D9D9"/>
<path d="M15.4333 16.6013C15.4333 16.6404 15.4326 16.6788 15.432 16.7179C15.2978 16.8964 15.1636 17.0755 15.0294 17.2539C15.0118 17.2741 14.9935 17.2943 14.9759 17.3145C14.6508 17.7431 14.3042 18.1586 14.0065 18.6054C13.7602 18.9747 13.443 19.1115 13.0208 19.0633C12.9999 19.0457 12.9797 19.0275 12.9589 19.0099C12.5035 18.6497 12.2097 18.1514 11.85 17.7099C11.8318 17.6884 11.8129 17.6662 11.7947 17.6447C11.7263 17.5575 11.6585 17.4695 11.5901 17.3822C11.5706 17.3608 11.551 17.3399 11.5315 17.3184C11.4644 17.2305 11.3973 17.1426 11.3295 17.054C11.3106 17.0338 11.2917 17.0136 11.2735 16.9928C11.2057 16.9042 11.1373 16.8156 11.0696 16.727C11.052 16.7075 11.0344 16.6873 11.0161 16.6678C10.8161 16.4261 10.6161 16.1838 10.4167 15.9422C10.62 15.3326 10.9888 14.8057 11.2806 14.241C11.7419 13.348 12.2436 12.4766 12.7257 11.5947C13.3583 10.4379 13.9876 9.27861 14.6235 8.12318C14.6945 7.99422 14.7147 7.86005 14.7329 7.72067C14.972 7.65424 15.0756 7.34226 15.3675 7.37157C15.3675 10.2999 15.3675 13.2288 15.3675 16.1571C15.3675 16.3076 15.3466 16.4626 15.4326 16.6007L15.4333 16.6013Z" fill="#E5E5E5"/>
<path d="M15.4998 0.00854492C15.4998 1.95467 15.4998 3.90079 15.4991 5.84757C15.2574 5.85147 15.0151 5.85473 14.7727 5.85864C14.7669 4.71298 14.7669 3.56667 14.7519 2.42101C14.7441 1.84134 14.7871 1.26102 14.7232 0.6807C14.6828 0.317919 15.0574 0.0111502 15.4998 0.00919624V0.00854492Z" fill="#FD4E26"/>
<path d="M14.7727 5.85848C15.015 5.85458 15.2567 5.85132 15.4991 5.84741L15.4958 5.8676C15.4958 6.35674 15.4958 6.84522 15.4958 7.33436C15.5004 7.34608 15.503 7.35911 15.5023 7.37148C15.4574 7.37148 15.4124 7.37148 15.3675 7.37148C15.0756 7.34218 14.972 7.65415 14.7329 7.72059C14.7459 7.09989 14.759 6.47919 14.772 5.85783L14.7727 5.85848Z" fill="#787780"/>
<path d="M15.4958 7.33443C15.4958 6.8453 15.4958 6.35681 15.4958 5.86768C15.7363 5.86768 15.9767 5.86768 16.2171 5.86833C16.2132 6.51052 16.2099 7.15272 16.206 7.79491C16.0229 7.55914 15.8236 7.34746 15.4958 7.33443Z" fill="#58565D"/>
<path d="M23.6415 21.5422C23.5575 21.507 23.5014 21.4542 23.521 21.3533C23.6422 21.365 23.6402 21.4542 23.6415 21.5422Z" fill="#F3F6F5"/>
<path d="M5.66164 14.3145C5.66425 14.3874 5.63884 14.4395 5.56001 14.4525C5.52417 14.3548 5.58607 14.3294 5.66164 14.3145Z" fill="#17AF96"/>
<path d="M21.0343 16.7308C20.9978 16.725 20.975 16.708 20.9802 16.667L21.0343 16.7308Z" fill="#F3F6F5"/>
<path d="M21.4246 17.4492C21.3869 17.4427 21.3647 17.4245 21.3706 17.3828C21.3888 17.405 21.4064 17.4271 21.4246 17.4492Z" fill="#F3F6F5"/>
<path d="M3.44974 18.0986C3.43149 18.1195 3.41325 18.141 3.39566 18.1618C3.38915 18.1195 3.4113 18.1019 3.44974 18.0986Z" fill="#17AF96"/>
<path d="M21.8149 18.1671C21.7778 18.1599 21.7543 18.141 21.7608 18.0994C21.7791 18.1222 21.7967 18.1443 21.8149 18.1671Z" fill="#F3F6F5"/>
<path d="M22.4031 19.2665C22.3646 19.2645 22.3412 19.2502 22.3496 19.2065C22.3672 19.2267 22.3848 19.2463 22.4031 19.2665Z" fill="#F3F6F5"/>
<path d="M22.7933 19.9829C22.7562 19.9797 22.7334 19.964 22.7406 19.9224L22.7933 19.9829Z" fill="#F3F6F5"/>
<path d="M23.1837 20.7014C23.1473 20.6969 23.1244 20.6799 23.1303 20.6389L23.1837 20.7014Z" fill="#F3F6F5"/>
<path d="M23.9642 22.1375C23.927 22.131 23.9042 22.1127 23.9101 22.071C23.9283 22.0932 23.9459 22.1153 23.9642 22.1375Z" fill="#F3F6F5"/>
<path d="M0.323898 23.5039C0.305656 23.5247 0.287414 23.5456 0.269172 23.5658C0.262657 23.5234 0.285459 23.5065 0.323898 23.5039Z" fill="#17AF96"/>
<path d="M11.2741 16.9927C11.293 17.0129 11.3119 17.0331 11.3302 17.0539C11.2924 17.0513 11.2702 17.0344 11.2741 16.9927Z" fill="#E3E4E4"/>
<path d="M14.9766 17.3137C14.9942 17.2936 15.0124 17.2734 15.03 17.2532C15.0372 17.2955 15.0143 17.3111 14.9766 17.3137Z" fill="#E3E4E4"/>
<path d="M11.5322 17.3179C11.5518 17.3394 11.5713 17.3602 11.5909 17.3817C11.5531 17.3778 11.5316 17.3583 11.5322 17.3179Z" fill="#E3E4E4"/>
<path d="M12.9597 19.0093C12.9806 19.0269 13.0008 19.0451 13.0216 19.0627C12.9799 19.0692 12.9643 19.0458 12.9597 19.0093Z" fill="#E3E4E4"/>
<path d="M11.0175 16.6677C11.0351 16.6873 11.0527 16.7075 11.0709 16.727C11.0345 16.7237 11.0117 16.7088 11.0175 16.6677Z" fill="#E3E4E4"/>
<path d="M17.322 19.0093C17.3429 19.0275 17.3644 19.0458 17.3852 19.0633C17.3429 19.0699 17.3266 19.0464 17.322 19.0093Z" fill="#D5D9D8"/>
<path d="M15.3677 7.37231C15.4126 7.37231 15.4576 7.37231 15.5025 7.37231C15.5012 10.3254 15.5006 13.2784 15.496 16.2321C15.496 16.3565 15.5429 16.494 15.4335 16.6021C15.3468 16.464 15.3683 16.309 15.3683 16.1585C15.3683 13.2302 15.3683 10.3013 15.3683 7.37297L15.3677 7.37231Z" fill="#E3E4E4"/>
</g>
<defs>
<clipPath id="clip0_4136_11035">
<rect width="25" height="25" fill="white"/>
</clipPath>
</defs>
</svg>
