<svg width="25" height="25" viewBox="0 0 25 25" fill="none" xmlns="http://www.w3.org/2000/svg">
<path d="M10.4924 6.18827C10.5931 6.10034 10.6984 6.01777 10.7924 5.9238C11.9635 4.75448 13.1299 3.58047 14.3044 2.41518C15.4325 1.29554 16.7513 0.510175 18.3251 0.207442C19.5794 -0.0335363 20.8458 -0.0449476 22.1156 0.0731923C22.5585 0.114138 23.0042 0.120851 23.4478 0.150386C23.8115 0.174551 24.1746 0.210127 24.5591 0.242347C24.588 0.601465 24.6283 0.952529 24.6437 1.30493C24.6947 2.47291 24.7893 3.64155 24.7699 4.80885C24.7377 6.76286 24.1686 8.55375 22.8062 10.0023C21.5357 11.3535 20.2056 12.649 18.9056 13.9727C18.8076 14.0728 18.7398 14.2016 18.658 14.3171C18.5674 14.3735 18.462 14.4144 18.3875 14.4876C17.9177 14.9481 17.456 15.4166 16.9889 15.8804C15.9372 16.9249 14.8836 17.968 13.8312 19.0118C13.7326 18.9454 13.6205 18.893 13.538 18.8104C11.0186 16.2953 8.50119 13.7781 5.98649 11.2582C5.90395 11.1757 5.8516 11.0629 5.78516 10.9649C6.9113 9.8298 8.03946 8.69673 9.16359 7.55963C9.61056 7.10721 10.0495 6.64673 10.4924 6.18961V6.18827ZM18.3976 4.24366C17.1258 4.1074 16.15 5.26061 16.1339 6.37622C16.1151 7.63213 17.1244 8.6531 18.36 8.65981C19.4962 8.66585 20.5975 7.75362 20.5606 6.45677C20.5223 5.09548 19.7244 4.24366 18.3976 4.24366ZM13.5675 9.74186C12.7111 9.74321 12.0897 10.3641 12.093 11.2146C12.0964 12.063 12.7273 12.6994 13.5682 12.7021C14.4386 12.7054 15.0198 12.0798 15.0648 11.2012C15.101 10.493 14.3581 9.64587 13.5675 9.74119V9.74186Z" fill="#81A4A0"/>
<path d="M10.4934 6.18859C10.0511 6.64571 9.61222 7.10619 9.16458 7.55861C8.04045 8.69571 6.91229 9.82945 5.78615 10.9639C5.68682 11.0511 5.58414 11.135 5.48884 11.2263C5.07341 11.6244 4.66067 12.0251 4.24659 12.4245C2.99964 12.0895 1.75203 11.7553 0.505081 11.4196C0.419848 11.3968 0.335287 11.3713 0.25341 11.3398C-0.0445687 11.225 -0.0801383 11.0833 0.148715 10.8497C0.64199 10.3463 1.14265 9.85093 1.64062 9.35219C2.8822 8.11038 4.12847 6.87394 5.36334 5.62609C5.79017 5.19447 6.27472 5.02263 6.86733 5.18105C8.05119 5.49654 9.23505 5.81068 10.4182 6.12684C10.4464 6.13422 10.4679 6.16711 10.4927 6.18792L10.4934 6.18859Z" fill="#153330"/>
<path d="M13.8323 19.0111C14.8846 17.9673 15.9383 16.9242 16.9899 15.8797C17.457 15.4159 17.9188 14.9474 18.3886 14.4869C18.4631 14.4137 18.5678 14.3728 18.659 14.3164C18.849 15.0454 19.0369 15.7744 19.2288 16.5027C19.3738 17.0531 19.5603 17.5955 19.657 18.1539C19.7328 18.5902 19.5791 19.0131 19.259 19.3353C17.5107 21.0933 15.7578 22.8466 14.0014 24.5966C13.7028 24.8946 13.5478 24.8564 13.4323 24.4482C13.0921 23.2487 12.7672 22.0438 12.4384 20.8409C12.4068 20.7255 12.3894 20.6067 12.3652 20.4899C12.8545 19.9972 13.3437 19.5038 13.833 19.0111H13.8323Z" fill="#153330"/>
<path d="M11.1535 19.4143C10.6757 19.8983 10.2086 20.3936 9.7173 20.8628C9.3918 21.1743 9.05154 21.1716 8.69518 20.9024C8.60659 20.8353 8.52673 20.7568 8.44753 20.6782C7.00261 19.2344 5.55835 17.7905 4.11476 16.3453C4.04362 16.2742 3.97181 16.2037 3.91007 16.1252C3.61813 15.7526 3.61075 15.419 3.9349 15.08C4.40469 14.5887 4.89931 14.1215 5.38386 13.6436C5.48251 13.7093 5.59593 13.7604 5.67848 13.8429C7.44018 15.5989 9.19852 17.3576 10.9548 19.1196C11.0367 19.2022 11.0884 19.3156 11.1535 19.4143Z" fill="#153330"/>
<path d="M11.1546 19.4136C11.0888 19.3149 11.0378 19.2014 10.9559 19.1189C9.20026 17.3575 7.44125 15.5982 5.67955 13.8422C5.597 13.7603 5.48358 13.7086 5.38493 13.6428C5.30037 13.5207 5.23124 13.383 5.12856 13.2783C4.84266 12.9863 4.542 12.7084 4.24805 12.4245C4.66213 12.0251 5.07487 11.6244 5.4903 11.2263C5.58559 11.135 5.68828 11.0511 5.7876 10.9639C5.85404 11.0625 5.90639 11.1746 5.98894 11.2572C8.50364 13.7771 11.021 16.2943 13.5404 18.8094C13.623 18.892 13.7357 18.9443 13.8337 19.0108C13.3444 19.5035 12.8552 19.9969 12.3659 20.4896C12.0619 20.1929 11.7619 19.8922 11.4526 19.6015C11.3687 19.523 11.2552 19.4753 11.1552 19.4136H11.1546Z" fill="#C5F8DC"/>
<path d="M3.74935 18.0241C3.71137 18.0038 3.66798 17.9961 3.62534 18.0019C3.00246 18.0781 2.42297 18.3606 1.97915 18.8044C0.877467 19.9073 0.773438 24 0.773438 24C0.773438 24 4.86713 23.8959 5.96881 22.793C6.41382 22.3494 6.69658 21.7688 6.77152 21.1448C6.85015 20.2562 4.48809 18.4181 3.74935 18.0241Z" fill="#153330"/>
<path d="M18.3987 4.24343C19.7249 4.24343 20.5235 5.09457 20.5617 6.45653C20.5987 7.75339 19.4974 8.66629 18.3611 8.65957C17.1256 8.65286 16.1162 7.63189 16.135 6.37598C16.1511 5.26037 17.1269 4.10716 18.3987 4.24343Z" fill="#153330"/>
<path d="M13.5682 9.74273C14.3581 9.64741 15.1017 10.4945 15.0655 11.2027C15.0205 12.0814 14.4393 12.707 13.5689 12.7036C12.728 12.7009 12.0964 12.0646 12.0938 11.2161C12.0904 10.3656 12.7119 9.74474 13.5682 9.7434V9.74273Z" fill="#C5F8DC"/>
</svg>
