<svg width="28" height="28" viewBox="0 0 28 28" fill="none" xmlns="http://www.w3.org/2000/svg">
<path d="M14 0C15.2492 0 16.4602 0.163613 17.6127 0.470577C17.1045 0.940641 16.6666 1.48522 16.3177 2.08778C15.5675 1.94267 14.7926 1.86667 14 1.86667C12.4905 1.86667 11.0454 2.14231 9.71231 2.646L14.4174 4.99851C14.6246 5.10216 14.7859 5.27912 14.8699 5.49505L16.5032 9.69505C16.6042 9.9547 16.5839 10.2459 16.4479 10.489C16.3119 10.7321 16.0744 10.9018 15.8003 10.9516L11.4333 11.7456V15.8667C11.4333 16.3148 11.1148 16.6997 10.6746 16.7835L6.53333 17.5723V19.1333C6.53333 19.5431 6.26612 19.9049 5.87449 20.0254L3.84883 20.6487C6.01678 23.9519 9.75366 26.1333 14 26.1333C15.0474 26.1333 16.0638 26.0006 17.0333 25.7511V23.8252L16.4663 22.8802C16.2637 22.5424 16.2949 22.1138 16.5443 21.809L17.7867 20.2905L15.5715 19.5521C15.3093 19.4647 15.0993 19.2656 14.9982 19.0084C14.8969 18.7512 14.9149 18.4624 15.0473 18.2197L16.4473 15.6531C16.5664 15.4347 16.7678 15.2728 17.0068 15.2036C17.2457 15.1343 17.5025 15.1633 17.7199 15.2841L19.4783 16.261L23.07 15.2046C23.2752 15.1442 23.4949 15.1562 23.6923 15.2384L25.939 16.1746C26.0667 15.4691 26.1333 14.7423 26.1333 14C26.1333 13.4694 26.0993 12.9469 26.0332 12.4343C26.1819 12.2772 26.3328 12.1124 26.4841 11.9407C26.8275 11.5509 27.2068 11.0877 27.5751 10.5636C27.8526 11.6631 28 12.8143 28 14C28 21.732 21.732 28 14 28C6.26803 28 0 21.732 0 14C0 6.26803 6.26803 0 14 0Z" fill="#F9FAFB"/>
<path fill-rule="evenodd" clip-rule="evenodd" d="M21.1784 13.1342C21.4041 13.3434 21.5932 13.5086 21.7274 13.6226C21.9588 13.8192 22.1865 14 22.5 14C22.8069 14 23.0454 13.8157 23.2726 13.6226C23.4068 13.5086 23.5959 13.3434 23.8216 13.1342C24.2719 12.717 24.8743 12.1185 25.4795 11.395C26.6493 9.99643 28 7.93148 28 5.70688C28 2.53874 25.5219 0 22.5 0C19.4781 0 17 2.53874 17 5.70688C17 7.93148 18.3507 9.99643 19.5205 11.395C20.1257 12.1185 20.7281 12.717 21.1784 13.1342ZM20.2083 5.7931C20.2083 4.46001 21.2344 3.37931 22.5 3.37931C23.7656 3.37931 24.7917 4.46001 24.7917 5.7931C24.7917 7.12619 23.7656 8.2069 22.5 8.2069C21.2344 8.2069 20.2083 7.12619 20.2083 5.7931Z" fill="#F9FAFB"/>
</svg>
