<svg width="17" height="20" viewBox="0 0 17 20" fill="none" xmlns="http://www.w3.org/2000/svg">
<path d="M8.49908 6.19879C8.10348 6.19879 7.7832 6.51764 7.7832 6.91178V11.0778C7.7832 11.4719 8.10348 11.7905 8.49908 11.7905C8.89497 11.7905 9.21525 11.4719 9.21525 11.0778V6.91178C9.21525 6.51764 8.89497 6.19879 8.49908 6.19879Z" fill="#F9FAFB"/>
<path d="M8.5 2.61641C3.81314 2.61641 0 6.41203 0 11.0778C0 15.7444 3.81343 19.5406 8.5 19.5406C13.1866 19.5406 17 15.7441 17 11.0778C17.0003 6.41174 13.1869 2.61641 8.5 2.61641ZM8.5 17.4022C4.99794 17.4022 2.14822 14.5651 2.14822 11.0778C2.14822 7.59127 4.99794 4.75508 8.5 4.75508C12.0021 4.75508 14.8518 7.59127 14.8518 11.0778C14.8518 14.5651 12.0021 17.4022 8.5 17.4022Z" fill="#F9FAFB"/>
<path d="M9.08248 0C8.86197 0 8.12222 0 7.90229 0C7.24966 0 6.7218 0.525508 6.7218 1.17495V1.68815H7.90229H9.08248H10.2627V1.17495C10.263 0.525508 9.73511 0 9.08248 0Z" fill="#F9FAFB"/>
</svg>
