<svg width="21" height="21" viewBox="0 0 21 21" fill="none" xmlns="http://www.w3.org/2000/svg">
<g clip-path="url(#clip0_3101_42258)">
<path d="M5.36208e-07 10.4933C0.00183428 4.70586 4.71455 -0.00122461 10.5061 2.38987e-07C16.294 0.00122509 21.0018 4.71444 21.0006 10.5055C20.9994 16.3033 16.2793 21.0073 10.4719 21C4.69988 20.992 -0.0018332 16.2745 5.36208e-07 10.4933ZM10.5031 13.2504C10.8466 13.2504 11.1901 13.2473 11.5336 13.2516C11.7262 13.2541 11.8111 13.1591 11.8227 12.976C11.8362 12.7556 11.8551 12.5351 11.8704 12.3146C11.9358 11.3788 11.9963 10.443 12.066 9.50787C12.165 8.17769 12.2769 6.84751 12.3698 5.51671C12.3924 5.19213 12.4383 4.86877 12.3784 4.53683C12.1987 3.53675 11.2641 2.84348 10.2225 2.99536C9.24267 3.13806 8.53056 3.95564 8.5923 4.9986C8.67054 6.32266 8.79462 7.64366 8.89303 8.96649C8.99205 10.2973 9.08435 11.6281 9.17543 12.9595C9.18949 13.1689 9.28545 13.2577 9.49572 13.2528C9.8313 13.2449 10.1675 13.251 10.5037 13.2504H10.5031ZM8.93826 16.4699C8.93888 17.3346 9.6357 18.05 10.4786 18.0506C11.357 18.0512 12.0593 17.3432 12.0581 16.4577C12.0568 15.5782 11.368 14.8997 10.4774 14.9021C9.6088 14.9045 8.93704 15.5886 8.93765 16.4699H8.93826Z" fill="#FFB02E"/>
</g>
<defs>
<clipPath id="clip0_3101_42258">
<rect width="21" height="21" fill="white"/>
</clipPath>
</defs>
</svg>
