<svg width="34" height="17" viewBox="0 0 34 17" fill="none" xmlns="http://www.w3.org/2000/svg">
<path d="M16.6465 8.15039C18.5713 8.15039 20.1973 6.44531 20.1973 4.23926C20.1973 2.08594 18.5625 0.433594 16.6465 0.433594C14.7305 0.433594 13.0957 2.1123 13.1045 4.25684C13.1045 6.44531 14.7217 8.15039 16.6465 8.15039ZM6.46875 8.35254C8.14746 8.35254 9.5625 6.8584 9.5625 4.94238C9.5625 3.06152 8.13867 1.62891 6.46875 1.62891C4.80762 1.62891 3.375 3.08789 3.38379 4.95996C3.38379 6.8584 4.79883 8.35254 6.46875 8.35254ZM26.7979 8.35254C28.4678 8.35254 29.8828 6.8584 29.8828 4.95996C29.8916 3.08789 28.459 1.62891 26.7979 1.62891C25.1367 1.62891 23.7041 3.06152 23.7041 4.94238C23.7041 6.8584 25.1279 8.35254 26.7979 8.35254ZM1.62598 16.333H8.21777C7.27734 14.9883 8.29688 12.334 10.2832 10.7695C9.31641 10.1455 8.05078 9.68848 6.46875 9.68848C2.54004 9.68848 0 12.5801 0 14.9619C0 15.832 0.439453 16.333 1.62598 16.333ZM31.6406 16.333C32.8271 16.333 33.2666 15.832 33.2666 14.9619C33.2666 12.5801 30.7266 9.68848 26.7979 9.68848C25.2158 9.68848 23.959 10.1455 22.9922 10.7695C24.9785 12.334 25.998 14.9883 25.0576 16.333H31.6406ZM11.1621 16.3242H22.1221C23.5723 16.3242 24.0732 15.8848 24.0732 15.0762C24.0732 12.8174 21.1992 9.70605 16.6465 9.70605C12.085 9.70605 9.21973 12.8174 9.21973 15.0762C9.21973 15.8848 9.7207 16.3242 11.1621 16.3242Z" fill="#FFCC40"/>
</svg>
