<svg width="52" height="51" viewBox="0 0 52 51" fill="none" xmlns="http://www.w3.org/2000/svg">
<path d="M20.1675 30.7385L33.6357 28.4983C33.442 27.5721 32.689 24.7504 30.1288 21.7994L20.1675 30.7385Z" fill="#0E1626"/>
<path d="M30.1718 20.8516L33.8293 17.5775L25.2019 17.1036C27.0737 18.0299 28.7518 19.3223 30.1718 20.8516Z" fill="#0E1626"/>
<path d="M50.4816 21.3039L44.9524 14.7127C43.1451 16.242 40.4128 16.0051 38.9067 14.1742C37.4007 12.3432 37.6159 9.62921 39.4446 8.12141L33.9153 1.53015C32.3878 -0.279215 29.677 -0.516156 27.8697 0.991646L1.53579 23.1133C-0.271445 24.6426 -0.486592 27.3566 1.01943 29.166L6.5487 35.7573C8.35593 34.2279 11.0668 34.4864 12.5943 36.2958C14.1219 38.1051 13.8852 40.8192 12.0565 42.3485L17.5857 48.9398C19.1133 50.7491 21.8241 50.9861 23.6313 49.4783L49.9653 27.3567C51.7725 25.8273 52.0092 23.1133 50.5031 21.3039H50.4816ZM34.3241 28.7783C34.3241 28.9291 34.195 29.0583 34.0444 29.0798L19.2208 31.5354L19.0272 31.7077C18.1881 32.4616 17.6718 32.914 17.6287 33.7756C17.5857 34.6372 18.2096 35.1326 19.522 35.1972C21.2217 35.2834 23.4377 34.0556 25.5677 32.8494C28.257 31.3416 30.7957 29.9199 32.1081 31.3846C33.8508 33.3448 30.6666 36.2527 30.516 36.3604C30.3869 36.4896 30.1718 36.4681 30.0427 36.3388C29.9136 36.2096 29.9351 35.9942 30.0642 35.865C30.0857 35.8434 32.9042 33.2802 31.5918 31.8154C30.6451 30.7384 28.3215 32.0308 25.8689 33.4094C23.6529 34.6587 21.3508 35.9511 19.4575 35.8434C17.0909 35.7142 16.9188 34.3141 16.9403 33.7325C17.0048 32.5909 17.6933 31.9877 18.5754 31.2123L18.769 31.04L22.8138 16.5651C22.8568 16.4143 22.9859 16.3282 23.158 16.3282L34.6253 16.9528C34.7974 16.9528 34.948 17.1251 34.9265 17.2974L34.3026 28.7783H34.3241Z" fill="#0E1626"/>
</svg>
