<svg width="53" height="52" viewBox="0 0 53 52" fill="none" xmlns="http://www.w3.org/2000/svg">
<path d="M26.6436 24.9605H25.8251C25.1836 24.9605 24.697 24.3847 24.7633 23.7646C24.8076 23.1888 25.3385 22.7901 25.8915 22.7901H26.8427C27.1966 22.7901 27.5063 23.0337 27.5727 23.3881C27.5948 23.4767 27.6833 23.5431 27.7718 23.5431H28.8557C28.9663 23.5431 29.0769 23.4324 29.0548 23.3216C28.9442 22.2364 28.0594 21.3727 26.9533 21.3063V20.2211C26.9533 20.1103 26.8648 20.0217 26.7542 20.0217H25.6703C25.5597 20.0217 25.4712 20.1103 25.4712 20.2211V21.3063C24.1218 21.4834 23.1043 22.7015 23.237 24.1189C23.3697 25.492 24.5864 26.4665 25.9357 26.4665H26.6436C27.2851 26.4665 27.7718 27.0202 27.7054 27.6403C27.6612 28.2161 27.1303 28.6148 26.5773 28.6148H25.6261C25.2721 28.6148 24.9624 28.3712 24.8961 28.0168C24.8739 27.9282 24.7855 27.8618 24.697 27.8618H23.613C23.5024 27.8618 23.3918 27.9725 23.414 28.0832C23.5246 29.1685 24.4094 30.0322 25.5154 30.0986V31.1838C25.5154 31.2946 25.6039 31.3832 25.7145 31.3832H26.7985C26.9091 31.3832 26.9975 31.2946 26.9975 31.1838V30.0765C28.1478 29.8772 29.099 28.9913 29.2096 27.7953C29.3645 26.245 28.17 24.9605 26.6436 24.9605Z" fill="#0E1626"/>
<path d="M51.8615 21.9042L46.1764 15.1273C44.3183 16.6997 41.5089 16.4561 39.9604 14.5736C38.412 12.6911 38.6332 9.90055 40.5135 8.35026L34.8284 1.57327C33.2578 -0.287084 30.4705 -0.530701 28.6124 1.01959L1.55848 23.7646C-0.299678 25.337 -0.520888 28.1276 1.02758 29.9879L6.71266 36.7649C8.57082 35.1925 11.3581 35.4582 12.9286 37.3186C14.4992 39.1789 14.2559 41.9695 12.3756 43.5419L18.0607 50.3189C19.6313 52.1792 22.4185 52.4229 24.2767 50.8726L51.3527 28.1276C53.2109 26.5551 53.4542 23.7646 51.9057 21.9042H51.8615ZM36.3547 27.5517L35.4699 28.5705C35.0717 29.0356 34.8284 29.6114 34.7841 30.2094L34.6735 31.5604C34.5629 32.9556 33.4569 34.063 32.0633 34.1737L30.7139 34.2844C30.0945 34.3287 29.5415 34.5723 29.0769 34.971L28.0594 35.8569C26.9976 36.7649 25.427 36.7649 24.3652 35.8569L23.3476 34.971C22.8831 34.5723 22.3079 34.3287 21.7107 34.2844L20.3613 34.1737C18.9677 34.063 17.8616 32.9556 17.751 31.5604L17.6404 30.2094C17.5962 29.5893 17.3528 29.0356 16.9547 28.5705L16.0698 27.5517C15.1629 26.4887 15.1629 24.9162 16.0698 23.8532L16.9547 22.8344C17.3528 22.3693 17.5962 21.7935 17.6404 21.1955L17.751 19.8446C17.8616 18.4493 18.9677 17.342 20.3613 17.2312L21.7107 17.1205C22.33 17.0762 22.8831 16.8326 23.3476 16.4339L24.3652 15.548C25.427 14.64 26.9976 14.64 28.0594 15.548L29.0769 16.4339C29.5415 16.8326 30.1166 17.0762 30.7139 17.1205L32.0633 17.2312C33.4569 17.342 34.5629 18.4493 34.6735 19.8446L34.7841 21.1955C34.8284 21.8157 35.0717 22.3693 35.4699 22.8344L36.3547 23.8532C37.2617 24.8941 37.2617 26.4887 36.3547 27.5517Z" fill="#0E1626"/>
</svg>
