<svg width="27" height="30" viewBox="0 0 27 30" fill="none" xmlns="http://www.w3.org/2000/svg">
<g clip-path="url(#clip0_4379_251)">
<path d="M23.609 10.9891L21.3725 7.31896C20.8564 6.51611 19.9962 6 19.0213 6H6.97868C6.00379 6 5.1436 6.51611 4.62749 7.31896L2.391 10.9891C1.81754 11.964 1.87488 13.1682 2.56303 14.0858L10.8209 25.0389C11.337 25.727 12.1398 26.1284 13 26.1284C13.8602 26.1284 14.663 25.727 15.1791 25.0389L23.437 14.1431C24.1251 13.1682 24.1825 11.964 23.609 10.9891ZM11.9678 8.23649H14.0322L15.2938 11.3905H10.7635L11.9678 8.23649ZM6.57725 8.46588C6.69194 8.29384 6.80664 8.23649 6.97868 8.23649H9.55924L8.29763 11.3905H4.79953L6.57725 8.46588ZM5.02891 13.627H8.24028L10.5341 20.8526L5.02891 13.627ZM13 21.1967L10.5915 13.627H15.3512L13 21.1967ZM15.4659 20.8526L17.7597 13.627H20.9711L15.4659 20.8526ZM17.7024 11.3905L16.4408 8.23649H19.0213C19.1934 8.23649 19.3654 8.35118 19.4227 8.46588L21.2005 11.3905H17.7024Z" fill="#0E1626"/>
</g>
<defs>
<clipPath id="clip0_4379_251">
<rect width="27" height="30" fill="white"/>
</clipPath>
</defs>
</svg>
