<svg width="25" height="27" viewBox="0 0 25 27" fill="none" xmlns="http://www.w3.org/2000/svg">
<g clip-path="url(#clip0_96_11)">
<path d="M2.3368 21.9539C2.3368 22.9315 2.72963 23.8789 3.42464 24.5743C4.11964 25.2697 5.05639 25.6627 6.04349 25.6627H11.3617C11.4222 25.6627 11.4826 25.6426 11.5229 25.5922C11.5632 25.5519 11.5934 25.4914 11.5934 25.4309V15.7781C11.5934 15.7176 11.5733 15.6571 11.5229 15.6168C11.4826 15.5765 11.4222 15.5463 11.3617 15.5463H2.80014C2.67927 15.5463 2.5584 15.5967 2.47782 15.6773C2.38717 15.768 2.34688 15.8789 2.34688 15.9998V21.9438L2.3368 21.9539Z" fill="#A19AFF"/>
<path d="M11.5733 13.6887V7.44009H13.4267V13.6887C13.4267 13.7492 13.4468 13.8096 13.4972 13.8499C13.5375 13.8903 13.5979 13.9205 13.6583 13.9205H20.7566C21.0689 13.9205 21.3811 13.8701 21.6833 13.7592C22.2272 13.5677 22.6906 13.215 23.023 12.7413C23.3554 12.2676 23.5367 11.7133 23.5367 11.1389V10.2116C23.5367 9.47592 23.2446 8.77044 22.7208 8.24636C22.197 7.72228 21.4919 7.43001 20.7566 7.43001H19.4097C19.4097 7.43001 19.3695 7.43001 19.3493 7.40985C19.3292 7.39978 19.3191 7.3897 19.309 7.36954C19.309 7.34938 19.2889 7.32923 19.299 7.30907C19.299 7.28891 19.299 7.26876 19.3191 7.2486C19.8529 6.34154 20.0242 5.27324 19.8026 4.24524C19.581 3.21724 18.9766 2.31019 18.1205 1.70549C17.2542 1.10078 16.1966 0.848824 15.1591 1C14.1217 1.15118 13.1749 1.67525 12.5101 2.4916C11.8453 1.67525 10.8985 1.1411 9.86098 1C8.82351 0.858903 7.76589 1.11086 6.89966 1.70549C6.03342 2.31019 5.43914 3.21724 5.21755 4.24524C4.99595 5.27324 5.16718 6.35162 5.70103 7.2486C5.7111 7.26876 5.72117 7.28891 5.72117 7.30907C5.72117 7.32923 5.72117 7.34938 5.7111 7.36954C5.7111 7.3897 5.69095 7.39978 5.67081 7.40985C5.65066 7.41993 5.63052 7.43001 5.61037 7.43001H4.26348C3.52818 7.43001 2.82311 7.72228 2.29934 8.24636C1.77556 8.77044 1.48346 9.47592 1.48346 10.2116V11.1389C1.48346 11.7133 1.66477 12.2777 1.99716 12.7413C2.32955 13.215 2.79289 13.5677 3.3368 13.7592C3.63898 13.86 3.95123 13.9205 4.26348 13.9205H11.3618C11.4222 13.9205 11.4827 13.9003 11.523 13.8499C11.5633 13.8096 11.5935 13.7492 11.5935 13.6887H11.5733ZM13.4267 5.12206C13.4267 4.66853 13.5576 4.215 13.8195 3.83203C14.0713 3.44905 14.4339 3.15677 14.857 2.97536C15.28 2.80403 15.7434 2.75364 16.1966 2.84434C16.6499 2.93505 17.0528 3.15677 17.3852 3.47928C17.7075 3.80179 17.9291 4.215 18.0197 4.66853C18.1104 5.12206 18.06 5.58567 17.8888 6.00896C17.7176 6.43225 17.4154 6.79507 17.0326 7.04703C16.6499 7.29899 16.2067 7.44009 15.7434 7.44009H13.4267V5.12206ZM9.09547 2.81411C9.40771 2.79395 9.73004 2.83427 10.0322 2.93505C10.3344 3.03583 10.6064 3.20717 10.838 3.42889C11.0697 3.65061 11.2611 3.91265 11.382 4.19485C11.5129 4.48712 11.5733 4.79955 11.5733 5.12206V7.44009H9.25663C8.66235 7.44009 8.08821 7.20829 7.6551 6.78499C7.22198 6.37178 6.97017 5.79731 6.95002 5.20269C6.92988 4.60806 7.1414 4.02352 7.53423 3.58007C7.93713 3.13662 8.49112 2.8645 9.0854 2.81411H9.09547Z" fill="#A19AFF"/>
<path d="M13.6785 25.6527H18.9968C19.9738 25.6527 20.9207 25.2596 21.6157 24.5642C22.3107 23.8688 22.7035 22.9315 22.7035 21.9438V16.0097C22.7035 15.8887 22.6531 15.7678 22.5726 15.6872C22.4819 15.5965 22.3711 15.5561 22.2502 15.5561H13.6886C13.6282 15.5561 13.5677 15.5763 13.5274 15.6267C13.4871 15.667 13.4569 15.7275 13.4569 15.788V25.4309C13.4569 25.4914 13.4771 25.5519 13.5274 25.5922C13.5778 25.6325 13.6282 25.6627 13.6886 25.6627L13.6785 25.6527Z" fill="#A19AFF"/>
</g>
<defs>
<clipPath id="clip0_96_11">
<rect width="25" height="27" fill="white"/>
</clipPath>
</defs>
</svg>
