<svg width="27" height="27" viewBox="0 0 27 27" fill="none" xmlns="http://www.w3.org/2000/svg">
<path d="M4.21814 21.9394C4.21814 22.8347 4.57377 23.6932 5.2068 24.3263C5.83982 24.9593 6.69839 25.3149 7.59362 25.3149H12.4459C12.5018 25.3149 12.5555 25.2927 12.5951 25.2531C12.6346 25.2136 12.6568 25.1599 12.6568 25.104V15.3994C12.6568 15.3435 12.6346 15.2898 12.5951 15.2503C12.5555 15.2107 12.5018 15.1885 12.4459 15.1885H4.64008C4.52817 15.1885 4.42085 15.2329 4.34172 15.3121C4.26259 15.3912 4.21814 15.4985 4.21814 15.6104V21.9394Z" fill="#0C0A29"/>
<path d="M12.6565 13.2895V7.59414H14.344V13.2895C14.344 13.3454 14.3662 13.3991 14.4058 13.4386C14.4453 13.4782 14.499 13.5004 14.5549 13.5004H21.9377C22.2252 13.5004 22.5105 13.4513 22.7815 13.3554C23.2746 13.1803 23.7014 12.857 24.0036 12.4298C24.3057 12.0026 24.4683 11.4924 24.469 10.9691V10.1254C24.469 9.45406 24.2023 8.81023 23.7276 8.33553C23.2529 7.86083 22.6091 7.59414 21.9377 7.59414H19.7999C19.7815 7.59385 19.7635 7.58876 19.7478 7.57938C19.732 7.57001 19.7189 7.55667 19.7098 7.54068C19.7008 7.5247 19.696 7.50663 19.6961 7.48825C19.6962 7.46988 19.7011 7.45185 19.7102 7.43594C20.1985 6.61164 20.3571 5.63324 20.1542 4.69693C19.9513 3.76062 19.4019 2.93561 18.6163 2.38734C17.8307 1.83907 16.8668 1.60806 15.918 1.74065C14.9691 1.87323 14.1055 2.3596 13.5002 3.10223C12.895 2.3596 12.0314 1.87323 11.0825 1.74065C10.1337 1.60806 9.16984 1.83907 8.38419 2.38734C7.59855 2.93561 7.04921 3.76062 6.84632 4.69693C6.64344 5.63324 6.80201 6.61164 7.29025 7.43594C7.29943 7.45185 7.30431 7.46988 7.30438 7.48825C7.30446 7.50663 7.29973 7.5247 7.29067 7.54068C7.28162 7.55667 7.26854 7.57001 7.25274 7.57938C7.23694 7.58876 7.21897 7.59385 7.2006 7.59414H5.06274C4.39142 7.59414 3.74758 7.86083 3.27288 8.33553C2.79818 8.81023 2.53149 9.45406 2.53149 10.1254V10.9691C2.53224 11.4924 2.69481 12.0026 2.99693 12.4298C3.29904 12.857 3.72591 13.1803 4.21899 13.3554C4.48995 13.4513 4.77529 13.5004 5.06274 13.5004H12.4456C12.5015 13.5004 12.5552 13.4782 12.5947 13.4386C12.6343 13.3991 12.6565 13.3454 12.6565 13.2895ZM14.344 5.48477C14.344 5.06757 14.4677 4.65974 14.6995 4.31286C14.9313 3.96597 15.2607 3.69561 15.6461 3.53596C16.0316 3.3763 16.4557 3.33453 16.8649 3.41592C17.2741 3.49731 17.6499 3.69821 17.9449 3.99321C18.2399 4.28821 18.4408 4.66407 18.5222 5.07325C18.6036 5.48243 18.5618 5.90655 18.4022 6.29199C18.2425 6.67743 17.9722 7.00687 17.6253 7.23865C17.2784 7.47043 16.8706 7.59414 16.4534 7.59414H14.344V5.48477ZM10.3963 3.38066C10.6853 3.35995 10.9754 3.39899 11.2487 3.49534C11.5219 3.5917 11.7724 3.74331 11.9844 3.94073C12.1965 4.13814 12.3656 4.37712 12.4812 4.64277C12.5968 4.90842 12.6565 5.19504 12.6565 5.48477V7.59414H10.5471C10.0017 7.59274 9.47799 7.38012 9.08596 7.00089C8.69392 6.62167 8.46402 6.10533 8.44451 5.56024C8.425 5.01515 8.61738 4.48369 8.9813 4.0774C9.34521 3.67112 9.85236 3.42159 10.3963 3.38119V3.38066Z" fill="#0C0A29"/>
<path d="M14.5549 25.3149H19.4072C20.3024 25.3149 21.161 24.9593 21.794 24.3263C22.427 23.6932 22.7826 22.8347 22.7826 21.9394V15.6104C22.7826 15.4985 22.7382 15.3912 22.6591 15.3121C22.5799 15.2329 22.4726 15.1885 22.3607 15.1885H14.5549C14.4989 15.1885 14.4453 15.2107 14.4057 15.2503C14.3662 15.2898 14.3439 15.3435 14.3439 15.3994V25.104C14.3439 25.1599 14.3662 25.2136 14.4057 25.2531C14.4453 25.2927 14.4989 25.3149 14.5549 25.3149Z" fill="#0C0A29"/>
</svg>
