<svg width="15" height="13" viewBox="0 0 15 13" fill="none" xmlns="http://www.w3.org/2000/svg">
<g clip-path="url(#clip0_3590_77477)">
<path opacity="0.61" d="M0 4.34135H4.57546L3.13482 0L0 4.34135Z" fill="#F9FAFB"/>
<path d="M7.30131 12.4444L4.57546 4.34412L0 4.34134L7.30131 12.4444Z" fill="#F9FAFB"/>
<path opacity="0.61" d="M10.1077 4.34134L4.57546 4.34412L7.30131 12.4444L10.1077 4.34134Z" fill="#F9FAFB"/>
<path d="M14.7368 4.34134H10.1077L7.30131 12.4444L14.7368 4.34134Z" fill="#F9FAFB"/>
<path opacity="0.69" d="M11.5492 0.041748L10.1077 4.34136H14.7368L11.5492 0.041748Z" fill="#F9FAFB"/>
<path opacity="0.61" d="M7.30131 0L10.1077 4.34135L11.5492 0.0417348L7.30131 0Z" fill="#F9FAFB"/>
<path d="M4.57546 4.34413L7.30131 0L10.1077 4.34135L4.57546 4.34413Z" fill="#F9FAFB"/>
<path opacity="0.69" d="M3.13482 0H7.30131L4.57546 4.34413L3.13482 0Z" fill="#F9FAFB"/>
</g>
<defs>
<clipPath id="clip0_3590_77477">
<rect width="14.7368" height="12.4444" fill="white"/>
</clipPath>
</defs>
</svg>
