<svg width="13" height="21" viewBox="0 0 13 21" fill="none" xmlns="http://www.w3.org/2000/svg">
<g clip-path="url(#clip0_3590_77500)">
<path d="M1.05292 19.1071C1.0535 18.2385 1.04662 17.3707 1.05865 16.5021C1.06324 16.1583 1.15203 15.8244 1.23052 15.4926C1.35254 14.9778 1.53529 14.4943 1.77877 14.0421C2.01594 13.6012 2.28405 13.1882 2.62893 12.8496C2.6507 12.849 2.66617 12.8383 2.66903 12.8104C3.17718 12.3189 3.73746 11.9379 4.37394 11.7144C4.6535 11.6166 4.93823 11.5462 5.2241 11.4836C5.26878 11.4737 5.28654 11.4557 5.28654 11.4025C5.2854 10.9084 5.28482 10.4142 5.28711 9.92011C5.28711 9.825 5.22753 9.82101 5.18056 9.82035C5.03619 9.81902 4.89755 9.77113 4.76407 9.7299C4.5796 9.67271 4.3917 9.62482 4.21181 9.54701C3.75178 9.34683 3.32441 9.08015 2.92855 8.73964C2.40493 8.28874 2.00792 7.71746 1.68367 7.06704C1.47228 6.64274 1.33135 6.18918 1.21505 5.72165C1.09532 5.24215 1.04433 4.75334 1.04949 4.25322C1.05693 3.57354 1.05178 2.89386 1.05235 2.21484C4.69074 2.21484 8.3297 2.21484 11.9681 2.21484C11.9687 3.02953 11.9755 3.84355 11.9669 4.65824C11.9641 4.96881 11.889 5.27141 11.8283 5.57401C11.7028 6.20248 11.4846 6.78573 11.1924 7.33373C10.9547 7.77998 10.6642 8.17568 10.3216 8.5122C9.64161 9.17991 8.86191 9.61485 7.98024 9.79042C7.91207 9.80372 7.85134 9.85028 7.77802 9.8403C7.73161 9.83431 7.71901 9.87821 7.71901 9.92609C7.71901 10.4202 7.71958 10.9144 7.71901 11.4085C7.71901 11.4637 7.74078 11.477 7.78432 11.4863C8.11373 11.5548 8.44027 11.6399 8.75822 11.7636C9.36834 12.001 9.91144 12.3701 10.3909 12.8663C10.7988 13.2879 11.1191 13.7907 11.3746 14.3473C11.5837 14.8036 11.7349 15.2844 11.8403 15.7898C11.9394 16.2667 11.9778 16.7435 11.9727 17.231C11.9658 17.8561 11.9698 18.4813 11.9692 19.1071C11.669 19.1364 11.3683 19.1284 11.0675 19.1277C10.7232 19.1277 10.3795 19.1237 10.0352 19.1217C10.0283 19.1091 10.022 19.0965 10.0151 19.0838C10.1154 19.0486 10.2151 19.0213 10.2981 18.9335C10.4385 18.7845 10.4929 18.5904 10.5399 18.3888C10.5468 18.3875 10.5536 18.3862 10.5605 18.3855C10.5737 18.3862 10.5874 18.3855 10.6 18.3888C10.9678 18.4919 11.3133 18.2193 11.3522 17.7836C11.3729 17.5542 11.3494 17.3234 11.3345 17.0933C11.3127 16.7608 11.2537 16.4376 11.1632 16.123C10.9478 15.3768 10.6058 14.7224 10.1137 14.1751C9.8868 13.923 9.64104 13.7029 9.38037 13.5014C9.11456 13.2959 8.82181 13.1496 8.54224 12.9733C8.4059 12.8876 8.26096 12.8144 8.10685 12.7838C7.81812 12.7266 7.54199 12.9321 7.44689 13.2633C7.35465 13.5859 7.47095 13.9377 7.73562 14.0886C8.06045 14.2742 8.39387 14.4385 8.69921 14.6679C9.00857 14.9 9.29043 15.17 9.51901 15.5045C9.80087 15.9175 9.99852 16.3811 10.0741 16.9064C10.1039 17.1139 10.1435 17.3201 10.1314 17.5323C9.95383 17.3547 9.80775 17.1392 9.62156 16.9723C9.35288 16.7309 9.08362 16.4921 8.77598 16.3192L8.75879 16.3039C8.51245 16.1436 8.2495 16.0319 7.98254 15.9308C7.76427 15.8484 7.52767 15.8191 7.34377 15.6342C7.29622 15.587 7.2544 15.5398 7.21945 15.4766C7.12722 15.309 7.1129 15.1254 7.1129 14.9352C7.11347 13.2686 7.1129 11.602 7.1129 9.9354C7.1129 9.89683 7.11748 9.85826 7.11462 9.81968C7.08941 9.47519 7.27216 9.19188 7.56032 9.11872C8.11888 8.9764 8.64078 8.72967 9.1283 8.38052C9.31793 8.24485 9.50011 8.10253 9.65479 7.91498V7.91631C9.66968 7.91565 9.68916 7.9223 9.69202 7.89304C9.90227 7.69419 10.1394 7.54056 10.3434 7.32641C10.6699 6.98458 10.9077 6.57491 11.087 6.12068C11.2961 5.5893 11.3838 5.02202 11.3929 4.43744C11.3981 4.12221 11.3786 3.80897 11.35 3.49639C11.3276 3.24767 11.1208 2.98098 10.918 2.93376C10.5055 2.83733 10.1973 3.10135 10.1349 3.60546C10.0919 3.60679 10.0484 3.60879 10.0054 3.60879C7.47038 3.60879 4.93594 3.60879 2.40092 3.60879C2.27317 3.60879 2.14943 3.62674 2.03657 3.69923C1.82575 3.8349 1.63784 4.13285 1.71231 4.54717C1.80226 5.04995 1.91111 5.54608 2.10245 6.01294C2.21989 6.30024 2.3591 6.57225 2.51149 6.83561C2.83861 7.4009 3.24363 7.88173 3.726 8.2628C4.005 8.48293 4.29488 8.69243 4.62085 8.8261C4.89755 8.93916 5.17139 9.05421 5.45955 9.12338C5.65777 9.17126 5.80958 9.30427 5.85828 9.53903C5.89036 9.69266 5.89781 9.85693 5.89781 10.0159C5.90067 11.6645 5.9001 13.3139 5.89781 14.9625C5.89781 15.0862 5.89437 15.2146 5.84224 15.3296C5.79584 15.3343 5.82219 15.3649 5.82677 15.3881C5.77578 15.5384 5.67037 15.6269 5.54778 15.6715C5.41315 15.7207 5.27222 15.7586 5.13816 15.8065C4.80761 15.9228 4.47935 16.0525 4.17572 16.2554C3.79532 16.5101 3.44586 16.8107 3.12505 17.1552C2.91308 17.3826 2.7458 17.6573 2.5682 17.9206C2.42727 18.1295 2.4141 18.5358 2.55503 18.7407C2.63695 18.8604 2.73319 18.9754 2.84892 19.0585C2.84892 19.0792 2.84892 19.0998 2.84892 19.1211C2.82887 19.1231 2.80939 19.1271 2.78934 19.1271C2.30124 19.1271 1.81372 19.1304 1.32562 19.1244C1.2351 19.1231 1.14229 19.1404 1.05292 19.1071Z" fill="#CECAFF"/>
<path d="M11.967 2.21539C8.32866 2.21539 4.6897 2.21539 1.05131 2.21539C0.724763 2.20807 0.448633 1.91811 0.439467 1.53437C0.430873 1.14599 0.651434 0.853364 1.0049 0.80282C1.02782 0.799495 1.05131 0.802155 1.0748 0.802155C4.69657 0.802155 8.31835 0.802155 11.9395 0.802155C12.2208 0.802155 12.4202 0.949796 12.5325 1.25173C12.6763 1.63679 12.4328 2.13824 12.0742 2.19344C12.0381 2.19876 12.0026 2.20807 11.967 2.21539Z" fill="#F1F0FF"/>
<path d="M10.034 19.1204C10.3783 19.1224 10.7221 19.1257 11.0664 19.1264C11.3671 19.1264 11.6679 19.1344 11.9681 19.1058C12.0225 19.1503 12.089 19.1284 12.1491 19.1523C12.4436 19.2694 12.6143 19.5886 12.5668 19.9484C12.5249 20.2669 12.2585 20.5197 11.9624 20.5197C8.31825 20.5197 4.67413 20.5197 1.03059 20.5197C0.74128 20.5197 0.474316 20.243 0.452546 19.9238C0.421037 19.4589 0.615818 19.1842 1.01798 19.1264C1.03001 19.1244 1.0409 19.1131 1.05236 19.1064C1.14173 19.1397 1.23453 19.1224 1.32505 19.1237C1.81257 19.1297 2.30067 19.1264 2.78877 19.1264C2.80882 19.1264 2.8283 19.1224 2.84835 19.1204C2.94058 19.1257 3.03339 19.1417 3.12505 19.1111C3.14167 19.1091 3.15828 19.1064 3.17432 19.1064C5.36159 19.1064 7.54829 19.1064 9.73557 19.1044C9.78999 19.1044 9.84327 19.149 9.89827 19.1111C9.94238 19.1383 9.98821 19.1264 10.034 19.1197V19.1204Z" fill="#F1F0FF"/>
<path d="M2.66904 12.8111C2.66617 12.8384 2.65128 12.849 2.62894 12.8503C2.63123 12.8217 2.63982 12.8025 2.66904 12.8111Z" fill="#86CCFF"/>
<path d="M9.89884 19.1118C9.84384 19.149 9.79056 19.1051 9.73614 19.1051C7.54887 19.1071 5.36217 19.1064 3.17489 19.1071C3.15828 19.1071 3.14167 19.1104 3.12563 19.1118C3.0311 19.1104 2.93886 19.0958 2.84892 19.0586C2.7332 18.9748 2.63695 18.8597 2.55503 18.7407C2.4141 18.5358 2.42728 18.1288 2.56821 17.9207C2.7458 17.658 2.91308 17.3833 3.12505 17.1552C3.44644 16.8107 3.79533 16.5094 4.17572 16.2554C4.47935 16.0519 4.80761 15.9229 5.13817 15.8065C5.27222 15.7592 5.41315 15.7213 5.54778 15.6715C5.67038 15.6262 5.77579 15.5385 5.82678 15.3882C5.84282 15.3722 5.84568 15.3522 5.84282 15.3296C5.89438 15.2139 5.89839 15.0856 5.89839 14.9625C5.90125 13.3139 5.90125 11.6645 5.89839 10.0159C5.89839 9.85627 5.89094 9.69267 5.85886 9.53904C5.81016 9.30361 5.65835 9.1706 5.46013 9.12338C5.17197 9.05422 4.89813 8.93917 4.62143 8.82611C4.29546 8.69243 4.00558 8.48361 3.72658 8.26281C3.24421 7.88174 2.83918 7.40024 2.51207 6.83561C2.35968 6.57225 2.22104 6.30025 2.10303 6.01295C1.91168 5.54608 1.80283 5.04996 1.71289 4.54718C1.63899 4.13352 1.82632 3.83491 2.03714 3.69924C2.15 3.62675 2.27375 3.60879 2.4015 3.60879C4.93651 3.60879 7.47095 3.60879 10.006 3.60879C10.0489 3.60879 10.0925 3.6068 10.1354 3.60547C10.1538 3.7039 10.1423 3.80631 10.1589 3.90275C10.1824 4.04108 10.1899 4.1814 10.1767 4.31574C10.1635 4.44742 10.2449 4.58575 10.1555 4.70945C10.1521 4.71411 10.1555 4.72475 10.1543 4.73206C10.112 4.97148 10.0919 5.21289 10.0071 5.445C9.90972 5.71168 9.78885 5.95176 9.62443 6.16657C9.38725 6.47582 9.08763 6.67999 8.76052 6.81766C8.54569 6.90811 8.41048 7.06506 8.34575 7.30181C8.27528 7.55985 8.35549 7.79262 8.50501 7.98083C8.69807 8.2249 8.92551 8.2515 9.21997 8.11118C9.36376 8.04268 9.50355 7.95888 9.65536 7.91299C9.50068 8.09987 9.31851 8.24286 9.12888 8.37853C8.64136 8.72768 8.11889 8.97508 7.5609 9.11673C7.27331 9.18989 7.08999 9.4732 7.11519 9.8177C7.11806 9.8556 7.11347 9.89484 7.11347 9.93342C7.11347 11.6 7.11347 13.2666 7.11347 14.9333C7.11347 15.1235 7.1278 15.3064 7.22003 15.4746C7.25498 15.5378 7.2968 15.585 7.34435 15.6322C7.52824 15.8171 7.76484 15.8464 7.98311 15.9288C8.25065 16.0299 8.5136 16.1417 8.75937 16.3019C8.75937 16.3152 8.76224 16.3252 8.77656 16.3172C9.0842 16.4901 9.35345 16.7289 9.62214 16.9703C9.80832 17.1372 9.95441 17.3534 10.132 17.5303C10.1337 17.6134 10.1435 17.6959 10.1538 17.7783C10.1899 18.057 10.2981 18.2678 10.537 18.3669C10.5365 18.3742 10.537 18.3809 10.5399 18.3875C10.4929 18.589 10.4385 18.7832 10.2981 18.9322C10.2151 19.0207 10.1148 19.0473 10.0151 19.0825C9.98133 19.1171 9.93894 19.1051 9.89941 19.1111L9.89884 19.1118Z" fill="#FFB02E"/>
<path d="M10.5365 18.3669C10.2976 18.2685 10.1893 18.0576 10.1532 17.7783C10.1423 17.6959 10.1331 17.6134 10.1314 17.5303C10.1435 17.3181 10.1039 17.1119 10.0741 16.9044C9.99909 16.3784 9.80145 15.9155 9.51901 15.5025C9.29043 15.168 9.00857 14.898 8.69922 14.6659C8.39387 14.4364 8.05988 14.2722 7.73563 14.0866C7.47153 13.9357 7.35466 13.5839 7.44689 13.2613C7.54142 12.9301 7.81812 12.7246 8.10685 12.7818C8.26096 12.8124 8.4059 12.8849 8.54225 12.9713C8.82181 13.1476 9.11456 13.2939 9.38038 13.4994C9.64104 13.7009 9.88681 13.921 10.1137 14.1731C10.6058 14.7211 10.9478 15.3748 11.1632 16.121C11.2543 16.4356 11.3133 16.7588 11.3345 17.0913C11.3494 17.3214 11.3729 17.5522 11.3522 17.7816C11.3133 18.2173 10.9678 18.4899 10.6 18.3868C10.5874 18.3835 10.5737 18.3848 10.5605 18.3835C10.5525 18.3775 10.5451 18.3722 10.537 18.3662L10.5365 18.3669Z" fill="white"/>
<path d="M9.65479 7.91369C9.50298 7.95958 9.36319 8.04337 9.2194 8.11187C8.92436 8.2522 8.69693 8.2256 8.50444 7.98152C8.35549 7.79265 8.27471 7.55988 8.34518 7.30251C8.40991 7.06575 8.54511 6.90946 8.75995 6.81835C9.08706 6.68002 9.38668 6.47585 9.62386 6.16727C9.78827 5.95246 9.90915 5.71171 10.0065 5.44569C10.0913 5.21359 10.112 4.97217 10.1538 4.73276C10.1549 4.72544 10.1515 4.7148 10.1549 4.71014C10.2437 4.58578 10.1629 4.44745 10.1761 4.31644C10.1899 4.1821 10.1824 4.04177 10.1584 3.90344C10.1417 3.80701 10.1532 3.70459 10.1349 3.60616C10.1973 3.10205 10.5055 2.83737 10.918 2.93446C11.1208 2.98168 11.327 3.24837 11.35 3.49709C11.3786 3.80967 11.3975 4.12291 11.3929 4.43814C11.3838 5.02272 11.2961 5.59001 11.087 6.12138C10.9083 6.57627 10.6705 6.98528 10.3434 7.32711C10.1395 7.5406 9.90228 7.69489 9.69203 7.89374C9.67828 7.89839 9.65479 7.88243 9.65422 7.91701V7.91568L9.65479 7.91369Z" fill="white"/>
<path d="M2.84892 19.0585C2.93829 19.0958 3.0311 19.1104 3.12563 19.1117C3.03396 19.1423 2.94116 19.1264 2.84892 19.121C2.84892 19.1004 2.84892 19.0798 2.84892 19.0585Z" fill="#86CCFF"/>
<path d="M9.89883 19.1118C9.93779 19.1058 9.98018 19.1178 10.0146 19.0832C10.0214 19.0958 10.0277 19.1085 10.0346 19.1211C9.98878 19.1271 9.94295 19.1397 9.89883 19.1118Z" fill="#86CCFF"/>
<path d="M5.84281 15.3297C5.84568 15.3523 5.84281 15.3722 5.82677 15.3882C5.82219 15.3649 5.79641 15.3343 5.84281 15.3297Z" fill="#86CCFF"/>
<path d="M9.65421 7.91567C9.65421 7.88109 9.6777 7.89705 9.69202 7.8924C9.68916 7.92166 9.67025 7.91501 9.65421 7.91567Z" fill="#FFB02E"/>
<path d="M8.77541 16.3179C8.76109 16.3259 8.75822 16.3159 8.75822 16.3026C8.76395 16.3079 8.76968 16.3126 8.77541 16.3179Z" fill="#86CCFF"/>
<path d="M10.5365 18.3669C10.5445 18.3729 10.5519 18.3782 10.5599 18.3842C10.5531 18.3855 10.5462 18.3868 10.5393 18.3875C10.5365 18.3808 10.5359 18.3742 10.5365 18.3669Z" fill="#86CCFF"/>
</g>
<defs>
<clipPath id="clip0_3590_77500">
<rect width="12.1354" height="19.72" fill="white" transform="translate(0.439941 0.800293)"/>
</clipPath>
</defs>
</svg>
