<svg width="18" height="27" viewBox="0 0 18 27" fill="none" xmlns="http://www.w3.org/2000/svg">
<g clip-path="url(#clip0_9315_302)">
<path d="M0.90992 25.0648C0.91077 23.8756 0.900573 22.6873 0.918418 21.4981C0.925216 21.0274 1.05692 20.5703 1.17334 20.1159C1.35433 19.4111 1.6254 18.7491 1.98654 18.13C2.33833 17.5263 2.73601 16.9608 3.24755 16.4973C3.27984 16.4964 3.30278 16.4818 3.30703 16.4436C4.06075 15.7707 4.89179 15.2489 5.83585 14.943C6.25052 14.8091 6.67284 14.7126 7.09686 14.627C7.16314 14.6134 7.18948 14.5888 7.18948 14.5159C7.18778 13.8394 7.18693 13.1628 7.19033 12.4863C7.19033 12.3561 7.10196 12.3506 7.03228 12.3497C6.81815 12.3479 6.61251 12.2823 6.41452 12.2259C6.14091 12.1476 5.86219 12.082 5.59538 11.9755C4.91304 11.7014 4.27913 11.3363 3.69196 10.8701C2.9153 10.2527 2.32643 9.47052 1.84548 8.57999C1.53193 7.99905 1.32289 7.37804 1.1504 6.73792C0.972801 6.0814 0.897174 5.41214 0.904822 4.7274C0.915868 3.7968 0.908221 2.86621 0.90907 1.93652C6.30576 1.93652 11.7033 1.93652 17.1 1.93652C17.1008 3.05196 17.111 4.16649 17.0983 5.28193C17.094 5.70716 16.9827 6.12147 16.8926 6.53577C16.7065 7.39626 16.3828 8.19482 15.9494 8.94512C15.5968 9.55611 15.166 10.0979 14.6578 10.5586C13.6492 11.4728 12.4927 12.0684 11.185 12.3087C11.0838 12.327 10.9938 12.3907 10.885 12.377C10.8162 12.3688 10.7975 12.4289 10.7975 12.4945C10.7975 13.171 10.7983 13.8476 10.7975 14.5241C10.7975 14.5997 10.8298 14.6179 10.8943 14.6307C11.3829 14.7245 11.8673 14.841 12.3389 15.0104C13.2439 15.3354 14.0494 15.8408 14.7606 16.5201C15.3657 17.0974 15.8407 17.7858 16.2196 18.5479C16.5298 19.1726 16.7541 19.8309 16.9105 20.5229C17.0575 21.1758 17.1144 21.8287 17.1068 22.4961C17.0966 23.352 17.1025 24.208 17.1017 25.0648C16.6564 25.1049 16.2103 25.0939 15.7642 25.093C15.2535 25.093 14.7437 25.0876 14.233 25.0848C14.2228 25.0675 14.2134 25.0502 14.2032 25.0329C14.3519 24.9847 14.4998 24.9473 14.623 24.8272C14.8312 24.6232 14.9119 24.3573 14.9816 24.0814C14.9918 24.0796 15.002 24.0778 15.0122 24.0768C15.0317 24.0778 15.0521 24.0768 15.0708 24.0814C15.6163 24.2225 16.1287 23.8492 16.1865 23.2528C16.2171 22.9386 16.1823 22.6227 16.1602 22.3076C16.1279 21.8523 16.0404 21.4098 15.9061 20.9791C15.5866 19.9575 15.0793 19.0615 14.3494 18.3121C14.0129 17.967 13.6483 17.6656 13.2617 17.3897C12.8674 17.1083 12.4332 16.908 12.0185 16.6667C11.8163 16.5492 11.6013 16.4491 11.3727 16.4072C10.9445 16.3289 10.5349 16.6102 10.3938 17.0637C10.257 17.5053 10.4295 17.987 10.8221 18.1937C11.3039 18.4478 11.7985 18.6727 12.2514 18.9868C12.7102 19.3046 13.1283 19.6743 13.4673 20.1323C13.8854 20.6978 14.1786 21.3324 14.2907 22.0518C14.3349 22.3359 14.3936 22.6181 14.3757 22.9086C14.1123 22.6655 13.8956 22.3705 13.6195 22.1419C13.2209 21.8114 12.8215 21.4845 12.3652 21.2477L12.3397 21.2268C11.9744 21.0073 11.5843 20.8544 11.1884 20.716C10.8646 20.6031 10.5137 20.563 10.2409 20.3099C10.1704 20.2452 10.1083 20.1806 10.0565 20.094C9.91969 19.8646 9.89845 19.6133 9.89845 19.3528C9.8993 17.071 9.89845 14.7891 9.89845 12.5072C9.89845 12.4544 9.90525 12.4016 9.901 12.3488C9.86361 11.8771 10.1347 11.4892 10.5621 11.3891C11.3906 11.1942 12.1647 10.8564 12.8878 10.3783C13.1691 10.1926 13.4393 9.99773 13.6687 9.74095V9.74277C13.6908 9.74186 13.7197 9.75097 13.724 9.71091C14.0358 9.43865 14.3876 9.22831 14.6901 8.93511C15.1745 8.46708 15.5271 7.90617 15.7931 7.28426C16.1032 6.55672 16.2332 5.78001 16.2468 4.97962C16.2545 4.54802 16.2256 4.11914 16.1831 3.69118C16.15 3.35063 15.8432 2.98549 15.5424 2.92084C14.9306 2.78881 14.4734 3.1503 14.3808 3.84051C14.3171 3.84233 14.2525 3.84506 14.1888 3.84506C10.4287 3.84506 6.66944 3.84506 2.90935 3.84506C2.71986 3.84506 2.53632 3.86965 2.36892 3.9689C2.05622 4.15465 1.7775 4.56259 1.88797 5.12987C2.02138 5.81825 2.18283 6.49753 2.46664 7.13674C2.64084 7.53011 2.84732 7.90253 3.07335 8.26311C3.55855 9.03709 4.15932 9.69543 4.8748 10.2172C5.28862 10.5186 5.71859 10.8054 6.20209 10.9884C6.61251 11.1432 7.01869 11.3007 7.44611 11.3954C7.74011 11.461 7.96529 11.6431 8.03752 11.9645C8.08511 12.1749 8.09615 12.3998 8.09615 12.6174C8.1004 14.8747 8.09955 17.1329 8.09615 19.3902C8.09615 19.5595 8.09106 19.7353 8.01373 19.8928C7.9449 19.8992 7.98399 19.9411 7.99079 19.9729C7.91516 20.1787 7.75881 20.2998 7.57696 20.3608C7.37728 20.4282 7.16824 20.4801 6.9694 20.5457C6.4791 20.705 5.9922 20.8826 5.54184 21.1603C4.97762 21.5091 4.45928 21.9206 3.98342 22.3923C3.66902 22.7037 3.4209 23.0798 3.15748 23.4404C2.94844 23.7263 2.9289 24.2826 3.13793 24.5631C3.25945 24.727 3.4022 24.8845 3.57385 24.9983C3.57385 25.0266 3.57385 25.0548 3.57385 25.0839C3.54411 25.0867 3.51522 25.0921 3.48548 25.0921C2.7615 25.0921 2.03837 25.0967 1.3144 25.0885C1.18014 25.0867 1.04248 25.1103 0.90992 25.0648Z" fill="#81A4A0"/>
<path d="M17.0968 1.9373C11.7001 1.9373 6.30261 1.9373 0.905926 1.9373C0.421576 1.92729 0.0120021 1.53028 -0.0015937 1.00489C-0.0143398 0.473117 0.312809 0.0724692 0.837098 0.00326644C0.871087 -0.00128637 0.905926 0.00235588 0.940766 0.00235588C6.31281 0.00235588 11.6849 0.00235588 17.056 0.00235588C17.4733 0.00235588 17.769 0.204501 17.9355 0.617896C18.1488 1.14511 17.7877 1.83168 17.2557 1.90725C17.2022 1.91454 17.1495 1.92729 17.0968 1.9373Z" fill="#153330"/>
<path d="M14.2304 25.0834C14.7411 25.0861 15.251 25.0907 15.7617 25.0916C16.2078 25.0916 16.6539 25.1025 17.0991 25.0633C17.1799 25.1244 17.2784 25.0943 17.3677 25.1271C17.8044 25.2873 18.0576 25.7244 17.9871 26.217C17.9251 26.6532 17.53 26.9992 17.0906 26.9992C11.6855 26.9992 6.28028 26.9992 0.875948 26.9992C0.44683 26.9992 0.050852 26.6204 0.018562 26.1833C-0.0281736 25.5469 0.260737 25.1708 0.857253 25.0916C0.875098 25.0888 0.891243 25.0734 0.908238 25.0643C1.0408 25.1098 1.17845 25.0861 1.31271 25.0879C2.03584 25.0961 2.75982 25.0916 3.48379 25.0916C3.51353 25.0916 3.54243 25.0861 3.57217 25.0834C3.70897 25.0907 3.84663 25.1125 3.98259 25.0706C4.00723 25.0679 4.03187 25.0643 4.05567 25.0643C7.29997 25.0643 10.5434 25.0643 13.7877 25.0615C13.8684 25.0615 13.9475 25.1225 14.029 25.0706C14.0945 25.108 14.1625 25.0916 14.2304 25.0825V25.0834Z" fill="#153330"/>
<path d="M3.30558 16.4452C3.30133 16.4826 3.27923 16.4971 3.24609 16.499C3.24949 16.4598 3.26224 16.4334 3.30558 16.4452Z" fill="#86CCFF"/>
<path d="M14.0296 25.0715C13.948 25.1225 13.869 25.0624 13.7882 25.0624C10.5439 25.0651 7.30048 25.0642 4.05618 25.0651C4.03154 25.0651 4.00689 25.0697 3.9831 25.0715C3.84289 25.0697 3.70609 25.0496 3.57268 24.9987C3.40103 24.8839 3.25827 24.7264 3.13676 24.5634C2.92773 24.283 2.94727 23.7257 3.15631 23.4407C3.41973 23.081 3.66785 22.7049 3.98225 22.3926C4.45895 21.921 4.97645 21.5085 5.54067 21.1606C5.99103 20.882 6.47793 20.7053 6.96823 20.546C7.16707 20.4814 7.37611 20.4295 7.57579 20.3612C7.75764 20.2992 7.91399 20.179 7.98962 19.9733C8.01341 19.9514 8.01766 19.9241 8.01341 19.8931C8.08988 19.7347 8.09583 19.559 8.09583 19.3905C8.10008 17.1332 8.10008 14.875 8.09583 12.6177C8.09583 12.3992 8.08479 12.1752 8.0372 11.9649C7.96497 11.6425 7.73979 11.4604 7.44578 11.3958C7.01837 11.3011 6.61219 11.1435 6.20177 10.9887C5.71827 10.8057 5.2883 10.5198 4.87448 10.2175C4.159 9.69574 3.55823 9.03649 3.07303 8.26342C2.847 7.90284 2.64137 7.53042 2.46632 7.13706C2.18251 6.49784 2.02106 5.81856 1.88765 5.13018C1.77803 4.56381 2.0559 4.15496 2.3686 3.96921C2.536 3.86996 2.71954 3.84537 2.90903 3.84537C6.66912 3.84537 10.4284 3.84537 14.1885 3.84537C14.2522 3.84537 14.3168 3.84264 14.3805 3.84082C14.4077 3.97558 14.3907 4.11581 14.4153 4.24784C14.4502 4.43724 14.4612 4.62937 14.4417 4.8133C14.4221 4.99359 14.5428 5.18299 14.4102 5.35235C14.4051 5.35873 14.4102 5.3733 14.4085 5.38331C14.3457 5.71112 14.3159 6.04165 14.1902 6.35944C14.0457 6.72457 13.8664 7.05329 13.6225 7.3474C13.2707 7.77081 12.8263 8.05035 12.3411 8.23884C12.0225 8.36267 11.8219 8.57757 11.7259 8.90173C11.6214 9.25503 11.7404 9.57372 11.9621 9.83141C12.2485 10.1656 12.5858 10.202 13.0226 10.0099C13.2359 9.91609 13.4432 9.80136 13.6684 9.73853C13.439 9.9944 13.1688 10.1902 12.8875 10.3759C12.1644 10.854 11.3894 11.1927 10.5618 11.3867C10.1352 11.4868 9.86329 11.8747 9.90068 12.3464C9.90493 12.3983 9.89813 12.452 9.89813 12.5048C9.89813 14.7867 9.89813 17.0686 9.89813 19.3504C9.89813 19.6109 9.91937 19.8613 10.0562 20.0916C10.108 20.1781 10.17 20.2428 10.2406 20.3074C10.5133 20.5606 10.8643 20.6006 11.188 20.7135C11.5849 20.8519 11.9749 21.0049 12.3394 21.2244C12.3394 21.2426 12.3437 21.2562 12.3649 21.2453C12.8212 21.4821 13.2206 21.809 13.6191 22.1395C13.8953 22.368 14.112 22.664 14.3754 22.9062C14.3779 23.02 14.3924 23.1329 14.4077 23.2458C14.4612 23.6273 14.6218 23.916 14.9762 24.0517C14.9753 24.0617 14.9762 24.0708 14.9804 24.0799C14.9107 24.3558 14.83 24.6217 14.6218 24.8256C14.4986 24.9468 14.3499 24.9832 14.2021 25.0314C14.1519 25.0788 14.0882 25.0633 14.0296 25.0715Z" fill="#FFB02E"/>
<path d="M14.9766 24.0515C14.6222 23.9168 14.4616 23.6281 14.4081 23.2457C14.392 23.1328 14.3784 23.0199 14.3758 22.9061C14.3937 22.6156 14.335 22.3333 14.2908 22.0492C14.1795 21.329 13.8864 20.6952 13.4675 20.1298C13.1284 19.6717 12.7103 19.3021 12.2515 18.9843C11.7986 18.6701 11.3032 18.4452 10.8222 18.1912C10.4305 17.9845 10.2571 17.5028 10.394 17.0612C10.5342 16.6077 10.9446 16.3263 11.3728 16.4046C11.6014 16.4465 11.8164 16.5458 12.0187 16.6642C12.4333 16.9055 12.8675 17.1058 13.2618 17.3871C13.6484 17.663 14.013 17.9644 14.3495 18.3095C15.0794 19.0598 15.5867 19.9549 15.9062 20.9766C16.0413 21.4073 16.1288 21.8498 16.1603 22.3051C16.1824 22.6201 16.2172 22.9361 16.1866 23.2503C16.1288 23.8467 15.6164 24.22 15.0709 24.0789C15.0522 24.0743 15.0318 24.0761 15.0123 24.0743C15.0004 24.0661 14.9893 24.0588 14.9774 24.0506L14.9766 24.0515Z" fill="white"/>
<path d="M13.6683 9.73909C13.4431 9.80192 13.2357 9.91665 13.0225 10.0104C12.5848 10.2026 12.2475 10.1661 11.962 9.83197C11.741 9.57337 11.6212 9.25467 11.7258 8.90228C11.8218 8.57812 12.0223 8.36414 12.341 8.2394C12.8262 8.05 13.2706 7.77046 13.6224 7.34795C13.8662 7.05384 14.0455 6.72422 14.19 6.35999C14.3158 6.04221 14.3463 5.71167 14.4084 5.38387C14.4101 5.37386 14.405 5.35929 14.4101 5.35291C14.5418 5.18264 14.422 4.99324 14.4415 4.81386C14.4619 4.62993 14.4509 4.4378 14.4152 4.2484C14.3905 4.11637 14.4075 3.97614 14.3803 3.84138C14.473 3.15117 14.9301 2.78877 15.5419 2.92171C15.8427 2.98636 16.1486 3.3515 16.1826 3.69205C16.2251 4.12001 16.2532 4.54889 16.2464 4.98049C16.2328 5.78088 16.1028 6.55759 15.7926 7.28513C15.5275 7.90795 15.1748 8.46795 14.6896 8.93598C14.3871 9.22827 14.0353 9.43952 13.7235 9.71178C13.7031 9.71815 13.6683 9.6963 13.6674 9.74364V9.74182L13.6683 9.73909Z" fill="white"/>
<path d="M3.57227 24.999C3.70482 25.05 3.84248 25.07 3.98269 25.0719C3.84673 25.1138 3.70907 25.0919 3.57227 25.0846C3.57227 25.0564 3.57227 25.0282 3.57227 24.999Z" fill="#86CCFF"/>
<path d="M14.0293 25.0714C14.0871 25.0632 14.15 25.0796 14.2009 25.0322C14.2111 25.0495 14.2205 25.0668 14.2307 25.0841C14.1627 25.0923 14.0947 25.1096 14.0293 25.0714Z" fill="#86CCFF"/>
<path d="M8.01316 19.8926C8.01741 19.9235 8.01316 19.9509 7.98937 19.9727C7.98257 19.9408 7.94433 19.899 8.01316 19.8926Z" fill="#86CCFF"/>
<path d="M13.668 9.74183C13.668 9.69448 13.7028 9.71633 13.7241 9.70996C13.7198 9.75003 13.6918 9.74092 13.668 9.74183Z" fill="#FFB02E"/>
<path d="M12.3634 21.2465C12.3421 21.2575 12.3379 21.2438 12.3379 21.2256C12.3464 21.2329 12.3549 21.2392 12.3634 21.2465Z" fill="#86CCFF"/>
<path d="M14.9749 24.0518C14.9868 24.06 14.9978 24.0672 15.0097 24.0754C14.9995 24.0773 14.9894 24.0791 14.9792 24.08C14.9749 24.0709 14.9741 24.0618 14.9749 24.0518Z" fill="#86CCFF"/>
</g>
<defs>
<clipPath id="clip0_9315_302">
<rect width="18" height="27" fill="white"/>
</clipPath>
</defs>
</svg>
