<svg width="11" height="13" viewBox="0 0 11 13" fill="none" xmlns="http://www.w3.org/2000/svg">
<path d="M7.33321 0H3.66654V1.2381H7.33321V0ZM4.88876 8.04762H6.11099V4.33333H4.88876V8.04762ZM9.79599 3.95571L10.6638 3.07667C10.4031 2.76 10.1147 2.46786 9.8021 2.20381L8.93432 3.08286C7.83621 2.1936 6.44362 1.76407 5.04262 1.8825C3.64162 2.00093 2.33858 2.65833 1.40115 3.71965C0.463733 4.78098 -0.0368907 6.16565 0.00211997 7.58923C0.0411307 9.01281 0.616814 10.3672 1.61091 11.3742C2.60502 12.3812 3.94206 12.9644 5.34739 13.0039C6.75272 13.0434 8.11963 12.5363 9.16735 11.5867C10.2151 10.6371 10.864 9.31715 10.981 7.89795C11.0979 6.47875 10.6738 5.06808 9.79599 3.95571ZM5.49987 11.7619C4.65381 11.7619 3.82675 11.5078 3.12327 11.0316C2.41979 10.5555 1.8715 9.87868 1.54772 9.08687C1.22395 8.29505 1.13923 7.42376 1.30429 6.58318C1.46935 5.7426 1.87677 4.97047 2.47503 4.36444C3.07329 3.75841 3.83551 3.3457 4.66532 3.1785C5.49513 3.0113 6.35525 3.09711 7.13691 3.42509C7.91857 3.75307 8.58667 4.30849 9.05672 5.0211C9.52676 5.73371 9.77765 6.57152 9.77765 7.42857C9.77805 7.99775 9.66768 8.56142 9.45284 9.08735C9.23801 9.61327 8.92292 10.0911 8.52562 10.4936C8.12831 10.8961 7.65657 11.2153 7.13738 11.4329C6.6182 11.6505 6.06175 11.7623 5.49987 11.7619Z" fill="black"/>
</svg>
