<svg width="22" height="22" viewBox="0 0 22 22" fill="none" xmlns="http://www.w3.org/2000/svg">
<g clip-path="url(#clip0_3103_46266)">
<rect width="22" height="22" fill="#0E1626"/>
<path d="M11 7C10.2089 7 9.43552 7.2346 8.77772 7.67412C8.11992 8.11365 7.60723 8.73836 7.30448 9.46927C7.00173 10.2002 6.92252 11.0044 7.07686 11.7804C7.2312 12.5563 7.61216 13.269 8.17157 13.8284C8.73098 14.3878 9.44371 14.7688 10.2196 14.9231C10.9956 15.0775 11.7998 14.9983 12.5307 14.6955C13.2616 14.3928 13.8864 13.8801 14.3259 13.2223C14.7654 12.5645 15 11.7911 15 11C15 9.93913 14.5786 8.92172 13.8284 8.17157C13.0783 7.42143 12.0609 7 11 7ZM19.94 10C19.7135 7.97212 18.8042 6.08154 17.3613 4.63869C15.9185 3.19585 14.0279 2.28651 12 2.06V0H10V2.06C7.97212 2.28651 6.08154 3.19585 4.63869 4.63869C3.19585 6.08154 2.28651 7.97212 2.06 10H0V12H2.06C2.28651 14.0279 3.19585 15.9185 4.63869 17.3613C6.08154 18.8042 7.97212 19.7135 10 19.94V22H12V19.94C14.0279 19.7135 15.9185 18.8042 17.3613 17.3613C18.8042 15.9185 19.7135 14.0279 19.94 12H22V10H19.94ZM11 18C9.61553 18 8.26215 17.5895 7.11101 16.8203C5.95986 16.0511 5.06266 14.9579 4.53284 13.6788C4.00303 12.3997 3.86441 10.9922 4.1345 9.63437C4.4046 8.2765 5.07128 7.02922 6.05025 6.05025C7.02922 5.07128 8.2765 4.4046 9.63437 4.1345C10.9922 3.86441 12.3997 4.00303 13.6788 4.53284C14.9579 5.06266 16.0511 5.95986 16.8203 7.11101C17.5895 8.26215 18 9.61553 18 11C18.0007 11.9194 17.82 12.83 17.4685 13.6796C17.1169 14.5291 16.6014 15.3011 15.9512 15.9512C15.3011 16.6014 14.5291 17.1169 13.6796 17.4685C12.83 17.82 11.9194 18.0007 11 18Z" fill="white"/>
</g>
<defs>
<clipPath id="clip0_3103_46266">
<rect width="22" height="22" fill="white"/>
</clipPath>
</defs>
</svg>
