<svg width="47" height="47" viewBox="0 0 47 47" fill="none" xmlns="http://www.w3.org/2000/svg">
<mask id="mask0_4363_2312" style="mask-type:luminance" maskUnits="userSpaceOnUse" x="0" y="0" width="47" height="47">
<path d="M46.7659 0H0.335938V46.448H46.7659V0Z" fill="white"/>
</mask>
<g mask="url(#mask0_4363_2312)">
<path d="M17.0149 0.0278359C19.1499 0.0208359 21.2849 0.00883594 23.4149 0.00683594C27.7483 0.00683594 32.0789 0.00683594 36.4069 0.00683594C37.2359 0.00683594 37.2359 0.00683594 37.2069 0.849836C37.1644 0.872721 37.1312 0.909682 37.1129 0.954383C37.0947 0.999084 37.0926 1.04874 37.1069 1.09484C37.0423 1.15943 37.0055 1.24674 37.0044 1.33811C37.0032 1.42949 37.0379 1.51768 37.1009 1.58384C36.9639 1.65484 36.9599 1.73484 37.0859 1.82184C36.9486 2.37473 36.8658 2.93977 36.8389 3.50884C36.7973 3.5325 36.7652 3.5698 36.7478 3.61443C36.7305 3.65907 36.7292 3.7083 36.7439 3.75384C36.7439 3.8365 36.7459 3.91884 36.7499 4.00084C36.7393 4.03728 36.7333 4.0749 36.7319 4.11284C36.6749 5.08121 36.5553 6.04489 36.3739 6.99784C36.2146 7.63256 36.1208 8.28196 36.0939 8.93584C35.8932 9.91217 35.7506 10.8996 35.6669 11.8928C35.5319 13.0638 35.3249 14.2228 35.1979 15.3928C35.0049 17.1758 34.5979 18.9338 34.5489 20.7338C34.3144 21.7078 34.1553 22.6984 34.0729 23.6968C34.0259 23.7439 33.9899 23.8007 33.9674 23.8633C33.9449 23.9259 33.9366 23.9926 33.9429 24.0588L33.8429 24.1838C33.5592 25.5232 32.9398 26.7685 32.0429 27.8028C30.5879 29.6949 28.5292 31.0319 26.2089 31.5918L26.1089 31.6728C25.8909 31.7008 25.6729 31.7348 25.4539 31.7548C24.4291 32.0137 23.3533 31.9898 22.3409 31.6858C21.7279 31.301 21.1929 30.8039 20.7639 30.2208C19.4792 28.3214 18.7315 26.1102 18.5999 23.8208C18.3999 21.8298 18.2569 19.8328 18.1139 17.8368C17.9739 15.8788 17.8469 13.9198 17.7509 11.9588C17.5745 10.1831 17.4911 8.39931 17.5009 6.61484C17.505 6.53439 17.502 6.45375 17.4919 6.37384C17.2309 4.26684 17.1309 2.14684 17.0149 0.0278359Z" fill="#DEDBFF"/>
<path d="M17.0149 0.029C17.1349 2.148 17.2359 4.268 17.4939 6.377C17.504 6.45691 17.507 6.53756 17.5029 6.618C17.4931 8.40247 17.5765 10.1862 17.7529 11.962C17.8529 13.922 17.9759 15.882 18.1159 17.84C18.2579 19.84 18.4009 21.833 18.6019 23.824C18.7335 26.1133 19.4812 28.3246 20.7659 30.224C21.1949 30.8071 21.7299 31.3041 22.3429 31.689C21.8639 32.017 21.3859 31.558 20.9079 31.689C19.3242 31.2184 17.852 30.4323 16.5799 29.378C14.8417 27.9021 13.601 25.9259 13.0269 23.719C12.9799 23.0705 12.885 22.4265 12.7429 21.792C12.6489 21.466 12.9119 20.992 12.4219 20.8C12.5335 20.2997 12.5152 19.7792 12.3689 19.288C12.1789 17.749 11.9219 16.218 11.7049 14.682C11.5409 13.52 11.3959 12.355 11.2479 11.191C11.0713 9.807 10.8969 8.42267 10.7249 7.038C10.5172 6.07283 10.3858 5.0928 10.3319 4.107C10.3319 4.077 10.2879 4.043 10.2649 4.007C10.1119 2.864 9.96494 1.719 9.80194 0.577C9.75794 0.252 9.70993 0 10.1969 0C12.4699 0.022 14.7429 0.021 17.0159 0.028" fill="#CECAFF"/>
<path d="M31.0519 40.6309C31.9779 40.6309 32.9049 40.6489 33.8309 40.6309C34.2699 40.6219 34.4449 40.7809 34.4399 41.2309C34.4239 42.7809 34.4079 44.3309 34.4479 45.8819C34.4619 46.4179 34.2269 46.4479 33.8079 46.4469C28.8939 46.4369 23.9803 46.4349 19.0669 46.4409C17.1139 46.4409 15.1599 46.4299 13.2069 46.4499C12.7949 46.4499 12.6509 46.3499 12.6579 45.9179C12.6833 44.3479 12.6833 42.7772 12.6579 41.2059C12.6509 40.7429 12.8209 40.6209 13.2579 40.6309C14.1839 40.6539 15.1099 40.6309 16.0369 40.6309L31.0519 40.6389" fill="#ACA5FF"/>
<path d="M12.4209 20.7981C12.9109 20.9981 12.6479 21.4641 12.7419 21.7901C12.8839 22.4246 12.9788 23.0686 13.0259 23.7171C10.7874 23.6739 8.60941 22.9823 6.75614 21.7259C4.90287 20.4696 3.4539 18.7026 2.58493 16.6391C2.0114 15.2611 1.65743 13.8017 1.53593 12.3141C1.35493 10.9581 1.10393 9.61409 0.89593 8.25909C0.70393 6.97909 0.52293 5.70409 0.34193 4.42509C0.29093 4.06609 0.56393 4.11409 0.77893 4.11409C1.92593 4.11409 3.07293 4.11409 4.21993 4.11409C6.19126 4.10809 8.1626 4.09976 10.1339 4.0891C10.2069 4.1001 10.2339 4.06309 10.2279 3.99609L10.2679 4.0131C10.2909 4.0451 10.3379 4.07909 10.3349 4.11309C10.3875 5.09813 10.5176 6.07749 10.7239 7.0421C8.52893 7.0351 6.33393 7.0421 4.13993 7.0131C3.63993 7.0071 3.68693 7.29909 3.73093 7.60009C4.00793 9.46709 4.29493 11.3341 4.57993 13.2001C4.7545 14.4427 5.19281 15.6337 5.86546 16.693C6.53811 17.7523 7.42953 18.6556 8.47993 19.3421C9.6682 20.1184 11.0157 20.6177 12.4229 20.8031" fill="#ACA5FF"/>
<path d="M34.0799 23.6989C34.1623 22.7005 34.3215 21.7099 34.5559 20.7359C34.8699 20.6799 35.1819 20.6159 35.4969 20.5709C37.0101 20.2929 38.4196 19.6098 39.5753 18.5942C40.731 17.5787 41.5897 16.2688 42.0599 14.8039C42.29 13.9421 42.4637 13.0662 42.5799 12.1819C42.8049 10.6309 43.0499 9.08187 43.2799 7.53187C43.3579 7.00887 43.1669 7.00687 42.7739 7.00887C40.6419 7.01687 38.5099 7.00887 36.3739 6.99887C36.5554 6.04593 36.6749 5.08225 36.7319 4.11387C36.7703 4.11661 36.8085 4.10791 36.8419 4.08887C39.9099 4.09687 42.9789 4.11887 46.0419 4.09887C46.5539 4.09887 46.7689 4.19887 46.6419 4.72587C46.4709 4.80587 46.5289 4.95287 46.5419 5.08487C46.3659 6.68487 46.0759 8.26387 45.8419 9.85387C45.6349 11.2679 45.4329 12.6829 45.2009 14.0939C44.9493 15.7256 44.3389 17.2811 43.4136 18.6484C42.4883 20.0157 41.2712 21.1607 39.8499 22.0009C38.6666 22.7101 37.3716 23.2135 36.0199 23.4899C35.3819 23.6468 34.7257 23.7171 34.0689 23.6989" fill="#ACA5FF"/>
<path d="M31.0509 40.6321L16.0359 40.6252C17.643 39.6501 18.9578 38.26 19.8419 36.6011C20.6052 35.079 20.9712 33.3886 20.9059 31.6871C21.3849 31.5581 21.8629 32.0161 22.3409 31.6871C23.3533 31.991 24.4291 32.0149 25.4539 31.7561C25.6729 31.7361 25.8909 31.7021 26.1089 31.6741C26.1419 31.6804 26.1754 31.6841 26.2089 31.6852C26.0673 32.7461 26.1769 33.8254 26.5289 34.8362C27.0743 36.6956 28.1629 38.3497 29.6549 39.5862C30.1009 39.9562 30.5829 40.2861 31.0489 40.6311" fill="#CECAFF"/>
<path d="M46.5509 5.0841C46.5429 4.9521 46.4849 4.8051 46.6509 4.7251C46.8269 4.9061 46.7889 5.0251 46.5509 5.0841Z" fill="#F7F7F6"/>
<path d="M37.1139 1.09412C37.0996 1.04802 37.1017 0.998369 37.12 0.953668C37.1382 0.908967 37.1714 0.872006 37.214 0.849121C37.399 1.01512 37.2809 1.06312 37.1139 1.09412Z" fill="#F7F7F6"/>
<path d="M37.0919 1.82198C36.9649 1.73498 36.969 1.65498 37.106 1.58398C37.223 1.67098 37.2059 1.74898 37.0919 1.82198Z" fill="#F7F7F6"/>
<path d="M36.7549 3.75379C36.74 3.70827 36.7412 3.65896 36.7586 3.61428C36.7759 3.5696 36.8082 3.53232 36.8499 3.50879C37.0349 3.67379 36.9179 3.72279 36.7549 3.75379Z" fill="#F7F7F6"/>
<path d="M10.2319 3.99414C10.2319 4.06114 10.2109 4.09414 10.1379 4.08714L10.2319 3.99414Z" fill="#F7F7F6"/>
<path d="M36.8489 4.08895C36.8156 4.108 36.7773 4.1167 36.739 4.11395C36.7403 4.07602 36.7463 4.0384 36.7569 4.00195L36.8479 4.08895" fill="#F7F7F6"/>
<path d="M26.2129 31.6858C26.1794 31.6848 26.1459 31.6811 26.1129 31.6747L26.2129 31.5938C26.2129 31.6247 26.2129 31.6558 26.2129 31.6868" fill="#F7F7F6"/>
</g>
</svg>
