<svg width="47" height="47" viewBox="0 0 47 47" fill="none" xmlns="http://www.w3.org/2000/svg">
<path d="M42.5199 5.64528C43.0329 5.50757 43.5717 5.49659 44.0899 5.61329C44.1379 5.81329 44.2979 5.78129 44.4409 5.78829L44.9409 5.90228C44.9671 5.97364 45.0142 6.03541 45.0762 6.07948C45.1381 6.12356 45.2119 6.1479 45.2879 6.14929L45.4049 6.24029C46.1101 6.86258 46.5413 7.73795 46.6049 8.67629C46.4889 8.76429 46.5049 8.84229 46.6219 8.91329C46.7656 9.74613 46.7656 10.5974 46.6219 11.4303C46.4669 11.5413 46.4559 11.6613 46.5999 11.7893C46.4707 13.4273 46.1416 15.0433 45.6199 16.6013C45.4899 16.9513 45.3979 17.3153 45.2889 17.6733L45.1939 17.7983C44.5733 19.6514 43.5872 21.3612 42.2939 22.8263C42.2477 22.8903 42.2097 22.9598 42.1809 23.0333C41.9739 23.0273 41.9339 23.1643 41.9279 23.3333C41.4928 23.8611 41.0105 24.3481 40.4869 24.7883L40.3869 24.8883C39.2136 25.9961 37.8611 26.8972 36.3869 27.5533C35.2513 28.12 34.0535 28.5526 32.8179 28.8423C32.1599 28.9763 31.5019 29.1133 30.8389 29.2183C30.6129 29.2295 30.3915 29.2869 30.1886 29.387C29.9856 29.4871 29.8053 29.6278 29.6589 29.8003C29.3309 29.6433 29.4779 29.9413 29.4239 30.0463C28.7774 30.8015 28.0591 31.4921 27.2789 32.1083C26.9309 32.1633 26.9109 32.4363 26.9089 32.6983C26.9009 33.6576 26.9009 34.6166 26.9089 35.5753C26.9089 35.8363 26.9239 36.1073 27.2569 36.1893C27.3639 36.7479 27.6712 37.2482 28.1209 37.5963C28.1349 37.7423 28.1159 37.9383 28.3509 37.7473C29.6669 38.4153 31.0819 38.8473 32.4289 39.4353L32.5509 39.5353C33.471 39.8552 34.2421 40.5008 34.7189 41.3503L34.8129 41.4713C34.8789 41.6074 34.9089 41.7582 34.8999 41.9093C34.9399 42.3973 35.0719 42.7743 35.7569 42.6963C36.1784 42.7087 36.5795 42.8809 36.8788 43.178C37.1781 43.4751 37.3533 43.8748 37.3689 44.2963C37.3799 44.4753 37.3629 44.6563 37.3589 44.8363L37.2679 44.9553C37.1396 45.3551 36.8736 45.6965 36.5173 45.9188C36.161 46.1411 35.7374 46.2298 35.3219 46.1693C29.4512 46.1573 23.5802 46.1573 17.7089 46.1693C17.4536 46.1548 17.2004 46.1153 16.9529 46.0513C16.9102 45.9844 16.8638 45.92 16.8139 45.8583C16.5399 45.6419 16.3332 45.352 16.2181 45.0224C16.103 44.6928 16.0842 44.3372 16.1639 43.9973C16.2513 43.582 16.491 43.2144 16.8357 42.9668C17.1805 42.7192 17.6054 42.6095 18.0269 42.6593C18.1269 42.6653 18.3639 42.6473 18.2809 42.5343C17.9919 42.1393 18.4499 41.9763 18.4949 41.6883C18.5994 41.1678 18.8234 40.6787 19.1491 40.2594C19.4748 39.8402 19.8934 39.5023 20.3719 39.2723C21.1279 38.8253 21.8889 38.3853 22.6259 37.9083C22.951 37.7069 23.217 37.4232 23.397 37.0858C23.5771 36.7484 23.6646 36.3694 23.6509 35.9873C23.6509 34.8873 23.6409 33.7873 23.6579 32.6873C23.6747 32.3674 23.578 32.0519 23.3849 31.7963C22.8026 31.0096 22.2853 30.1768 21.8379 29.3063C19.4039 24.7153 18.4079 19.7163 17.8159 14.6343C17.5612 12.6115 17.461 10.5723 17.5159 8.53428C17.5338 7.74845 17.8545 6.99988 18.411 6.44481C18.9676 5.88975 19.717 5.57106 20.5029 5.55528C26.2049 5.54595 31.9072 5.54595 37.6099 5.55528C37.6099 5.91195 37.6132 6.26895 37.6199 6.62629C37.6199 6.82629 37.6199 7.02629 37.6199 7.22629C37.6199 7.28929 37.6449 7.32028 37.7099 7.31228C37.7762 7.3194 37.8433 7.31199 37.9065 7.29058C37.9697 7.26917 38.0275 7.23427 38.0759 7.18829L39.1529 6.74029L39.2739 6.64029L39.9929 6.38029L40.1149 6.28029C40.8289 6.21129 41.4369 5.69429 42.1899 5.78929C42.3129 5.77229 42.4589 5.80329 42.5159 5.64029M44.8249 13.9583C44.9769 13.9193 45.1059 13.8723 44.9169 13.7073C45.0516 13.1163 45.1267 12.5133 45.1409 11.9073C45.1409 11.7873 45.1409 11.6676 45.1409 11.5483L45.1789 11.4273C45.5889 11.0133 45.4169 10.5573 45.2789 10.1033C45.2789 10.0246 45.2789 9.94629 45.2789 9.86829C45.4479 9.56229 45.5489 9.26829 45.1789 9.01829L45.1399 9.03129L45.1469 8.66529C45.1779 8.51929 45.0739 8.42129 45.0219 8.30429C44.9219 7.55129 44.6219 7.21129 43.9589 7.09829C43.7429 6.89829 43.4819 6.99229 43.2359 6.98929L42.9969 6.99928C42.9124 6.98413 42.8257 6.98726 42.7425 7.00848C42.6594 7.0297 42.5818 7.06851 42.5149 7.12229H42.2759C42.0178 7.11605 41.7646 7.19321 41.5539 7.34229L41.2979 7.43229C41.1681 7.42449 41.0404 7.46753 40.9419 7.55229C40.3234 7.74828 39.7245 8.00137 39.1529 8.30829L38.9099 8.42328C38.5565 8.50111 38.2207 8.64423 37.9199 8.84529C37.3589 8.98729 37.6749 9.43329 37.6089 9.74529C37.6055 9.82529 37.6022 9.90495 37.5989 9.98429C37.4456 10.7346 37.358 11.4968 37.3369 12.2623C37.1529 12.4443 37.2369 12.6623 37.2589 12.8683C37.1351 13.462 37.0516 14.0633 37.0089 14.6683C36.9467 14.7295 36.904 14.8077 36.8862 14.8931C36.8684 14.9786 36.8763 15.0673 36.9089 15.1483C36.7662 15.5765 36.6758 16.0204 36.6399 16.4703L36.5999 16.7003C36.4321 17.0856 36.3132 17.4904 36.2459 17.9053C36.0959 18.0433 36.1749 18.2293 36.1459 18.3923C35.8848 18.9286 35.6836 19.492 35.5459 20.0723C35.3446 20.4527 35.1889 20.8554 35.0819 21.2723L34.1929 23.3223L34.1079 23.4483C34.1043 23.4849 34.0959 23.5209 34.0829 23.5553C33.9419 23.5823 33.8089 23.6143 33.9689 23.7883C33.8612 23.8962 33.7666 24.0164 33.6869 24.1463C33.0677 25.3222 32.366 26.4527 31.5869 27.5293L31.5129 27.5743L31.5849 27.6083C31.7207 27.6294 31.8596 27.6192 31.9909 27.5783C33.387 27.2578 34.7413 26.777 36.0269 26.1453C37.2429 25.5502 38.378 24.8025 39.4049 23.9203C39.5949 23.9203 39.7629 23.8903 39.7389 23.6373L40.1989 23.1823C40.6569 23.2483 40.7359 22.9713 40.7179 22.6083L41.5399 21.5083L41.7009 21.2813L41.9009 21.0303C41.9225 21.0097 41.9359 20.982 41.9389 20.9523C41.9907 20.916 42.0298 20.8643 42.0504 20.8044C42.0711 20.7446 42.0723 20.6798 42.0539 20.6193C42.1399 20.5831 42.2164 20.5275 42.2774 20.4569C42.3385 20.3863 42.3825 20.3026 42.4059 20.2123C42.5348 20.1199 42.623 19.9812 42.6519 19.8253L42.7519 19.7103C43.1786 18.9851 43.5329 18.2198 43.8099 17.4253L43.9889 16.9583L44.1029 16.5793L44.1919 16.4573C44.2339 16.1693 44.4629 15.9343 44.4249 15.6243C44.4249 15.543 44.4219 15.4613 44.4159 15.3793C44.6076 15.048 44.7317 14.6819 44.7809 14.3023C44.7809 14.1803 44.7792 14.0583 44.7759 13.9363L44.8249 13.9583Z" fill="#FFEAB0"/>
<path d="M37.6079 5.55747C31.9059 5.55747 26.2036 5.55747 20.5009 5.55747C19.7155 5.57401 18.9669 5.89303 18.4109 6.44802C17.855 7.00301 17.5348 7.75114 17.5169 8.53647C17.4619 10.5745 17.5622 12.6137 17.8169 14.6365C18.4079 19.7145 19.4079 24.7135 21.8379 29.3065C22.2853 30.177 22.8027 31.0097 23.3849 31.7965C23.5781 32.052 23.6747 32.3676 23.6579 32.6875C23.6409 33.7875 23.6519 34.8875 23.6509 35.9875C23.6643 36.3693 23.5765 36.7479 23.3965 37.0849C23.2165 37.4218 22.9507 37.7053 22.6259 37.9065C21.8889 38.3835 21.1259 38.8235 20.3719 39.2705C19.8933 39.5004 19.4747 39.8383 19.149 40.2575C18.8233 40.6768 18.5994 41.1659 18.4949 41.6865C18.4499 41.9745 17.9949 42.1375 18.2809 42.5325C18.3639 42.6455 18.1279 42.6635 18.0269 42.6575C17.6056 42.6088 17.1813 42.719 16.8368 42.9664C16.4923 43.2138 16.2524 43.5807 16.1639 43.9955C16.0842 44.3354 16.103 44.6909 16.2181 45.0205C16.3332 45.3501 16.5399 45.6401 16.8139 45.8565C16.8637 45.9182 16.9102 45.9826 16.9529 46.0495C16.8599 46.2005 16.7059 46.1555 16.5739 46.1555C15.0149 46.1555 13.4559 46.1665 11.8969 46.1555C11.5006 46.1349 11.1216 45.9864 10.8169 45.7322C10.5121 45.4779 10.2981 45.1317 10.2069 44.7455C10.1312 44.332 10.2047 43.9051 10.4144 43.5409C10.6241 43.1766 10.9563 42.8986 11.3519 42.7565C11.3889 42.7485 11.4239 42.6955 11.4519 42.7005C12.3689 42.8375 12.4669 42.1455 12.7519 41.5305C13.2908 40.5323 14.182 39.7704 15.2519 39.3935C16.619 38.9056 17.9529 38.3291 19.2449 37.6675C19.5753 37.5043 19.8514 37.2491 20.04 36.9326C20.2286 36.616 20.3217 36.2517 20.3079 35.8835C20.2789 34.7835 20.2899 33.6835 20.3079 32.5835C20.3198 32.4457 20.2978 32.3072 20.2437 32.1799C20.1897 32.0526 20.1053 31.9406 19.9979 31.8535C19.1415 31.169 18.3602 30.3957 17.6669 29.5465C17.5187 29.3566 17.3045 29.2295 17.0669 29.1905C16.7673 28.5741 16.3702 28.0102 15.8909 27.5205C15.8155 27.3418 15.7252 27.1699 15.6209 27.0065C14.9464 26.1051 14.3464 25.1503 13.8269 24.1515C12.4593 21.5777 11.4525 18.8279 10.8349 15.9795C10.5799 14.8285 10.3649 13.6715 10.2209 12.5055C10.0709 11.2875 10.0209 10.0575 9.92689 8.83247C9.90089 8.25247 10.1859 7.63247 9.72189 7.10747C9.90926 6.08177 9.96871 5.0368 9.89889 3.99647C9.92189 3.68247 9.76789 3.58847 9.49089 3.53347C9.0473 3.47727 8.6409 3.25681 8.3519 2.91561C8.06291 2.57441 7.91233 2.13726 7.92989 1.69047C7.99041 1.21668 8.22455 0.782185 8.58699 0.471097C8.94943 0.160009 9.4144 -0.00554912 9.89189 0.00647083C11.8709 0.0544708 13.8519 0.0334708 15.8329 0.0404708C14.5759 0.588471 14.0999 1.57147 14.6249 2.58847C14.8192 2.94117 15.1147 3.22759 15.4733 3.41082C15.8319 3.59404 16.2372 3.66567 16.6369 3.61647C23.6629 3.61647 30.6889 3.61914 37.7149 3.62447L37.7399 3.74147C37.7279 4.34147 37.7162 4.94147 37.7049 5.54147C37.6726 5.53958 37.6405 5.54649 37.6119 5.56147" fill="#FFDA5A"/>
<path d="M37.7139 3.62556C30.6879 3.62156 23.6619 3.61889 16.6359 3.61756C16.2363 3.66685 15.8311 3.59537 15.4725 3.41233C15.1139 3.22929 14.8184 2.94308 14.6239 2.59056C14.0989 1.57256 14.5759 0.590558 15.8319 0.0425577C16.3509 0.0345577 16.8699 0.0205577 17.3899 0.0205577C24.1272 0.0205577 30.8642 0.0205577 37.6009 0.0205577C37.9669 -0.0365084 38.3416 0.0259766 38.6693 0.198736C38.9969 0.371496 39.2602 0.64532 39.4199 0.979558L39.5199 1.10256C39.8099 2.54056 39.3079 3.33556 37.9519 3.58656C37.9089 3.53756 37.8709 3.54956 37.8369 3.59656L37.8429 3.63956L37.7129 3.61956" fill="#FFEAB0"/>
<path d="M9.71989 7.1065C10.1839 7.6345 9.89889 8.2515 9.92489 8.8315C9.71589 8.7685 9.50189 8.7185 9.29889 8.6405C7.83254 7.93467 6.29201 7.39466 4.70589 7.0305C4.4374 6.94889 4.15342 6.93185 3.87709 6.98076C3.60076 7.02968 3.33989 7.14316 3.11572 7.31197C2.89155 7.48078 2.71041 7.70015 2.58706 7.95221C2.46371 8.20427 2.40164 8.48191 2.40589 8.7625C2.17472 11.5837 2.5825 14.4207 3.59889 17.0625C4.54497 19.6317 6.07842 21.9442 8.07689 23.8155C8.07089 23.8775 8.09889 23.9055 8.16089 23.8985C8.79589 24.3705 9.40789 24.8815 10.0749 25.2985C10.5433 25.6863 11.072 25.9951 11.6399 26.2125L11.7659 26.3005C12.1759 26.4485 12.5659 26.6345 12.9609 26.8205C13.7466 27.1193 14.5539 27.3577 15.3759 27.5335C15.4239 27.6455 15.5169 27.6485 15.6179 27.6335C15.6701 27.6489 15.726 27.6464 15.7766 27.6262C15.8272 27.6061 15.8695 27.5696 15.8969 27.5225C16.3762 28.0122 16.7733 28.5762 17.0729 29.1925C16.1476 29.1664 15.2318 28.9978 14.3579 28.6925C13.4351 28.4507 12.5297 28.1467 11.6479 27.7825C8.95313 26.5832 6.61164 24.7117 4.84789 22.3475C3.0342 19.8387 1.79644 16.9606 1.22289 13.9185C0.892452 12.1921 0.808282 10.4275 0.972893 8.6775C0.97955 8.24919 1.07253 7.82663 1.24628 7.4351C1.42003 7.04356 1.67098 6.69109 1.9841 6.39879C2.29723 6.10648 2.6661 5.88034 3.06864 5.7339C3.47119 5.58746 3.89914 5.52372 4.32689 5.5465C4.62689 5.5615 4.92689 5.5595 5.22689 5.5645C5.23026 5.59833 5.24102 5.63102 5.25842 5.66023C5.27581 5.68945 5.29942 5.71449 5.32757 5.73357C5.35571 5.75265 5.38771 5.76531 5.42129 5.77066C5.45487 5.776 5.48921 5.7739 5.52189 5.7645L6.23989 5.9125C6.29189 6.0185 6.38289 6.0235 6.48289 6.0065C6.62761 6.09829 6.79552 6.14686 6.96689 6.1465L7.07989 6.2465L7.32189 6.2665L7.43989 6.3665C7.95089 6.5173 8.44643 6.71618 8.91989 6.9605C9.16545 7.08952 9.44467 7.14113 9.71989 7.1065Z" fill="#FF9A02"/>
</svg>
