<svg width="47" height="47" viewBox="0 0 47 47" fill="none" xmlns="http://www.w3.org/2000/svg">
<path d="M45.2371 15.8348V16.0247C44.935 16.8996 44.4444 17.7097 44.3018 18.6423C44.0384 19.2071 43.7774 19.7744 43.514 20.3392C43.265 20.4402 43.1297 20.6157 43.149 20.8921C41.7255 22.8438 40.2489 24.7451 38.2405 26.156C38.11 26.1296 38.0617 26.1945 38.0593 26.3123C36.2128 27.4732 34.2528 28.3794 32.1188 28.8818C31.0771 29.1269 29.963 29.1125 29.0253 29.7303C28.7111 29.7543 28.6555 29.985 28.6265 30.2326C27.9208 30.896 27.2973 31.6484 26.4707 32.1868C26.3571 32.2589 26.2798 32.4295 26.246 32.5714C25.4968 35.5783 26.5964 37.5613 29.6029 38.6622C30.4367 38.9674 31.2681 39.2823 32.0801 39.6332C33.2063 40.1236 34.0111 40.9096 34.2939 42.1523C34.3833 42.5464 34.6371 42.7363 35.0842 42.7892C36.3216 42.9358 36.7977 43.4743 36.7373 44.5319C36.6768 45.5871 36.0727 46.1904 34.9368 46.188C28.6458 46.1783 22.3549 46.1447 16.0616 46.1183C14.6695 44.4213 14.9837 43.407 17.1395 42.7484C17.5141 42.633 17.4947 42.3758 17.5648 42.1186C17.9515 40.7293 18.7104 39.6405 20.088 39.0684C22.3235 38.1382 23.4256 36.559 22.9954 34.0881C22.9591 33.8765 22.9664 33.6506 22.9954 33.4367C23.1041 32.6435 22.7803 32.0041 22.3573 31.3671C19.5998 27.2064 18.2222 22.5602 17.531 17.676C18.9352 17.6568 20.3417 17.6231 21.7459 17.6231C22.1857 17.6231 22.3888 17.551 22.4371 17.0246C22.5144 16.1713 22.2075 15.8757 21.4003 16.0512C20.6487 16.2146 20.5085 15.8925 20.5472 15.2027C20.61 14.1186 20.5834 13.0274 20.552 11.9385C20.5351 11.3232 20.5544 10.9819 21.3519 11.3064C21.7145 11.4554 22.3984 11.59 22.4443 10.7511C22.483 10.0469 22.4419 9.56614 21.4825 9.6094C19.9236 9.67911 18.3575 9.6094 16.7963 9.59498C16.7963 9.31616 16.789 9.03493 16.7939 8.75611C16.8108 6.86445 18.0482 5.56649 19.9526 5.56168C25.6103 5.54485 31.2681 5.56649 36.9258 5.5737C36.9161 7.43892 36.9379 7.48218 38.6586 6.64091C39.925 6.02318 41.3098 5.79964 42.6367 5.62417C43.7798 5.47515 44.9254 6.1025 45.5924 7.225C45.6093 7.37162 45.5489 7.5591 45.7809 7.59996C46.0492 8.77053 46.2184 9.95312 46.141 11.1598C45.9235 11.2174 45.9573 11.3785 45.9888 11.5347C45.8969 12.3447 46.0588 13.1764 45.7761 13.9696C45.5513 14.0201 45.5876 14.1835 45.6142 14.3422C45.6021 14.5296 45.5876 14.7147 45.5755 14.9022C45.3314 15.169 45.2879 15.5055 45.2371 15.8396V15.8348ZM44.7659 10.7199C44.9785 9.35702 44.297 8.52056 44.1496 7.5567C44.1109 7.30672 43.4729 6.94377 42.8107 6.97742C40.8869 7.07116 39.2991 8.09992 37.5445 8.64555C37.3173 8.71525 36.9306 8.86187 36.9113 9.32578C36.8436 10.9434 36.5947 12.5442 36.3699 14.1499C35.9687 17.015 35.0189 19.7143 33.9894 22.392C33.3393 24.0841 32.2614 25.5503 31.3091 27.0766C31.2149 27.2305 30.9877 27.3531 31.1303 27.5357C31.2439 27.6824 31.4493 27.6151 31.6402 27.5478C32.2928 27.3122 32.9695 27.1439 33.6148 26.8916C36.5294 25.7402 39.1662 24.1466 40.9787 21.5483C42.366 19.5581 43.4415 17.4116 44.0215 14.9767C44.3864 13.4456 44.2003 11.8448 44.7659 10.7223V10.7199ZM26.681 9.62863C25.9922 9.62863 25.2986 9.67671 24.6146 9.61421C23.9138 9.54931 23.7422 9.77285 23.7228 10.4771C23.6962 11.4338 24.3294 11.191 24.7693 11.1381C25.533 11.0468 25.7457 11.3136 25.6949 12.0467C25.6321 12.9457 25.6804 13.8518 25.6804 14.7556C25.6804 15.9863 25.6804 16.0391 24.3995 16.0151C23.7083 16.0007 23.7422 16.3444 23.7446 16.8131C23.7446 17.277 23.7083 17.6496 24.3947 17.6279C25.9269 17.5823 27.464 17.6039 28.9987 17.6207C29.4095 17.6255 29.586 17.551 29.6126 17.0655C29.6488 16.378 29.4724 16.1233 28.7473 16.1882C28.3848 16.2218 27.742 16.5223 27.7637 15.6594C27.7951 14.3205 27.771 12.9817 27.7806 11.6429C27.7806 11.3064 27.7637 11.0828 28.3075 11.2511C29.4482 11.6068 29.6246 11.3929 29.6029 10.2055C29.5956 9.76564 29.4869 9.60219 29.0277 9.62383C28.2471 9.65748 27.4616 9.63344 26.6786 9.63344L26.681 9.62863Z" fill="#FFEAB0"/>
<path d="M17.5337 17.6737C18.2249 22.5579 19.6025 27.2041 22.3601 31.3648C22.783 32.0018 23.1069 32.6435 22.9981 33.4343C22.9691 33.6483 22.9618 33.8742 22.9981 34.0857C23.4283 36.5567 22.3286 38.1359 20.0907 39.0661C18.7131 39.6405 17.9542 40.7294 17.5676 42.1163C17.4951 42.3735 17.5144 42.6331 17.1422 42.746C14.9864 43.4046 14.6722 44.419 16.0643 46.1159C14.4088 46.1328 12.7533 46.1808 11.0978 46.1544C10.1335 46.14 9.50754 45.5319 9.46162 44.717C9.39154 43.5032 9.77822 42.96 10.9262 42.7629C11.3443 42.6908 11.5981 42.5177 11.7431 42.1259C12.3594 40.4602 13.6717 39.6309 15.2958 39.1021C16.2866 38.7776 17.222 38.2897 18.1814 37.8739C19.2231 37.422 19.6049 36.6095 19.5904 35.5111C19.5582 33.0898 18.6422 31.0812 16.8425 29.4852C16.6564 29.3217 16.451 29.3169 16.2432 29.2736C16.0957 28.442 15.4891 27.9348 14.9115 27.4084C13.9617 25.9134 13.1762 24.3318 12.3569 22.7646C11.731 21.5676 11.2452 20.3249 10.8174 19.0654C9.68397 15.7388 9.32387 12.2655 9.04593 8.78504C9.03627 8.25624 9.26828 7.701 8.88642 7.20825C8.89609 6.95827 8.90818 6.7083 8.91784 6.45832C9.41329 5.76607 9.39637 4.24697 8.88884 3.72298C8.6955 3.62924 8.51183 3.50425 8.30881 3.44416C7.30101 3.1413 7.10766 2.40338 7.20192 1.48519C7.29376 0.593442 7.89554 0.218475 8.67375 0.0838709C9.75889 -0.103613 10.8561 0.0838706 11.9461 0.0694488C12.8814 0.0598342 13.8191 0.100696 14.7544 0.117522C13.4759 1.17753 13.2874 2.10052 14.1985 3.01871C14.7109 3.53549 15.3659 3.66769 16.0909 3.66769C23.102 3.66289 30.1131 3.67731 37.1243 3.68692C37.0131 4.30947 37.3224 4.97287 36.9309 5.56657C31.2732 5.55936 25.6155 5.53772 19.9578 5.55455C18.0533 5.55936 16.8159 6.85973 16.799 8.74898C16.7966 9.02781 16.799 9.30903 16.8038 9.58785C16.2746 10.0421 16.2794 10.7945 16.8159 11.1815C16.7362 12.8015 17.1059 14.3855 17.2074 15.9911C16.6492 15.9647 16.4631 16.1642 16.4051 16.7771C16.306 17.8107 17.0431 17.5319 17.541 17.6665L17.5337 17.6737Z" fill="#FFDA5A"/>
<path d="M37.1222 3.69186C30.1111 3.68224 23.1 3.66782 16.0889 3.67263C15.3638 3.67263 14.7089 3.54043 14.1965 3.02365C13.2854 2.10546 13.4715 1.18006 14.7524 0.122455C16.3451 -0.0506064 17.9426 0.0383279 19.5401 0.0335207C25.3017 0.0215025 31.0658 0.0287136 36.8274 0.0215027C37.8666 0.0215027 38.8019 0.598376 38.988 1.40119C39.1983 2.31938 38.6811 3.08854 37.5452 3.54043C37.405 3.59571 37.2624 3.64138 37.1222 3.69186Z" fill="#FFEAB0"/>
<path d="M14.9092 27.4085C15.4868 27.9348 16.0934 28.442 16.2409 29.2737C14.9575 29.2905 13.7491 28.8795 12.5697 28.4925C10.6991 27.8796 8.93731 26.9926 7.38573 25.7523C7.37606 25.6418 7.33256 25.5721 7.20447 25.6009C6.17733 24.7188 5.2227 23.7669 4.32848 22.7526C4.36715 22.6252 4.29464 22.594 4.18588 22.5892C2.13644 20.0077 0.961886 17.0416 0.273099 13.8567C0.195762 13.4986 0.374604 13.1044 0.0990895 12.7823L0.0918394 12.7775C0.154676 12.441 0.200594 12.1069 0 11.7968C0.319017 10.8618 0.18851 9.91718 0.0604199 8.97255C0.154675 8.45817 0.171592 7.91255 0.362519 7.43422C0.899048 6.08578 2.17512 5.53295 3.65661 5.7012C5.29278 5.88628 6.77669 6.47517 8.26061 7.10252C8.4757 7.19386 8.66421 7.23713 8.88414 7.21069C9.26599 7.70343 9.03398 8.25627 9.04365 8.78747C7.33497 8.29232 5.75439 7.43903 3.95387 7.17704C2.44096 6.9559 1.68692 7.39096 1.58783 8.8692C1.31715 12.8929 2.10261 16.6714 4.23422 20.1374C4.1883 20.4187 4.42998 20.5196 4.57499 20.6807L4.57982 20.6927C4.57982 20.9571 4.78525 21.0845 4.94959 21.2383C5.01243 21.308 5.07527 21.3753 5.1381 21.445C5.16469 21.6902 5.26378 21.8753 5.52721 21.933C5.58521 22.0243 5.6408 22.1156 5.6988 22.207C5.85348 22.5723 6.06857 22.88 6.47459 23.0002C6.54951 23.1348 6.5906 23.3078 6.70177 23.3944C8.38869 24.7068 10.0442 26.1225 12.0912 26.8075C12.9709 27.1032 13.8603 27.7522 14.9092 27.4061V27.4085Z" fill="#FC9803"/>
<path d="M16.809 11.1861C16.2749 10.7992 16.2701 10.0468 16.797 9.59253C18.3606 9.60455 19.9243 9.67666 21.4831 9.60695C22.4426 9.56369 22.4837 10.0444 22.445 10.7487C22.3991 11.5875 21.7151 11.4529 21.3526 11.3039C20.5551 10.9794 20.5357 11.3207 20.5526 11.9361C20.5841 13.0225 20.6107 14.1162 20.5478 15.2002C20.5067 15.8877 20.6493 16.2097 21.4009 16.0487C22.2057 15.8756 22.5151 16.1689 22.4378 17.0222C22.3894 17.5486 22.1888 17.6207 21.7465 17.6207C20.3424 17.6207 18.9358 17.6543 17.5317 17.6736C17.0338 17.539 16.2967 17.8178 16.3958 16.7842C16.4538 16.1689 16.6423 15.9718 17.1981 15.9982C18.0327 16.0335 18.45 15.6449 18.45 14.8325C18.45 14.1234 18.45 13.4119 18.45 12.7028C18.45 11.6388 17.9022 11.1341 16.8066 11.1885L16.809 11.1861Z" fill="#1D1500"/>
<path d="M26.6812 9.63104C27.4642 9.63104 28.2473 9.65508 29.0303 9.62142C29.4895 9.6022 29.5958 9.76564 29.6055 10.2031C29.6272 11.3905 29.4484 11.6044 28.3101 11.2487C27.7663 11.0804 27.7856 11.3016 27.7832 11.6405C27.7736 12.9793 27.7977 14.3181 27.7663 15.657C27.747 16.5199 28.3874 16.2194 28.7499 16.1858C29.475 16.1209 29.6538 16.3781 29.6152 17.0631C29.5886 17.5462 29.4146 17.6207 29.0013 17.6183C27.4666 17.6039 25.932 17.5799 24.3973 17.6255C23.7085 17.6472 23.7496 17.2722 23.7472 16.8107C23.7472 16.342 23.7109 16.0007 24.4021 16.0127C25.6806 16.0367 25.683 15.9839 25.683 14.7532C25.683 13.8494 25.6347 12.9433 25.6975 12.0443C25.7483 11.3112 25.5356 11.0444 24.7719 11.1357C24.3296 11.1886 23.6988 11.4338 23.7254 10.4747C23.7448 9.77285 23.9164 9.54931 24.6172 9.61181C25.3012 9.6743 25.9948 9.62623 26.6836 9.62623L26.6812 9.63104Z" fill="#1D1500"/>
<path d="M16.809 11.1864C17.9046 11.1319 18.4524 11.6366 18.4524 12.7006C18.4524 13.4097 18.4524 14.1212 18.4524 14.8303C18.4524 15.6427 18.0351 16.0313 17.2005 15.996C17.099 14.3904 16.7293 12.8064 16.809 11.1864Z" fill="#FFEAB0"/>
</svg>
