<svg width="48" height="50" viewBox="0 0 48 50" fill="none" xmlns="http://www.w3.org/2000/svg">
<path d="M16.846 0.0552836C23.9901 0.0384581 31.1341 0.0240364 38.2782 0C38.8437 0 39.0636 0.230749 39.0467 0.788393C39.0274 1.47103 39.0636 2.15847 39.0757 2.8411C39.0443 2.9709 39.1023 3.01897 39.228 3.00455C40.2068 3.36509 41.2677 3.26414 42.2659 3.58623C44.4821 4.30011 46.1448 5.61009 47.1671 7.70366C47.1478 8.0618 47.3146 8.35504 47.4958 8.64348C47.5127 8.76607 47.5321 8.89105 47.549 9.01364C47.5103 9.16747 47.4765 9.3189 47.6722 9.39582C47.9284 10.7611 47.9163 12.1288 47.665 13.494C47.4668 13.583 47.5345 13.7344 47.5756 13.881C47.5441 14.0036 47.5151 14.1238 47.4837 14.2464C47.3145 14.5396 47.1333 14.8304 47.1744 15.191C47.143 15.2439 47.126 15.2992 47.1236 15.3592C47.0149 15.3833 46.9472 15.4386 46.981 15.5611C45.8258 18.3085 43.8102 20.2867 41.2677 21.7577C38.9379 23.1062 36.4317 24.022 33.7877 24.558C33.6476 24.5868 33.5292 24.7142 33.4011 24.7959C32.9975 24.957 32.7848 25.2742 32.6736 25.6733C32.1637 26.1756 31.6561 26.678 31.1462 27.1803C30.9166 27.2308 30.6773 27.2645 30.6073 27.5457C29.8242 28.2211 28.8188 28.6057 28.1324 29.4085C27.695 29.4758 27.492 29.7618 27.4147 30.1657C27.2866 30.1729 27.2141 30.2354 27.1996 30.3627C26.576 30.9036 26.3561 31.6247 26.2691 32.4082L26.2594 32.4179C26.2087 32.4419 26.1603 32.4683 26.1096 32.4924C26.1579 32.5188 26.2063 32.5453 26.2546 32.5717C26.0492 33.6798 26.1724 34.8023 26.1144 35.9176C26.0782 36.617 26.3585 36.8574 27.0425 36.8333C28.1663 36.7949 29.2901 36.8189 30.4163 36.8117C31.632 36.8021 32.6929 37.1963 33.5896 38.0135C33.6572 38.4462 33.9255 38.7827 34.1527 39.136C34.1503 39.8836 34.1478 40.6335 34.1454 41.381C29.5124 41.3738 24.8794 41.3666 20.2465 41.3594C20.2416 41.1094 20.2489 40.8594 20.2344 40.6119C20.128 38.85 20.6791 37.4895 22.511 36.9006C22.9436 36.7612 23.0378 36.3983 23.0451 36.0065C23.0523 35.4777 23.062 34.9465 23.0403 34.4177C22.9533 32.3217 22.6947 30.2954 21.45 28.4783C18.9438 24.8224 18.1801 20.5968 17.6001 16.3255C18.7867 16.3399 19.9733 16.3519 21.16 16.3664C21.4911 16.3712 21.7038 16.2294 21.7279 15.8904C21.7521 15.566 21.5926 15.2847 21.2567 15.34C20.2972 15.4938 20.3625 14.9074 20.3915 14.28C20.418 13.6911 20.4132 13.0998 20.3915 12.5085C20.3745 12.0711 20.4301 11.7658 20.9932 11.8836C21.4186 11.9725 21.7086 11.8908 21.7086 11.338C21.7086 10.7515 21.3388 10.7947 20.957 10.7947C19.8936 10.7947 18.8326 10.7971 17.7692 10.7995C17.3173 11.2034 17.3173 11.5062 17.7692 11.91C18.7021 11.6913 19.0477 12.0422 18.922 12.9917C18.8447 13.5661 18.8955 14.1574 18.9124 14.7415C18.9245 15.1573 18.794 15.3785 18.3275 15.3376C18.0858 15.316 17.8393 15.3689 17.5928 15.3881C16.8629 13.3883 17.0007 11.2755 16.8919 9.21555C16.7324 6.17014 16.846 3.11271 16.8436 0.0576872L16.846 0.0552836ZM35.7381 20.7506C36.045 20.8636 36.3012 20.7674 36.5695 20.6617C37.9084 20.1281 39.2086 19.5151 40.4049 18.7123C43.2157 16.8303 44.789 14.3305 44.731 10.8212C44.6948 8.54253 42.8096 6.29513 40.2382 6.20138C39.808 6.18696 39.3802 6.13649 38.9017 6.10043C38.8316 11.1697 37.9374 16.0996 35.7381 20.7482V20.7506ZM24.6523 10.7899V10.7971C24.1206 10.7971 23.5889 10.7971 23.0548 10.7971C22.6197 10.7971 22.6802 11.1144 22.6753 11.3884C22.6705 11.648 22.6802 11.9677 23.033 11.8908C24.1302 11.6528 23.9949 12.3595 23.9683 13.0205C23.949 13.4868 23.9296 13.9579 23.9731 14.4218C24.0336 15.0564 23.9321 15.4722 23.1442 15.328C22.7744 15.2607 22.6439 15.4698 22.6705 15.8207C22.6898 16.0635 22.6222 16.3568 23.0064 16.3592C24.1012 16.364 25.1985 16.3616 26.2933 16.3616C26.68 16.3616 26.6316 16.0779 26.634 15.8328C26.634 15.6116 26.6389 15.34 26.3198 15.3881C25.2855 15.5467 25.4281 14.8545 25.4377 14.2367C25.4474 13.6142 25.445 12.9917 25.4377 12.3691C25.4353 12.0494 25.5416 11.7346 25.8969 11.8668C26.3827 12.0494 26.6123 12.1167 26.6534 11.4533C26.6944 10.7827 26.3464 10.7659 25.8655 10.7899C25.4595 10.8092 25.051 10.7947 24.645 10.7947L24.6523 10.7899ZM29.7541 16.364C30.3172 16.3616 30.8803 16.364 31.441 16.3592C31.7818 16.3592 31.8422 16.1356 31.835 15.8592C31.8277 15.5996 31.8132 15.2823 31.4725 15.34C30.2931 15.5419 30.5299 14.7271 30.5227 14.0829C30.5178 13.5854 30.5492 13.0854 30.5154 12.5903C30.4792 12.0446 30.6097 11.7562 31.2405 11.8908C31.5957 11.9653 31.8277 11.8259 31.835 11.3956C31.8422 10.9582 31.6755 10.7803 31.2332 10.7875C30.2326 10.8019 29.2321 10.8092 28.2315 10.7875C27.6853 10.7755 27.5041 11.0111 27.5766 11.5182C27.6539 12.0566 27.9609 12.0759 28.3862 11.9076C28.9082 11.7009 29.0557 11.9581 29.0436 12.4364C29.0291 13.059 29.0122 13.6815 29.0484 14.3016C29.0871 14.9723 29.0484 15.4963 28.1349 15.3304C27.782 15.2655 27.5669 15.4241 27.5669 15.8544C27.5669 16.3063 27.8183 16.3616 28.159 16.364C28.6907 16.364 29.2224 16.364 29.7541 16.364Z" fill="#8AF2B7"/>
<path d="M16.8455 0.055336C16.8455 3.10796 16.7343 6.16779 16.8938 9.2132C17.0002 11.2731 16.8624 13.3859 17.5947 15.3857C17.6068 15.4434 17.6068 15.5011 17.5923 15.5564C17.5729 15.5756 17.5367 15.5973 17.5391 15.6141C17.5464 15.6622 17.5681 15.7078 17.585 15.7559C17.5899 15.9458 17.5923 16.1357 17.5971 16.3232C18.1771 20.5944 18.9433 24.82 21.4471 28.4759C22.6917 30.2931 22.9503 32.3218 23.0373 34.4153C23.0591 34.9441 23.0518 35.4729 23.0421 36.0041C23.0349 36.3983 22.9407 36.7589 22.508 36.8983C20.6761 37.4872 20.1251 38.8452 20.2314 40.6095C20.2459 40.8571 20.2411 41.1071 20.2435 41.357C18.1578 41.3739 16.0721 41.3907 13.9888 41.4051C13.8753 41.3955 13.7641 41.3859 13.6505 41.3763C13.6457 40.2369 13.5079 39.076 14.2668 38.0737C14.8226 37.3382 15.538 36.8695 16.4709 36.8502C17.9427 36.819 19.417 36.8046 20.8888 36.8382C21.6066 36.855 21.9183 36.6267 21.9063 35.8791C21.8869 34.8191 21.8821 33.7591 21.6887 32.716C21.3794 31.0551 20.3933 29.8821 19.0134 28.9447C17.5415 27.9471 16.222 26.7573 15.0909 25.3801C14.7574 24.9763 14.3828 24.8368 13.8777 24.683C10.8011 23.7504 7.75351 22.7769 5.15062 20.7314C2.90783 18.9696 1.18224 16.9145 0.452367 14.1479C-0.277505 11.3861 -0.279916 8.70362 1.6221 6.3096C3.07943 4.47563 5.04911 3.54061 7.31123 3.24256C8.9619 3.02383 8.96674 3.11276 8.97641 1.53357C8.98608 -0.319631 8.87732 0.0409143 10.4555 0.0288961C12.5871 0.0120706 14.7163 0.0433178 16.8479 0.055336H16.8455ZM7.84051 6.22788C6.83996 6.10529 6.03758 6.45142 5.31012 6.94897C2.61298 8.79016 2.45347 11.7442 3.8818 14.6935C5.42613 17.8855 8.35771 19.4238 11.4681 20.6954C11.6301 20.7627 11.8065 21.0968 11.9998 20.7939C12.0723 20.681 12.0119 20.431 11.9321 20.2868C11.444 19.4166 11.195 18.46 10.8663 17.5298C9.69903 14.2272 8.97157 10.8357 8.97399 7.32874C8.97399 6.34806 8.70573 6.01395 7.84293 6.22788H7.84051Z" fill="#5CDC93"/>
<path d="M13.9914 41.4074C16.0771 41.3906 18.1628 41.3738 20.2461 41.3594C24.8791 41.3666 29.512 41.3738 34.145 41.381C34.5462 41.6358 34.9909 41.5445 35.426 41.5493C36.4096 41.5613 36.963 42.054 36.9799 43.0179C37.0089 44.7918 36.9848 46.5681 37.0089 48.3443C37.0162 48.8491 36.8639 49.0702 36.3177 49.0678C28.5187 49.0414 20.7198 49.0318 12.9208 49.015C12.9159 47.5511 12.9739 46.0849 12.8893 44.6259C12.8192 43.3736 13.0585 42.2872 13.9914 41.405V41.4074Z" fill="#54A175"/>
<path d="M13.9911 41.4075C13.0558 42.2896 12.8165 43.3761 12.889 44.6284C12.9712 46.0874 12.9156 47.5536 12.9204 49.0174C11.5332 49.1328 10.8436 48.5151 10.8516 47.1642C10.8565 45.9864 10.8516 44.8111 10.8516 43.6333C10.8516 41.9868 11.4293 41.4099 13.092 41.3859C13.2781 41.3835 13.4666 41.3811 13.6527 41.3787C13.7663 41.3883 13.8775 41.3979 13.9911 41.4075Z" fill="#2B6946"/>
<path d="M24.6512 10.7899C25.0572 10.7899 25.4657 10.8043 25.8717 10.7851C26.3526 10.7634 26.7007 10.7778 26.6596 11.4485C26.6185 12.1119 26.3889 12.0446 25.9031 11.8619C25.5503 11.7297 25.4415 12.0446 25.4439 12.3642C25.4487 12.9868 25.4512 13.6093 25.4439 14.2319C25.4342 14.8496 25.2917 15.5443 26.3261 15.3832C26.6451 15.3351 26.6426 15.6043 26.6402 15.8279C26.6378 16.0731 26.6862 16.3567 26.2995 16.3567C25.2047 16.3567 24.1074 16.3591 23.0126 16.3543C22.6283 16.3543 22.696 16.0586 22.6767 15.8159C22.6477 15.4649 22.7806 15.2558 23.1504 15.3231C23.9383 15.4673 24.0398 15.0491 23.9793 14.4169C23.9358 13.953 23.9552 13.4819 23.9745 13.0156C24.0011 12.3546 24.1364 11.648 23.0392 11.8859C22.6864 11.9628 22.6767 11.6407 22.6815 11.3836C22.6864 11.1095 22.6259 10.7923 23.061 10.7923C23.5927 10.7923 24.1243 10.7923 24.6585 10.7923V10.7851L24.6512 10.7899Z" fill="#0E1626"/>
<path d="M29.7533 16.3664C29.2216 16.3664 28.6899 16.3664 28.1582 16.3664C27.8175 16.3664 27.5661 16.3087 27.5661 15.8569C27.5661 15.4266 27.7788 15.2704 28.1341 15.3329C29.0476 15.4987 29.0863 14.9747 29.0476 14.3041C29.0114 13.684 29.0283 13.0614 29.0428 12.4389C29.0549 11.9606 28.905 11.7034 28.3854 11.9101C27.9625 12.0783 27.6531 12.0567 27.5758 11.5207C27.5033 11.0135 27.6845 10.778 28.2307 10.79C29.2313 10.814 30.2318 10.8068 31.2324 10.79C31.6747 10.7828 31.8414 10.9606 31.8342 11.3981C31.8269 11.826 31.5949 11.9678 31.2396 11.8933C30.6113 11.7611 30.4784 12.0471 30.5146 12.5927C30.5484 13.0879 30.517 13.5878 30.5218 14.0854C30.5291 14.7295 30.2923 15.542 31.4716 15.3425C31.8124 15.2848 31.8293 15.6021 31.8342 15.8617C31.8414 16.1405 31.781 16.3616 31.4402 16.3616C30.8771 16.3616 30.314 16.3616 29.7533 16.3616V16.3664Z" fill="#0F1827"/>
<path d="M17.5951 16.3255C17.5903 16.1356 17.5878 15.9458 17.583 15.7559C17.583 15.6886 17.5878 15.6237 17.5903 15.5564C17.6048 15.4987 17.6048 15.441 17.5927 15.3857C17.8368 15.3665 18.0857 15.3136 18.3274 15.3352C18.7938 15.3785 18.9219 15.1574 18.9122 14.7391C18.8953 14.1551 18.847 13.5638 18.9219 12.9893C19.0476 12.0423 18.7044 11.6889 17.7691 11.9077C17.6338 11.5375 17.6313 11.1673 17.7691 10.7972C18.8325 10.7972 19.8935 10.7948 20.9569 10.7924C21.3387 10.7924 21.7085 10.7515 21.7085 11.3356C21.7085 11.8884 21.4185 11.9701 20.9931 11.8812C20.4276 11.7634 20.3744 12.0663 20.3913 12.5062C20.4131 13.095 20.4179 13.6887 20.3913 14.2776C20.3623 14.9026 20.2971 15.4915 21.2565 15.3376C21.5901 15.2848 21.7496 15.566 21.7278 15.8881C21.7036 16.227 21.491 16.3664 21.1599 16.364C19.9732 16.3496 18.7866 16.3352 17.5999 16.3231L17.5951 16.3255Z" fill="#0F1827"/>
<path d="M17.7686 10.7996C17.6333 11.1697 17.6333 11.5399 17.7686 11.91C17.3167 11.5062 17.3167 11.2034 17.7686 10.7996Z" fill="#0F1827"/>
<path d="M17.5894 15.5588C17.5894 15.6261 17.5846 15.691 17.5822 15.7583C17.5653 15.7103 17.5435 15.6646 17.5362 15.6165C17.5338 15.5997 17.5701 15.5781 17.5894 15.5588Z" fill="#54A175"/>
</svg>
