<svg width="47" height="47" viewBox="0 0 47 47" fill="none" xmlns="http://www.w3.org/2000/svg">
<path d="M16.9549 0.0553266C16.9622 3.37715 17.3247 6.68216 17.5035 9.99437C17.634 12.3788 17.6703 14.7728 17.9144 17.1476C18.2721 20.6521 18.0908 24.2311 19.2702 27.6347C19.8551 29.3244 20.7807 30.7858 22.3033 31.7425C22.8302 32.0718 23.6108 32.0934 24.2706 31.954C24.8337 31.8362 25.3871 31.8362 25.9478 31.8218C25.8439 34.4682 26.8227 36.7132 28.4927 38.713C29.0703 39.4053 29.9573 39.749 30.4793 40.4965C30.2352 40.535 29.9935 40.6047 29.7494 40.6047C25.2204 40.6095 20.6913 40.6047 16.1622 40.6047C17.0637 39.6961 18.0812 38.9125 18.8642 37.8718C20.0629 36.2781 20.4907 34.461 20.7155 32.5501C20.7928 31.8939 20.4689 31.6247 19.8962 31.4156C16.822 30.2955 14.6106 28.2284 13.2596 25.2647C13.047 24.7984 12.8053 24.3273 12.8005 23.7912C12.6482 22.7192 12.8512 21.5847 12.2253 20.5968C12.2301 20.2867 12.2857 19.9647 12.2301 19.6642C11.4543 15.4891 10.9492 11.2755 10.4803 7.05953C10.3305 6.02837 10.1782 4.99721 10.0284 3.96604C9.98005 2.89402 9.71179 1.84844 9.55953 0.793243C9.45319 0.052923 9.68279 0.00965753 10.2217 0.0144648C12.4645 0.0288866 14.7097 0.0433085 16.9525 0.0601339L16.9549 0.0553266Z" fill="#CECAFF"/>
<path d="M16.1651 40.6047C20.6942 40.6071 25.2233 40.612 29.7523 40.6047C29.9964 40.6047 30.2381 40.5326 30.4822 40.4966C31.4779 40.7177 32.4833 40.91 33.508 40.7946C34.2573 40.7105 34.4047 41.0662 34.3878 41.7152C34.3515 42.9579 34.337 44.2054 34.3926 45.4481C34.4264 46.2196 34.1751 46.4696 33.3872 46.4624C29.414 46.4288 25.4408 46.4456 21.4652 46.4456C18.8043 46.4456 16.1458 46.4119 13.4873 46.4648C12.6293 46.4816 12.4118 46.186 12.4481 45.3904C12.5061 44.1477 12.4988 42.9002 12.4481 41.6599C12.4167 40.9052 12.6366 40.5831 13.4462 40.6288C14.3501 40.6817 15.2588 40.6144 16.1651 40.5999V40.6047Z" fill="#ACA5FE"/>
<path d="M10.031 3.96359C10.1809 4.99475 10.3331 6.02591 10.483 7.05707C8.42144 7.04024 6.35991 7.04745 4.29838 6.98977C3.44042 6.96573 3.29541 7.35752 3.42109 8.069C3.67727 9.50637 3.96003 10.9389 4.15096 12.3859C4.54006 15.352 5.77988 17.8254 8.38277 19.4262C9.52833 20.1305 10.6739 21.1111 12.2327 20.5944C12.8587 21.5822 12.6557 22.7168 12.8079 23.7888C7.93324 23.6758 3.48151 20.4549 1.89851 15.5804C1.27497 13.6575 1.18797 11.6384 0.78678 9.67703C0.475014 8.15553 0.28892 6.60999 0.035157 5.07647C-0.0735988 4.41787 0.035157 4.08857 0.861701 4.103C3.58301 4.15347 6.30674 4.11501 9.02805 4.103C9.3664 4.103 9.72167 4.17751 10.031 3.96118V3.96359Z" fill="#ACA5FE"/>
<path d="M25.7906 17.7556H20.3407C20.2876 17.7051 20.2344 17.6547 20.1812 17.6066C20.1184 16.3903 20.116 16.3831 21.3727 16.3038C21.7763 16.2774 22.1485 16.2149 22.1171 15.7101C22.0325 14.3472 22.2379 12.9772 21.9963 11.6191C22.0253 11.4893 21.9745 11.4413 21.8464 11.4653C21.7522 11.4557 21.6603 11.4388 21.5661 11.4364C20.5913 11.4172 20.1297 10.9181 20.1812 9.93898L20.3407 9.78995C22.0591 9.78034 23.7798 9.80197 25.4982 9.74909C26.2184 9.72746 26.1193 10.1481 26.1241 10.5856C26.129 11.0398 26.1797 11.4292 25.4813 11.4196C24.2245 11.4028 24.2245 11.4437 24.2245 12.708C24.2245 13.6718 24.2487 14.6381 24.2149 15.5995C24.198 16.0923 24.285 16.3182 24.8602 16.3134C26.0275 16.3062 26.0299 16.3423 25.9525 17.6066C25.8994 17.6571 25.8438 17.7051 25.7906 17.7556Z" fill="#0E1626"/>
<path d="M21.8467 11.4654C21.9748 11.4414 22.0279 11.4895 21.9965 11.6193C21.9458 11.5688 21.895 11.5183 21.8467 11.4654Z" fill="#CECAFF"/>
<path d="M20.3414 9.79255L20.1819 9.94157C20.1602 9.81177 20.2061 9.75649 20.3414 9.79255Z" fill="#282F41"/>
<path d="M20.1819 17.6067C20.2351 17.6572 20.2883 17.7076 20.3414 17.7557C20.2061 17.7918 20.1602 17.7341 20.1819 17.6067Z" fill="#282F41"/>
<path d="M25.791 17.7557C25.8442 17.7052 25.8998 17.6572 25.9529 17.6067C25.9723 17.7341 25.9264 17.7918 25.791 17.7557Z" fill="#282F41"/>
<path d="M46.4834 5.82172C46.4713 5.75922 46.4665 5.69673 46.4689 5.63424L46.5342 5.25206C46.5873 5.06938 46.655 4.8867 46.6768 4.69922C46.6623 4.69201 46.6478 4.6848 46.6308 4.67518L46.6647 4.48289C46.4085 3.96611 45.9276 4.11994 45.5119 4.11754C42.6455 4.09591 39.7768 4.07908 36.9105 4.06226C36.7921 4.07427 36.6736 4.08629 36.5552 4.09831C36.4779 5.04775 36.403 5.99718 36.3256 6.94662C38.3243 6.96585 40.3206 7.01152 42.3193 6.98748C42.996 6.98027 43.2159 7.20381 43.1096 7.84318C42.9694 8.69166 42.9597 9.5738 42.7011 10.3838C42.3265 11.5688 42.4836 12.7971 42.2129 13.9965C41.7586 16.03 40.7194 17.6188 39.1364 18.9143C39.1339 19.0249 39.0929 19.0922 38.9672 19.0586C37.7733 20.0344 36.3812 20.5512 34.8659 20.7555C34.7402 20.7723 34.5976 20.645 34.4623 20.5873C34.4091 21.5944 33.7904 22.5606 34.2472 23.6038C35.1921 23.7577 36.0984 23.4716 36.9612 23.2072C40.2964 22.1857 42.8099 20.1546 44.231 16.9361C45.1735 14.8017 45.333 12.4894 45.6931 10.2228L45.9155 8.90799C45.9324 8.87915 45.9517 8.85271 45.9735 8.82386C45.9686 8.77098 45.9638 8.7157 45.9566 8.66282L46.017 8.30227C46.0411 8.28545 46.0726 8.26862 46.1136 8.25901C46.1209 8.03547 46.1306 7.81193 46.1378 7.58839L46.2417 6.97546C46.2611 6.96585 46.2852 6.95864 46.3118 6.95143C46.3167 6.8 46.3191 6.64617 46.3239 6.49474L46.4351 5.84335C46.4496 5.83614 46.4665 5.82893 46.4858 5.82412L46.4834 5.82172Z" fill="#CECAFF"/>
<path d="M36.5485 4.13432C36.5485 4.1199 36.5485 4.10788 36.5509 4.09586C36.505 3.97087 36.5461 3.87713 36.6017 3.7882L36.7322 2.96615C36.7201 2.80511 36.6548 2.62724 36.8047 2.51427L36.9183 1.80279C36.9279 1.50955 36.9569 1.2163 37.0464 0.918252C37.0633 0.858161 37.0754 0.802878 37.085 0.747594L37.0923 0.699521C37.1455 0.266867 36.8989 -0.0047445 36.2802 6.27796e-05C29.8371 0.0337137 23.3963 0.0409246 16.9531 0.0553464C16.9604 3.37717 17.3229 6.68218 17.5017 9.99439C17.6322 12.3788 17.6685 14.7728 17.9126 17.1476C18.2703 20.6521 18.089 24.2311 19.2684 27.6347C19.8533 29.3244 20.7789 30.7859 22.3015 31.7425C22.8284 32.0718 23.609 32.0934 24.2688 31.954C24.8319 31.8362 25.3853 31.8362 25.946 31.8218C26.1394 31.5526 26.4487 31.5382 26.7315 31.4372C30.1561 30.221 32.5052 27.9231 33.629 24.4643C33.7571 24.0701 33.8804 23.7817 34.2429 23.6014C33.7861 22.5582 34.4048 21.5919 34.458 20.5848C34.5909 19.371 34.719 18.1571 34.8567 16.9457C35.0598 15.1694 35.4392 13.4172 35.5745 11.6265C35.693 10.0521 35.7896 8.46087 36.3165 6.94417C36.3914 6.00675 36.4663 5.06933 36.5437 4.13192L36.5485 4.13432ZM25.482 11.4197C24.2253 11.4029 24.2253 11.4438 24.2253 12.7081C24.2253 13.672 24.2494 14.6382 24.2156 15.5997C24.1987 16.0924 24.2857 16.3184 24.8609 16.3136C26.0282 16.3063 26.0306 16.3424 25.9533 17.6067C25.9726 17.7341 25.9267 17.7918 25.7913 17.7557H20.3415C20.2061 17.7918 20.1602 17.7341 20.182 17.6067C20.1191 16.3905 20.1167 16.3833 21.3734 16.3039C21.777 16.2775 22.1492 16.215 22.1178 15.7102C22.0332 14.3474 22.2387 12.9773 21.997 11.6192C21.9462 11.5688 21.8955 11.5183 21.8471 11.4654C21.7529 11.4558 21.661 11.439 21.5668 11.4366C20.592 11.4173 20.1304 10.9182 20.182 9.9391C20.1602 9.80931 20.2061 9.75402 20.3415 9.79008C22.0598 9.78046 23.7806 9.8021 25.4989 9.74922C26.2191 9.72758 26.12 10.1482 26.1249 10.5857C26.1297 11.04 26.1804 11.4294 25.482 11.4197Z" fill="#DEDBFF"/>
</svg>
