<svg width="49" height="50" viewBox="0 0 49 50" fill="none" xmlns="http://www.w3.org/2000/svg">
<mask id="mask0_4363_2335" style="mask-type:luminance" maskUnits="userSpaceOnUse" x="0" y="0" width="49" height="50">
<path d="M48.2378 0.194824H0.621826V49.3468H48.2378V0.194824Z" fill="white"/>
</mask>
<g mask="url(#mask0_4363_2335)">
<path d="M17.3338 0.231959C20.8812 0.225292 24.4285 0.218959 27.9758 0.212959C31.5448 0.208959 35.1138 0.229959 38.6858 0.194959C39.3278 0.188959 39.4738 0.382959 39.4358 0.977959C39.3878 1.73896 39.4358 2.50596 39.4418 3.27096C39.4418 4.24963 39.4418 5.22829 39.4418 6.20696C39.2248 6.39196 39.3108 6.64496 39.3218 6.86296C39.3498 7.91781 39.293 8.97321 39.1518 10.019C38.923 12.3891 38.4481 14.7291 37.7348 17.001C37.3428 18.3958 36.8038 19.745 36.1268 21.026C36.0234 21.4114 35.8542 21.7761 35.6268 22.104C35.0748 23.03 34.5168 23.953 33.9608 24.876C33.4868 25.408 33.0238 25.951 32.5358 26.469C31.5509 27.4636 30.4574 28.3445 29.2758 29.095C28.4649 29.5955 27.7956 30.2952 27.3316 31.1275C26.8676 31.9598 26.6243 32.897 26.6248 33.85C26.6108 34.7 26.6428 35.55 26.6058 36.399C26.5858 36.867 26.7138 37.025 27.2058 37.013C28.5648 36.979 29.9258 36.98 31.2848 37.013C31.9998 36.9843 32.7077 37.1635 33.3228 37.529C33.7098 37.7681 34.0288 38.1028 34.2489 38.5009C34.4691 38.899 34.583 39.3471 34.5798 39.802C34.5878 40.397 34.5798 40.992 34.5858 41.587L20.7858 41.593C20.7858 41.21 20.8088 40.825 20.7788 40.445C20.6732 39.6988 20.8499 38.9401 21.2744 38.3175C21.699 37.6949 22.3407 37.2532 23.0738 37.079C23.4148 36.996 23.4738 36.789 23.4738 36.472C23.4578 35.366 23.5318 34.255 23.4498 33.155C23.3971 31.6678 22.9378 30.2234 22.1218 28.979C21.6804 28.3824 21.2843 27.7537 20.9368 27.098C19.8294 24.6927 19.0391 22.1538 18.5858 19.545C18.002 16.579 17.6397 13.5737 17.5018 10.554C17.3908 8.54496 17.2778 6.52696 17.3338 4.50796C17.3728 3.08396 17.3388 1.65696 17.3338 0.231959Z" fill="#8AF3B7"/>
<path d="M17.3338 0.231934C17.3338 1.65693 17.3688 3.08293 17.3338 4.50693C17.2778 6.52693 17.3908 8.54493 17.5018 10.5529C17.6383 13.5729 17.9993 16.5785 18.5818 19.5449C19.0369 22.1536 19.8289 24.6922 20.9378 27.0969C21.285 27.7526 21.6808 28.3814 22.1218 28.9779C22.9379 30.2224 23.3972 31.6667 23.4498 33.1539C23.5318 34.2539 23.4578 35.3649 23.4738 36.4709C23.4738 36.7869 23.4148 36.9939 23.0738 37.0769C22.3405 37.2514 21.6987 37.6935 21.2743 38.3165C20.85 38.9395 20.6736 39.6986 20.7798 40.4449C20.8098 40.8259 20.7858 41.2099 20.7868 41.5929L14.7718 41.6289L14.2718 41.5849C14.2087 40.7416 14.2541 39.8937 14.4068 39.0619C14.6 38.4724 14.9721 37.9577 15.4714 37.5895C15.9708 37.2214 16.5725 37.0181 17.1928 37.0079C18.7028 36.9929 20.2138 36.9759 21.7238 37.0149C22.2768 37.0289 22.4018 36.8459 22.3798 36.3319C22.4267 35.1683 22.3704 34.0027 22.2118 32.8489C22.0534 32.0893 21.7443 31.3691 21.3028 30.7309C21.3088 30.4679 21.2398 30.2599 20.9328 30.2309C20.3492 29.6382 19.6989 29.115 18.9948 28.6719L18.8528 28.5719C17.4405 27.5889 16.195 26.3856 15.1638 25.0079C15.1388 24.8389 15.1098 24.6779 14.9058 24.8849C14.1309 24.7502 13.3651 24.5675 12.6128 24.3379C12.5962 24.2731 12.5641 24.2134 12.5193 24.1637C12.4745 24.1141 12.4183 24.0761 12.3555 24.053C12.2928 24.0298 12.2253 24.0223 12.159 24.031C12.0927 24.0397 12.0295 24.0644 11.9748 24.1029L10.1818 23.4369C10.1678 23.1989 10.0318 23.2969 9.91583 23.3369L9.66483 23.1669L9.52783 23.0819C8.68255 22.7936 7.88382 22.3837 7.15683 21.8649C6.59866 21.5472 6.07079 21.179 5.57983 20.7649L5.45283 20.6569L5.06783 20.3769L4.92983 20.2769C2.93228 18.6502 1.54141 16.3976 0.981827 13.8829C1.17383 13.7059 1.04283 13.6589 0.881827 13.6259C0.727148 12.9299 0.644049 12.2199 0.633827 11.5069C0.636866 10.606 0.785447 9.71147 1.07383 8.85793C1.15583 8.66393 1.20483 8.45793 1.27383 8.25793L1.37383 8.11693C1.98587 6.66414 3.04333 5.44316 4.39383 4.62993C5.83954 3.83476 7.44618 3.37636 9.09383 3.28893C9.46183 3.24093 9.55483 3.08893 9.55283 2.75993C9.54783 1.95193 9.56383 1.14393 9.57183 0.335934L9.67183 0.235934L17.3338 0.231934ZM11.6218 18.3569C11.1778 16.8329 10.6758 15.3299 10.3418 13.7699C10.1148 12.7099 9.94183 11.6489 9.80683 10.5789C9.61816 9.28606 9.5309 7.98041 9.54583 6.67393C9.55383 6.42793 9.45783 6.35193 9.21483 6.33893C8.41389 6.25499 7.60449 6.36335 6.85384 6.65502C6.10319 6.94668 5.43296 7.41324 4.89883 8.01593C4.3657 8.64069 3.98634 9.38165 3.79115 10.1794C3.59596 10.9772 3.59037 11.8096 3.77483 12.6099C4.08215 14.4472 4.96366 16.1398 6.29283 17.4449C7.22562 18.3283 8.27261 19.0827 9.40583 19.6879C10.4659 20.2471 11.5612 20.7368 12.6848 21.1539C12.7848 20.8099 12.5648 20.6219 12.4848 20.3919L12.3848 20.2699L12.1018 19.4959L12.0098 19.3769L11.8458 18.8599L11.7458 18.7379L11.7148 18.4859L11.6218 18.3569Z" fill="#5CDD94"/>
<path d="M14.7728 41.6279L20.7878 41.5919L34.5878 41.5859C34.9508 41.8569 35.3698 41.7309 35.7588 41.7219C35.9757 41.6898 36.1971 41.7074 36.4063 41.7733C36.6154 41.8392 36.8068 41.9518 36.9661 42.1025C37.1254 42.2532 37.2484 42.4381 37.3258 42.6433C37.4031 42.8485 37.4329 43.0686 37.4128 43.2869C37.4778 45.1579 37.4328 47.0329 37.4428 48.9069C37.4428 49.1839 37.3428 49.2979 37.0708 49.2689C36.9859 49.2645 36.9008 49.2645 36.8158 49.2689H13.8858C13.7588 49.2689 13.6308 49.2569 13.5038 49.2499C13.5038 47.4879 13.5438 45.7249 13.4948 43.9639C13.4312 43.4891 13.5213 43.0064 13.7518 42.5864C13.9823 42.1665 14.3411 41.8313 14.7758 41.6299" fill="#54A175"/>
<path d="M39.4348 6.207C39.4348 5.22833 39.4348 4.24966 39.4348 3.271C41.2213 3.27232 42.9768 3.73713 44.5298 4.62C45.4438 5.14542 46.2307 5.86589 46.8344 6.73012C47.4381 7.59434 47.8439 8.58106 48.0228 9.62C48.533 12.2868 48.0058 15.0478 46.5488 17.339C45.3116 19.3075 43.59 20.9258 41.5488 22.039C39.7493 23.0309 37.848 23.8255 35.8778 24.409C35.2528 24.622 34.5928 24.73 33.9478 24.885C34.5038 23.961 35.0618 23.039 35.6138 22.113C35.8412 21.7851 36.0104 21.4204 36.1138 21.035C36.3876 21.0572 36.6626 21.0108 36.9138 20.9C37.9476 20.4883 38.9526 20.0076 39.9218 19.461C41.2779 18.7177 42.478 17.7202 43.4568 16.523C44.6406 15.0004 45.2519 13.1104 45.1838 11.183C45.1697 10.3886 44.9668 9.60892 44.5919 8.90837C44.2171 8.20783 43.6809 7.60649 43.0278 7.154C42.6558 6.889 42.1998 6.921 41.8798 6.597C41.6938 6.409 41.4198 6.443 41.1548 6.413C40.5725 6.45072 39.9881 6.38296 39.4298 6.213" fill="#8AF3B7"/>
<path d="M14.7718 41.628C14.3371 41.8294 13.9783 42.1645 13.7478 42.5845C13.5173 43.0045 13.4272 43.4872 13.4908 43.962C13.5398 45.723 13.5018 47.486 13.4998 49.248C12.8498 49.248 12.0258 49.534 11.5998 49.135C11.2348 48.79 11.5068 47.966 11.4998 47.354C11.4848 45.912 11.4938 44.47 11.4898 43.027C11.5612 42.653 11.7528 42.3126 12.0355 42.0575C12.3182 41.8024 12.6765 41.6467 13.0558 41.614C13.4558 41.592 13.8618 41.593 14.2648 41.583L14.7648 41.627" fill="#2B6A46"/>
</g>
</svg>
