<svg width="12" height="24" viewBox="0 0 12 24" fill="none" xmlns="http://www.w3.org/2000/svg">
<path fill-rule="evenodd" clip-rule="evenodd" d="M4.71798 22.0403V11.8139C2.0279 11.2366 0 8.82436 0 5.97912C0 2.6803 2.69008 0 6.00094 0C9.31181 0 12.0019 2.6803 12.0019 5.97912C12.0019 8.82436 9.97398 11.2366 7.2839 11.8139V22.0403C7.2839 22.7413 6.7045 23.3186 6.00094 23.3186C5.29738 23.3186 4.71798 22.7413 4.71798 22.0403ZM10.4706 5.97912C10.4706 3.52562 8.4634 1.52571 6.00094 1.52571C4.39168 1.52571 2.97685 2.37984 2.18962 3.65652C2.95184 2.8812 4.01268 2.40039 5.18582 2.40039C7.50622 2.40039 9.38727 4.28144 9.38727 6.60184C9.38727 8.16173 8.53719 9.52307 7.27501 10.2479C9.11981 9.69932 10.4706 7.99185 10.4706 5.97912Z" fill="#153330"/>
</svg>
