<svg width="19" height="24" viewBox="0 0 19 24" fill="none" xmlns="http://www.w3.org/2000/svg">
<path d="M14.2355 7.69816C14.7861 7.70044 15.3356 7.70386 15.8862 7.70272C16.1226 7.70272 16.359 7.73349 16.5833 7.79503C16.8464 7.86684 17.1072 7.98081 17.3181 8.16545C17.8054 8.59056 18.1906 9.09546 18.3405 9.7508C18.3904 9.97077 18.3993 10.1987 18.3993 10.4267C18.3993 14.0248 18.3971 17.624 18.3993 21.2221C18.3993 21.5401 18.3727 21.8501 18.2739 22.1567C18.0974 22.7015 17.7799 23.1278 17.3326 23.4674C17.1727 23.5882 17.0084 23.7045 16.8486 23.823C16.7753 23.8777 16.6377 23.8788 16.5311 23.913C16.3213 23.9803 16.1048 23.9996 15.8873 23.9996C11.4482 23.9996 7.01017 24.0065 2.57106 23.9951C1.42216 23.9917 0.354284 23.1665 0.0923112 21.9926C0.026818 21.6997 -0.0220244 21.3977 0.0101672 21.0911C0.0157175 21.0352 0.0112773 20.9771 0.0112773 20.9201C0.0112773 17.469 0.0112773 14.0179 0.0079471 10.5657C0.0079471 9.82375 0.181116 9.14219 0.667319 8.57803C1.09469 8.08225 1.63085 7.78592 2.28689 7.72893C2.82637 7.6822 3.36586 7.71297 3.90535 7.70956C4.00858 7.70956 4.11071 7.70614 4.21394 7.6993C4.81781 7.70044 5.42279 7.705 6.02666 7.6993C6.10991 7.6993 6.19428 7.75856 6.27753 7.6993C6.42184 7.71867 6.56726 7.69816 6.71156 7.6993C8.44991 7.70728 10.1883 7.70386 11.9266 7.70614C11.991 7.70614 12.0432 7.69246 12.0898 7.64801C12.1264 7.77338 12.2219 7.70158 12.2874 7.70158C12.9367 7.70386 13.5861 7.70158 14.2355 7.69816ZM7.96149 17.4041H7.96038C7.96038 17.632 7.96038 17.8599 7.96038 18.0879C7.96038 18.3158 7.96704 18.5438 7.96038 18.7717C7.94928 19.1535 8.118 19.606 8.45213 19.8659C8.67192 20.0368 8.93056 20.1736 9.21474 20.1485C9.59548 20.1155 9.93072 19.9616 10.1772 19.6379C10.3936 19.3518 10.4536 19.0247 10.4524 18.6749C10.4524 17.787 10.4569 16.8992 10.4524 16.0113C10.4524 15.8848 10.4924 15.8039 10.5834 15.7218C11.134 15.2192 11.3416 14.573 11.2484 13.8379C11.2006 13.4606 11.0896 13.0925 10.811 12.8018C10.6467 12.6297 10.4957 12.4508 10.2804 12.3368C10.1561 12.2719 10.0095 12.2388 9.9063 12.175C9.75755 12.0838 9.60881 12.0553 9.45895 12.0382C8.935 11.9812 8.4599 12.1066 8.01588 12.4189C7.64179 12.6822 7.39758 13.0401 7.23329 13.4458C7.07677 13.8344 7.09231 14.2675 7.19888 14.6699C7.30988 15.0881 7.51524 15.4711 7.86047 15.748C7.94372 15.8153 7.96482 15.8928 7.96371 15.9942C7.96038 16.4638 7.96259 16.9345 7.96259 17.4041H7.96149Z" fill="#CECAFF"/>
<path d="M14.2355 7.69815C13.5861 7.70043 12.9367 7.70385 12.2873 7.70157C12.2218 7.70157 12.1264 7.77224 12.0897 7.64801C12.0986 7.59216 12.1164 7.53745 12.1164 7.48161C12.1186 6.7556 12.1219 6.0296 12.1186 5.30359C12.1175 4.99586 12.0997 4.68814 12.022 4.38953C11.8266 3.63959 11.3893 3.07087 10.7699 2.63777C10.5712 2.49873 10.3714 2.36766 10.1383 2.29472C9.69424 2.15567 9.2491 2.09298 8.78399 2.17277C8.34441 2.24799 7.9348 2.38703 7.5818 2.67197C7.26433 2.92726 6.9746 3.20992 6.75481 3.56095C6.47508 4.00772 6.30968 4.49439 6.29969 5.0255C6.2897 5.56573 6.29969 6.1071 6.29636 6.64847C6.29414 6.9995 6.28526 7.3494 6.2786 7.70043C6.19646 7.7597 6.11098 7.70043 6.02773 7.70043C5.42386 7.70499 4.81888 7.70043 4.21501 7.70043C4.21501 6.82512 4.22722 5.94981 4.21168 5.07565C4.19947 4.42828 4.31713 3.81169 4.54691 3.21333C4.63683 2.97969 4.75782 2.76428 4.88881 2.55229C5.10638 2.20126 5.3073 1.83655 5.61257 1.55389C6.19201 1.01594 6.82253 0.563473 7.56848 0.28766C7.957 0.144054 8.36106 0.114421 8.75957 0.0346406C9.19027 -0.0519785 9.60099 0.0460379 10.0217 0.0882077C10.3536 0.12126 10.67 0.214717 10.9752 0.321851C11.3571 0.456339 11.7201 0.645533 12.0453 0.915648C12.2307 1.06951 12.4394 1.19944 12.6203 1.3647C12.8856 1.60746 13.1065 1.88897 13.3152 2.18416C13.5927 2.57737 13.8081 3.00021 13.9668 3.45838C14.1289 3.92908 14.1733 4.41688 14.2044 4.90697C14.2643 5.83584 14.2199 6.767 14.2388 7.69701L14.2355 7.69815Z" fill="#A19AFF"/>
<path d="M7.9626 17.404C7.9626 16.9345 7.96038 16.4638 7.96371 15.9942C7.96371 15.8928 7.94373 15.8141 7.86048 15.748C7.51525 15.4711 7.30989 15.0881 7.19889 14.6698C7.09232 14.2687 7.07678 13.8356 7.2333 13.4458C7.39648 13.0389 7.6418 12.681 8.01589 12.4189C8.45991 12.1066 8.93501 11.9812 9.45896 12.0382C9.60993 12.0542 9.75867 12.0827 9.90631 12.175C10.0095 12.2388 10.1561 12.2719 10.2804 12.3368C10.4957 12.4497 10.6467 12.6297 10.811 12.8018C11.0896 13.0925 11.2006 13.4606 11.2484 13.8378C11.3416 14.573 11.1351 15.218 10.5834 15.7218C10.4924 15.805 10.4525 15.8848 10.4525 16.0113C10.4569 16.8991 10.4525 17.787 10.4525 18.6748C10.4525 19.0247 10.3936 19.3518 10.1772 19.6379C9.93184 19.9627 9.59549 20.1154 9.21475 20.1485C8.93057 20.1736 8.67193 20.0379 8.45214 19.8658C8.11801 19.606 7.94928 19.1535 7.96038 18.7717C7.96704 18.5438 7.96038 18.3158 7.96038 18.0879C7.96038 17.8599 7.96038 17.632 7.96038 17.404H7.96149H7.9626Z" fill="#0C0A29"/>
</svg>
