<svg width="20" height="20" viewBox="0 0 20 20" fill="none" xmlns="http://www.w3.org/2000/svg">
<g clip-path="url(#clip0_9271_142)">
<path d="M19.8414 5.67082L10.1581 0.0421878C10.0605 -0.0140626 9.94065 -0.0140626 9.84312 0.0421878L0.158646 5.67082C0.0611082 5.72826 0 5.83358 0 5.94728V6.6929C0 6.86883 0.141019 7.01245 0.316117 7.01245H19.6839C19.8578 7.01245 20 6.87003 20 6.6929V5.94728C20 5.83358 19.9401 5.72707 19.8414 5.67082ZM9.99941 5.47214C9.12744 5.47214 8.42 4.75764 8.42 3.87679C8.42 2.99593 9.12744 2.28023 9.99941 2.28023C10.8714 2.28023 11.5788 2.99473 11.5788 3.87679C11.5788 4.75884 10.8714 5.47214 9.99941 5.47214Z" fill="#153330"/>
<path d="M2.35778 7.9082V16.1866H1.42588C1.33069 16.1866 1.25195 16.2656 1.25195 16.3625V17.4049C1.25195 17.5019 1.32951 17.5809 1.42588 17.5809H18.5761C18.6713 17.5809 18.75 17.5019 18.75 17.4049V16.3625C18.75 16.2656 18.6725 16.1866 18.5761 16.1866H17.6442V7.9082H2.35778ZM8.525 16.1866H5.22398V11.3359C5.22398 10.4155 5.96316 9.66872 6.87391 9.66872C7.78465 9.66872 8.52383 10.4155 8.52383 11.3359V16.1866H8.525ZM14.7792 16.1866H11.4782V11.3359C11.4782 10.4155 12.2173 9.66872 13.1281 9.66872C14.0388 9.66872 14.778 10.4155 14.778 11.3359V16.1866H14.7792Z" fill="#153330"/>
<path d="M0.123047 18.6837V19.8243C0.123047 19.9213 0.200607 20.0002 0.29697 20.0002H19.7047C19.8011 20.0002 19.8786 19.9224 19.8786 19.8243V18.6837C19.8786 18.5868 19.8011 18.5078 19.7047 18.5078H0.29697C0.200607 18.5078 0.123047 18.5868 0.123047 18.6837Z" fill="#153330"/>
</g>
<defs>
<clipPath id="clip0_9271_142">
<rect width="20" height="20" fill="white"/>
</clipPath>
</defs>
</svg>
