<svg width="18" height="23" viewBox="0 0 18 23" fill="none" xmlns="http://www.w3.org/2000/svg">
<path d="M18 17.595C16.1143 16.7228 14.5629 15.2437 13.3207 13.572C14.3711 13.6447 15.6363 13.4751 17.1876 12.9179C15.3731 12.1668 13.9172 10.8574 12.7715 9.40374C13.5598 9.40374 14.4906 9.2826 15.6121 8.89496C10.7421 6.90715 9 0 9 0C9 0 7.25679 6.90715 2.38787 8.87074C3.50944 9.25838 4.44134 9.40374 5.22853 9.37951C4.08284 10.8332 2.62687 12.1426 0.812401 12.8937C2.36375 13.4509 3.65306 13.5963 4.67925 13.5478C3.43818 15.2195 1.88574 16.7228 0 17.5707C3.89097 19.0728 6.18236 18.5398 7.4958 17.6919L7.11427 23H10.8857L10.5042 17.6919C11.7935 18.5641 14.109 19.0971 18 17.595Z" fill="#153330"/>
</svg>
