<svg width="18" height="19" viewBox="0 0 18 19" fill="none" xmlns="http://www.w3.org/2000/svg">
<path d="M8.48932 17.7029C6.49812 17.706 4.50692 17.7084 2.51571 17.7127C2.12302 17.7135 1.71076 17.3691 1.59076 16.9925C1.51525 16.7557 1.55899 16.5312 1.55899 16.3009C1.55917 13.5431 1.56022 10.7852 1.56103 8.02734C3.86913 8.02574 6.17723 8.02408 8.48533 8.02246C8.48832 8.40196 8.49407 8.7814 8.49397 9.16089C8.49307 12.0082 8.49103 14.8555 8.48932 17.7029Z" fill="#CECAFF"/>
<path d="M16.373 8.02783C16.3727 10.9291 16.3734 13.8305 16.3715 16.7318C16.3712 17.2513 15.9439 17.704 15.4361 17.7074C14.4085 17.7141 13.3808 17.7071 12.3531 17.7048C12.3141 17.7047 12.2752 17.6942 12.2362 17.6887C12.2383 17.586 12.2419 17.4833 12.242 17.3805C12.2431 14.2644 12.2439 11.1483 12.2448 8.03221C13.6208 8.0307 14.9969 8.02927 16.373 8.02783Z" fill="#DEDBFF"/>
<path d="M8.48937 17.7027C8.49107 14.8554 8.49311 12.0081 8.49402 9.16074C8.49412 8.7813 8.48837 8.40181 8.48538 8.02236C8.48879 7.10757 8.4926 6.19277 8.4954 5.27797C8.49655 4.9199 8.49549 4.92052 8.13248 4.89102C8.08647 4.88727 8.04149 4.87212 7.99567 4.86434C7.52708 4.78465 7.06861 4.65016 6.59347 4.60632C6.53616 4.54093 6.4653 4.56315 6.39587 4.57569C6.384 4.57356 6.37289 4.56942 6.36253 4.5633C6.02065 4.42691 5.65427 4.39428 5.29791 4.32604C4.81114 4.23282 4.33563 4.07629 4.05215 3.675C3.53413 2.94176 3.43768 2.20087 4.13602 1.3999C4.55203 0.922773 5.09493 0.794788 5.71877 0.889625C6.18241 0.9601 6.50496 1.21132 6.8038 1.54223C7.46938 2.27913 8.14977 3.00259 8.81838 3.73674C8.92043 3.84876 8.96996 3.83271 9.0744 3.73393C9.65467 3.18486 10.1644 2.57053 10.7103 1.98987C10.9258 1.76059 11.1301 1.51944 11.3584 1.30378C12.1989 0.510181 13.6731 0.794503 14.1007 1.85324C14.5193 2.88985 14.0319 3.99475 12.8634 4.26952C12.4453 4.36788 12.02 4.43621 11.5984 4.52022C11.57 4.52592 11.545 4.54843 11.5184 4.56315C11.5104 4.5689 11.5016 4.57256 11.4919 4.57417C11.4221 4.56448 11.3505 4.54392 11.2923 4.60632C11.1912 4.61511 11.0913 4.62185 10.9898 4.64066C10.5218 4.72714 10.0635 4.86837 9.58553 4.8971C9.45152 4.90518 9.43759 4.98947 9.43792 5.09119C9.44111 6.06825 9.44448 7.04526 9.44785 8.02232C9.44529 8.04587 9.44054 8.06943 9.44054 8.09298C9.4412 11.2953 9.4422 14.4977 9.4432 17.6999C9.39698 17.9099 9.30804 18.0874 9.07582 18.1373C8.77587 18.2018 8.54307 18.0263 8.48937 17.7027ZM7.58317 3.78651C7.50628 3.65676 7.40968 3.58486 7.33256 3.49848C6.87043 2.98065 6.40242 2.46738 5.91935 1.96916C5.68832 1.73096 5.31419 1.70674 5.02108 1.86302C4.72099 2.02302 4.55033 2.36893 4.59933 2.71794C4.63761 2.99096 4.91618 3.25932 5.20093 3.34148C5.81027 3.51724 6.44517 3.56891 7.05674 3.73726C7.21051 3.77957 7.38684 3.83096 7.58317 3.78651ZM10.3157 3.79743C10.3434 3.81196 10.3581 3.82687 10.3694 3.82459C11.1314 3.67134 11.8945 3.52374 12.654 3.35957C13.1187 3.25913 13.2422 3.01693 13.3014 2.5398C13.3669 2.01129 12.6492 1.57505 12.1827 1.85072C11.9878 1.96593 11.8454 2.13011 11.697 2.29058C11.2371 2.78808 10.7811 3.28914 10.3157 3.79743Z" fill="#15123F"/>
<path d="M9.44321 17.6998C9.44221 14.4975 9.44122 11.2952 9.44055 8.09286C9.44055 8.06931 9.44531 8.04575 9.44781 8.02219C10.3774 8.02087 11.307 8.0195 12.2367 8.01807L12.2448 8.03214C12.2439 11.1482 12.2432 14.2643 12.242 17.3804C12.242 17.4831 12.2383 17.5859 12.2362 17.6886C11.3052 17.6923 10.3742 17.696 9.44321 17.6998Z" fill="#CECAFF"/>
<path d="M6.36253 4.56348C6.37293 4.56961 6.38404 4.57373 6.39596 4.57587C6.45537 4.62772 6.5258 4.60835 6.59347 4.6065C7.0686 4.65033 7.52712 4.78482 7.99565 4.8645C8.04148 4.8723 8.08646 4.88745 8.13247 4.8912C8.49549 4.92069 8.49653 4.92007 8.49544 5.27815C8.49259 6.19295 8.48879 7.10774 8.48537 8.02254C6.17727 8.02411 3.86917 8.02576 1.56107 8.02738C1.30063 8.01955 1.0402 8.00744 0.779715 8.00592C0.667734 8.00526 0.625041 7.96408 0.625516 7.85266C0.62903 7.06177 0.619152 6.27069 0.633969 5.48003C0.643752 4.9576 1.10455 4.56665 1.64137 4.57193C2.4401 4.57981 3.23902 4.57492 4.03785 4.57317C4.81274 4.57145 5.58763 4.56679 6.36253 4.56348Z" fill="#ACA5FF"/>
<path d="M16.373 8.02767C14.9969 8.02909 13.6208 8.03051 12.2447 8.03204L12.2367 8.01813C12.2366 6.8739 12.2365 5.72963 12.2363 4.58532C12.5437 4.58 12.8509 4.57083 13.1582 4.57007C13.9948 4.56793 14.8313 4.56604 15.6679 4.57107C15.9661 4.57287 16.2648 4.5875 16.5623 4.60934C16.9192 4.63551 17.2873 5.03965 17.3006 5.48174C17.3243 6.27026 17.3082 7.05992 17.3121 7.84906C17.3128 7.98506 17.2356 7.99685 17.1289 7.99903C16.8769 8.00421 16.6249 8.0176 16.373 8.02767Z" fill="#CECAFF"/>
<path d="M12.2364 4.58531C12.2366 5.72963 12.2367 6.8739 12.2368 8.01811C11.3071 8.0194 10.3775 8.02077 9.44787 8.0222C9.44454 7.0451 9.44118 6.06804 9.43799 5.09103C9.43766 4.98936 9.45156 4.90501 9.58559 4.89699C10.0635 4.86821 10.5219 4.72697 10.9898 4.64049C11.0913 4.62173 11.1913 4.61495 11.2924 4.60621C11.3608 4.60739 11.4322 4.62725 11.4919 4.57406C11.5016 4.5724 11.5105 4.56874 11.5185 4.56299C11.7577 4.5704 11.9971 4.5779 12.2364 4.58531Z" fill="#ACA5FF"/>
<path d="M6.59351 4.60614C6.52584 4.608 6.45541 4.62742 6.396 4.57552C6.46529 4.56299 6.53619 4.54075 6.59351 4.60614Z" fill="#E25F95"/>
<path d="M11.4919 4.57415C11.4322 4.62734 11.3608 4.60749 11.2924 4.6063C11.3506 4.54389 11.4221 4.56441 11.4919 4.57415Z" fill="#E25F95"/>
</svg>
