<svg width="26" height="22" viewBox="0 0 26 22" fill="none" xmlns="http://www.w3.org/2000/svg">
<g clip-path="url(#clip0_4379_237)">
<path d="M16.0001 7.5C16.0001 6.1215 14.6543 5 13.0001 5C11.3459 5 10.0001 6.1215 10.0001 7.5V8.5C10.0001 9.8785 11.3459 11 13.0001 11C14.6543 11 16.0001 9.8785 16.0001 8.5V7.5Z" fill="#0E1626"/>
<path d="M7.58337 17.4912V19.8299C7.58337 20.1532 7.82604 20.4146 8.12504 20.4146H17.875C18.174 20.4146 18.4167 20.1532 18.4167 19.8299V17.4912C18.4167 14.5894 16.2295 12.229 13.5417 12.229H12.4584C9.77062 12.229 7.58337 14.5894 7.58337 17.4912Z" fill="#0E1626"/>
<path d="M6.50012 9C7.87862 9 9.00012 8.06542 9.00012 6.91667V6.08333C9.00012 4.93458 7.87862 4 6.50012 4C5.12162 4 4.00012 4.93458 4.00012 6.08333V6.91667C4.00012 8.06542 5.12162 9 6.50012 9Z" fill="#0E1626"/>
<path d="M6.50004 17.491C6.50004 14.6904 8.16296 12.3049 10.4813 11.4279C9.59838 10.4807 8.38504 9.89014 7.04171 9.89014H5.95837C3.27171 9.89014 1.08337 12.2523 1.08337 15.1523V17.491C1.08337 17.8126 1.32712 18.0757 1.62504 18.0757H6.50004V17.491Z" fill="#0E1626"/>
<path d="M19.5001 9C20.8786 9 22.0001 8.06542 22.0001 6.91667V6.08333C22.0001 4.93458 20.8786 4 19.5001 4C18.1216 4 17.0001 4.93458 17.0001 6.08333V6.91667C17.0001 8.06542 18.1216 9 19.5001 9Z" fill="#0E1626"/>
<path d="M20.0417 9.89014H18.9584C17.615 9.89014 16.4017 10.4807 15.5188 11.4279C17.8371 12.3049 19.5 14.6904 19.5 17.491V18.0757H24.3751C24.673 18.0757 24.9167 17.8126 24.9167 17.491V15.1523C24.9167 12.2523 22.7284 9.89014 20.0417 9.89014Z" fill="#0E1626"/>
</g>
<defs>
<clipPath id="clip0_4379_237">
<rect width="26" height="22" fill="white"/>
</clipPath>
</defs>
</svg>
