<svg width="24" height="26" viewBox="0 0 24 26" fill="none" xmlns="http://www.w3.org/2000/svg">
<g clip-path="url(#clip0_2037_3589)">
<path d="M7.38232 15.7854C7.38463 14.8695 7.38386 13.9545 7.38924 13.0386C7.39309 12.4355 7.73064 12.0755 8.33193 12.0732C10.7525 12.0662 13.173 12.0647 15.5943 12.0732C16.2463 12.0755 16.6077 12.4742 16.6108 13.154C16.6169 14.6497 16.6162 16.1454 16.6177 17.6411C16.6177 18.221 16.6185 18.8008 16.6162 19.3807C16.61 20.888 16.6023 22.3953 16.5954 23.9026C16.0072 23.802 15.419 23.7006 14.83 23.6015C12.9977 23.2918 11.2376 22.7344 9.53143 22.0036C8.81711 21.6978 8.1174 21.3595 7.41077 21.0359C7.40155 20.8694 7.38463 20.7022 7.38463 20.5357C7.38232 18.9518 7.38232 17.3678 7.38232 15.7838V15.7854Z" fill="#4294FF"/>
<path d="M17.532 0.923584C17.5335 2.74755 17.439 4.56067 16.9215 6.3258C16.3494 8.27441 15.1699 9.65864 13.243 10.3569C11.9489 10.8261 10.6103 10.998 9.24392 11.0831C8.62341 11.1218 8.00597 11.1358 7.38623 11.1396C7.40468 10.5629 7.42545 9.98534 7.44774 9.40858C7.49618 8.15828 7.6515 6.93043 8.00751 5.73433C8.2997 4.75344 8.74105 3.85307 9.4769 3.10986C10.3842 2.19401 11.4953 1.6877 12.7163 1.39119C14.2987 1.00642 15.9127 0.927455 17.5335 0.923584H17.532ZM10.1566 6.49147C10.1605 6.88011 10.4342 7.29739 10.791 7.39571C11.1416 7.49171 11.4691 7.40655 11.736 7.13249C12.3088 6.54489 12.8663 5.93871 13.4691 5.3844C13.8243 5.0577 13.8428 4.69383 13.7636 4.28507C13.6898 3.90572 13.3845 3.80353 13.06 3.74237C12.6694 3.66882 12.3718 3.85927 12.1127 4.11242C11.5868 4.62648 11.0639 5.14518 10.5603 5.68091C10.3458 5.90852 10.1074 6.14851 10.1566 6.49147Z" fill="#E6ECFF"/>
<path d="M7.38242 15.7856C7.38242 17.3696 7.38242 18.9535 7.38472 20.5375C7.38472 20.7039 7.40164 20.8712 7.41087 21.0376C7.40472 22.6889 7.39856 24.3403 7.39164 25.9916C5.21409 25.9947 3.03731 26.0016 0.859751 25.9962C0.3169 25.9947 0.0108736 25.6393 0.0101047 25.044C0.00702909 22.5805 0.0185627 20.1171 -0.000660018 17.6537C-0.00373566 17.2372 0.0923781 16.8323 0.0585461 16.4111C0.0362477 16.1254 0.296139 15.8955 0.564489 15.8769C0.890507 15.8537 1.21114 15.7167 1.54408 15.7995C2.86584 17.656 4.49208 19.1819 6.46972 20.4423V15.8003C6.77344 15.7956 7.07716 15.791 7.38088 15.7856H7.38242Z" fill="#2045CE"/>
<path d="M17.5296 17.6575C19.385 17.6528 21.2412 17.6412 23.0965 17.6482C23.5686 17.6497 23.9862 18.0933 23.9869 18.578C23.9915 20.4592 23.9823 22.3405 23.9785 24.2217C21.9501 24.262 19.9248 24.1915 17.9002 24.0731C17.5758 24.0545 17.5273 23.912 17.5281 23.6388C17.5342 21.6445 17.5304 19.651 17.5296 17.6567V17.6575Z" fill="#376CFB"/>
<path d="M7.39233 25.9908C7.39849 24.3395 7.40464 22.6882 7.41156 21.0369C8.11819 21.3605 8.81866 21.6996 9.53221 22.0046C11.2384 22.7354 12.9985 23.292 14.8308 23.6025C15.419 23.7024 16.0072 23.803 16.5962 23.9036C16.6 24.5989 16.6046 25.2948 16.6085 25.9901C13.5367 25.9901 10.4649 25.9901 7.3931 25.9901L7.39233 25.9908Z" fill="#376CFB"/>
<path d="M17.532 0.923649C15.9119 0.928295 14.2972 1.00726 12.7147 1.39125C11.4945 1.68776 10.3826 2.19485 9.47532 3.10993C8.73948 3.85237 8.29812 4.75351 8.00593 5.73439C7.64993 6.9305 7.49461 8.15757 7.44617 9.40864C7.42387 9.98463 7.40311 10.5622 7.38466 11.1397C6.76645 11.0437 6.46811 10.7186 6.46658 10.117C6.46042 8.31628 6.55731 6.52793 7.07863 4.7868C7.71913 2.64774 9.09394 1.25655 11.22 0.617849C12.3741 0.271791 13.5559 0.126246 14.757 0.057344C15.3313 0.0248285 15.9042 0.00469991 16.4778 5.48373e-05C17.1121 -0.00459023 17.4351 0.285727 17.532 0.923649Z" fill="#C5D1ED"/>
<path d="M16.6078 25.9908C16.6039 25.2956 16.6001 24.5996 16.5955 23.9044C16.6024 22.397 16.6101 20.8897 16.6162 19.3824C16.6185 18.8025 16.617 18.2227 16.6178 17.6428C16.9215 17.6475 17.226 17.6529 17.5297 17.6575C17.5297 19.6518 17.5335 21.6453 17.5281 23.6396C17.5274 23.9129 17.5758 24.0546 17.9003 24.0739C19.9248 24.1916 21.9502 24.2628 23.9785 24.2226C23.9624 24.6638 24.0993 25.1206 23.8378 25.5363C23.6564 25.8243 23.4111 26.0008 23.062 26.0001C20.9106 25.9978 18.7592 25.9947 16.6078 25.9916V25.9908Z" fill="#2045CE"/>
<path d="M6.47105 15.8001V20.4421C4.49341 19.1809 2.86717 17.6558 1.54541 15.7993C3.18703 15.7993 4.82943 15.8001 6.47105 15.8009V15.8001Z" fill="#376CFB"/>
<path d="M10.1567 6.49138C10.1074 6.14765 10.3466 5.90843 10.5603 5.68082C11.064 5.14509 11.5868 4.62639 12.1128 4.11234C12.3719 3.85918 12.6695 3.66873 13.0601 3.74228C13.3845 3.80344 13.6898 3.90563 13.7636 4.28498C13.8436 4.69374 13.8244 5.05761 13.4691 5.38431C12.8655 5.93862 12.3088 6.5448 11.736 7.1324C11.4692 7.40646 11.1416 7.49162 10.791 7.39563C10.4342 7.29808 10.1597 6.88002 10.1567 6.49138Z" fill="#4294FF"/>
</g>
<defs>
<clipPath id="clip0_2037_3589">
<rect width="24" height="26" fill="white"/>
</clipPath>
</defs>
</svg>
