<svg width="25" height="27" viewBox="0 0 25 27" fill="none" xmlns="http://www.w3.org/2000/svg">
<mask id="mask0_96_2" style="mask-type:luminance" maskUnits="userSpaceOnUse" x="0" y="0" width="25" height="27">
<path d="M24.82 0H0V26.79H24.82V0Z" fill="white"/>
</mask>
<g mask="url(#mask0_96_2)">
<path d="M9 18.995V12.5412C9 12.02 9.00978 12 9.51816 12C11.5126 12 13.4972 12 15.4916 12C15.8827 12 16 12.1203 16 12.5211C15.9902 16.8404 16 21.1496 16 25.4689C16 25.99 16 26 15.4818 26C13.4874 26 11.5028 26 9.50838 26C9.11732 26 9 25.8898 9 25.4889C9.01955 23.3243 9 21.1596 9 18.995Z" fill="#A19AFF"/>
<path d="M1 20.4844C1 18.8401 1.01953 17.1958 1 15.5516C1 15.1457 1.09763 15 1.49791 15C3.4993 15.0208 5.5007 15.0208 7.50209 15C7.90237 15 8 15.1561 8 15.5516C7.99024 18.8505 7.99024 22.1599 8 25.4588C8 25.8647 7.89261 26 7.50209 26C5.5007 25.9792 3.4993 25.9792 1.49791 26C1.09763 26 1 25.8543 1.00976 25.4588C1.02929 23.8042 1.00976 22.1391 1.00976 20.4844H1Z" fill="#A19AFF"/>
<path d="M23.9902 21.5374C23.9902 22.8612 23.9805 24.1851 23.9902 25.4982C23.9902 25.8826 23.8828 26 23.5314 26C21.5007 25.9893 19.4798 25.9893 17.4491 26C17.1172 26 17 25.8932 17 25.5196C17.0098 22.8399 17 20.1495 17 17.4698C17 17.1281 17.1172 17 17.4296 17C19.47 17 21.5105 17 23.5509 17C23.8828 17 24 17.1174 24 17.4911C23.9902 18.8363 24 20.1922 24 21.5374H23.9902Z" fill="#A19AFF"/>
<path d="M14.9252 9.40015C14.4152 9.24015 13.8752 9.11015 13.3752 8.89015C12.7052 8.59015 12.0852 8.60015 11.4152 8.89015C10.9652 9.09015 10.4652 9.20015 9.99521 9.36015C9.71519 9.46015 9.60519 9.36015 9.60519 9.07015C9.60519 8.44015 9.60519 7.81015 9.60519 7.17015C9.60519 6.74015 9.50519 6.35015 9.21519 6.00015C8.82519 5.52015 8.49519 5.00015 8.12519 4.50015C7.92519 4.24015 7.95519 4.10015 8.28519 4.00015C8.96519 3.79015 9.63519 3.56015 10.3052 3.35015C10.5452 3.28015 10.7252 3.16015 10.8652 2.95015C11.2852 2.36015 11.7152 1.78015 12.1252 1.19015C12.3152 0.910154 12.4552 0.920154 12.6452 1.19015C13.0452 1.76015 13.4652 2.32015 13.8652 2.89015C14.0352 3.13015 14.2352 3.28015 14.5152 3.36015C15.1652 3.56015 15.8152 3.78015 16.4652 3.99015C16.8752 4.13015 16.8852 4.16015 16.6252 4.53015C16.2752 5.02015 15.9352 5.53015 15.5552 6.00015C15.2752 6.35015 15.1652 6.73015 15.1752 7.17015C15.1752 7.80015 15.1752 8.43015 15.1752 9.07015C15.1752 9.23015 15.1852 9.41015 14.9252 9.39015V9.40015Z" fill="#A19AFF"/>
</g>
</svg>
