<svg width="100" height="108" viewBox="0 0 100 108" fill="none" xmlns="http://www.w3.org/2000/svg">
<g clip-path="url(#clip0_4422_5518)">
<path d="M30.7595 65.5705C30.7691 61.7662 30.7659 57.9651 30.7884 54.1608C30.8044 51.6556 32.2108 50.1603 34.7162 50.1506C44.8017 50.1217 54.8873 50.1153 64.976 50.1506C67.6928 50.1603 69.1986 51.8164 69.2114 54.6399C69.2371 60.8529 69.2339 67.0658 69.2403 73.2788C69.2403 75.6874 69.2435 78.0961 69.2339 80.5047C69.2082 86.7659 69.1762 93.0271 69.1474 99.2883C66.6965 98.8703 64.2456 98.449 61.7915 98.0374C54.1568 96.751 46.8233 94.4357 39.7141 91.3999C36.7378 90.1297 33.8223 88.7244 30.8781 87.3802C30.8396 86.6888 30.7691 85.9941 30.7691 85.3027C30.7595 78.7232 30.7595 72.1436 30.7595 65.5641V65.5705Z" fill="#CECAFF"/>
<path d="M30.7597 65.5705C30.7597 72.1501 30.7597 78.7296 30.7693 85.3092C30.7693 86.0006 30.8398 86.6952 30.8782 87.3866C30.8526 94.246 30.827 101.105 30.7982 107.965C21.725 107.978 12.6551 108.006 3.58193 107.984C1.32005 107.977 0.0449406 106.501 0.0417368 104.028C0.0289217 93.7957 0.0769785 83.563 -0.00311628 73.3303C-0.0159315 71.6002 0.384543 69.9183 0.243576 68.1689C0.150666 66.9823 1.23355 66.0272 2.35167 65.95C3.71008 65.8535 5.04606 65.2843 6.4333 65.6284C11.9406 73.3399 18.7166 79.6783 26.9568 84.9137V65.6316C28.2223 65.6123 29.4878 65.593 30.7533 65.5705H30.7597Z" fill="#A19AFF"/>
<path d="M73.0401 73.3463C80.7709 73.327 88.5048 73.2788 96.2356 73.3077C98.2027 73.3142 99.9424 75.1568 99.9456 77.1699C99.9648 84.9844 99.9264 92.7988 99.9103 100.613C91.4587 100.78 83.02 100.488 74.5844 99.9958C73.2324 99.9186 73.0305 99.3269 73.0337 98.1917C73.0594 89.9078 73.0433 81.6271 73.0401 73.3431V73.3463Z" fill="#CECAFF"/>
<path d="M30.8013 107.961C30.8269 101.102 30.8525 94.2428 30.8814 87.3834C33.8257 88.7276 36.7443 90.1362 39.7174 91.4032C46.8266 94.4389 54.1601 96.7511 61.7948 98.0406C64.2457 98.4555 66.6966 98.8735 69.1507 99.2916C69.1667 102.179 69.1859 105.07 69.2019 107.958C56.4028 107.958 43.6036 107.958 30.8045 107.958L30.8013 107.961Z" fill="#A19AFF"/>
<path d="M69.1987 107.961C69.1827 105.074 69.1667 102.183 69.1475 99.2948C69.1763 93.0336 69.2083 86.7724 69.234 80.5112C69.2436 78.1026 69.2372 75.6939 69.2404 73.2853C70.5059 73.3046 71.7746 73.3271 73.0401 73.3464C73.0401 81.6303 73.0561 89.9111 73.0337 98.195C73.0305 99.3302 73.2323 99.9187 74.5843 99.9991C83.0199 100.488 91.4587 100.784 99.9103 100.617C99.843 102.45 100.413 104.347 99.324 106.074C98.5679 107.27 97.5459 108.003 96.0914 108C87.1271 107.99 78.1629 107.978 69.1987 107.965V107.961Z" fill="#A19AFF"/>
<path d="M26.9632 65.6316V84.9137C18.723 79.6751 11.947 73.3399 6.4397 65.6284C13.2798 65.6284 20.1231 65.6316 26.9632 65.6349V65.6316Z" fill="#CECAFF"/>
</g>
<defs>
<clipPath id="clip0_4422_5518">
<rect width="100" height="108" fill="white"/>
</clipPath>
</defs>
</svg>
