<svg width="23" height="25" viewBox="0 0 23 25" fill="none" xmlns="http://www.w3.org/2000/svg">
<path d="M8.1604 18.2706C8.1604 16.2892 8.1604 14.3078 8.1604 12.3264C8.1604 11.8435 8.17059 11.8325 8.6458 11.8325C10.5255 11.8311 12.4045 11.8398 14.2842 11.8252C14.651 11.8223 14.7623 11.9398 14.7609 12.306C14.75 16.2805 14.7543 20.2557 14.7536 24.2301C14.7536 24.7145 14.7507 24.7167 14.2682 24.7167C12.3885 24.7175 10.5095 24.7087 8.62979 24.7248C8.26447 24.7277 8.14949 24.6212 8.1524 24.2513C8.16841 22.2582 8.15968 20.2644 8.15968 18.2714L8.1604 18.2706Z" fill="#81A4A0"/>
<path d="M0.0074249 19.8313C0.0074249 18.373 0.0168855 16.9147 0.00014775 15.4564C-0.00421861 15.0982 0.0925689 14.9639 0.468803 14.9668C2.35944 14.9822 4.2508 14.9822 6.14216 14.9668C6.51912 14.9639 6.613 15.1018 6.61154 15.4585C6.5999 18.3876 6.5999 21.3159 6.61154 24.245C6.613 24.6068 6.51184 24.7287 6.13925 24.7257C4.24861 24.709 2.35725 24.7082 0.465893 24.7257C0.0867473 24.7294 -0.00421861 24.5988 0.00014775 24.2428C0.0168855 22.7728 0.00742503 21.3021 0.0066973 19.8313H0.0074249Z" fill="#153330"/>
<path d="M22.9061 20.8602C22.9061 22.0026 22.8959 23.1451 22.9127 24.2875C22.9178 24.6224 22.8072 24.726 22.4753 24.7238C20.5599 24.7106 18.6446 24.7121 16.7285 24.723C16.417 24.7245 16.302 24.6318 16.3027 24.3087C16.3129 21.9873 16.3115 19.6659 16.3042 17.3446C16.3035 17.0448 16.4104 16.9375 16.7074 16.939C18.6351 16.947 20.5628 16.9477 22.4906 16.9375C22.8057 16.9361 22.9156 17.0418 22.9119 17.3606C22.8981 18.5272 22.9061 19.6944 22.9061 20.8609V20.8602Z" fill="#153330"/>
<path d="M13.7942 7.75774C13.3241 7.60746 12.822 7.49292 12.3592 7.28865C11.7413 7.01581 11.165 7.02311 10.5515 7.29449C10.1323 7.47979 9.67677 7.57974 9.24013 7.7271C8.97888 7.81537 8.88136 7.72272 8.88354 7.46009C8.88791 6.87647 8.8799 6.29358 8.88354 5.70996C8.88645 5.30872 8.78967 4.95708 8.52769 4.63244C8.16964 4.18962 7.86182 3.70594 7.5176 3.25072C7.33421 3.00779 7.36041 2.88231 7.66315 2.79039C8.28899 2.60071 8.9061 2.38185 9.53122 2.1878C9.75027 2.11995 9.91764 2.00906 10.0508 1.81939C10.4343 1.27297 10.8382 0.740414 11.2174 0.19108C11.3971 -0.0693613 11.5216 -0.0591479 11.6962 0.194728C12.0615 0.724365 12.4501 1.23722 12.8184 1.7654C12.9712 1.98499 13.1589 2.12214 13.4187 2.2002C14.022 2.38112 14.618 2.58612 15.2162 2.78528C15.5954 2.91076 15.6063 2.94651 15.3669 3.28136C15.0423 3.73586 14.733 4.20275 14.3815 4.63536C14.1188 4.95927 14.0249 5.31236 14.0278 5.71287C14.0315 6.2965 14.0293 6.87939 14.0249 7.46301C14.0242 7.60673 14.0358 7.77306 13.7928 7.75701L13.7942 7.75774Z" fill="#153330"/>
</svg>
