<svg width="100" height="108" viewBox="0 0 100 108" fill="none" xmlns="http://www.w3.org/2000/svg">
<g clip-path="url(#clip0_7003_84129)">
<path d="M30.7598 65.5705C30.7694 61.7662 30.7662 57.9651 30.7886 54.1608C30.8046 51.6556 32.2111 50.1603 34.7164 50.1506C44.802 50.1217 54.8875 50.1153 64.9763 50.1506C67.6931 50.1603 69.1989 51.8164 69.2117 54.6399C69.2373 60.8529 69.2341 67.0658 69.2405 73.2788C69.2405 75.6874 69.2437 78.0961 69.2341 80.5047C69.2085 86.7659 69.1764 93.0271 69.1476 99.2883C66.6967 98.8703 64.2458 98.449 61.7917 98.0374C54.1571 96.751 46.8236 94.4357 39.7144 91.3999C36.738 90.1297 33.8226 88.7244 30.8783 87.3802C30.8399 86.6888 30.7694 85.9941 30.7694 85.3027C30.7598 78.7232 30.7598 72.1436 30.7598 65.5641V65.5705Z" fill="#81A4A0"/>
<path d="M30.7592 65.5705C30.7592 72.1501 30.7592 78.7296 30.7688 85.3092C30.7688 86.0006 30.8393 86.6952 30.8778 87.3866C30.8521 94.246 30.8265 101.105 30.7977 107.965C21.7245 107.978 12.6546 108.006 3.58144 107.984C1.31956 107.977 0.0444523 106.501 0.0412485 104.028C0.0284334 93.7957 0.0764903 83.563 -0.00360457 73.3303C-0.0164197 71.6002 0.384054 69.9183 0.243088 68.1689C0.150178 66.9823 1.23306 66.0272 2.35118 65.95C3.70959 65.8535 5.04557 65.2843 6.43282 65.6284C11.9401 73.3399 18.7162 79.6783 26.9563 84.9137V65.6316C28.2218 65.6123 29.4873 65.593 30.7528 65.5705H30.7592Z" fill="#153330"/>
<path d="M73.0396 73.3464C80.7704 73.3271 88.5044 73.2789 96.2351 73.3079C98.2022 73.3143 99.9419 75.1569 99.9451 77.17C99.9643 84.9845 99.9259 92.7989 99.9099 100.613C91.4583 100.781 83.0195 100.488 74.5839 99.9959C73.2319 99.9187 73.03 99.327 73.0332 98.1918C73.0589 89.9079 73.0428 81.6272 73.0396 73.3432V73.3464Z" fill="#81A4A0"/>
<path d="M30.8008 107.962C30.8264 101.102 30.852 94.2431 30.8809 87.3838C33.8252 88.728 36.7438 90.1365 39.7169 91.4036C46.8262 94.4393 54.1596 96.7515 61.7943 98.041C64.2452 98.4558 66.6961 98.8739 69.1502 99.292C69.1662 102.18 69.1854 105.071 69.2014 107.959C56.4023 107.959 43.6031 107.959 30.804 107.959L30.8008 107.962Z" fill="#153330"/>
<path d="M69.1997 107.961C69.1837 105.074 69.1677 102.182 69.1484 99.2947C69.1773 93.0335 69.2093 86.7723 69.2349 80.5111C69.2446 78.1025 69.2381 75.6938 69.2413 73.2852C70.5068 73.3045 71.7755 73.327 73.041 73.3463C73.041 81.6302 73.0571 89.9109 73.0346 98.1949C73.0314 99.3301 73.2333 99.9185 74.5853 99.9989C83.0209 100.488 91.4597 100.784 99.9113 100.616C99.844 102.449 100.414 104.347 99.325 106.074C98.5689 107.27 97.5469 108.003 96.0923 108C87.1281 107.99 78.1639 107.977 69.1997 107.965V107.961Z" fill="#153330"/>
<path d="M26.963 65.6316V84.9137C18.7228 79.6751 11.9468 73.3399 6.43945 65.6284C13.2796 65.6284 20.1229 65.6316 26.963 65.6349V65.6316Z" fill="#81A4A0"/>
</g>
<defs>
<clipPath id="clip0_7003_84129">
<rect width="100" height="108" fill="white"/>
</clipPath>
</defs>
</svg>
