<svg width="53" height="52" viewBox="0 0 53 52" fill="none" xmlns="http://www.w3.org/2000/svg">
<path d="M24.0352 23.3937C22.9595 23.286 21.9913 24.0829 21.8838 25.1599C21.7762 26.2369 22.5722 27.2062 23.648 27.3139C24.7237 27.4216 25.6919 26.6247 25.7994 25.5477C25.907 24.4707 25.111 23.5014 24.0352 23.3937ZM23.7771 26C23.4113 25.9569 23.1531 25.6338 23.1962 25.2892C23.2392 24.9445 23.5619 24.6645 23.9061 24.7076C24.2719 24.7507 24.5301 25.0738 24.487 25.4184C24.444 25.7846 24.1213 26.0431 23.7771 26Z" fill="#0E1626"/>
<path d="M30.5759 24.0184C29.5001 23.9107 28.532 24.7077 28.4244 25.7847C28.3168 26.8617 29.1129 27.831 30.1886 27.9387C31.2643 28.0464 32.2325 27.2494 32.3401 26.1724C32.4476 25.0954 31.6516 24.1261 30.5759 24.0184ZM30.3177 26.6463C29.952 26.6032 29.6938 26.2801 29.7368 25.9355C29.7798 25.5693 30.1026 25.3108 30.4468 25.3539C30.8125 25.397 31.0707 25.7201 31.0277 26.0647C30.9847 26.4309 30.6619 26.6894 30.3177 26.6463Z" fill="#0E1626"/>
<path d="M27.6283 20.4426C27.2625 20.3995 26.9398 20.6796 26.9183 21.0242L26.0147 30.1787C25.9717 30.5449 26.2298 30.868 26.5956 30.8895C26.9613 30.9326 27.2841 30.6741 27.3056 30.3079L28.2092 21.1534C28.2522 20.7873 27.9725 20.4642 27.6283 20.4426Z" fill="#0E1626"/>
<path d="M51.1869 22.0151L45.6576 15.4238C43.8504 16.9532 41.1181 16.7162 39.612 14.8853C38.106 13.0544 38.3212 10.3404 40.1499 8.83257L34.6206 2.24133C33.0931 0.431967 30.3823 0.195026 28.575 1.70283L2.24111 23.8244C0.433877 25.3538 0.218731 28.0678 1.72476 29.8772L7.25402 36.4684C9.06125 34.9391 11.7721 35.1975 13.2996 37.0069C14.8272 38.8163 14.5905 41.5303 12.7618 43.0596L18.291 49.6509C19.8186 51.4602 22.5294 51.6972 24.3366 50.1894L50.6706 28.0678C52.4778 26.5385 52.7144 23.8244 51.2084 22.0151H51.1869ZM34.5561 29.3602C34.2549 29.4894 33.9967 29.6833 33.76 29.9202C33.674 30.2003 33.631 30.5018 33.631 30.8034C33.6955 31.5357 33.4373 32.2681 32.921 32.8066C32.3186 33.1943 31.5871 33.302 30.8986 33.1082C30.5974 33.0435 30.2962 33.0435 29.995 33.0866C29.7153 33.2589 29.5002 33.4959 29.3065 33.7544C28.9408 34.3359 28.3384 34.7452 27.6714 34.8744C26.9614 34.8314 26.316 34.4867 25.8642 33.9267C25.649 33.6897 25.3909 33.4959 25.1112 33.3666C24.7884 33.3666 24.4657 33.4097 24.1645 33.5174C23.5191 33.7759 22.7876 33.7544 22.1637 33.4743C21.6473 33.022 21.3246 32.3973 21.2816 31.7081C21.26 31.3634 21.174 31.0403 21.0234 30.7172C20.7652 30.5018 20.4855 30.351 20.1628 30.2433C19.4958 30.071 18.9365 29.6402 18.5922 29.0371C18.4201 28.3694 18.5277 27.6585 18.8934 27.077C19.044 26.7969 19.1516 26.4954 19.1946 26.1938C19.1086 25.8923 18.9795 25.5907 18.7859 25.3322C18.3341 24.7937 18.1404 24.0829 18.248 23.3936C18.5062 22.7474 19.0225 22.252 19.668 22.0151C19.9692 21.8858 20.2273 21.692 20.464 21.455C20.5716 21.175 20.6146 20.8519 20.6146 20.5503C20.5501 19.8395 20.8082 19.1287 21.3031 18.5902C21.9055 18.2025 22.637 18.0948 23.3255 18.2886C23.6267 18.3533 23.9063 18.3748 24.2076 18.3317C24.4872 18.1594 24.7024 17.9225 24.896 17.664C25.2618 17.0824 25.8642 16.6731 26.5311 16.5439C27.2411 16.5654 27.9081 16.9101 28.3599 17.4701C28.575 17.7071 28.8332 17.9009 29.1129 18.0302C29.4356 18.0302 29.7583 17.9871 30.0595 17.8794C30.705 17.6209 31.4365 17.6424 32.0604 17.9225C32.5767 18.3748 32.8995 18.9995 32.9425 19.6887C32.964 20.0334 33.0501 20.3565 33.2007 20.6796C33.4588 20.8734 33.7601 21.0458 34.0828 21.1319C34.7497 21.3042 35.3091 21.735 35.6533 22.3382C35.8255 23.0274 35.6964 23.7383 35.3091 24.3198C35.1585 24.5999 35.0509 24.9014 35.0079 25.203C35.094 25.5045 35.223 25.8061 35.4167 26.0646C35.8685 26.6031 36.0621 27.2924 35.9761 27.9816C35.7179 28.6278 35.2015 29.1233 34.5561 29.3602Z" fill="#0E1626"/>
</svg>
