<svg width="25" height="25" viewBox="0 0 25 25" fill="none" xmlns="http://www.w3.org/2000/svg">
<path d="M22.3911 1.79543C22.3825 1.75398 22.3623 1.71582 22.3328 1.68543C22.3033 1.65505 22.2658 1.63369 22.2246 1.62387C19.4792 0.952621 13.1356 3.34465 9.6987 6.78012C9.08571 7.38816 8.52688 8.04847 8.02855 8.75356C6.9687 8.65981 5.90886 8.73809 5.00558 9.13184C2.45698 10.2536 1.71495 13.1804 1.50823 14.4395C1.49651 14.5084 1.50093 14.5791 1.52115 14.646C1.54138 14.7129 1.57685 14.7742 1.62478 14.8251C1.67271 14.876 1.73179 14.9151 1.79738 14.9393C1.86297 14.9634 1.93327 14.9721 2.00276 14.9645L6.09542 14.5131C6.09834 14.8217 6.11696 15.1299 6.1512 15.4365C6.1718 15.6495 6.26633 15.8485 6.41839 15.999L8.00323 17.5801C8.15389 17.732 8.35284 17.8265 8.56573 17.8473C8.87069 17.8814 9.17718 17.9 9.48402 17.9031L9.03495 21.9906C9.02746 22.0601 9.03617 22.1303 9.06038 22.1959C9.0846 22.2614 9.12367 22.3204 9.17453 22.3684C9.22539 22.4163 9.28666 22.4517 9.35353 22.472C9.4204 22.4923 9.49106 22.4967 9.55995 22.4851C10.8167 22.2836 13.7487 21.5415 14.8639 18.9929C15.2576 18.0897 15.3382 17.035 15.2473 15.9803C15.9541 15.4819 16.6161 14.9229 17.2259 14.3097C20.6736 10.8793 23.052 4.67731 22.3911 1.79543ZM13.7862 10.2175C13.4714 9.90286 13.257 9.50195 13.17 9.06545C13.0831 8.62895 13.1276 8.17648 13.2978 7.76526C13.4681 7.35404 13.7564 7.00255 14.1265 6.75525C14.4965 6.50795 14.9316 6.37595 15.3767 6.37595C15.8217 6.37595 16.2568 6.50795 16.6269 6.75525C16.9969 7.00255 17.2853 7.35404 17.4555 7.76526C17.6258 8.17648 17.6703 8.62895 17.5833 9.06545C17.4964 9.50195 17.282 9.90286 16.9671 10.2175C16.7584 10.4265 16.5105 10.5924 16.2376 10.7055C15.9647 10.8187 15.6721 10.8769 15.3767 10.8769C15.0812 10.8769 14.7887 10.8187 14.5158 10.7055C14.2429 10.5924 13.995 10.4265 13.7862 10.2175Z" fill="#0E1626"/>
<path d="M7.89565 18.7237C7.63874 18.9811 7.22665 19.0814 6.73064 19.1672C5.61627 19.3571 4.63222 18.3941 4.8324 17.2676C4.90882 16.8405 5.13479 16.2418 5.27544 16.1011C5.30618 16.071 5.32664 16.0319 5.33392 15.9895C5.34119 15.9471 5.33491 15.9034 5.31597 15.8647C5.29702 15.8261 5.26638 15.7944 5.22839 15.7741C5.19039 15.7538 5.14698 15.7461 5.10432 15.7519C4.48115 15.8281 3.9014 16.1107 3.45736 16.5545C2.35518 17.6576 2.2511 21.7509 2.2511 21.7509C2.2511 21.7509 6.34668 21.6468 7.44887 20.5437C7.89409 20.1 8.17698 19.5193 8.25196 18.8953C8.2693 18.6993 8.03067 18.5826 7.89565 18.7237Z" fill="#0E1626"/>
</svg>
