<svg width="31" height="31" viewBox="0 0 31 31" fill="none" xmlns="http://www.w3.org/2000/svg">
<path d="M1.2524 15.7855C1.23749 14.7502 1.18327 13.7136 1.35676 12.6838C1.41098 12.6631 1.46384 12.6425 1.51805 12.6204C1.59666 12.6204 1.67527 12.6204 1.75389 12.6204C1.76473 12.6204 1.77693 12.6204 1.78777 12.6204C1.82165 12.6204 1.85418 12.6204 1.88807 12.6204C1.89891 12.6204 1.91111 12.6204 1.92195 12.6204C1.95584 12.6204 1.98836 12.6204 2.02225 12.6204C2.03309 12.6204 2.04529 12.6204 2.05613 12.6204C2.09002 12.6204 2.1239 12.6204 2.15643 12.6204C2.16727 12.6204 2.17947 12.6204 2.19031 12.6204C2.2242 12.6204 2.25808 12.6204 2.29061 12.6204C2.30146 12.6204 2.31365 12.6204 2.3245 12.6204C2.35838 12.6204 2.39227 12.6204 2.42479 12.6204C2.43564 12.6204 2.44784 12.6204 2.45868 12.6204C2.49256 12.6204 2.52645 12.6204 2.55898 12.6204C2.56982 12.6204 2.58202 12.6204 2.59286 12.6204C2.62674 12.6204 2.66063 12.6204 2.69316 12.6204C2.704 12.6204 2.7162 12.6204 2.72704 12.6204C2.76093 12.6204 2.79481 12.6204 2.82734 12.6204C2.83818 12.6204 2.85038 12.6204 2.86122 12.6204C2.89511 12.6204 2.92899 12.6204 2.96152 12.6204C2.97236 12.6204 2.98456 12.6204 2.99541 12.6204C3.02929 12.6204 3.06317 12.6204 3.0957 12.6204C3.10655 12.6204 3.11874 12.6204 3.12959 12.6204C3.16347 12.6204 3.19736 12.6204 3.22988 12.6204C3.24073 12.6204 3.25293 12.6204 3.26377 12.6204C3.29765 12.6204 3.33154 12.6204 3.36407 12.6204C3.37491 12.6204 3.38711 12.6204 3.39795 12.6204C3.43184 12.6204 3.46572 12.6204 3.49825 12.6204C3.50909 12.6204 3.52129 12.6204 3.53213 12.6204C3.56602 12.6204 3.5999 12.6204 3.63243 12.6204C3.64327 12.6204 3.65547 12.6204 3.66631 12.6204C3.7002 12.6204 3.73408 12.6204 3.76661 12.6204C3.77746 12.6204 3.78965 12.6204 3.8005 12.6204C3.83438 12.6204 3.86826 12.6204 3.90079 12.6204C3.91164 12.6204 3.92383 12.6204 3.93468 12.6204C3.96856 12.6204 4.00245 12.6204 4.03498 12.6204C4.04582 12.6204 4.05802 12.6204 4.06886 12.6204C4.10274 12.6204 4.13663 12.6204 4.16916 12.6204C4.18 12.6204 4.1922 12.6204 4.20304 12.6204C4.23693 12.6204 4.27081 12.6204 4.30334 12.6204C4.31418 12.6204 4.32638 12.6204 4.33722 12.6204C4.37111 12.6204 4.40499 12.6204 4.43752 12.6204C4.44836 12.6204 4.46056 12.6204 4.4714 12.6204C4.50529 12.6204 4.53917 12.6204 4.5717 12.6204C4.58255 12.6204 4.59474 12.6204 4.60559 12.6204C4.63947 12.6204 4.67336 12.6204 4.70588 12.6204C4.71673 12.6204 4.72893 12.6204 4.73977 12.6204C4.77365 12.6204 4.80754 12.6204 4.84007 12.6204C4.85091 12.6204 4.86311 12.6204 4.87395 12.6204C4.90783 12.6204 4.94172 12.6204 4.97425 12.6204C4.98509 12.6204 4.99729 12.6204 5.00813 12.6204C5.04202 12.6204 5.0759 12.6204 5.10843 12.6204C5.11927 12.6204 5.13147 12.6204 5.14231 12.6204C5.1762 12.6204 5.21008 12.6204 5.24261 12.6204C5.25345 12.6204 5.26565 12.6204 5.2765 12.6204C5.31038 12.6204 5.34426 12.6204 5.37679 12.6204C5.38764 12.6204 5.39983 12.6204 5.41068 12.6204C5.44456 12.6204 5.47845 12.6204 5.51097 12.6204C5.52182 12.6204 5.53402 12.6204 5.54486 12.6204C5.57874 12.6204 5.61263 12.6204 5.64516 12.6204C5.656 12.6204 5.6682 12.6204 5.67904 12.6204C5.76985 12.6163 5.86066 12.6121 5.95147 12.6094C5.99755 12.6507 6.05312 12.6838 6.08972 12.7334C6.37164 13.118 6.71183 13.4406 7.08321 13.7329C7.64433 14.1754 8.28135 14.4607 8.96853 14.6041C9.49983 14.7144 10.042 14.7171 10.5841 14.6234C11.3499 14.4911 12.0466 14.2085 12.6646 13.7177C13.0604 13.4048 13.3748 13.0188 13.692 12.6314C13.8899 12.6287 14.0864 12.6273 14.2843 12.6245H14.3182C14.3521 12.6245 14.3859 12.6245 14.4185 12.6245C14.4293 12.6245 14.4415 12.6245 14.4524 12.6245C14.4862 12.6245 14.5201 12.6245 14.5527 12.6245C14.5635 12.6245 14.5757 12.6245 14.5865 12.6245H14.6868C14.6977 12.6245 14.7099 12.6245 14.7207 12.6245C14.7546 12.6245 14.7885 12.6245 14.821 12.6245C14.8319 12.6245 14.8441 12.6245 14.8549 12.6245H14.9552C14.966 12.6245 14.9782 12.6245 14.9891 12.6245C15.023 12.6245 15.0569 12.6245 15.0894 12.6245C15.1002 12.6245 15.1124 12.6245 15.1233 12.6245C15.1572 12.6245 15.191 12.6245 15.2236 12.6245C15.2344 12.6245 15.2466 12.6245 15.2575 12.6245C15.2913 12.6245 15.3252 12.6245 15.3577 12.6245C15.3686 12.6245 15.3808 12.6245 15.3916 12.6245C15.4255 12.6245 15.4594 12.6245 15.4919 12.6245C15.5028 12.6245 15.515 12.6245 15.5258 12.6245C15.5597 12.6245 15.5936 12.6245 15.6261 12.6245C15.637 12.6245 15.6492 12.6245 15.66 12.6245C15.6939 12.6245 15.7278 12.6245 15.7603 12.6245C15.7711 12.6245 15.7833 12.6245 15.7942 12.6245C15.8281 12.6245 15.8619 12.6245 15.8945 12.6245C15.9053 12.6245 15.9175 12.6245 15.9284 12.6245C15.9622 12.6245 15.9961 12.6245 16.0287 12.6245C16.0395 12.6245 16.0517 12.6245 16.0625 12.6245C16.0964 12.6245 16.1303 12.6245 16.1628 12.6245C16.1737 12.6245 16.1859 12.6245 16.1967 12.6245C16.2306 12.6245 16.2645 12.6245 16.297 12.6245C16.3079 12.6245 16.3201 12.6245 16.3309 12.6245C16.3648 12.6245 16.3987 12.6245 16.4312 12.6245C16.442 12.6245 16.4542 12.6245 16.4651 12.6245C16.499 12.6245 16.5329 12.6245 16.5654 12.6245C16.5762 12.6245 16.5884 12.6245 16.5993 12.6245C16.7822 12.619 16.9639 12.6149 17.1468 12.6094C17.1753 12.6452 17.2051 12.6783 17.2322 12.7155C18.0156 13.7853 19.0457 14.4304 20.3428 14.6372C20.8782 14.7227 21.4068 14.6951 21.9286 14.5903C22.9898 14.378 23.8749 13.8459 24.558 12.9774C24.6556 12.8534 24.7667 12.739 24.8725 12.6204C25.0731 12.6204 25.2736 12.6232 25.4742 12.6232C25.4851 12.6232 25.4973 12.6232 25.5081 12.6232C25.542 12.6232 25.5759 12.6232 25.6084 12.6232C25.6193 12.6232 25.6315 12.6232 25.6423 12.6232C25.6762 12.6232 25.7087 12.6232 25.7426 12.6232C25.7534 12.6232 25.7656 12.6232 25.7765 12.6232H25.8768C25.8876 12.6232 25.8998 12.6232 25.9107 12.6232C25.9446 12.6232 25.9771 12.6232 26.011 12.6232C26.0218 12.6232 26.034 12.6232 26.0449 12.6232H26.1451C26.156 12.6232 26.1682 12.6232 26.179 12.6232C26.2129 12.6232 26.2454 12.6232 26.2793 12.6232C26.2902 12.6232 26.3024 12.6232 26.3132 12.6232C26.3471 12.6232 26.3796 12.6232 26.4135 12.6232C26.4244 12.6232 26.4366 12.6232 26.4474 12.6232C26.4813 12.6232 26.5138 12.6232 26.5477 12.6232C26.5585 12.6232 26.5707 12.6232 26.5816 12.6232C26.6155 12.6232 26.648 12.6232 26.6819 12.6232C26.6927 12.6232 26.7049 12.6232 26.7158 12.6232C26.7496 12.6232 26.7822 12.6232 26.8161 12.6232C26.8269 12.6232 26.8391 12.6232 26.8499 12.6232C26.8838 12.6232 26.9164 12.6232 26.9502 12.6232C26.9611 12.6232 26.9733 12.6232 26.9841 12.6232C27.018 12.6232 27.0505 12.6232 27.0844 12.6232C27.0953 12.6232 27.1075 12.6232 27.1183 12.6232C27.1522 12.6232 27.1847 12.6232 27.2186 12.6232C27.2294 12.6232 27.2416 12.6232 27.2525 12.6232C27.2864 12.6232 27.3189 12.6232 27.3528 12.6232C27.3636 12.6232 27.3758 12.6232 27.3867 12.6232C27.4206 12.6232 27.4531 12.6232 27.487 12.6232C27.4978 12.6232 27.51 12.6232 27.5209 12.6232C27.5547 12.6232 27.5873 12.6232 27.6212 12.6232C27.632 12.6232 27.6442 12.6232 27.655 12.6232C27.6889 12.6232 27.7214 12.6232 27.7553 12.6232C27.7662 12.6232 27.7784 12.6232 27.7892 12.6232C27.8231 12.6232 27.8556 12.6232 27.8895 12.6232C27.9004 12.6232 27.9126 12.6232 27.9234 12.6232C27.9573 12.6232 27.9898 12.6232 28.0237 12.6232C28.0345 12.6232 28.0467 12.6232 28.0576 12.6232C28.0915 12.6232 28.124 12.6232 28.1579 12.6232C28.1687 12.6232 28.1809 12.6232 28.1918 12.6232C28.2256 12.6232 28.2582 12.6232 28.2921 12.6232C28.3029 12.6232 28.3151 12.6232 28.3259 12.6232H28.4262C28.4371 12.6232 28.4493 12.6232 28.4601 12.6232C28.494 12.6232 28.5265 12.6232 28.5604 12.6232C28.5713 12.6232 28.5835 12.6232 28.5943 12.6232C28.6282 12.6232 28.6607 12.6232 28.6946 12.6232C28.7054 12.6232 28.7176 12.6232 28.7285 12.6232C28.7624 12.6232 28.7963 12.6232 28.8288 12.6232C28.8396 12.6232 28.8518 12.6232 28.8627 12.6232C28.8966 12.6232 28.9304 12.6232 28.963 12.6232C28.9738 12.6232 28.986 12.6232 28.9969 12.6232C29.0307 12.6232 29.0646 12.6232 29.0971 12.6232C29.108 12.6232 29.1202 12.6232 29.131 12.6232C29.1649 12.6232 29.1974 12.6232 29.2313 12.6232C29.2422 12.6232 29.2544 12.6232 29.2652 12.6232C29.2883 12.6232 29.3099 12.6245 29.333 12.6259C29.3764 12.6356 29.4211 12.6452 29.4645 12.6549C29.4983 12.8437 29.5566 13.0326 29.562 13.2214C29.5837 13.9231 29.5919 14.6262 29.5986 15.3278C29.5986 15.4684 29.5742 15.6104 29.5607 15.751C29.3587 15.7621 29.1581 15.7717 28.9562 15.7855C28.3463 15.8296 27.7879 16.41 27.7147 16.9683C27.6713 17.3019 27.6672 17.641 27.6442 17.9773C27.6157 18.3826 27.5114 18.759 27.2037 19.0416C27.0167 19.2139 26.8242 19.3807 26.6195 19.5296C26.1641 19.8632 25.7019 20.1871 25.2371 20.5083C24.7451 20.8474 24.2463 21.1783 23.7516 21.5133C23.4818 21.6966 23.2121 21.8813 22.9438 22.0688C22.5927 22.3142 22.2281 22.543 21.8988 22.8173C21.503 23.1468 21.2184 23.5769 20.9866 24.0415C20.6667 24.6839 20.5258 25.3607 20.5502 26.0844C20.5651 26.509 20.6274 26.9157 20.7806 27.3086C20.9039 27.6256 21.0381 27.9372 21.1682 28.2515C20.6369 28.4155 20.107 28.5823 19.5743 28.7395C19.3493 28.8057 19.1216 28.8663 18.8912 28.9077C18.4412 28.9862 17.9885 29.051 17.5372 29.1172C16.6182 29.2537 15.6939 29.2151 14.7709 29.2247C14.0864 29.2316 13.4128 29.1351 12.7365 29.0483C11.7728 28.9228 10.8403 28.6747 9.92135 28.3618C9.83054 28.3314 9.7438 28.2915 9.6557 28.2556C9.6679 28.206 9.66925 28.1495 9.69501 28.1095C10.0366 27.5705 10.2331 26.9819 10.309 26.345C10.3808 25.7398 10.3144 25.1484 10.1111 24.5846C9.78311 23.6775 9.21792 22.9511 8.4196 22.4176C7.94116 22.0978 7.46949 21.7655 6.99511 21.4388C6.6034 21.17 6.2117 20.904 5.82135 20.6324C5.17755 20.183 4.53375 19.7336 3.89266 19.2801C3.5118 19.0099 3.28681 18.6363 3.24073 18.1648C3.20684 17.8174 3.20142 17.4687 3.17838 17.1199C3.14314 16.5699 2.68774 15.9702 2.1605 15.8558C1.84741 15.7869 1.51534 15.8076 1.19141 15.7869L1.2524 15.7855ZM12.4207 21.374H12.4179C12.4179 21.5284 12.4152 21.6842 12.4179 21.8386C12.4301 22.3597 12.4044 22.8863 12.4654 23.4032C12.5779 24.3682 13.0902 25.1029 13.8696 25.6337C14.3846 25.9838 14.9674 26.123 15.5922 26.0941C16.0937 26.0707 16.564 25.9452 16.9815 25.6723C17.956 25.0354 18.4737 24.1187 18.49 22.9304C18.5036 21.9075 18.5063 20.886 18.4859 19.8632C18.4778 19.4303 18.4087 19.0002 18.2203 18.5963C17.9777 18.0794 17.6199 17.6782 17.159 17.3556C16.6955 17.0317 16.1886 16.8538 15.6329 16.8194C14.7749 16.767 14.0268 17.0648 13.3884 17.63C12.7825 18.1662 12.4735 18.8748 12.4274 19.684C12.3949 20.245 12.4207 20.8088 12.4207 21.3727V21.374Z" fill="#FFB02E"/>
<path d="M2.15737 12.623C2.12348 12.623 2.0896 12.623 2.05707 12.623C2.04623 12.623 2.03403 12.623 2.02319 12.623C1.9893 12.623 1.95677 12.623 1.92289 12.623C1.91205 12.623 1.89985 12.623 1.88901 12.623C1.85512 12.623 1.82259 12.623 1.78871 12.623C1.77787 12.623 1.76567 12.623 1.75482 12.623C1.67621 12.623 1.5976 12.623 1.51899 12.623C1.46884 12.623 1.41869 12.623 1.36719 12.623C1.38616 12.4245 1.39701 12.2259 1.42682 12.0288C1.58676 10.9605 1.82124 9.90727 2.18583 8.89406C2.4298 8.2172 2.73205 7.55964 3.05327 6.91725C3.56424 5.89163 4.25142 4.99559 5.03482 4.16847C6.03373 3.1139 7.19528 2.29368 8.4856 1.67886C9.76642 1.06817 11.1069 0.606368 12.5124 0.405103C13.289 0.294821 14.0765 0.24933 14.8599 0.216245C15.4576 0.191432 16.0581 0.221759 16.6558 0.247951C17.7333 0.2962 18.8054 0.424403 19.8477 0.709757C21.5947 1.18673 23.2239 1.93664 24.6701 3.06014C24.9994 3.31655 25.2963 3.61844 25.5877 3.91896C26.0892 4.43729 26.6069 4.93907 27.023 5.53873C27.6058 6.38238 28.087 7.28118 28.476 8.23236C28.9503 9.39308 29.2634 10.5993 29.4505 11.84C29.4898 12.0977 29.5033 12.361 29.5291 12.6216C29.4844 12.6216 29.4396 12.623 29.3949 12.6243C29.3719 12.6243 29.3502 12.623 29.3271 12.6216C29.3163 12.6216 29.3041 12.6216 29.2933 12.6216C29.2594 12.6216 29.2268 12.6216 29.193 12.6216C29.1821 12.6216 29.1699 12.6216 29.1591 12.6216C29.1252 12.6216 29.0913 12.6216 29.0588 12.6216C29.0479 12.6216 29.0357 12.6216 29.0249 12.6216C28.991 12.6216 28.9571 12.6216 28.9246 12.6216C28.9138 12.6216 28.9016 12.6216 28.8907 12.6216C28.8568 12.6216 28.8229 12.6216 28.7904 12.6216C28.7796 12.6216 28.7674 12.6216 28.7565 12.6216C28.7226 12.6216 28.6901 12.6216 28.6562 12.6216C28.6454 12.6216 28.6332 12.6216 28.6223 12.6216C28.5885 12.6216 28.5559 12.6216 28.5221 12.6216C28.5112 12.6216 28.499 12.6216 28.4882 12.6216C28.4543 12.6216 28.4218 12.6216 28.3879 12.6216C28.377 12.6216 28.3648 12.6216 28.354 12.6216C28.3201 12.6216 28.2876 12.6216 28.2537 12.6216C28.2428 12.6216 28.2306 12.6216 28.2198 12.6216C28.1859 12.6216 28.1534 12.6216 28.1195 12.6216C28.1087 12.6216 28.0965 12.6216 28.0856 12.6216C28.0517 12.6216 28.0192 12.6216 27.9853 12.6216C27.9745 12.6216 27.9623 12.6216 27.9514 12.6216C27.9176 12.6216 27.885 12.6216 27.8511 12.6216C27.8403 12.6216 27.8281 12.6216 27.8173 12.6216C27.7834 12.6216 27.7508 12.6216 27.717 12.6216C27.7061 12.6216 27.6939 12.6216 27.6831 12.6216C27.6492 12.6216 27.6167 12.6216 27.5828 12.6216C27.5719 12.6216 27.5597 12.6216 27.5489 12.6216C27.515 12.6216 27.4825 12.6216 27.4486 12.6216C27.4378 12.6216 27.4256 12.6216 27.4147 12.6216C27.3808 12.6216 27.3483 12.6216 27.3144 12.6216C27.3036 12.6216 27.2914 12.6216 27.2805 12.6216C27.2466 12.6216 27.2141 12.6216 27.1802 12.6216C27.1694 12.6216 27.1572 12.6216 27.1463 12.6216C27.1125 12.6216 27.0799 12.6216 27.0461 12.6216C27.0352 12.6216 27.023 12.6216 27.0122 12.6216C26.9783 12.6216 26.9458 12.6216 26.9119 12.6216C26.901 12.6216 26.8888 12.6216 26.878 12.6216C26.8441 12.6216 26.8116 12.6216 26.7777 12.6216C26.7668 12.6216 26.7546 12.6216 26.7438 12.6216C26.7099 12.6216 26.6774 12.6216 26.6435 12.6216C26.6327 12.6216 26.6205 12.6216 26.6096 12.6216C26.5757 12.6216 26.5432 12.6216 26.5093 12.6216C26.4985 12.6216 26.4863 12.6216 26.4754 12.6216C26.4416 12.6216 26.409 12.6216 26.3751 12.6216C26.3643 12.6216 26.3521 12.6216 26.3413 12.6216C26.3074 12.6216 26.2748 12.6216 26.241 12.6216C26.2301 12.6216 26.2179 12.6216 26.2071 12.6216C26.1732 12.6216 26.1407 12.6216 26.1068 12.6216C26.0959 12.6216 26.0837 12.6216 26.0729 12.6216C26.039 12.6216 26.0065 12.6216 25.9726 12.6216C25.9618 12.6216 25.9496 12.6216 25.9387 12.6216C25.9048 12.6216 25.8723 12.6216 25.8384 12.6216C25.8276 12.6216 25.8154 12.6216 25.8045 12.6216C25.7706 12.6216 25.7381 12.6216 25.7042 12.6216C25.6934 12.6216 25.6812 12.6216 25.6704 12.6216C25.6365 12.6216 25.6026 12.6216 25.5701 12.6216C25.5592 12.6216 25.547 12.6216 25.5362 12.6216C25.3356 12.6216 25.135 12.6188 24.9344 12.6188C24.9439 12.5733 24.9439 12.5251 24.9628 12.4837C25.097 12.1887 25.261 11.9034 25.3667 11.5987C25.5755 10.9963 25.6622 10.3718 25.608 9.72806C25.5741 9.32829 25.5199 8.93817 25.402 8.55218C25.1824 7.8257 24.7961 7.20261 24.2608 6.69255C23.7051 6.16596 23.0572 5.7717 22.3063 5.58973C22.0786 5.53459 21.8468 5.49048 21.6151 5.45188C21.4335 5.42155 21.2464 5.37193 21.0675 5.39123C20.6514 5.4381 20.234 5.49737 19.8273 5.59387C19.0263 5.7841 18.3351 6.20318 17.7631 6.79732C17.1857 7.3956 16.813 8.12208 16.6219 8.94644C16.4918 9.50888 16.4498 10.0768 16.5351 10.6434C16.6232 11.2196 16.7601 11.7903 17.08 12.2921C17.1396 12.3859 17.1654 12.503 17.2074 12.6078C17.0244 12.6133 16.8428 12.6174 16.6598 12.623C16.649 12.623 16.6368 12.623 16.626 12.623C16.5921 12.623 16.5582 12.623 16.5257 12.623C16.5148 12.623 16.5026 12.623 16.4918 12.623C16.4579 12.623 16.424 12.623 16.3915 12.623C16.3806 12.623 16.3684 12.623 16.3576 12.623C16.3237 12.623 16.2898 12.623 16.2573 12.623C16.2465 12.623 16.2343 12.623 16.2234 12.623C16.1895 12.623 16.1556 12.623 16.1231 12.623C16.1123 12.623 16.1001 12.623 16.0892 12.623C16.0553 12.623 16.0215 12.623 15.9889 12.623C15.9781 12.623 15.9659 12.623 15.955 12.623C15.9212 12.623 15.8873 12.623 15.8548 12.623C15.8439 12.623 15.8317 12.623 15.8209 12.623C15.787 12.623 15.7531 12.623 15.7206 12.623C15.7097 12.623 15.6975 12.623 15.6867 12.623C15.6528 12.623 15.6189 12.623 15.5864 12.623C15.5755 12.623 15.5633 12.623 15.5525 12.623C15.5186 12.623 15.4847 12.623 15.4522 12.623C15.4414 12.623 15.4292 12.623 15.4183 12.623C15.3844 12.623 15.3506 12.623 15.318 12.623C15.3072 12.623 15.295 12.623 15.2841 12.623C15.2503 12.623 15.2164 12.623 15.1838 12.623C15.173 12.623 15.1608 12.623 15.15 12.623C15.1161 12.623 15.0822 12.623 15.0497 12.623C15.0388 12.623 15.0266 12.623 15.0158 12.623C14.9819 12.623 14.948 12.623 14.9155 12.623C14.9046 12.623 14.8924 12.623 14.8816 12.623C14.8477 12.623 14.8138 12.623 14.7813 12.623C14.7705 12.623 14.7583 12.623 14.7474 12.623C14.7135 12.623 14.6796 12.623 14.6471 12.623C14.6363 12.623 14.6241 12.623 14.6132 12.623C14.5793 12.623 14.5455 12.623 14.5129 12.623C14.5021 12.623 14.4899 12.623 14.4791 12.623C14.4452 12.623 14.4113 12.623 14.3788 12.623C14.3679 12.623 14.3557 12.623 14.3449 12.623C14.147 12.6257 13.9505 12.6271 13.7526 12.6299C13.7851 12.5499 13.8054 12.4644 13.8488 12.3927C14.3205 11.6056 14.4777 10.7482 14.4533 9.83283C14.433 9.08429 14.2486 8.39365 13.8962 7.7485C13.5235 7.06475 13.018 6.50094 12.3484 6.10668C11.7846 5.77445 11.1855 5.5663 10.5336 5.46704C10.0023 5.38571 9.49264 5.42844 8.97624 5.51529C8.3975 5.61317 7.86755 5.84752 7.3769 6.17147C6.81849 6.54091 6.34276 7.00134 6.01476 7.59962C5.70302 8.16757 5.44143 8.75758 5.39535 9.41789C5.36824 9.81905 5.33978 10.2271 5.38044 10.6255C5.44143 11.2279 5.63932 11.7972 5.9375 12.3266C5.98358 12.4093 5.98765 12.5154 6.01204 12.6119C5.92124 12.6161 5.83043 12.6202 5.73961 12.623C5.72877 12.623 5.71657 12.623 5.70573 12.623C5.67185 12.623 5.63796 12.623 5.60543 12.623C5.59459 12.623 5.58239 12.623 5.57155 12.623C5.53767 12.623 5.50378 12.623 5.47125 12.623C5.46041 12.623 5.44821 12.623 5.43737 12.623C5.40348 12.623 5.3696 12.623 5.33707 12.623C5.32623 12.623 5.31403 12.623 5.30319 12.623C5.2693 12.623 5.23542 12.623 5.20289 12.623C5.19205 12.623 5.17985 12.623 5.169 12.623C5.13512 12.623 5.10124 12.623 5.06871 12.623C5.05786 12.623 5.04567 12.623 5.03482 12.623C5.00094 12.623 4.96705 12.623 4.93452 12.623C4.92368 12.623 4.91148 12.623 4.90064 12.623C4.86676 12.623 4.83287 12.623 4.80034 12.623C4.7895 12.623 4.7773 12.623 4.76646 12.623C4.73257 12.623 4.69869 12.623 4.66616 12.623C4.65532 12.623 4.64312 12.623 4.63228 12.623C4.59839 12.623 4.56451 12.623 4.53198 12.623C4.52114 12.623 4.50894 12.623 4.4981 12.623C4.46421 12.623 4.43033 12.623 4.3978 12.623C4.38695 12.623 4.37476 12.623 4.36391 12.623C4.33003 12.623 4.29614 12.623 4.26362 12.623C4.25277 12.623 4.24057 12.623 4.22973 12.623C4.19585 12.623 4.16196 12.623 4.12943 12.623C4.11859 12.623 4.10639 12.623 4.09555 12.623C4.06167 12.623 4.02778 12.623 3.99525 12.623C3.98441 12.623 3.97221 12.623 3.96137 12.623C3.92748 12.623 3.8936 12.623 3.86107 12.623C3.85023 12.623 3.83803 12.623 3.82719 12.623C3.7933 12.623 3.75942 12.623 3.72689 12.623C3.71605 12.623 3.70385 12.623 3.693 12.623C3.65912 12.623 3.62524 12.623 3.59271 12.623C3.58186 12.623 3.56967 12.623 3.55882 12.623C3.52494 12.623 3.49105 12.623 3.45853 12.623C3.44768 12.623 3.43548 12.623 3.42464 12.623C3.39076 12.623 3.35687 12.623 3.32434 12.623C3.3135 12.623 3.3013 12.623 3.29046 12.623C3.25657 12.623 3.22269 12.623 3.19016 12.623C3.17932 12.623 3.16712 12.623 3.15628 12.623C3.12239 12.623 3.08851 12.623 3.05598 12.623C3.04514 12.623 3.03294 12.623 3.0221 12.623C2.98821 12.623 2.95433 12.623 2.9218 12.623C2.91096 12.623 2.89876 12.623 2.88791 12.623C2.85403 12.623 2.82015 12.623 2.78762 12.623C2.77677 12.623 2.76458 12.623 2.75373 12.623C2.71985 12.623 2.68596 12.623 2.65343 12.623C2.64259 12.623 2.63039 12.623 2.61955 12.623C2.58567 12.623 2.55178 12.623 2.51925 12.623C2.50841 12.623 2.49621 12.623 2.48537 12.623C2.45148 12.623 2.4176 12.623 2.38507 12.623C2.37423 12.623 2.36203 12.623 2.35119 12.623C2.3173 12.623 2.28342 12.623 2.25089 12.623C2.24005 12.623 2.22785 12.623 2.21701 12.623H2.15737Z" fill="#4E88E9"/>
<path d="M1.25168 15.7875C1.57562 15.8068 1.90633 15.7875 2.22077 15.8564C2.74666 15.9722 3.20206 16.5705 3.23866 17.1205C3.2617 17.4693 3.26712 17.8181 3.30101 18.1655C3.34709 18.6369 3.57208 19.0105 3.95294 19.2807C4.59403 19.7342 5.23783 20.185 5.88163 20.633C6.27062 20.9046 6.66368 21.1706 7.05538 21.4395C7.52976 21.7662 8.00143 22.0984 8.47988 22.4182C9.27819 22.9517 9.84338 23.6782 10.1714 24.5853C10.3747 25.1491 10.4411 25.7405 10.3693 26.3456C10.2934 26.9825 10.0982 27.5711 9.75528 28.1101C9.72953 28.1501 9.72818 28.2066 9.71598 28.2563C9.63601 28.3417 9.55062 28.4231 9.47743 28.514C8.90411 29.2212 8.22507 29.7754 7.32375 29.9546C6.88732 30.0401 6.4292 30.1104 5.99006 30.0732C5.0535 29.996 4.19013 29.6582 3.54497 28.9386C2.7453 28.0467 1.9863 27.1162 1.24084 26.1761C0.808477 25.6316 0.575353 24.974 0.403221 24.2944C0.264973 23.7499 0.210759 23.1971 0.209403 22.6388C0.206692 21.0149 0.205337 19.3896 0.210759 17.7657C0.210759 17.4927 0.228378 17.2143 0.283948 16.9496C0.388312 16.4616 0.687849 16.1142 1.11886 15.884C1.16765 15.8578 1.20831 15.8192 1.25304 15.7861L1.25168 15.7875Z" fill="#E77A31"/>
<path d="M21.2262 28.2534C21.0961 27.9391 20.9619 27.6262 20.8386 27.3105C20.6854 26.9176 20.6231 26.5109 20.6082 26.0863C20.5838 25.3626 20.7247 24.6858 21.0446 24.0434C21.2764 23.5788 21.561 23.1487 21.9568 22.8192C22.2861 22.5463 22.6507 22.3175 23.0017 22.0707C23.2688 21.8832 23.5385 21.6985 23.8095 21.5152C24.3043 21.1802 24.803 20.8493 25.295 20.5102C25.7599 20.1904 26.2221 19.8651 26.6775 19.5315C26.8822 19.3826 27.0746 19.2144 27.2617 19.0435C27.5693 18.7609 27.6737 18.3845 27.7022 17.9792C27.7252 17.6429 27.7293 17.3038 27.7727 16.9702C27.8458 16.4119 28.4043 15.8315 29.0142 15.7874C29.2148 15.7722 29.4167 15.764 29.6187 15.7529C29.7867 15.8536 29.967 15.9404 30.1229 16.059C30.5159 16.3581 30.726 16.773 30.7382 17.2693C30.7558 18.0096 30.7477 18.7512 30.7477 19.4915C30.7477 20.6453 30.7558 21.8005 30.7382 22.9543C30.7179 24.2529 30.3438 25.4412 29.5373 26.4558C28.8895 27.2705 28.224 28.0728 27.5287 28.8462C26.8618 29.5892 26.0134 29.9752 25.0185 30.0661C24.1863 30.142 23.4219 29.9655 22.6995 29.574C22.1926 29.2983 21.7778 28.904 21.4336 28.4312C21.3807 28.3595 21.2967 28.3127 21.2276 28.2548L21.2262 28.2534Z" fill="#E77A31"/>
<path d="M1.36496 12.6225C1.41511 12.6225 1.46525 12.6225 1.51676 12.6225C1.46254 12.6431 1.40968 12.6638 1.35547 12.6859C1.35818 12.6638 1.36225 12.6432 1.36496 12.6211V12.6225Z" fill="#D29A46"/>
<path d="M29.39 12.6239C29.4348 12.6239 29.4795 12.6225 29.5242 12.6211C29.5242 12.6321 29.5242 12.6432 29.5201 12.6542C29.4768 12.6445 29.432 12.6349 29.3887 12.6252L29.39 12.6239Z" fill="#D19A47"/>
<path d="M17.1816 12.6067C17.1396 12.5005 17.1139 12.3847 17.0542 12.291C16.7344 11.7878 16.5975 11.2185 16.5094 10.6423C16.424 10.0771 16.466 9.50773 16.5961 8.94529C16.7872 8.12093 17.16 7.39583 17.7373 6.79617C18.3093 6.20203 19.0005 5.78296 19.8016 5.59272C20.2082 5.49622 20.6256 5.43557 21.0417 5.39008C21.2206 5.37078 21.4077 5.4204 21.5893 5.45073C21.8211 5.48933 22.0515 5.53344 22.2805 5.58858C23.0314 5.77055 23.6793 6.16481 24.235 6.6914C24.7717 7.20008 25.1566 7.82455 25.3762 8.55103C25.4928 8.93702 25.5483 9.32714 25.5822 9.72691C25.6364 10.3707 25.5497 10.9952 25.341 11.5976C25.2353 11.9036 25.0713 12.1876 24.9371 12.4826C24.9181 12.5226 24.9181 12.5722 24.9086 12.6177C24.8029 12.7362 24.6918 12.8507 24.5942 12.9747C23.9111 13.8418 23.0274 14.3739 21.9647 14.5876C21.4429 14.6924 20.913 14.7199 20.379 14.6345C19.0819 14.4291 18.0518 13.7825 17.2684 12.7128C17.2413 12.6756 17.2115 12.6425 17.183 12.6067H17.1816Z" fill="#E6E7E9"/>
<path d="M5.9742 12.6072C5.9498 12.5121 5.94573 12.4046 5.89965 12.3219C5.60147 11.7925 5.40358 11.2232 5.34259 10.6208C5.30193 10.2224 5.33039 9.81432 5.3575 9.41317C5.40358 8.75286 5.66517 8.16285 5.97691 7.5949C6.30491 6.99662 6.78064 6.53619 7.33906 6.16675C7.8297 5.84279 8.35965 5.60707 8.93839 5.51057C9.45343 5.42372 9.96441 5.38099 10.4957 5.46232C11.1476 5.56158 11.7467 5.76973 12.3106 6.10196C12.9801 6.49622 13.4843 7.06003 13.8584 7.74378C14.2108 8.38893 14.3951 9.07957 14.4154 9.82811C14.4398 10.7448 14.2826 11.6009 13.811 12.388C13.7676 12.4597 13.7459 12.5466 13.7147 12.6251C13.3976 13.0125 13.0831 13.3985 12.6874 13.7114C12.0693 14.2022 11.3726 14.4834 10.6069 14.6171C10.0647 14.7108 9.52256 14.7095 8.99125 14.5978C8.30408 14.4544 7.66841 14.1691 7.10593 13.7266C6.73456 13.4343 6.39436 13.1131 6.11244 12.7271C6.0772 12.6775 6.02163 12.6444 5.9742 12.6031V12.6072Z" fill="#E6E7E9"/>
<path d="M12.4179 21.3737C12.4179 20.8112 12.3921 20.246 12.4247 19.685C12.4721 18.8758 12.7811 18.1672 13.3856 17.631C14.024 17.0644 14.7722 16.768 15.6301 16.8204C16.1858 16.8535 16.6927 17.0313 17.1563 17.3566C17.6171 17.6792 17.9749 18.0804 18.2175 18.5973C18.4073 19.0012 18.475 19.4313 18.4832 19.8642C18.5021 20.8857 18.5008 21.9085 18.4872 22.9314C18.471 24.1183 17.9546 25.0364 16.9787 25.6733C16.5612 25.9462 16.0909 26.0717 15.5894 26.0951C14.9646 26.124 14.3818 25.9848 13.8668 25.6347C13.0874 25.1039 12.5751 24.3692 12.4626 23.4042C12.403 22.8887 12.4274 22.3621 12.4152 21.8396C12.4111 21.6852 12.4152 21.5294 12.4152 21.375H12.4179V21.3737Z" fill="#AC237A"/>
</svg>
