<svg width="61" height="61" viewBox="0 0 61 61" fill="none" xmlns="http://www.w3.org/2000/svg">
<path d="M16.4521 2.76181C17.1721 2.42181 17.8721 2.00181 18.6321 1.77181C19.8821 1.39181 21.1721 1.15181 22.4321 0.81181C22.7621 0.72181 23.0521 0.50181 23.2121 0.41181C23.7921 0.41181 24.2421 0.43181 24.6821 0.41181C27.2221 0.31181 29.7721 0.25181 32.3021 0.0618098C33.5621 -0.0281902 34.7021 0.39181 35.8921 0.56181C37.1421 0.74181 38.4221 0.84181 39.6121 1.20181C41.5921 1.80181 43.5121 2.58181 45.4621 3.29181C44.3021 5.22181 42.7621 6.48181 40.3621 6.28181C39.0621 6.17181 37.7521 6.07181 36.4521 5.96181C36.3521 5.92181 36.2621 5.87181 36.1621 5.83181C35.2721 5.75181 34.3721 5.62181 33.4821 5.60181C33.1121 5.60181 32.7021 5.76181 32.4021 5.97181C32.2621 6.07181 32.2121 6.56181 32.3321 6.73181C33.4421 8.28181 34.5821 9.79181 35.7321 11.3118C36.5221 12.3518 37.3221 13.3818 37.1521 14.8018C37.1221 14.9018 37.0821 15.0018 37.0521 15.1018C36.7121 16.0518 36.3721 16.9918 36.0521 17.9418C35.3921 19.9018 34.7421 21.8718 33.7521 23.7118C33.6621 23.8818 33.9121 24.2218 34.0021 24.4918C34.0321 24.4918 34.0621 24.4918 34.0921 24.4918C34.4321 24.4618 34.7621 24.4418 35.1021 24.3818C36.0121 24.2318 36.9121 24.0618 37.8121 23.9118C39.0621 23.6918 40.3321 23.5418 41.5621 23.2318C42.9121 22.8918 44.1721 22.8818 45.3921 23.6018C45.4521 23.6418 45.5021 23.6818 45.5621 23.7218C47.5421 25.2518 49.5221 26.7918 51.5021 28.3218C51.5321 28.3418 51.5621 28.3618 51.5921 28.3818C52.0521 28.8218 52.5321 29.2818 53.2421 28.9618C53.9021 28.6618 53.5821 28.0218 53.6621 27.5218C53.6721 27.4318 53.6521 27.3318 53.6421 27.2318C53.5721 25.7318 53.0121 24.2618 53.4821 22.7418C53.5021 22.6818 53.5021 22.5618 53.4621 22.5318C52.8321 22.0218 53.1021 21.3118 53.0721 20.6818C53.0121 19.1618 53.7121 17.9918 54.9321 17.1718C55.7221 16.6418 56.5921 16.2418 57.4221 15.7818C58.0521 17.7118 58.7521 19.6118 59.2721 21.5618C59.6321 22.8918 59.8021 24.2818 59.9421 25.6618C60.1121 27.3218 60.2221 28.9918 60.2421 30.6618C60.2821 34.1018 59.7421 37.4618 58.7621 40.7618C57.7421 44.1918 56.1721 47.3418 53.9221 50.1218C52.0021 52.5018 49.7221 54.4818 47.0821 56.0618C44.4621 57.6218 41.6521 58.6818 38.7121 59.4218C37.5821 59.7118 36.4121 59.9718 35.2521 60.0218C32.3421 60.1518 29.4121 60.3118 26.5021 60.1418C24.3221 60.0218 22.1321 59.5518 20.0221 58.9818C16.6021 58.0618 13.5021 56.4118 10.6921 54.2418C7.93207 52.1118 5.78207 49.4818 4.06207 46.4818C2.63207 43.9918 1.65207 41.3118 0.992073 38.5418C0.592073 36.8618 0.392073 35.1218 0.212073 33.4018C0.0720728 32.1018 0.0720728 30.7818 0.0620728 29.4618C0.0620728 29.0518 0.252073 28.6418 0.302073 28.2318C0.332073 27.9718 0.272073 27.7118 0.272073 27.4518C0.272073 27.1018 0.272073 26.7418 0.302073 26.3918C0.352073 25.7518 0.412073 25.1018 0.502073 24.4618C0.632073 23.5618 0.762073 22.6618 0.982073 21.7918C1.28207 20.5818 1.65207 19.3918 1.99207 18.1918C2.03207 18.1418 2.07207 18.1018 2.11207 18.0518C2.22207 17.7018 2.33207 17.3618 2.44207 17.0118C2.47207 16.9618 2.51207 16.9118 2.54207 16.8618C2.64207 16.5718 2.73207 16.2818 2.83207 15.9918C2.96207 15.9718 3.09207 15.9618 3.22207 15.9418C3.69207 16.1718 4.18207 16.3718 4.64207 16.6418C5.78207 17.3118 6.81207 18.1618 7.12207 19.4818C7.33207 20.3818 7.25207 21.3718 7.21207 22.3118C7.18207 22.9218 6.83207 23.5518 6.91207 24.1318C7.10207 25.4218 6.76207 26.6318 6.70207 27.8818C6.68207 28.2318 6.95207 28.7818 7.24207 28.9318C7.54207 29.0818 8.06207 28.9318 8.42207 28.7718C8.73207 28.6318 8.95207 28.2918 9.20207 28.0418C9.27207 28.0018 9.35207 27.9718 9.42207 27.9318C11.0921 26.6318 12.7621 25.3218 14.4421 24.0218C15.4121 23.2718 16.4721 22.7918 17.7621 23.0418C18.9221 23.2618 20.0721 23.4818 21.2421 23.6518C21.9821 23.7618 22.8121 23.6018 23.4721 23.8718C24.2121 24.1718 24.9321 24.3518 25.7221 24.3818C25.9521 24.3918 26.1921 24.4318 26.4221 24.4618C26.4421 24.1718 26.4921 23.8818 26.4821 23.5918C26.4821 23.4018 26.3921 23.2218 26.3421 23.0318C26.2521 22.8918 26.1721 22.7518 26.0821 22.6118C26.0721 22.5118 26.0621 22.4018 26.0521 22.3018C25.9621 22.1618 25.8721 22.0218 25.7921 21.8718C25.0421 19.9718 24.2321 18.0918 23.5921 16.1518C23.3321 15.3918 23.1921 14.4218 23.4421 13.6918C23.8121 12.6118 24.5121 11.6118 25.1721 10.6518C26.0121 9.44181 26.9721 8.31181 27.8321 7.11181C28.0121 6.86181 28.0921 6.39181 27.9821 6.12181C27.8921 5.90181 27.4321 5.72181 27.1521 5.72181C26.5021 5.74181 25.8721 5.62181 25.1821 5.78181C24.4921 5.94181 23.7421 5.71181 22.9621 5.94181C21.9721 6.23181 20.8721 6.20181 19.8221 6.27181C19.3721 6.30181 18.9021 6.24181 18.4521 6.16181C16.7821 5.84181 15.8521 4.61181 15.0121 3.29181L16.0721 2.88181C16.2121 2.84181 16.3421 2.80181 16.4821 2.76181H16.4521ZM47.3321 32.2818C47.0521 32.2318 46.7721 32.1418 46.4921 32.1418C35.6421 32.1418 24.8021 32.1418 13.9521 32.1418C13.6621 32.1418 13.3821 32.2118 13.0921 32.2418C13.0521 32.2518 13.0021 32.2718 12.9621 32.2918H10.9221C10.8721 33.7018 11.2921 34.9218 11.4621 36.1718C11.6421 37.5118 11.9921 38.7518 12.4521 39.9918C13.5421 42.9118 15.1421 45.5218 17.5621 47.5218C19.2521 48.9118 21.0821 50.1218 23.2521 50.6818C23.3821 50.6918 23.5121 50.7018 23.6421 50.7118C24.0421 50.8818 24.4121 51.2418 24.8621 50.8218C24.9021 50.8618 24.9421 50.9018 24.9721 50.9418C25.7721 51.1318 26.5621 51.3318 27.3621 51.5218C27.4621 51.5718 27.5521 51.6118 27.6521 51.6618C28.3521 51.6618 29.0521 51.6618 29.7521 51.6518C31.4621 51.6118 33.1721 51.5718 34.8821 51.5218C34.9521 51.5218 35.0121 51.4718 35.0821 51.4518C35.4921 51.2918 35.9021 51.1218 36.3221 50.9618C36.4721 50.8218 36.6121 50.6918 36.7621 50.5518C36.8621 50.5518 36.9521 50.5718 37.0521 50.5818C37.0721 50.6118 37.0921 50.6418 37.1121 50.6718C37.1421 50.6318 37.1721 50.5918 37.2021 50.5518C37.8021 50.3518 38.4221 50.1818 39.0121 49.9418C41.2321 49.0118 43.1321 47.6218 44.6521 45.7718C45.8421 44.3218 46.9621 42.8118 47.5321 40.9718C47.6421 40.7918 47.7621 40.6118 47.8721 40.4318C48.0121 40.0118 48.1621 39.5818 48.3021 39.1618C48.9021 37.2118 49.3221 35.2218 49.4221 33.1818C49.4621 33.1318 49.5021 33.0818 49.5421 33.0318C49.5321 32.8018 49.5121 32.5818 49.5021 32.2618C48.7521 32.3218 48.0721 32.3718 47.3921 32.4318C47.3721 32.3918 47.3621 32.3518 47.3521 32.3118L47.3321 32.2818Z" fill="#FFB02E"/>
<path d="M14.9821 3.292C15.8221 4.612 16.7521 5.842 18.4221 6.162C18.8721 6.252 19.3421 6.302 19.7921 6.272C20.8421 6.212 21.9421 6.242 22.9321 5.942C23.7121 5.712 24.4621 5.942 25.1521 5.782C25.8421 5.622 26.4721 5.742 27.1221 5.722C27.4121 5.722 27.8621 5.902 27.9521 6.122C28.0621 6.392 27.9821 6.862 27.8021 7.112C26.9421 8.312 25.9821 9.442 25.1421 10.652C24.4821 11.612 23.7721 12.602 23.4121 13.692C23.1621 14.422 23.3121 15.382 23.5621 16.152C24.2121 18.082 25.0221 19.962 25.7621 21.872C25.8521 22.012 25.9421 22.152 26.0221 22.302C26.0321 22.402 26.0421 22.512 26.0521 22.612C26.1421 22.752 26.2221 22.892 26.3121 23.032C26.3621 23.222 26.4421 23.402 26.4521 23.592C26.4521 23.882 26.4121 24.172 26.3921 24.462C26.1621 24.432 25.9221 24.392 25.6921 24.382C24.9121 24.352 24.1921 24.172 23.4421 23.872C22.7821 23.602 21.9521 23.762 21.2121 23.652C20.0521 23.482 18.8921 23.272 17.7321 23.042C16.4521 22.792 15.3921 23.272 14.4121 24.022C12.7321 25.322 11.0621 26.632 9.39207 27.932C9.32207 27.972 9.24207 28.002 9.17207 28.042C8.91207 28.292 8.70207 28.632 8.39207 28.772C8.03207 28.932 7.50207 29.082 7.21207 28.932C6.92207 28.782 6.65207 28.242 6.67207 27.882C6.73207 26.632 7.07207 25.412 6.88207 24.132C6.79207 23.552 7.15207 22.922 7.18207 22.312C7.22207 21.372 7.30207 20.382 7.09207 19.482C6.78207 18.152 5.75207 17.312 4.61207 16.642C4.16207 16.372 3.67207 16.172 3.19207 15.942C3.11207 15.902 3.03207 15.862 2.95207 15.812C2.85207 15.772 2.75207 15.732 2.65207 15.682C2.50207 15.572 2.35207 15.452 2.20207 15.342C2.15207 15.312 2.10207 15.282 2.04207 15.252C1.66207 15.002 1.27207 14.752 0.892072 14.512C0.692072 14.322 0.492072 14.132 0.292072 13.942C-0.277928 13.072 -0.00792766 12.262 1.05207 11.632C1.24207 11.532 1.43207 11.422 1.62207 11.322C1.67207 11.322 1.73207 11.322 1.78207 11.322C1.87207 11.272 1.97207 11.212 2.06207 11.162C3.00207 10.812 3.94207 10.462 4.87207 10.122C5.01207 10.032 5.15207 9.942 5.29207 9.852C5.39207 9.852 5.50207 9.842 5.60207 9.832C5.74207 9.742 5.88207 9.652 6.02207 9.562C6.12207 9.562 6.23207 9.552 6.33207 9.542C6.48207 9.402 6.62207 9.262 6.77207 9.132C6.82207 9.112 6.86207 9.122 6.91207 9.132C6.94207 9.132 6.97207 9.132 7.00207 9.132C7.06207 9.122 7.12207 9.102 7.18207 9.092C7.28207 9.042 7.39207 8.992 7.49207 8.942C9.14207 7.452 9.33207 5.392 9.71207 3.392C9.86207 2.632 10.0621 1.892 10.1821 1.132C10.2921 0.392002 10.8121 0.052002 11.4221 0.052002C11.8921 0.052002 12.5021 0.272002 12.8121 0.612002C13.5921 1.442 14.2421 2.402 14.9421 3.312L14.9821 3.292Z" fill="#BB1D80"/>
<path d="M45.3921 23.6119C44.1721 22.8919 42.9021 22.9019 41.5621 23.2419C40.3321 23.5519 39.0621 23.7019 37.8121 23.9219C36.9121 24.0819 36.0021 24.2519 35.1021 24.3919C34.7721 24.4519 34.4321 24.4619 34.0921 24.5019C34.0621 24.5019 34.0321 24.5019 34.0021 24.5019C33.9121 24.2419 33.6621 23.8919 33.7521 23.7219C34.7421 21.8819 35.3821 19.9219 36.0521 17.9519C36.3721 17.0019 36.7221 16.0619 37.0521 15.1119C37.0821 15.0119 37.1221 14.9119 37.1521 14.8119C37.3221 13.3819 36.5221 12.3619 35.7321 11.3219C34.5821 9.8019 33.4421 8.2919 32.3321 6.7419C32.2121 6.5719 32.2621 6.0819 32.4021 5.9819C32.7021 5.7619 33.1221 5.6019 33.4821 5.6119C34.3821 5.6319 35.2721 5.7619 36.1621 5.8419C36.2621 5.8819 36.3521 5.9319 36.4521 5.9719C37.7521 6.0819 39.0621 6.1819 40.3621 6.2919C42.7621 6.4919 44.3121 5.2219 45.4621 3.3019C46.1421 2.4119 46.8321 1.5219 47.5121 0.631901C47.8221 0.231901 48.1721 -0.088099 48.7321 0.021901C49.3921 0.141901 49.9821 0.291901 50.1321 1.1219C50.4221 2.7419 50.8121 4.3419 51.1321 5.9519C51.3021 6.8119 51.6021 7.5819 52.2221 8.2119C52.2521 8.2519 52.2821 8.2819 52.3121 8.3219L52.3421 8.3519C52.3821 8.3919 52.4221 8.4319 52.4521 8.4619L52.4921 8.5019C52.5221 8.5319 52.5621 8.5719 52.5921 8.6019C52.6221 8.6019 52.6421 8.6219 52.6421 8.6519C52.6621 8.7019 52.6921 8.7319 52.7421 8.7419C53.1821 8.9919 53.6021 9.3019 54.0621 9.4919C55.7421 10.2019 57.4321 10.8719 59.1221 11.5519C59.7121 11.7919 60.2021 12.1019 60.2721 12.8219C60.3521 13.6219 60.1321 14.2419 59.3821 14.6419C58.7121 14.9919 58.0721 15.3919 57.4221 15.7719C56.5921 16.2319 55.7221 16.6319 54.9321 17.1619C53.7121 17.9819 53.0021 19.1519 53.0721 20.6719C53.1021 21.3019 52.8321 22.0119 53.4621 22.5219C53.5021 22.5519 53.5021 22.6719 53.4821 22.7319C53.0021 24.2519 53.5721 25.7219 53.6421 27.2219C53.6421 27.3219 53.6721 27.4219 53.6621 27.5119C53.5821 28.0119 53.9021 28.6519 53.2421 28.9519C52.5421 29.2719 52.0621 28.8119 51.5921 28.3719C51.5621 28.3519 51.5321 28.3319 51.5021 28.3119C49.5221 26.7819 47.5421 25.2419 45.5621 23.7119C45.5021 23.6719 45.4521 23.6319 45.3921 23.5919V23.6119Z" fill="#BB1D80"/>
<path d="M52.7421 8.75187C52.7421 8.75187 52.6621 8.71187 52.6421 8.66187C52.6721 8.69187 52.7021 8.72187 52.7421 8.75187Z" fill="#BD227D"/>
<path d="M52.6021 8.61196C52.6021 8.61196 52.5321 8.54196 52.5021 8.51196C52.5321 8.54196 52.5721 8.58196 52.6021 8.61196Z" fill="#BD227D"/>
<path d="M52.4621 8.46181C52.4621 8.46181 52.3821 8.38181 52.3521 8.35181C52.3921 8.39181 52.4321 8.43181 52.4621 8.46181Z" fill="#BD227D"/>
<path d="M52.3221 8.32191C52.3221 8.32191 52.2621 8.24191 52.2321 8.21191C52.2621 8.25191 52.2921 8.29191 52.3221 8.32191Z" fill="#BD227D"/>
<path d="M49.4121 33.1619C49.3121 35.2019 48.8921 37.1919 48.2921 39.1419C48.1621 39.5719 48.0121 39.9919 47.8621 40.4119C47.7521 40.5919 47.6321 40.7719 47.5221 40.9519C46.9621 42.7919 45.8421 44.3019 44.6421 45.7519C43.1121 47.6119 41.2221 49.0019 39.0021 49.9219C38.4121 50.1619 37.8021 50.3319 37.1921 50.5319C37.1421 50.5319 37.0921 50.5519 37.0421 50.5519C36.9421 50.5519 36.8521 50.5319 36.7521 50.5219C36.6021 50.6619 36.4621 50.7919 36.3121 50.9319C35.9021 51.0919 35.4921 51.2619 35.0721 51.4219C35.0021 51.4519 34.9421 51.4919 34.8721 51.4919C33.1621 51.5419 31.4521 51.5819 29.7421 51.6219C29.0421 51.6419 28.3421 51.6219 27.6421 51.6319C27.5421 51.5819 27.4521 51.5419 27.3521 51.4919C26.5521 51.3019 25.7621 51.1019 24.9621 50.9119C24.9221 50.8719 24.8821 50.8319 24.8521 50.7919C24.4021 51.2119 24.0221 50.8619 23.6321 50.6819C23.5021 50.6719 23.3721 50.6619 23.2421 50.6519C21.0721 50.0919 19.2521 48.8819 17.5521 47.4919C15.1221 45.4919 13.5321 42.8819 12.4421 39.9619C11.9821 38.7319 11.6321 37.4919 11.4521 36.1419C11.2821 34.8919 10.8621 33.6719 10.9121 32.2619C11.6121 32.2619 12.2821 32.2619 12.9521 32.2619C12.9521 32.3819 12.9521 32.5019 12.9521 32.6319C12.9521 34.7719 13.6221 35.4619 15.7321 35.4619C25.5621 35.4619 35.3921 35.4819 45.2221 35.4819C46.4221 35.4819 47.3321 34.5619 47.3321 33.3919C47.3321 33.0519 47.3621 32.7119 47.3721 32.3719C48.0521 32.3219 48.7321 32.2619 49.4821 32.2019C49.5021 32.5219 49.5121 32.7519 49.5221 32.9719C49.4821 33.0219 49.4421 33.0719 49.4021 33.1219L49.4121 33.1619Z" fill="#BB1D80"/>
<path d="M47.382 32.4019C47.362 32.7419 47.342 33.0819 47.342 33.4219C47.342 34.5919 46.432 35.5119 45.232 35.5119C35.402 35.5119 25.572 35.5019 15.742 35.4919C13.632 35.4919 12.962 34.8019 12.962 32.6619C12.962 32.5419 12.962 32.4219 12.962 32.2919C13.002 32.2719 13.042 32.2519 13.092 32.2419C13.332 32.2519 13.582 32.2819 13.822 32.2819C24.992 32.2819 36.172 32.2819 47.342 32.2819C47.352 32.3219 47.372 32.3619 47.382 32.4019Z" fill="white"/>
<path d="M47.332 32.2818C36.162 32.2818 24.982 32.2818 13.812 32.2818C13.572 32.2818 13.322 32.2518 13.082 32.2418C13.372 32.2018 13.652 32.1418 13.942 32.1418C24.792 32.1418 35.632 32.1418 46.482 32.1418C46.762 32.1418 47.042 32.2318 47.322 32.2818H47.332Z" fill="#F3A872"/>
<path d="M36.3221 50.942L36.7621 50.532C36.6121 50.672 36.4721 50.802 36.3221 50.942Z" fill="#FCA932"/>
<path d="M26.0421 22.2818C25.9521 22.1418 25.8621 22.0018 25.7821 21.8518C25.8721 21.9918 25.9621 22.1318 26.0421 22.2818Z" fill="#FCA932"/>
<path d="M37.0521 50.562C37.1021 50.562 37.1521 50.542 37.2021 50.542C37.1721 50.582 37.1421 50.622 37.1121 50.662C37.0921 50.632 37.0721 50.602 37.0521 50.572V50.562Z" fill="#FCA932"/>
<path d="M51.5021 28.332C51.5021 28.332 51.5621 28.372 51.5921 28.392C51.5621 28.372 51.5321 28.352 51.5021 28.332Z" fill="#BD207E"/>
<path d="M24.8621 50.822C24.8621 50.822 24.9421 50.902 24.9721 50.942C24.9321 50.902 24.8921 50.862 24.8621 50.822Z" fill="#FEAE2F"/>
</svg>
