<svg width="65" height="66" viewBox="0 0 65 66" fill="none" xmlns="http://www.w3.org/2000/svg">
<path d="M2.79 43.6199C2.4 42.1999 1.84 40.7999 1.65 39.3599C1.32 36.9299 1.08 34.4599 1.06 32.0099C1.04 29.4399 1.37 26.8899 1.97 24.3699C2.77 20.9899 3.98 17.7899 5.88 14.8799C7.29 12.7199 8.94 10.7799 10.93 9.09995C13.44 6.98995 16.24 5.39995 19.34 4.40995C21.19 3.81995 23.13 3.50995 25.03 3.09995C27.66 2.52995 30.34 2.66995 33.01 2.64995C33.17 2.64995 33.35 2.61995 33.5 2.55995C33.9 2.39995 34.2 2.38995 34.63 2.63995C35.07 2.89995 35.68 2.87995 36.23 2.92995C36.72 2.97995 37.21 2.94995 37.7 2.94995C37.77 2.94995 37.85 2.92995 37.92 2.94995C39.68 3.43995 41.49 3.79995 43.18 4.45995C45.04 5.17995 46.8 6.16995 48.6 7.04995C48.66 7.08995 48.71 7.11995 48.77 7.15995C49.95 8.05995 51.14 8.94995 52.32 9.84995L52.44 10.0099C53.95 11.8799 55.59 13.6499 56.92 15.6399C58.3 17.6999 59.31 19.9799 59.8 22.4599C59.96 23.2599 60.26 24.0399 60.44 24.8399C60.65 25.7999 60.83 26.7599 60.95 27.7299C61.06 28.5699 61.08 29.4199 61.13 30.2699C61.17 30.3199 61.21 30.3799 61.25 30.4299C61.25 31.7799 61.34 33.1299 61.24 34.4699C61.03 37.3299 60.8 40.1999 59.83 42.9399C59.26 44.5499 58.62 46.1399 58.02 47.7399C57.98 47.7899 57.94 47.8499 57.91 47.8999C56.96 49.4399 56.12 51.0599 55.03 52.4899C53.39 54.6499 51.42 56.5099 49.07 57.9299C49.02 57.9599 48.97 57.9999 48.91 58.0299C47.98 58.5699 47.09 59.1799 46.12 59.6299C44.68 60.3099 43.22 60.9899 41.71 61.4599C40.22 61.9199 38.65 62.1899 37.1 62.4199C33.92 62.8899 30.7 62.9199 27.52 62.6799C25.18 62.4999 22.85 61.9699 20.57 61.3699C17.85 60.6499 15.34 59.3999 13.05 57.7299C13.01 57.6999 12.97 57.6599 12.94 57.6299C11.18 56.6799 9.71 55.3699 8.48 53.7999C7.43 52.4599 6.38 51.1199 5.45 49.6899C4.27 47.8699 3.37 45.8899 2.8 43.7899C2.83 43.7499 2.87 43.7199 2.9 43.6799C2.87 43.6599 2.83 43.6399 2.8 43.6199H2.79ZM28.55 24.0499C28.49 23.6199 28.42 23.1899 28.37 22.7599C28 19.8899 26.53 17.7199 24.09 16.2499C23 15.5999 21.75 15.2199 20.57 14.7199C20.5 14.6899 20.39 14.7399 20.29 14.7499C19.77 14.8299 19.25 14.8799 18.73 14.9899C17.58 15.2399 16.31 15.2799 15.32 15.8199C12.48 17.3699 10.63 19.7099 10.26 23.0599C10.07 24.8399 10.17 26.5599 11.15 28.0799C11.81 29.1099 12.58 30.0999 13.44 30.9599C14.55 32.0699 15.95 32.7899 17.51 33.0199C18.99 33.2399 20.44 33.3499 21.96 32.8299C25.97 31.4599 28.41 28.1799 28.54 24.0399L28.55 24.0499ZM43.05 33.2699C43.63 33.1799 44.46 33.1099 45.24 32.8999C48.31 32.0799 50.47 30.2199 51.6 27.2099C51.86 26.5199 52.15 25.8399 52.4 25.1499C52.45 25.0099 52.39 24.8299 52.36 24.6699C52.3 24.3699 52.21 24.0799 52.16 23.7799C52.05 23.0699 52.02 22.3299 51.84 21.6299C51.43 19.9899 50.57 18.5999 49.36 17.4099C47.35 15.4399 44.81 14.9799 42.17 14.8399C41.77 14.8199 41.34 15.0099 40.94 15.1399C40.3 15.3499 39.63 15.5099 39.04 15.8299C35.61 17.6999 33.78 20.5299 33.93 24.5199C33.95 24.9499 33.73 25.4299 33.87 25.7899C34.31 26.8999 34.76 28.0299 35.42 29.0199C37.16 31.6299 39.61 33.0999 43.05 33.2599V33.2699ZM31 43.4399C31 43.4399 31 43.4299 31 43.4199C33.64 43.4199 36.29 43.4199 38.93 43.4199C39.98 43.4199 41.04 43.4499 42.09 43.4099C43.16 43.3699 44.02 42.5699 44.08 41.6299C44.17 40.3099 43.65 39.5099 42.47 39.2399C42.05 39.1399 41.6 39.1099 41.17 39.1099C34.37 39.1099 27.56 39.1099 20.76 39.0899C20.04 39.0899 19.53 39.3499 18.93 39.7199C18.12 40.2199 18.43 40.8599 18.37 41.4799C18.37 41.5499 18.38 41.6299 18.37 41.6999C18.33 42.3799 19.38 43.4399 20.05 43.4399C23.7 43.4399 27.34 43.4399 30.99 43.4399H31Z" fill="#FFB02E"/>
<path d="M52.43 10.0001C52.39 9.95009 52.35 9.90009 52.31 9.84009C52.35 9.89009 52.39 9.94009 52.43 10.0001Z" fill="#050301"/>
<path d="M2.78998 43.6201C2.78998 43.6201 2.85998 43.6601 2.88998 43.6801C2.85998 43.7201 2.81998 43.7501 2.78998 43.7901C2.78998 43.7401 2.78998 43.6801 2.78998 43.6301V43.6201Z" fill="#020100"/>
<path d="M57.9 47.88C57.94 47.83 57.98 47.77 58.01 47.72C57.97 47.77 57.93 47.83 57.9 47.88Z" fill="#030200"/>
<path d="M12.93 57.6201C12.93 57.6201 13.01 57.6901 13.04 57.7201C13 57.6901 12.96 57.6501 12.93 57.6201Z" fill="#020100"/>
<path d="M48.9 58.0199C48.95 57.9899 49 57.9499 49.06 57.9199C49.01 57.9499 48.96 57.9899 48.9 58.0199Z" fill="#030200"/>
<path d="M28.54 24.0499C28.41 28.1799 25.97 31.4699 21.96 32.8399C20.43 33.3599 18.99 33.2499 17.51 33.0299C15.95 32.7999 14.55 32.0799 13.44 30.9699C12.58 30.1099 11.81 29.1199 11.15 28.0899C10.17 26.5699 10.06 24.8399 10.26 23.0699C10.63 19.7199 12.48 17.3799 15.32 15.8299C16.31 15.2899 17.58 15.2399 18.73 14.9999C19.24 14.8899 19.77 14.8399 20.29 14.7599C20.38 14.7499 20.49 14.6999 20.57 14.7299C21.75 15.2299 23 15.6099 24.09 16.2599C26.53 17.7299 28 19.9099 28.37 22.7699C28.43 23.1999 28.49 23.6299 28.55 24.0599L28.54 24.0499ZM20.37 19.8299C18.15 19.4999 15.93 21.9699 16.12 24.3299C16.28 26.3299 18.25 28.3899 20.27 28.3399C22.72 28.2699 24.48 26.5399 24.68 24.3899C24.93 21.7199 22.56 19.5199 20.37 19.8299Z" fill="#FFFFFE"/>
<path d="M43.04 33.2701C39.6 33.1001 37.15 31.6401 35.41 29.0301C34.75 28.0401 34.3 26.9101 33.86 25.8001C33.72 25.4401 33.93 24.9501 33.92 24.5301C33.77 20.5401 35.61 17.7101 39.03 15.8401C39.61 15.5201 40.29 15.3601 40.93 15.1501C41.33 15.0201 41.76 14.8301 42.16 14.8501C44.81 14.9901 47.35 15.4501 49.35 17.4201C50.56 18.6101 51.41 20.0001 51.83 21.6401C52.01 22.3401 52.03 23.0701 52.15 23.7901C52.2 24.0901 52.29 24.3801 52.35 24.6801C52.38 24.8401 52.44 25.0301 52.39 25.1601C52.14 25.8501 51.85 26.5301 51.59 27.2201C50.46 30.2301 48.3 32.0901 45.23 32.9101C44.44 33.1201 43.62 33.1801 43.04 33.2801V33.2701ZM41.75 28.3501C44.52 28.2101 46.21 26.5601 46.23 23.9901C46.25 21.6501 44.46 19.9801 42.32 19.8001C39.17 19.5401 37.61 22.0301 37.63 24.0101C37.66 26.4201 39.37 28.1401 41.75 28.3501Z" fill="#FFFFFE"/>
<path d="M30.99 43.4401C27.34 43.4401 23.7 43.4401 20.05 43.4401C19.38 43.4401 18.33 42.3801 18.37 41.7001C18.37 41.6301 18.36 41.5501 18.37 41.4801C18.43 40.8601 18.12 40.2201 18.93 39.7201C19.53 39.3401 20.04 39.0801 20.76 39.0901C27.56 39.1101 34.37 39.1001 41.17 39.1101C41.6 39.1101 42.05 39.1501 42.47 39.2401C43.64 39.5101 44.17 40.3101 44.08 41.6301C44.02 42.5701 43.16 43.3701 42.09 43.4101C41.04 43.4501 39.99 43.4201 38.93 43.4201C36.29 43.4201 33.64 43.4201 31 43.4201C31 43.4201 31 43.4301 31 43.4401H30.99Z" fill="#402A32"/>
<path d="M20.38 19.8301C22.57 19.5301 24.93 21.7301 24.69 24.3901C24.49 26.5401 22.73 28.2801 20.28 28.3401C18.26 28.3901 16.29 26.3301 16.13 24.3301C15.94 21.9701 18.17 19.5001 20.38 19.8301Z" fill="#402A32"/>
<path d="M41.75 28.35C39.37 28.14 37.66 26.42 37.63 24.01C37.61 22.04 39.18 19.54 42.32 19.8C44.46 19.98 46.25 21.65 46.23 23.99C46.21 26.55 44.52 28.2 41.75 28.35Z" fill="#402B33"/>
</svg>
