<svg width="61" height="63" viewBox="0 0 61 63" fill="none" xmlns="http://www.w3.org/2000/svg">
<path d="M17.8581 2.18359C20.6481 1.21359 23.4981 0.523594 26.4681 0.393594C26.6281 0.393594 26.7781 0.223594 26.9481 0.153594C27.0881 0.0935937 27.2581 0.0535938 27.4081 0.0535938C29.2581 0.0535938 31.1081 0.0535938 32.9481 0.0535938C33.0381 0.0535938 33.1281 -0.0164062 33.1981 0.00359375C35.4581 0.813594 37.9181 0.623594 40.1681 1.42359C41.7581 1.99359 43.3481 2.56359 44.8981 3.20359C46.8281 4.00359 48.5281 5.19359 50.1881 6.44359C50.5881 6.75359 50.9581 7.10359 51.3381 7.44359C51.3781 7.49359 51.4181 7.54359 51.4581 7.60359C52.4581 8.72359 53.5281 9.78359 54.4481 10.9736C56.0581 13.0736 57.2881 15.3936 58.2181 17.8736C58.4081 18.3836 58.6881 18.8536 58.9281 19.3436C58.8881 19.4436 58.8581 19.5436 58.8181 19.6436C59.0481 20.5836 59.2981 21.5136 59.4881 22.4636C59.6881 23.4436 59.8881 24.4336 59.9681 25.4336C60.1281 27.6036 60.2381 29.7836 60.3081 31.9536C60.3281 32.6836 60.2281 33.4236 60.1181 34.1436C59.9081 35.5636 59.6881 36.9836 59.3981 38.3936C58.9281 40.7136 58.2481 42.9636 57.1181 45.0636C57.0781 45.1436 57.0681 45.2436 57.0381 45.3336C56.9981 45.3836 56.9581 45.4436 56.9281 45.4936C55.9481 47.6836 54.5481 49.6036 52.9781 51.3836C51.2581 53.3336 49.2781 55.0036 46.9781 56.2036C45.0881 57.1936 43.1281 58.1036 41.1281 58.8336C39.5281 59.4136 37.8281 59.7536 36.1481 60.0136C32.8081 60.5536 29.4281 60.3536 26.0581 60.3036C25.8981 59.7036 25.8381 59.0536 25.5581 58.5236C25.3181 58.0536 24.8281 57.7136 24.5081 57.3636C25.2181 57.1336 25.9381 56.8936 26.6481 56.6636C26.7981 56.5136 26.9381 56.3736 27.0881 56.2236C28.0981 54.2536 27.6481 53.6936 26.4681 52.8436C26.4681 52.7936 26.4681 52.7436 26.4681 52.6936C27.2981 52.1136 28.0781 51.4836 28.1081 50.3436C28.1081 50.1936 28.1081 50.0536 28.1081 49.9036C28.0181 48.8436 27.3081 48.2036 26.3481 47.5436C27.3181 47.5436 28.0781 47.5736 28.8381 47.5436C29.4681 47.5136 30.1281 47.5136 30.7181 47.3036C31.9281 46.8836 32.5981 45.4836 32.3581 44.1936C32.1581 43.1436 30.9081 42.0636 29.7081 42.0936C25.8681 42.1736 22.0281 42.1136 18.1881 42.1336C17.5881 42.1336 17.3781 41.9536 17.3881 41.3436C17.4281 39.9236 17.3981 38.5036 17.3981 37.0836C17.3981 35.8936 17.5381 34.6836 16.8081 33.6136C16.8281 33.1936 16.6281 33.0036 16.2181 33.0236C15.6281 32.8236 15.0481 32.6236 14.4581 32.4236C14.3081 32.0636 14.1681 32.0636 14.0181 32.4236C12.1981 32.6136 11.0481 34.0636 10.9081 36.0636C10.7881 37.8036 10.4881 39.5336 10.2081 41.2536C10.0481 42.2836 9.36814 42.9136 8.40814 43.2836C6.81814 43.8936 5.50815 44.8636 4.51815 46.2636C4.39815 46.4336 4.19815 46.5336 4.03815 46.6736C3.40815 45.2836 2.66815 43.9336 2.17815 42.4936C1.55815 40.6836 1.09815 38.8136 0.648145 36.9436C0.408145 35.9536 0.268145 34.9236 0.208145 33.8936C0.108145 32.2736 -0.0918547 30.6536 0.0481453 29.0336C0.138145 28.0836 0.308145 27.1436 0.448145 26.2036C0.498145 25.8636 0.568145 25.5236 0.628145 25.1836C0.668145 25.1736 0.708145 25.1536 0.748145 25.1436C0.708145 25.1136 0.668145 25.0936 0.628145 25.0636C0.328145 23.9936 0.778145 23.0036 0.988145 21.9936C1.86815 17.8936 3.50815 14.1236 6.06815 10.7936C7.46815 8.98359 8.98814 7.25359 10.8981 5.95359C11.3381 6.71359 11.9581 6.75359 12.7181 6.23359C13.5181 5.68359 14.3181 5.17359 15.2681 4.82359C16.5981 4.34359 17.8781 4.37359 19.0981 4.75359C20.1481 5.08359 21.0981 5.78359 22.0581 6.37359C22.6181 6.71359 23.0481 6.56359 23.4081 6.15359C23.7781 5.73359 23.8381 5.26359 23.3681 4.80359C22.4081 3.86359 21.2781 3.18359 20.0181 2.75359C19.3081 2.51359 18.5581 2.35359 17.8281 2.16359L17.8581 2.18359ZM26.9781 20.8236C26.9781 20.3236 27.1181 19.7836 26.9681 19.3336C26.3081 17.3936 25.3481 15.6336 23.5681 14.4636C23.5181 14.4236 23.4581 14.3936 23.4081 14.3536C22.2381 13.6436 21.0981 13.0336 19.6281 12.9036C17.7181 12.7336 15.9081 12.5736 14.1481 13.5536C12.6881 14.3736 11.4981 15.4536 10.5981 16.8436C9.10814 19.1536 8.76814 21.6536 9.52814 24.2636C10.2381 26.7036 11.8081 28.5436 14.0081 29.7336C15.7881 30.6936 17.7181 31.1836 19.7581 30.5136C19.8581 30.4236 19.9481 30.3336 20.0481 30.2436C20.3281 30.2636 20.6281 30.3736 20.8781 30.2936C22.2081 29.8536 23.4581 29.2436 24.4581 28.2236C26.3981 26.2436 27.3681 23.8836 27.2481 21.0936C27.1581 20.9936 27.0681 20.8936 26.9781 20.8036V20.8236ZM35.7781 15.2636C34.0381 17.1736 33.0481 19.3536 33.1081 22.0136C33.1781 24.9636 34.4181 27.3536 36.6681 29.0736C39.5581 31.2836 42.8381 31.5736 46.1481 30.0036C48.5381 28.8736 50.2381 27.0136 50.9381 24.4436C51.2681 23.2536 51.3781 21.9436 51.2781 20.7036C51.1081 18.6036 50.1181 16.7836 48.6781 15.2436C49.7681 14.6436 49.9381 13.8036 49.0281 13.1736C47.3081 11.9736 45.3981 11.1936 43.2981 10.9836C40.4681 10.7136 37.8281 11.3436 35.4381 12.9036C34.9381 13.2336 34.4181 13.6336 34.5981 14.3736C34.7481 14.9836 35.2181 15.1836 35.7781 15.2636ZM38.8581 38.6136C38.7981 38.4336 38.7281 38.0336 38.5381 37.7036C37.5481 35.9436 36.3181 34.4336 34.4381 33.5136C32.1981 32.4236 29.8181 32.1036 27.4081 32.4636C25.4581 32.7536 23.7981 33.7936 22.3281 35.0936C21.6781 35.6636 21.4681 36.8236 21.8081 37.5736C22.4781 39.0336 24.1181 39.3236 25.4281 38.1336C26.8481 36.8436 28.5381 36.4236 30.3481 36.7236C31.3681 36.8936 32.4281 37.2936 33.2581 37.8836C33.9681 38.3836 34.3981 39.2936 34.9281 40.0436C35.4381 40.7636 36.3981 41.2236 37.0881 41.0236C38.1481 40.7136 38.8681 39.8236 38.8681 38.6136H38.8581Z" fill="#FFB02E"/>
<path d="M28.1182 50.3436C28.0882 51.4836 27.3082 52.1136 26.4782 52.6936C26.3982 52.7036 26.3082 52.7236 26.2282 52.7336C26.2282 52.7536 26.2282 52.7836 26.2282 52.8036C26.3182 52.8136 26.3982 52.8236 26.4882 52.8436C27.6582 53.6836 28.1182 54.2536 27.1082 56.2236C26.9582 56.3736 26.8182 56.5136 26.6682 56.6636C25.9482 56.9036 25.2282 57.1336 24.5282 57.3636C24.8582 57.7136 25.3382 58.0536 25.5782 58.5236C25.8582 59.0636 25.9182 59.7036 26.0782 60.3036C25.6782 61.0236 25.3982 61.8536 24.5482 62.2136C24.2482 62.3436 23.9182 62.5136 23.6082 62.5136C20.7582 62.5236 17.9082 62.5036 15.0482 62.4936C14.9982 62.4936 14.9582 62.4936 14.9082 62.4936C14.1182 62.4436 13.3382 62.3836 12.5482 62.3336C12.4982 62.3336 12.4582 62.3336 12.4082 62.3436C9.89817 61.9936 7.62817 61.0536 5.64817 59.4536C3.95817 58.0836 2.90817 56.3736 2.53817 54.1936C2.26817 52.6236 2.53817 51.1236 2.73817 49.6036C2.79817 49.5536 2.85817 49.5036 2.91817 49.4536C2.85817 49.4036 2.79817 49.3536 2.73817 49.3036C2.72817 49.2536 2.70817 49.2036 2.69817 49.1636C2.79817 49.0636 2.89817 48.9636 2.98817 48.8636C3.33817 48.1336 3.69817 47.3936 4.04817 46.6636C4.20817 46.5336 4.40817 46.4236 4.52817 46.2536C5.50817 44.8536 6.82817 43.8836 8.41817 43.2736C9.37817 42.9036 10.0582 42.2736 10.2182 41.2436C10.4882 39.5236 10.7882 37.7936 10.9182 36.0536C11.0582 34.0536 12.1982 32.5936 14.0282 32.4136C14.1782 32.4136 14.3182 32.4136 14.4682 32.4136C15.0582 32.6136 15.6382 32.8136 16.2282 33.0136C16.4282 33.2136 16.6182 33.4136 16.8182 33.6036C17.5482 34.6736 17.4082 35.8836 17.4082 37.0736C17.4082 38.4936 17.4382 39.9136 17.3982 41.3336C17.3782 41.9436 17.5882 42.1336 18.1982 42.1236C22.0382 42.1036 25.8782 42.1636 29.7182 42.0836C30.9282 42.0636 32.1782 43.1336 32.3682 44.1836C32.6082 45.4736 31.9282 46.8736 30.7282 47.2936C30.1482 47.4936 29.4782 47.5036 28.8482 47.5336C28.0882 47.5736 27.3382 47.5336 26.3582 47.5336C27.3182 48.1836 28.0282 48.8336 28.1182 49.8936C27.7682 50.0436 27.7682 50.1836 28.1182 50.3336V50.3436Z" fill="#FF822D"/>
<path d="M17.8582 2.18359C18.5882 2.37359 19.3382 2.53359 20.0482 2.77359C21.3082 3.20359 22.4382 3.88359 23.3982 4.82359C23.8682 5.28359 23.8082 5.75359 23.4382 6.17359C23.0782 6.58359 22.6482 6.73359 22.0882 6.39359C21.1282 5.80359 20.1882 5.10359 19.1282 4.77359C17.9082 4.39359 16.6282 4.35359 15.2982 4.84359C14.3382 5.19359 13.5482 5.70359 12.7482 6.25359C11.9982 6.76359 11.3682 6.73359 10.9282 5.97359C10.8182 5.23359 11.1382 4.74359 11.7282 4.31359C13.3382 3.12359 15.0682 2.29359 17.1182 2.30359C17.3582 2.30359 17.5982 2.22359 17.8382 2.18359H17.8582Z" fill="#402A32"/>
<path d="M2.99819 48.8738C2.89819 48.9738 2.79819 49.0738 2.70819 49.1738C2.80819 49.0738 2.90819 48.9738 2.99819 48.8738Z" fill="#F9812C"/>
<path d="M2.74817 49.3237C2.80817 49.3737 2.86817 49.4237 2.92817 49.4737C2.86817 49.5237 2.80817 49.5737 2.74817 49.6237C2.74817 49.5237 2.74817 49.4237 2.74817 49.3237Z" fill="#F9812C"/>
<path d="M0.668152 25.0737C0.668152 25.0737 0.748152 25.1237 0.788152 25.1537C0.748152 25.1637 0.708152 25.1837 0.668152 25.1937C0.668152 25.1537 0.668152 25.1137 0.668152 25.0837V25.0737Z" fill="#010101"/>
<path d="M51.4782 7.61361C51.4382 7.56361 51.3982 7.51361 51.3582 7.45361C51.3982 7.50361 51.4382 7.55361 51.4782 7.61361Z" fill="#030201"/>
<path d="M12.4182 62.3638C12.4182 62.3638 12.5082 62.3638 12.5582 62.3538L12.4882 62.3738H12.4182V62.3638Z" fill="#F9812C"/>
<path d="M14.9081 62.5137C14.9081 62.5137 14.9981 62.5137 15.0481 62.5137L14.9781 62.5337H14.9081V62.5137Z" fill="#F9812C"/>
<path d="M48.6782 15.2536C50.1282 16.8036 51.1082 18.6136 51.2782 20.7136C51.3782 21.9436 51.2582 23.2536 50.9382 24.4536C50.2382 27.0236 48.5382 28.8836 46.1482 30.0136C42.8382 31.5836 39.5582 31.2936 36.6682 29.0836C34.4182 27.3636 33.1782 24.9736 33.1082 22.0236C33.0382 19.3636 34.0382 17.1836 35.7782 15.2736C37.9382 13.7936 40.1982 12.8036 42.9482 13.1536C44.7882 13.3836 46.3682 14.0436 47.8582 15.0436C48.0782 15.1936 48.3982 15.1936 48.6782 15.2536ZM40.9582 24.9436C43.9282 24.7436 45.2282 22.8536 45.4182 20.2236C45.5582 18.2436 43.1082 16.2436 40.7882 16.3036C38.6082 16.3636 36.7082 18.0436 36.6882 20.5536C36.6682 23.0136 38.4282 24.8036 40.9582 24.9436Z" fill="white"/>
<path d="M23.5681 14.4636C25.3481 15.6336 26.3081 17.3936 26.9681 19.3336C27.1181 19.7836 26.9881 20.3236 26.9781 20.8236C27.0681 20.9236 27.1581 21.0236 27.2481 21.1136C27.3681 23.9036 26.3981 26.2636 24.4581 28.2436C23.4581 29.2636 22.2081 29.8736 20.8781 30.3136C20.6381 30.3936 20.3281 30.2836 20.0481 30.2636C19.9481 30.3536 19.8581 30.4436 19.7581 30.5336C17.7181 31.2036 15.7781 30.7136 14.0081 29.7536C11.8081 28.5636 10.2381 26.7236 9.52813 24.2836C8.76813 21.6736 9.10813 19.1636 10.5981 16.8636C11.4981 15.4736 12.6881 14.3936 14.1481 13.5736C15.9081 12.5836 17.7081 12.7536 19.6281 12.9236C21.0981 13.0536 22.2381 13.6636 23.4081 14.3736C23.4581 14.4136 23.5181 14.4436 23.5681 14.4836V14.4636ZM17.2481 24.9336C19.8881 24.8736 21.6381 22.9336 21.5881 20.5936C21.5181 17.7736 19.8081 16.3236 17.0881 16.3036C14.6781 16.2836 13.0481 18.4236 13.0181 20.5736C12.9881 23.0436 15.0681 24.9136 17.2581 24.9336H17.2481Z" fill="white"/>
<path d="M38.8582 38.6136C38.8582 39.8236 38.1482 40.7136 37.0782 41.0236C36.3882 41.2236 35.4282 40.7736 34.9182 40.0436C34.3882 39.2936 33.9582 38.3836 33.2482 37.8836C32.4182 37.2936 31.3482 36.8936 30.3382 36.7236C28.5282 36.4136 26.8382 36.8436 25.4182 38.1336C24.1082 39.3236 22.4682 39.0436 21.7982 37.5736C21.4582 36.8236 21.6682 35.6636 22.3182 35.0936C23.7882 33.7936 25.4482 32.7536 27.3982 32.4636C29.8182 32.1036 32.1882 32.4236 34.4282 33.5136C36.3082 34.4236 37.5282 35.9436 38.5282 37.7036C38.7182 38.0336 38.7882 38.4236 38.8482 38.6136H38.8582Z" fill="#412A32"/>
<path d="M48.6782 15.2538C48.4082 15.1838 48.0782 15.1838 47.8582 15.0438C46.3582 14.0438 44.7882 13.3738 42.9482 13.1538C40.1882 12.8138 37.9382 13.7938 35.7782 15.2738C35.2182 15.2038 34.7382 14.9938 34.5982 14.3838C34.4182 13.6438 34.9382 13.2438 35.4382 12.9138C37.8282 11.3538 40.4682 10.7238 43.2982 10.9938C45.3982 11.1938 47.3082 11.9738 49.0282 13.1838C49.9382 13.8238 49.7682 14.6538 48.6782 15.2538Z" fill="#402A32"/>
<path d="M16.8181 33.6136C16.6181 33.4136 16.4281 33.2136 16.2281 33.0236C16.6481 33.0036 16.8381 33.2036 16.8181 33.6136Z" fill="#FFAF2E"/>
<path d="M14.4681 32.4236C14.3181 32.4236 14.1781 32.4236 14.0281 32.4236C14.1781 32.0636 14.3181 32.0636 14.4681 32.4236Z" fill="#FFAF2E"/>
<path d="M28.1182 50.3436C27.7682 50.1936 27.7582 50.0536 28.1182 49.9036C28.1182 50.0536 28.1182 50.1936 28.1182 50.3436Z" fill="#FF832D"/>
<path d="M27.2481 21.1137C27.1581 21.0137 27.0681 20.9137 26.9781 20.8237C27.0681 20.9237 27.1581 21.0237 27.2481 21.1137Z" fill="#FFB131"/>
<path d="M26.4881 52.8436C26.3981 52.8336 26.3181 52.8236 26.2281 52.8036C26.2281 52.7836 26.2281 52.7536 26.2281 52.7336C26.3081 52.7236 26.3981 52.7036 26.4781 52.6936C26.4781 52.7436 26.4781 52.7936 26.4781 52.8436H26.4881Z" fill="#FF832D"/>
<path d="M40.9582 24.9336C38.4282 24.7936 36.6682 22.9936 36.6882 20.5436C36.7082 18.0336 38.6082 16.3536 40.7882 16.2936C43.1082 16.2336 45.5582 18.2336 45.4182 20.2136C45.2382 22.8436 43.9282 24.7236 40.9582 24.9336Z" fill="#402A32"/>
<path d="M17.2481 24.9336C15.0581 24.9136 12.9881 23.0336 13.0081 20.5736C13.0381 18.4236 14.6681 16.2836 17.0781 16.3036C19.7981 16.3236 21.5081 17.7736 21.5781 20.5936C21.6381 22.9336 19.8881 24.8736 17.2381 24.9336H17.2481Z" fill="#402A32"/>
</svg>
