<svg width="61" height="61" viewBox="0 0 61 61" fill="none" xmlns="http://www.w3.org/2000/svg">
<path d="M1.32261 39.2731C1.07261 38.3931 0.752607 37.5231 0.602607 36.6331C0.452607 35.7531 0.502607 34.8531 0.422607 33.9631C0.382607 33.5731 0.192607 33.1931 0.152607 32.7931C0.052607 32.0131 0.432607 31.2331 0.042607 30.4131C-0.117393 30.0731 0.222607 29.5231 0.252607 29.0531C0.282607 28.6531 0.112607 28.2431 0.162607 27.8531C0.362607 26.0731 0.552607 24.2831 0.842607 22.5231C0.992607 21.6331 1.35261 20.7731 1.62261 19.9031C1.62261 19.8031 1.62261 19.7031 1.62261 19.6131C1.85261 18.9131 2.07261 18.2031 2.30261 17.5031C3.10261 15.1031 4.36261 12.9431 5.86261 10.9231C7.23261 9.06309 8.78261 7.37309 10.6226 5.95309C10.6626 5.92309 10.6926 5.89309 10.7326 5.85309C16.6126 1.38309 23.4326 -0.0769084 30.6126 0.00309159C37.7826 0.0830916 44.5626 1.64309 50.2526 6.39309C50.3226 6.48309 50.3826 6.57309 50.4526 6.67309C50.4526 6.74309 50.4426 6.88309 50.4526 6.88309C51.7126 7.19309 52.2726 8.32309 53.0726 9.15309C54.7326 10.8831 55.9426 12.9131 57.0326 15.0431C58.5226 17.9731 59.4626 21.0931 59.8826 24.2931C60.2626 27.2231 60.3626 30.2231 60.1926 33.1731C59.9526 37.0931 59.0426 40.9231 57.3826 44.5131C56.1826 47.1031 54.6626 49.5031 52.6326 51.5331C51.7526 52.4131 50.8326 53.2631 49.9226 54.1231C49.8426 54.2531 49.7526 54.3931 49.6726 54.5231C48.8426 54.9931 48.0226 55.4831 47.1926 55.9331C46.0326 56.5631 44.8626 57.1631 43.7026 57.7931C43.5626 57.8731 43.4526 57.9931 43.3226 58.0931C43.2826 58.1331 43.2526 58.1731 43.2126 58.2131C42.5826 58.3431 41.9626 58.4731 41.3326 58.5931C40.5926 58.7331 39.8426 58.8631 39.1026 59.0031C38.9526 59.0931 38.8126 59.1831 38.6626 59.2831C37.3826 59.5231 36.1126 59.8831 34.8226 59.9831C32.8126 60.1431 30.7926 60.2531 28.7826 60.1331C27.3526 60.0531 25.9126 60.2831 24.4926 59.8831C23.4526 59.5831 22.3526 59.5031 21.2926 59.2631C20.7026 59.1331 20.1426 58.8731 19.5726 58.6731C19.4726 58.6331 19.3726 58.6031 19.2726 58.5631C17.3926 58.2131 15.7026 57.3731 14.0626 56.4531C11.5926 55.0631 9.34261 53.3531 7.48261 51.2031C6.72261 50.3231 6.14261 49.2931 5.44261 48.3631C5.10261 47.9131 4.63261 47.5431 4.59261 46.9131C4.59261 46.8731 4.39261 46.8531 4.29261 46.8131H4.27261C3.47261 45.0431 2.65261 43.2731 1.87261 41.4831C1.76261 41.2331 1.82261 40.9131 1.80261 40.6231C1.83261 40.5831 1.87261 40.5531 1.90261 40.5131C1.87261 40.4931 1.83261 40.4731 1.80261 40.4531C1.70261 40.1631 1.61261 39.8731 1.51261 39.5831C1.46261 39.4831 1.41261 39.3831 1.36261 39.2831L1.32261 39.2731ZM25.7226 22.0931C25.7626 21.9931 25.7926 21.8931 25.8326 21.7931C25.9626 21.2531 26.2626 20.6931 25.6026 20.2631C25.5526 20.2331 25.5726 20.0731 25.5526 19.9831C25.0026 17.7631 23.3226 16.5031 21.5326 15.3631C21.2626 15.1931 20.8326 15.2331 20.4726 15.2131C19.3826 15.1431 18.2826 14.9731 17.2026 15.0631C15.3726 15.2231 13.8826 16.1131 12.5926 17.4431C11.6626 18.3931 11.4026 19.6231 10.9326 20.7631C10.7426 21.2031 10.8426 21.9231 11.1026 22.3531C11.5626 23.1231 12.1226 23.9931 13.3026 23.4231C13.6726 23.2431 14.0526 23.0831 14.4226 22.9131V22.9331C14.7626 22.3131 15.1226 21.7031 15.4426 21.0731C15.8426 20.2931 16.2626 19.5331 17.2526 19.4531C17.7926 19.4131 18.3326 19.4231 18.8726 19.4531C20.4026 19.5431 21.2426 20.2531 21.6026 21.7231C21.9326 23.0631 22.7826 23.5431 24.1426 23.4431C25.1026 23.3731 25.4426 22.8231 25.7326 22.0831L25.7226 22.0931ZM49.3426 20.1831C49.2426 20.0331 49.1326 19.8831 49.0326 19.7431C48.7826 18.9931 48.5326 18.2431 48.2626 17.5031C48.2226 17.4031 48.0626 17.3431 47.9526 17.2631C47.6726 17.0631 47.3526 16.8931 47.1326 16.6431C46.4726 15.9231 45.7626 15.4531 44.7226 15.2931C43.6826 15.1331 42.6826 14.8331 41.6226 15.0331C41.5226 15.0531 41.4026 14.9131 41.2926 14.9131C41.0326 14.9131 40.7726 14.9131 40.5226 14.9831C40.2726 15.0431 40.0426 15.1931 39.7926 15.2631C37.7226 15.9231 35.9526 16.9631 35.1526 19.1231C34.8726 19.8731 34.6726 20.6631 34.5426 21.4531C34.4926 21.7331 34.7826 22.0731 34.9226 22.3831C34.8826 22.4031 34.8526 22.4131 34.8126 22.4331L34.9226 22.5331C35.3226 22.8731 35.6826 23.3731 36.1426 23.5231C36.7626 23.7131 37.5226 23.6331 37.9526 23.0831C38.4126 22.5031 38.8026 21.8131 39.0126 21.1131C39.2126 20.4531 40.0126 19.4731 40.7126 19.4531C41.3226 19.4431 41.9426 19.4331 42.5626 19.4531C44.0526 19.5231 45.2426 20.5731 45.5026 22.0331C45.6526 22.8631 46.2226 23.4431 46.9926 23.5631C48.0226 23.7131 48.6526 23.4031 49.0826 22.5331C49.1626 22.4331 49.2526 22.3331 49.3326 22.2331C49.3326 21.5531 49.3326 20.8631 49.3326 20.1831H49.3426ZM52.8626 27.9731C52.7626 27.8731 52.6626 27.7831 52.5626 27.6831C51.9126 27.2431 51.3026 26.7131 50.6026 26.3631C49.3226 25.7231 47.9026 25.6631 46.5126 25.7931C44.7126 25.9631 43.0926 26.5731 41.8126 27.9331C40.5626 29.2631 40.8126 31.4631 42.2026 32.6031C44.2826 34.3231 46.6426 34.4931 49.1226 34.2031C50.4426 34.0531 51.6026 33.4931 52.6026 32.6031C54.0126 31.3431 54.1426 29.0531 52.8726 27.9731H52.8626ZM17.5226 39.8631C17.6526 39.9531 17.7726 40.0431 17.9026 40.1231C18.8226 40.6931 19.7126 41.3031 20.6626 41.8231C21.2226 42.1331 21.8526 42.3131 22.4526 42.5431L22.7326 42.7031C23.2826 42.9331 23.8026 43.2731 24.3726 43.3631C26.0326 43.6231 27.6426 44.2031 29.3626 44.1431C30.9126 44.0831 32.4626 44.1131 33.9826 43.8231C35.0326 43.6231 36.0726 43.3831 37.0926 42.9931C39.9426 41.9031 42.5326 40.4331 44.5226 38.0931C44.9226 37.6231 45.1726 36.8631 45.1626 36.2331C45.1626 35.4431 44.5926 34.8631 43.8026 34.5731C42.9726 34.2831 42.2026 34.3831 41.6026 35.0231C40.4126 36.3031 39.0126 37.2831 37.5026 38.1431C36.0026 38.9931 34.3426 39.2331 32.7126 39.5431C31.5826 39.7531 30.3926 39.6931 29.2226 39.7131C26.6726 39.7631 24.3626 38.9131 22.1426 37.7631C22.0926 37.7331 22.0326 37.7031 21.9826 37.6731C21.9326 37.6731 21.8926 37.6631 21.8526 37.6331C21.7526 37.5931 21.6626 37.5531 21.5626 37.5131C21.3126 37.3031 21.0626 37.0931 20.8126 36.8831C20.7626 36.8531 20.7126 36.8131 20.6526 36.7831C19.9326 36.2631 19.2126 35.7631 18.8826 34.8731C18.8326 34.7431 18.6126 34.6431 18.4426 34.6031C18.2026 34.5331 17.9426 34.4731 17.7126 34.5131C17.0926 34.6131 16.3926 34.6031 15.9026 34.9231C14.9626 35.5331 14.9226 36.0631 15.3826 37.3631C15.4526 37.5231 15.5226 37.6731 15.5926 37.8331C16.2326 38.5131 16.8626 39.1931 17.5026 39.8631H17.5226ZM12.8426 34.3031C15.4126 34.3031 17.1426 33.6731 18.4826 32.3131C19.8426 30.9231 19.6826 28.7731 18.1926 27.5131C17.0026 26.5131 15.6126 25.9431 14.1226 25.8231C12.6926 25.7131 11.1926 25.5331 9.84261 26.3231C9.17261 26.7131 8.44261 27.0331 7.83261 27.5031C6.17261 28.7831 6.10261 31.0731 7.66261 32.4831C9.17261 33.8531 10.9826 34.4031 12.8426 34.3031Z" fill="#FFB02E"/>
<path d="M21.8726 37.623C21.8726 37.623 21.9526 37.653 22.0026 37.663C22.0526 37.693 22.1126 37.723 22.1626 37.753C24.3826 38.913 26.6926 39.753 29.2426 39.703C30.4026 39.683 31.5926 39.743 32.7326 39.533C34.3626 39.223 36.0226 38.983 37.5226 38.133C39.0326 37.273 40.4326 36.293 41.6226 35.013C42.2126 34.373 42.9926 34.263 43.8226 34.563C44.6126 34.843 45.1826 35.433 45.1826 36.223C45.1826 36.853 44.9426 37.613 44.5426 38.083C42.5526 40.423 39.9626 41.893 37.1126 42.983C36.0926 43.373 35.0526 43.613 34.0026 43.813C32.4826 44.103 30.9226 44.073 29.3826 44.133C27.6626 44.193 26.0526 43.613 24.3926 43.353C23.8226 43.263 23.2926 42.923 22.7526 42.693C22.6626 42.643 22.5726 42.593 22.4726 42.533C21.8726 42.293 21.2426 42.123 20.6826 41.813C19.7426 41.293 18.8426 40.683 17.9226 40.113C17.7926 40.023 17.6726 39.933 17.5426 39.853C16.9026 39.173 16.2726 38.493 15.6326 37.823C15.5626 37.663 15.4926 37.513 15.4226 37.353C14.9626 36.053 15.0026 35.523 15.9426 34.913C16.4326 34.593 17.1426 34.603 17.7526 34.503C17.9826 34.463 18.2526 34.533 18.4826 34.593C18.6426 34.643 18.8726 34.733 18.9226 34.863C19.2526 35.753 19.9726 36.263 20.6926 36.773C20.7426 36.803 20.7926 36.843 20.8526 36.873C21.1026 37.083 21.3526 37.293 21.6026 37.503C21.7026 37.543 21.7926 37.583 21.8926 37.623H21.8726Z" fill="#402A32"/>
<path d="M12.8526 34.2932C10.9926 34.4032 9.1826 33.8432 7.6726 32.4732C6.1226 31.0632 6.1926 28.7832 7.8426 27.4932C8.4526 27.0232 9.1826 26.7032 9.8526 26.3132C11.2026 25.5232 12.7026 25.7032 14.1326 25.8132C15.6226 25.9332 17.0126 26.5032 18.2026 27.5032C19.6926 28.7532 19.8526 30.9132 18.4926 32.3032C17.1526 33.6632 15.4226 34.2932 12.8526 34.2932Z" fill="#FF6723"/>
<path d="M52.8726 27.9631C54.1526 29.0431 54.0126 31.3331 52.6026 32.5931C51.6026 33.4831 50.4426 34.0431 49.1226 34.1931C46.6426 34.4731 44.2826 34.3031 42.2026 32.5931C40.8126 31.4431 40.5626 29.2431 41.8126 27.9231C43.0926 26.5631 44.7126 25.9531 46.5126 25.7831C47.9126 25.6531 49.3226 25.7131 50.6026 26.3531C51.3026 26.7031 51.9126 27.2231 52.5626 27.6731C52.6626 27.7731 52.7626 27.8631 52.8626 27.9631H52.8726Z" fill="#FF6723"/>
<path d="M34.9226 22.3831C34.7826 22.0731 34.5026 21.7331 34.5426 21.4531C34.6726 20.6631 34.8726 19.8731 35.1526 19.1231C35.9626 16.9631 37.7226 15.9231 39.7926 15.2631C40.0426 15.1831 40.2726 15.0431 40.5226 14.9831C40.7726 14.9231 41.0326 14.9131 41.2926 14.9131C41.4026 14.9131 41.5226 15.0531 41.6226 15.0331C42.6826 14.8331 43.6926 15.1331 44.7226 15.2931C45.7626 15.4531 46.4726 15.9231 47.1326 16.6431C47.3626 16.8931 47.6826 17.0631 47.9526 17.2631C48.0626 17.3431 48.2226 17.3931 48.2626 17.5031C48.5326 18.2431 48.7826 18.9931 49.0326 19.7431C49.1326 19.8931 49.2426 20.0431 49.3426 20.1831C49.3426 20.8631 49.3426 21.5531 49.3426 22.2331C49.2626 22.3331 49.1726 22.4331 49.0926 22.5331C48.6626 23.4031 48.0326 23.7131 47.0026 23.5631C46.2326 23.4531 45.6626 22.8631 45.5126 22.0331C45.2426 20.5631 44.0626 19.5131 42.5726 19.4531C41.9626 19.4231 41.3426 19.4331 40.7226 19.4531C40.0326 19.4731 39.2226 20.4531 39.0226 21.1131C38.8126 21.8131 38.4226 22.5031 37.9626 23.0831C37.5326 23.6331 36.7626 23.7231 36.1526 23.5231C35.6826 23.3731 35.3326 22.8731 34.9326 22.5331C34.9326 22.4831 34.9326 22.4331 34.9326 22.3831H34.9226Z" fill="#412B32"/>
<path d="M14.4026 22.903C14.0326 23.073 13.6526 23.233 13.2826 23.413C12.1026 23.983 11.5426 23.113 11.0826 22.343C10.8326 21.913 10.7326 21.193 10.9126 20.753C11.3926 19.623 11.6526 18.393 12.5726 17.433C13.8626 16.103 15.3526 15.213 17.1826 15.053C18.2626 14.963 19.3626 15.133 20.4526 15.203C20.8126 15.223 21.2426 15.183 21.5126 15.353C23.3026 16.493 24.9826 17.753 25.5326 19.973C25.5526 20.063 25.5326 20.213 25.5826 20.253C26.2426 20.683 25.9526 21.243 25.8126 21.783C25.7726 21.883 25.7426 21.983 25.7026 22.083C25.4126 22.813 25.0626 23.373 24.1126 23.443C22.7526 23.543 21.8926 23.053 21.5726 21.723C21.2126 20.243 20.3626 19.533 18.8426 19.453C18.3026 19.423 17.7526 19.403 17.2226 19.453C16.2326 19.533 15.8126 20.293 15.4126 21.073C15.0926 21.703 14.7326 22.313 14.3926 22.933C14.3826 22.933 14.3626 22.933 14.3526 22.933C14.3626 22.933 14.3826 22.933 14.3926 22.923L14.4026 22.903Z" fill="#412B32"/>
</svg>
