<svg width="65" height="66" viewBox="0 0 65 66" fill="none" xmlns="http://www.w3.org/2000/svg">
<path d="M2.79 43.6199C2.4 42.1999 1.84 40.7999 1.65 39.3599C1.32 36.9299 1.08 34.4599 1.06 32.0099C1.04 29.4399 1.37 26.8899 1.97 24.3699C2.77 20.9899 3.98 17.7899 5.88 14.8799C7.29 12.7199 8.94 10.7799 10.93 9.09995C13.44 6.98995 16.24 5.39995 19.34 4.40995C21.19 3.81995 23.13 3.50995 25.03 3.09995C27.66 2.52995 30.34 2.66995 33.01 2.64995C33.17 2.64995 33.35 2.61995 33.5 2.55995C33.9 2.39995 34.2 2.38995 34.63 2.63995C35.07 2.89995 35.68 2.87995 36.23 2.92995C36.72 2.97995 37.21 2.94995 37.7 2.94995C37.77 2.94995 37.85 2.92995 37.92 2.94995C39.68 3.43995 41.49 3.79995 43.18 4.45995C45.04 5.17995 46.8 6.16995 48.6 7.04995C48.66 7.08995 48.71 7.11995 48.77 7.15995C49.95 8.05995 51.14 8.94995 52.32 9.84995L52.44 10.0099C53.95 11.8799 55.59 13.6499 56.92 15.6399C58.3 17.6999 59.31 19.9799 59.8 22.4599C59.96 23.2599 60.26 24.0399 60.44 24.8399C60.65 25.7999 60.83 26.7599 60.95 27.7299C61.06 28.5699 61.08 29.4199 61.13 30.2699C61.17 30.3199 61.21 30.3799 61.25 30.4299C61.25 31.7799 61.34 33.1299 61.24 34.4699C61.03 37.3299 60.8 40.1999 59.83 42.9399C59.26 44.5499 58.62 46.1399 58.02 47.7399C57.98 47.7899 57.94 47.8499 57.91 47.8999C56.96 49.4399 56.12 51.0599 55.03 52.4899C53.39 54.6499 51.42 56.5099 49.07 57.9299C49.02 57.9599 48.97 57.9999 48.91 58.0299C47.98 58.5699 47.09 59.1799 46.12 59.6299C44.68 60.3099 43.22 60.9899 41.71 61.4599C40.22 61.9199 38.65 62.1899 37.1 62.4199C33.92 62.8899 30.7 62.9199 27.52 62.6799C25.18 62.4999 22.85 61.9699 20.57 61.3699C17.85 60.6499 15.34 59.3999 13.05 57.7299C13.01 57.6999 12.97 57.6599 12.94 57.6299C11.18 56.6799 9.71 55.3699 8.48 53.7999C7.43 52.4599 6.38 51.1199 5.45 49.6899C4.27 47.8699 3.37 45.8899 2.8 43.7899C2.83 43.7499 2.87 43.7199 2.9 43.6799C2.87 43.6599 2.83 43.6399 2.8 43.6199H2.79ZM28.55 24.0499C28.49 23.6199 28.42 23.1899 28.37 22.7599C28 19.8899 26.53 17.7199 24.09 16.2499C23 15.5999 21.75 15.2199 20.57 14.7199C20.5 14.6899 20.39 14.7399 20.29 14.7499C19.77 14.8299 19.25 14.8799 18.73 14.9899C17.58 15.2399 16.31 15.2799 15.32 15.8199C12.48 17.3699 10.63 19.7099 10.26 23.0599C10.07 24.8399 10.17 26.5599 11.15 28.0799C11.81 29.1099 12.58 30.0999 13.44 30.9599C14.55 32.0699 15.95 32.7899 17.51 33.0199C18.99 33.2399 20.44 33.3499 21.96 32.8299C25.97 31.4599 28.41 28.1799 28.54 24.0399L28.55 24.0499ZM43.05 33.2699C43.63 33.1799 44.46 33.1099 45.24 32.8999C48.31 32.0799 50.47 30.2199 51.6 27.2099C51.86 26.5199 52.15 25.8399 52.4 25.1499C52.45 25.0099 52.39 24.8299 52.36 24.6699C52.3 24.3699 52.21 24.0799 52.16 23.7799C52.05 23.0699 52.02 22.3299 51.84 21.6299C51.43 19.9899 50.57 18.5999 49.36 17.4099C47.35 15.4399 44.81 14.9799 42.17 14.8399C41.77 14.8199 41.34 15.0099 40.94 15.1399C40.3 15.3499 39.63 15.5099 39.04 15.8299C35.61 17.6999 33.78 20.5299 33.93 24.5199C33.95 24.9499 33.73 25.4299 33.87 25.7899C34.31 26.8999 34.76 28.0299 35.42 29.0199C37.16 31.6299 39.61 33.0999 43.05 33.2599V33.2699ZM31 43.4399C31 43.4399 31 43.4299 31 43.4199C33.64 43.4199 36.29 43.4199 38.93 43.4199C39.98 43.4199 41.04 43.4499 42.09 43.4099C43.16 43.3699 44.02 42.5699 44.08 41.6299C44.17 40.3099 43.65 39.5099 42.47 39.2399C42.05 39.1399 41.6 39.1099 41.17 39.1099C34.37 39.1099 27.56 39.1099 20.76 39.0899C20.04 39.0899 19.53 39.3499 18.93 39.7199C18.12 40.2199 18.43 40.8599 18.37 41.4799C18.37 41.5499 18.38 41.6299 18.37 41.6999C18.33 42.3799 19.38 43.4399 20.05 43.4399C23.7 43.4399 27.34 43.4399 30.99 43.4399H31Z" fill="#FFB02E"/>
<path d="M52.43 10.0001C52.39 9.95009 52.35 9.90009 52.31 9.84009C52.35 9.89009 52.39 9.94009 52.43 10.0001Z" fill="#050301"/>
<path d="M2.78998 43.6201C2.78998 43.6201 2.85998 43.6601 2.88998 43.6801C2.85998 43.7201 2.81998 43.7501 2.78998 43.7901C2.78998 43.7401 2.78998 43.6801 2.78998 43.6301V43.6201Z" fill="#020100"/>
<path d="M57.9 47.88C57.94 47.83 57.98 47.77 58.01 47.72C57.97 47.77 57.93 47.83 57.9 47.88Z" fill="#030200"/>
<path d="M12.93 57.6201C12.93 57.6201 13.01 57.6901 13.04 57.7201C13 57.6901 12.96 57.6501 12.93 57.6201Z" fill="#020100"/>
<path d="M48.9 58.0199C48.95 57.9899 49 57.9499 49.06 57.9199C49.01 57.9499 48.96 57.9899 48.9 58.0199Z" fill="#030200"/>
<path d="M28.54 24.0499C28.41 28.1799 25.97 31.4699 21.96 32.8399C20.43 33.3599 18.99 33.2499 17.51 33.0299C15.95 32.7999 14.55 32.0799 13.44 30.9699C12.58 30.1099 11.81 29.1199 11.15 28.0899C10.17 26.5699 10.06 24.8399 10.26 23.0699C10.63 19.7199 12.48 17.3799 15.32 15.8299C16.31 15.2899 17.58 15.2399 18.73 14.9999C19.24 14.8899 19.77 14.8399 20.29 14.7599C20.38 14.7499 20.49 14.6999 20.57 14.7299C21.75 15.2299 23 15.6099 24.09 16.2599C26.53 17.7299 28 19.9099 28.37 22.7699C28.43 23.1999 28.49 23.6299 28.55 24.0599L28.54 24.0499ZM20.37 19.8299C18.15 19.4999 15.93 21.9699 16.12 24.3299C16.28 26.3299 18.25 28.3899 20.27 28.3399C22.72 28.2699 24.48 26.5399 24.68 24.3899C24.93 21.7199 22.56 19.5199 20.37 19.8299Z" fill="#FFFFFE"/>
<path d="M43.04 33.2701C39.6 33.1001 37.15 31.6401 35.41 29.0301C34.75 28.0401 34.3 26.9101 33.86 25.8001C33.72 25.4401 33.93 24.9501 33.92 24.5301C33.77 20.5401 35.61 17.7101 39.03 15.8401C39.61 15.5201 40.29 15.3601 40.93 15.1501C41.33 15.0201 41.76 14.8301 42.16 14.8501C44.81 14.9901 47.35 15.4501 49.35 17.4201C50.56 18.6101 51.41 20.0001 51.83 21.6401C52.01 22.3401 52.03 23.0701 52.15 23.7901C52.2 24.0901 52.29 24.3801 52.35 24.6801C52.38 24.8401 52.44 25.0301 52.39 25.1601C52.14 25.8501 51.85 26.5301 51.59 27.2201C50.46 30.2301 48.3 32.0901 45.23 32.9101C44.44 33.1201 43.62 33.1801 43.04 33.2801V33.2701ZM41.75 28.3501C44.52 28.2101 46.21 26.5601 46.23 23.9901C46.25 21.6501 44.46 19.9801 42.32 19.8001C39.17 19.5401 37.61 22.0301 37.63 24.0101C37.66 26.4201 39.37 28.1401 41.75 28.3501Z" fill="#FFFFFE"/>
<path d="M30.99 43.4401C27.34 43.4401 23.7 43.4401 20.05 43.4401C19.38 43.4401 18.33 42.3801 18.37 41.7001C18.37 41.6301 18.36 41.5501 18.37 41.4801C18.43 40.8601 18.12 40.2201 18.93 39.7201C19.53 39.3401 20.04 39.0801 20.76 39.0901C27.56 39.1101 34.37 39.1001 41.17 39.1101C41.6 39.1101 42.05 39.1501 42.47 39.2401C43.64 39.5101 44.17 40.3101 44.08 41.6301C44.02 42.5701 43.16 43.3701 42.09 43.4101C41.04 43.4501 39.99 43.4201 38.93 43.4201C36.29 43.4201 33.64 43.4201 31 43.4201C31 43.4201 31 43.4301 31 43.4401H30.99Z" fill="#402A32"/>
<path d="M20.38 19.8301C22.57 19.5301 24.93 21.7301 24.69 24.3901C24.49 26.5401 22.73 28.2801 20.28 28.3401C18.26 28.3901 16.29 26.3301 16.13 24.3301C15.94 21.9701 18.17 19.5001 20.38 19.8301Z" fill="#402A32"/>
<path d="M41.75 28.35C39.37 28.14 37.66 26.42 37.63 24.01C37.61 22.04 39.18 19.54 42.32 19.8C44.46 19.98 46.25 21.65 46.23 23.99C46.21 26.55 44.52 28.2 41.75 28.35Z" fill="#402B33"/>
<path d="M10.69 10.6799C12.31 9.37992 14.02 8.20992 15.89 7.29992C18.01 6.27992 20.21 5.42992 22.56 5.05992C23.22 4.95992 23.92 4.97992 24.56 4.81992C27.01 4.19992 29.51 4.22992 32 4.29992C33.07 4.32992 34.15 4.48992 35.21 4.62992C36.4 4.78992 37.61 4.86992 38.75 5.18992C40.46 5.65992 42.17 6.19992 43.8 6.89992C46.05 7.85992 48.16 9.11992 49.98 10.7699C51.93 12.5499 53.67 14.5199 55.02 16.8199C56.61 19.5199 57.66 22.4199 58.36 25.4499C58.5 26.0399 58.47 26.6699 58.69 27.2499C58.74 27.3799 58.65 27.5599 58.63 27.6899C58.72 28.0399 58.89 28.3899 58.91 28.7599C59.01 30.7299 59.16 32.6899 59.12 34.6599C59.09 36.2099 58.84 37.7699 58.61 39.3099C58.22 41.8899 57.5 44.3799 56.4 46.7499C55.27 49.1899 53.86 51.4699 52 53.4499C51.98 53.4799 51.95 53.4999 51.93 53.5299C51.41 54.0399 50.9 54.5499 50.38 55.0699L50.29 55.1599C48.37 56.8499 46.26 58.2499 43.9 59.2799L43.67 59.5799C43.15 59.7299 42.62 59.8699 42.1 60.0299C41.09 60.3499 40.1 60.7599 39.07 60.9799C37.52 61.3099 35.96 61.5899 34.39 61.7399C32.7 61.8999 31 61.9199 29.31 61.9299C28.16 61.9299 27 61.8399 25.85 61.7499C25.43 61.7199 25.03 61.5199 24.61 61.4499C24.12 61.3699 23.61 61.4099 23.12 61.3199C20.94 60.8999 18.85 60.2299 16.82 59.3299C14.45 58.2799 12.32 56.8799 10.38 55.1999C9.40002 54.3499 8.56002 53.3399 7.73002 52.3399C5.67002 49.8799 4.21002 47.0699 3.19002 44.0399C2.53002 42.0899 2.09002 40.0899 1.81002 38.0499C1.57002 36.3099 1.48002 34.5699 1.52002 32.8299C1.55002 31.4099 1.54002 29.9699 1.74002 28.5599C2.17002 25.5499 2.87002 22.5999 4.14002 19.7999C5.18002 17.5199 6.45002 15.3999 8.07002 13.4899C8.17002 13.3699 8.25002 13.2299 8.34002 13.0999C8.44002 12.9899 8.54002 12.8899 8.64002 12.7799C9.22002 12.1999 9.81002 11.6199 10.39 11.0399C10.49 10.9299 10.59 10.8199 10.69 10.7099V10.6799ZM50.05 22.8999C50.03 22.7999 49.96 22.6599 50 22.6099C50.46 21.9999 50.3 21.2599 50.36 20.5999C50.46 19.6299 50.4 18.6499 49.99 17.7099C49.69 17.0199 49.63 16.2199 49.32 15.5399C47.94 12.5399 44.7 10.0399 40.67 10.5599C38.85 10.7999 37.33 11.5399 36.06 12.7899C33.69 15.1099 32.66 17.9499 32.97 21.2799C33.15 23.2499 33.87 24.9699 35.02 26.5499C35.62 27.3699 35.63 27.3599 36.6 26.9599C36.63 26.9499 36.67 26.9399 36.7 26.9299C38.17 26.6399 39.65 26.3499 41.12 26.0599C42.55 25.7699 43.96 26.0299 45.36 26.2699C46.09 26.3899 46.8 26.6699 47.52 26.8499C47.7 26.8899 47.98 26.8999 48.08 26.7899C49.06 25.7599 49.69 24.5399 49.98 23.1399C50.01 23.0699 50.03 22.9899 50.06 22.9199L50.05 22.8999ZM24.86 27.2599L24.99 27.3799C25.02 27.3299 25.05 27.2699 25.08 27.2199C26.32 25.8499 27.2 24.3099 27.52 22.4699C27.75 21.1499 27.86 19.8299 27.58 18.4999C27.46 17.9299 27.32 17.3599 27.21 16.7899C27.17 16.5799 27.23 16.3399 27.14 16.1599C27 15.8599 26.75 15.6199 26.59 15.3299C25.97 14.1499 25.13 13.1499 24.11 12.2999C22.89 11.2899 21.52 10.6399 19.91 10.5799C19.07 10.5499 18.22 10.4799 17.41 10.6199C16.63 10.7599 15.83 10.9099 15.12 11.4399C14.1 12.1899 13.12 12.9299 12.33 13.9399C11.15 15.4599 10.49 17.1899 10.29 19.0499C10.07 21.0599 10.32 23.0499 11.33 24.8599C11.68 25.4799 12.07 26.0799 12.45 26.6799C12.62 26.9499 12.86 26.9999 13.15 26.8799C15.22 26.0099 17.36 25.7299 19.58 26.0499C19.82 26.0799 20.04 26.1899 20.28 26.2299C21 26.3499 21.74 26.4199 22.45 26.5899C23.26 26.7799 24.05 27.0399 24.86 27.2699V27.2599ZM48.66 33.3999C48.78 32.6499 48.89 31.9099 49.02 31.1199C48.31 31.1199 47.58 31.1199 46.85 31.1199C46.66 31.0799 46.48 31.0099 46.29 31.0099C35.65 31.0099 25.01 31.0099 14.37 31.0099C14.18 31.0099 14 31.0799 13.81 31.1199H11.85C11.91 31.9399 11.88 32.6799 12.02 33.3899C12.25 34.5899 12.57 35.7799 12.86 36.9699C12.89 36.9999 12.92 37.0299 12.94 37.0599C12.95 37.2299 12.92 37.4199 12.98 37.5699C13.69 39.3999 14.46 41.1999 15.64 42.7999C16.71 44.2499 17.88 45.6099 19.44 46.5399C20.42 47.1199 21.46 47.5999 22.47 48.1299C22.61 48.1999 22.75 48.2699 22.89 48.3399C23.5 48.5499 24.11 48.7899 24.74 48.9599C25.1 49.0599 25.54 48.9299 25.85 49.0899C26.29 49.2999 26.67 49.4199 27.12 49.2099C27.19 49.2799 27.26 49.3399 27.34 49.4099C27.72 49.4799 28.1 49.5999 28.48 49.6099C29.63 49.6399 30.77 49.6099 31.92 49.6299C32.13 49.6299 32.35 49.7399 32.54 49.7099C33.16 49.5999 33.77 49.4099 34.39 49.2999C37.89 48.6999 40.97 47.2699 43.45 44.6899C44.19 43.9199 44.77 43.0099 45.42 42.1599C45.45 42.0899 45.48 42.0199 45.51 41.9399C45.51 41.8999 45.53 41.8699 45.53 41.8299C45.56 41.7999 45.58 41.7799 45.61 41.7499C45.73 41.5999 45.85 41.4399 45.96 41.2899C46.02 41.1799 46.09 41.0799 46.15 40.9699C47.12 39.3099 47.77 37.5299 48.2 35.6699C48.23 35.6099 48.27 35.5599 48.3 35.4999C48.34 35.2299 48.38 34.9699 48.41 34.6999C48.41 34.6599 48.41 34.6299 48.41 34.5899C48.48 34.2299 48.55 33.8699 48.62 33.5099C48.62 33.4699 48.62 33.4299 48.62 33.3999H48.66Z" fill="#FFB02E"/>
<path d="M51.93 53.5099L52 53.4299C52 53.4299 51.95 53.4799 51.93 53.5099Z" fill="#040301"/>
<path d="M12.86 36.9701C12.57 35.7801 12.25 34.5901 12.02 33.3901C11.89 32.6801 11.91 31.9401 11.85 31.1201H13.84C13.84 31.4001 13.81 31.6701 13.84 31.9401C13.92 32.9001 14.32 33.6801 15.28 34.0101C15.69 34.1501 16.16 34.1301 16.6 34.1301C25.83 34.1301 35.05 34.1301 44.28 34.1301C44.53 34.1301 44.79 34.1301 45.04 34.1101C45.89 34.0201 46.54 33.4701 46.72 32.6201C46.82 32.1401 46.79 31.6301 46.82 31.1301H46.85H49.02C48.9 31.9201 48.78 32.6601 48.66 33.4101C48.66 33.4501 48.66 33.4901 48.66 33.5201C48.59 33.8801 48.52 34.2401 48.45 34.6001C48.45 34.6401 48.45 34.6701 48.45 34.7101C48.41 34.9801 48.37 35.2401 48.34 35.5101C48.31 35.5701 48.27 35.6201 48.24 35.6801C47.81 37.5501 47.16 39.3301 46.19 40.9801C46.13 41.0901 46.06 41.1901 46 41.3001C45.88 41.4501 45.76 41.6101 45.65 41.7601C45.62 41.7901 45.6 41.8101 45.57 41.8401C45.57 41.8801 45.55 41.9101 45.55 41.9501C45.52 42.0201 45.49 42.0901 45.46 42.1701C44.81 43.0201 44.23 43.9301 43.49 44.7001C41.01 47.2801 37.93 48.7001 34.43 49.3101C33.81 49.4201 33.2 49.6001 32.58 49.7201C32.38 49.7601 32.16 49.6401 31.96 49.6401C30.81 49.6301 29.67 49.6401 28.52 49.6201C28.14 49.6201 27.76 49.4901 27.38 49.4201C27.31 49.3501 27.24 49.2901 27.16 49.2201C26.71 49.4301 26.33 49.3101 25.89 49.1001C25.57 48.9501 25.14 49.0701 24.78 48.9701C24.15 48.8001 23.55 48.5601 22.93 48.3501C22.79 48.2801 22.65 48.2101 22.51 48.1401C21.5 47.6201 20.45 47.1401 19.48 46.5501C17.92 45.6201 16.75 44.2601 15.68 42.8101C14.5 41.2201 13.72 39.4201 13.02 37.5801C12.96 37.4301 12.99 37.2401 12.98 37.0701C12.95 37.0401 12.92 37.0101 12.9 36.9801L12.86 36.9701Z" fill="#BB1D80"/>
<path d="M24.86 27.2601C24.06 27.0301 23.27 26.7601 22.45 26.5801C21.74 26.4201 21 26.3501 20.28 26.2201C20.04 26.1801 19.82 26.0801 19.58 26.0401C17.36 25.7201 15.22 26.0001 13.15 26.8701C12.86 26.9901 12.62 26.9401 12.45 26.6701C12.07 26.0701 11.67 25.4701 11.33 24.8501C10.32 23.0401 10.07 21.0501 10.29 19.0401C10.49 17.1801 11.15 15.4501 12.33 13.9301C13.12 12.9201 14.1 12.1801 15.12 11.4301C15.83 10.9001 16.62 10.7501 17.41 10.6101C18.22 10.4701 19.08 10.5401 19.91 10.5701C21.52 10.6201 22.89 11.2801 24.11 12.2901C25.13 13.1401 25.97 14.1401 26.59 15.3201C26.74 15.6101 26.99 15.8501 27.14 16.1501C27.23 16.3301 27.17 16.5801 27.21 16.7801C27.32 17.3501 27.46 17.9201 27.58 18.4901C27.86 19.8201 27.75 21.1401 27.52 22.4601C27.2 24.3001 26.32 25.8501 25.08 27.2101C25.01 27.2201 24.94 27.2401 24.87 27.2501L24.86 27.2601ZM24.11 20.0301C24.16 19.1401 23.84 18.1301 23.14 17.2101C22.02 15.7301 20.54 15.3501 18.95 15.7801C16.86 16.3501 15.85 18.5001 15.9 20.3901C15.94 21.8601 16.58 23.1001 17.73 24.0701C18.76 24.9301 20.62 25.1401 21.75 24.4501C23.31 23.5001 24.14 22.1301 24.11 20.0301Z" fill="#FFFFFE"/>
<path d="M49.97 23.12C49.69 24.52 49.06 25.74 48.07 26.77C47.97 26.87 47.69 26.87 47.51 26.83C46.79 26.65 46.08 26.37 45.35 26.25C43.95 26.01 42.54 25.75 41.11 26.04C39.64 26.34 38.16 26.62 36.69 26.91C36.66 26.91 36.62 26.92 36.59 26.94C35.62 27.34 35.6 27.35 35.01 26.53C33.87 24.96 33.14 23.23 32.96 21.26C32.66 17.93 33.68 15.1 36.05 12.77C37.32 11.53 38.84 10.78 40.66 10.54C44.69 10.02 47.93 12.52 49.31 15.52C49.62 16.2 49.68 17 49.98 17.69C50.39 18.63 50.44 19.61 50.35 20.58C50.28 21.25 50.45 21.98 49.99 22.59C49.95 22.64 50.02 22.78 50.04 22.88C50.01 22.95 49.99 23.03 49.96 23.1L49.97 23.12ZM40.61 15.66C39.36 15.54 38.43 16.15 37.65 17.07C36.56 18.36 36.27 19.86 36.67 21.45C37.04 22.9 37.87 24.07 39.33 24.62C41.51 25.45 43.74 24.06 44.43 21.99C44.7 21.19 44.74 20.37 44.69 19.5C44.57 17.61 42.61 15.39 40.61 15.66Z" fill="#FFFFFE"/>
<path d="M13.81 31.12C14 31.08 14.18 31.01 14.37 31.01C25.01 31.01 35.65 31.01 46.29 31.01C46.48 31.01 46.66 31.08 46.85 31.12H46.82C38.75 31.12 30.68 31.12 22.61 31.12C19.69 31.12 16.77 31.12 13.85 31.12H13.82H13.81Z" fill="#F2D0DA"/>
<path d="M27.13 49.2C27.2 49.27 27.27 49.33 27.35 49.4C27.28 49.33 27.21 49.27 27.13 49.2Z" fill="#FDAC30"/>
<path d="M24.86 27.26C24.93 27.25 25 27.23 25.07 27.22C25.04 27.27 25.01 27.33 24.98 27.38L24.85 27.26H24.86Z" fill="#FFB335"/>
<path d="M45.43 42.1499C45.46 42.0799 45.49 42.0099 45.52 41.9299C45.49 41.9999 45.46 42.0699 45.43 42.1499Z" fill="#FDAC30"/>
<path d="M48.22 35.66C48.25 35.6 48.29 35.55 48.32 35.49C48.29 35.54 48.25 35.6 48.22 35.66Z" fill="#FDAC30"/>
<path d="M45.54 41.83C45.54 41.83 45.59 41.78 45.62 41.75C45.59 41.78 45.57 41.8 45.54 41.83Z" fill="#FDAC30"/>
<path d="M12.86 36.97C12.86 36.97 12.92 37.03 12.94 37.06C12.91 37.03 12.88 37 12.86 36.97Z" fill="#FDAF2E"/>
<path d="M13.84 31.1299C16.76 31.1299 19.68 31.1199 22.6 31.1299C30.67 31.1299 38.74 31.1299 46.81 31.1299C46.78 31.6299 46.81 32.1299 46.71 32.6199C46.53 33.4699 45.88 34.0199 45.03 34.1099C44.78 34.1399 44.53 34.1299 44.27 34.1299C35.04 34.1299 25.82 34.1299 16.59 34.1299C16.15 34.1299 15.68 34.1499 15.27 34.0099C14.31 33.6899 13.92 32.8999 13.83 31.9399C13.81 31.6699 13.83 31.3999 13.83 31.1299H13.84Z" fill="white"/>
<path d="M24.12 20.0199C24.15 22.1199 23.32 23.4899 21.76 24.4399C20.63 25.1299 18.77 24.9199 17.74 24.0599C16.59 23.0899 15.95 21.8499 15.91 20.3799C15.86 18.4899 16.87 16.3399 18.96 15.7699C20.55 15.3399 22.04 15.7199 23.15 17.1999C23.85 18.1199 24.17 19.1299 24.12 20.0199Z" fill="#402A32"/>
<path d="M40.62 15.6599C42.62 15.3899 44.58 17.6099 44.7 19.4999C44.75 20.3699 44.71 21.1899 44.44 21.9899C43.75 24.0599 41.52 25.4499 39.34 24.6199C37.89 24.0699 37.05 22.8999 36.68 21.4499C36.28 19.8599 36.57 18.3499 37.66 17.0699C38.43 16.1499 39.37 15.5499 40.62 15.6599Z" fill="#402A32"/>
</svg>
