<svg width="66" height="66" viewBox="0 0 66 66" fill="none" xmlns="http://www.w3.org/2000/svg">
<path d="M11.06 10.2099C11.24 10.0399 11.42 9.86994 11.61 9.69994C11.62 9.71994 11.63 9.73994 11.64 9.75994C11.64 9.73994 11.65 9.71994 11.66 9.69994C12.03 9.35994 12.37 8.97994 12.77 8.68994C14.62 7.36994 16.57 6.22994 18.69 5.38994C20.49 4.67994 22.33 4.07994 24.25 3.81994C25.73 3.60994 27.22 3.40994 28.71 3.31994C30.32 3.21994 31.94 3.23994 33.55 3.21994C33.79 3.21994 34.02 3.27994 34.26 3.29994C34.34 3.29994 34.46 3.33994 34.51 3.29994C34.85 3.02994 35.14 3.03994 35.46 3.35994C35.52 3.41994 35.78 3.28994 35.93 3.32994C36.27 3.40994 36.61 3.49994 36.95 3.55994C38.42 3.84994 39.91 4.05994 41.35 4.42994C43.43 4.96994 45.43 5.74994 47.28 6.83994C48.55 7.57994 49.73 8.45994 50.95 9.27994C50.97 9.30994 51 9.33994 51.02 9.35994C51.85 10.1299 52.74 10.8499 53.49 11.6899C54.47 12.7899 55.35 13.9999 56.26 15.1599C56.33 15.2799 56.4 15.3899 56.47 15.5099C57.02 16.5299 57.56 17.5499 58.11 18.5799C58.13 18.6099 58.16 18.6299 58.18 18.6599C58.96 20.3199 59.47 22.0799 59.97 23.8399C60.03 24.0299 60.06 24.2399 60.08 24.4399C60.1 24.5699 60.08 24.7099 60.08 24.8499C60.13 24.8899 60.18 24.9399 60.23 24.9799C60.33 25.2899 60.44 25.5999 60.53 25.9099C60.57 26.0499 60.57 26.2099 60.58 26.3599C60.62 26.7999 60.64 27.2299 60.69 27.6699C60.76 28.2999 60.84 28.9399 60.93 29.5699C60.97 29.8299 61.03 30.0799 61.08 30.3299C61.09 30.3899 61.13 30.4599 61.13 30.5199C61.09 31.9399 61.07 33.3699 61 34.7899C60.98 35.2099 60.83 35.6299 60.77 36.0599C60.75 36.2299 60.85 36.4199 60.83 36.5899C60.79 37.1499 60.77 37.7099 60.66 38.2499C60.4 39.6099 60.18 40.9799 59.79 42.3099C59.35 43.8199 58.76 45.2799 58.23 46.7599C58.18 46.8999 58.09 47.0199 58.02 47.1499C58 47.1799 57.98 47.2099 57.95 47.2399C57.3 48.7499 56.43 50.1299 55.47 51.4599C55.22 51.7999 54.95 52.1199 54.69 52.4499C54.61 52.5399 54.54 52.6199 54.46 52.7099L54.1 53.1399C54.02 53.2199 53.94 53.3099 53.85 53.3899C52.49 54.9399 50.99 56.3299 49.23 57.4299C49.2 57.4499 49.17 57.4699 49.14 57.4899C47.86 58.1999 46.59 58.9599 45.28 59.6199C43.74 60.3899 42.11 60.9199 40.44 61.3299C40.34 61.3499 40.26 61.4399 40.17 61.4999C40.15 61.4999 40.13 61.4999 40.11 61.4999L37.89 61.7499C37.8 61.7799 37.72 61.8099 37.63 61.8499C37.11 61.9299 36.59 62.0199 36.08 62.0899C35.72 62.1399 35.36 62.1799 35 62.2199C34.9 62.2299 34.81 62.2699 34.71 62.2699C33.01 62.2699 31.31 62.2899 29.61 62.2799C27.12 62.2699 24.69 61.8499 22.28 61.2699C19.81 60.6699 17.53 59.6599 15.33 58.4299C13.29 57.2899 11.43 55.8899 9.82001 54.1999C8.76001 53.0799 7.70001 51.9399 6.97001 50.5499C6.51001 49.6899 5.88001 48.9199 5.43001 48.0599C4.90001 47.0499 4.48001 45.9899 4.03001 44.9299C3.81001 44.4099 3.63001 43.8699 3.46001 43.3299C3.31001 42.8599 3.20001 42.3699 3.08001 41.8899C3.08001 41.8299 3.08001 41.7799 3.08001 41.7199C2.96001 41.2899 2.83001 40.8499 2.73001 40.4099C2.67001 40.1399 2.68001 39.8599 2.65001 39.5799C2.67001 39.5699 2.69001 39.5499 2.72001 39.5399C2.70001 39.5399 2.68001 39.5299 2.65001 39.5199C2.47001 39.2999 2.39001 39.0799 2.47001 38.7799C2.51001 38.6399 2.34001 38.4499 2.32001 38.2799C2.22001 37.5899 2.08001 36.9099 2.06001 36.2199C2.00001 34.3699 1.95001 32.5199 1.98001 30.6699C2.00001 29.5699 2.18001 28.4699 2.31001 27.3799C2.38001 26.7999 2.47001 26.2299 2.57001 25.6599C2.60001 25.4799 2.73001 25.3199 2.81001 25.1499C2.83001 25.1499 2.85001 25.1399 2.87001 25.1299C2.85001 25.1199 2.83001 25.1099 2.81001 25.0899C2.90001 24.6599 2.98001 24.2299 3.07001 23.8099C3.07001 23.7499 3.07001 23.6999 3.07001 23.6399C3.16001 23.3799 3.24001 23.1299 3.33001 22.8699C3.33001 22.8099 3.33001 22.7599 3.33001 22.6999C3.58001 21.9499 3.79001 21.1999 4.07001 20.4599C4.41001 19.5699 4.73001 18.6799 5.18001 17.8399C6.01001 16.2699 6.91001 14.7399 8.04001 13.3599C8.50001 12.7899 8.96001 12.2199 9.46001 11.6899C9.89001 11.2299 10.38 10.8199 10.84 10.3799C10.92 10.3299 10.99 10.2799 11.07 10.2299L11.06 10.2099ZM52.54 18.6599C52.46 18.4899 52.38 18.3099 52.3 18.1399C51.83 16.9599 51.21 15.8799 50.33 14.9499C48.33 12.8099 45.96 11.5399 42.96 11.6599C42.54 11.6799 42.1 12.0399 42.05 12.4299C41.97 13.0499 42.24 13.5599 42.74 13.6699C43.08 13.7399 43.44 13.7499 43.78 13.7899C44.14 13.8299 44.52 13.8099 44.86 13.9199C46 14.2899 47.07 14.7899 47.98 15.5999C49.16 16.6499 50.01 17.9099 50.56 19.3799C50.86 20.1699 51.63 20.2999 52.25 19.7499C52.62 19.4299 52.59 19.0599 52.52 18.6499L52.54 18.6599ZM11.4 16.6899C11.4 16.6899 11.36 16.7499 11.35 16.7799C11.06 17.3399 10.76 17.8899 10.5 18.4599C10.24 19.0299 10.41 19.5799 10.91 19.9499C11.23 20.1899 11.89 20.2099 12.04 19.9699C12.2 19.6999 12.34 19.4099 12.47 19.1199C13.02 17.9399 13.67 16.8299 14.62 15.9299C16.12 14.5099 17.87 13.7199 19.96 13.6999C20.61 13.6999 20.92 13.2199 20.97 12.2599C20.97 12.0799 20.4 11.6799 20.1 11.6599C18.59 11.5499 17.14 11.8199 15.81 12.5299C14.96 12.9899 14.15 13.5499 13.42 14.1799C12.6 14.8799 11.83 15.6599 11.4 16.6999V16.6899ZM14.84 37.6399C15.13 37.8099 15.4 38.0499 15.71 38.1199C15.95 38.1699 16.13 38.2199 16.3 38.3899C16.38 38.4699 16.52 38.4999 16.64 38.5299C17.27 38.6799 17.9 38.8199 18.52 38.9699C19.57 39.2199 20.63 39.1299 21.65 38.8899C22.51 38.6899 23.33 38.3399 24.15 37.9999C25.49 37.4499 26.43 36.3999 27.38 35.3599C28.21 34.4399 28.56 33.2699 28.95 32.1499C29.22 31.3599 29.24 30.4899 29.32 29.6399C29.35 29.3399 29.21 29.0199 29.17 28.7099C29.13 28.3299 29.19 27.9299 29.09 27.5799C28.87 26.7899 28.61 25.9999 28.29 25.2399C27.6 23.6199 26.31 22.4999 24.91 21.5499C24.16 21.0399 23.25 20.7699 22.4 20.4199C22.03 20.2699 21.65 20.0899 21.26 20.0499C20.75 19.9999 20.22 20.0799 19.7 20.0899C18.98 20.1099 18.27 20.1399 17.56 20.3299C15.54 20.8799 13.84 21.9199 12.51 23.5499C11.17 25.1899 10.44 27.0799 10.33 29.1699C10.25 30.5299 10.53 31.8499 11.06 33.1199C11.83 34.9799 13.09 36.4399 14.75 37.5699L14.84 37.6199V37.6399ZM20.22 55.3499C20.22 55.3499 20.25 55.3899 20.28 55.4099C20.39 55.5199 20.49 55.7199 20.62 55.7399C21.29 55.8399 21.96 55.9699 22.64 55.9699C28.63 55.9899 34.63 55.9699 40.62 55.9899C41.37 55.9899 42.06 55.8799 42.67 55.4599C43.9 54.6099 44.15 53.4499 43.53 52.4299C43.72 52.3399 43.7 52.2499 43.52 52.1699C43.4 51.8299 43.28 51.4899 43.15 51.1499L43.03 50.8099C42.58 49.6199 41.87 48.6099 41.02 47.6599C40.11 46.6399 39.11 45.7599 37.94 45.0499C37.81 44.9699 37.72 44.8499 37.61 44.7499C37.55 44.7499 37.5 44.7499 37.44 44.7499C37.35 44.7099 37.25 44.6799 37.17 44.6399C35.95 44.0299 34.67 43.5999 33.3 43.4799C32.87 43.4399 32.43 43.4099 32.01 43.3299C31.31 43.1999 30.61 43.4699 29.89 43.2899C29.57 43.2099 29.17 43.4599 28.8 43.5599C27.63 43.8799 26.46 44.2199 25.41 44.8599C25.29 44.9199 25.18 44.9899 25.06 45.0499C24.4 45.5399 23.69 45.9799 23.07 46.5199C21.15 48.1799 19.92 50.2699 19.23 52.7099C18.87 53.9699 19.45 54.8599 20.21 55.3699L20.22 55.3499ZM42.99 20.0299C42.24 20.1399 41.49 20.2299 40.75 20.3699C40.49 20.4199 40.26 20.6999 40.02 20.6899C39.27 20.6699 38.72 21.1499 38.17 21.4799C34.52 23.6999 32.83 27.8399 33.9 31.9799C34.4 33.9199 35.44 35.5899 37.04 36.8599C38.79 38.2499 40.75 39.1299 43.04 39.1099C43.28 39.1099 43.51 39.0499 43.75 39.0299C44.82 38.9199 45.86 38.7399 46.86 38.2899C48.19 37.6899 49.33 36.8499 50.29 35.7699C51.17 34.7799 51.82 33.6499 52.17 32.3799C52.49 31.2499 52.64 30.0799 52.53 28.8999C52.51 28.6899 52.36 28.4699 52.39 28.2699C52.48 27.6999 52.3 27.2099 52.08 26.7199C52.03 26.5999 51.98 26.4699 51.95 26.3399C51.89 26.1299 51.88 25.8899 51.78 25.6999C51.55 25.2499 51.29 24.8099 51.03 24.3699C50.36 23.2199 49.4 22.3399 48.31 21.6299C46.7 20.5999 44.93 20.0399 42.99 20.0299Z" fill="#FFB02E"/>
<path d="M37.61 61.83C37.7 61.8 37.78 61.77 37.87 61.73C37.78 61.76 37.7 61.79 37.61 61.83Z" fill="#040301"/>
<path d="M53.83 53.3799C53.91 53.2999 53.99 53.2099 54.08 53.1299C54 53.2099 53.92 53.2999 53.83 53.3799Z" fill="#060401"/>
<path d="M60.21 24.9801C60.21 24.9801 60.11 24.8901 60.06 24.8501C60.11 24.8901 60.16 24.9401 60.21 24.9801Z" fill="#040301"/>
<path d="M2.81 25.0601C2.81 25.0601 2.85 25.0801 2.87 25.1001C2.85 25.1001 2.83 25.1101 2.81 25.1201C2.81 25.1001 2.81 25.0801 2.81 25.0701V25.0601Z" fill="#040301"/>
<path d="M11.65 9.69995C11.65 9.69995 11.64 9.73995 11.63 9.75995C11.62 9.73995 11.61 9.71995 11.6 9.69995C11.62 9.69995 11.63 9.69995 11.65 9.69995Z" fill="#060401"/>
<path d="M51.01 9.36003C51.01 9.36003 50.96 9.30003 50.94 9.28003C50.96 9.31003 50.99 9.34003 51.01 9.36003Z" fill="#040301"/>
<path d="M58.17 18.6601C58.17 18.6601 58.12 18.6101 58.1 18.5801C58.12 18.6101 58.15 18.6301 58.17 18.6601Z" fill="#040301"/>
<path d="M57.93 47.2399C57.93 47.2399 57.97 47.1799 58 47.1499C57.98 47.1799 57.96 47.2099 57.93 47.2399Z" fill="#040301"/>
<path d="M49.12 57.4799C49.12 57.4799 49.18 57.4399 49.21 57.4199C49.18 57.4399 49.15 57.4599 49.12 57.4799Z" fill="#040301"/>
<path d="M40.09 61.48C40.09 61.48 40.13 61.48 40.15 61.48C40.15 61.5 40.14 61.52 40.13 61.54C40.12 61.52 40.1 61.5 40.09 61.48Z" fill="#FCAE2D"/>
<path d="M2.64001 39.5L2.71001 39.52C2.71001 39.52 2.67001 39.55 2.64001 39.56C2.64001 39.54 2.64001 39.52 2.64001 39.5Z" fill="#030200"/>
<path d="M37.62 44.7599C37.73 44.8599 37.82 44.9899 37.95 45.0599C39.11 45.7699 40.12 46.6499 41.03 47.6699C41.87 48.6199 42.58 49.6299 43.04 50.8199C43.08 50.9299 43.12 51.0499 43.16 51.1599C43.28 51.4999 43.4 51.8399 43.53 52.1799C43.53 52.2699 43.53 52.3499 43.54 52.4399C44.16 53.4599 43.91 54.6199 42.68 55.4699C42.07 55.8899 41.38 55.9999 40.63 55.9999C34.64 55.9799 28.64 55.9999 22.65 55.9799C21.98 55.9799 21.3 55.8499 20.63 55.7499C20.5 55.7299 20.4 55.5399 20.29 55.4199C20.27 55.3999 20.25 55.3799 20.23 55.3599C19.47 54.8399 18.9 53.9599 19.25 52.6999C19.94 50.2599 21.17 48.1699 23.09 46.5099C23.71 45.9699 24.41 45.5299 25.08 45.0399C25.29 45.1499 25.4 45.0699 25.43 44.8499C26.48 44.2099 27.64 43.8699 28.82 43.5499C29.18 43.4499 29.59 43.2099 29.91 43.2799C30.63 43.4599 31.33 43.1899 32.03 43.3199C32.46 43.3999 32.89 43.4399 33.32 43.4699C34.69 43.5899 35.97 44.0099 37.19 44.6299C37.28 44.6699 37.37 44.7099 37.46 44.7399C37.52 44.7399 37.57 44.7399 37.63 44.7399L37.62 44.7599Z" fill="#BB1D80"/>
<path d="M42.99 20.05C44.93 20.06 46.71 20.61 48.31 21.65C49.4 22.36 50.36 23.24 51.03 24.39C51.28 24.83 51.55 25.26 51.78 25.72C51.88 25.91 51.89 26.1501 51.95 26.3601C51.99 26.4901 52.03 26.62 52.08 26.74C52.3 27.23 52.48 27.7301 52.39 28.2901C52.36 28.4901 52.51 28.7 52.53 28.92C52.64 30.1 52.49 31.2701 52.17 32.4001C51.81 33.6601 51.17 34.8001 50.29 35.7901C49.32 36.8701 48.19 37.7101 46.86 38.3101C45.86 38.7601 44.82 38.94 43.75 39.05C43.51 39.07 43.28 39.1301 43.04 39.1301C40.75 39.1501 38.79 38.2701 37.04 36.8801C35.45 35.6101 34.41 33.9401 33.9 32C32.83 27.87 34.52 23.72 38.17 21.5C38.72 21.17 39.27 20.69 40.02 20.71C40.26 20.71 40.5 20.44 40.75 20.39C41.49 20.25 42.24 20.16 42.99 20.05ZM35.73 30.6101C35.62 32.8101 37.67 35.05 40.17 34.87C41.93 34.74 44.43 33.3101 44.09 30.0301C43.9 28.18 42.24 26.55 40.1 26.42C37.72 26.28 35.61 28.3701 35.72 30.6101H35.73Z" fill="white"/>
<path d="M14.75 37.6C13.09 36.47 11.84 35.01 11.06 33.15C10.53 31.88 10.26 30.56 10.33 29.2C10.45 27.1 11.17 25.21 12.51 23.58C13.84 21.95 15.54 20.91 17.56 20.36C18.27 20.17 18.98 20.13 19.7 20.12C20.22 20.11 20.75 20.03 21.26 20.08C21.65 20.12 22.03 20.29 22.4 20.45C23.25 20.81 24.16 21.07 24.91 21.58C26.31 22.53 27.61 23.65 28.29 25.27C28.61 26.03 28.87 26.81 29.09 27.61C29.19 27.97 29.13 28.36 29.17 28.74C29.2 29.05 29.34 29.37 29.32 29.67C29.24 30.51 29.22 31.39 28.95 32.18C28.56 33.3 28.21 34.48 27.38 35.39C26.44 36.43 25.49 37.48 24.15 38.03C23.33 38.36 22.5 38.72 21.65 38.92C20.63 39.15 19.57 39.25 18.52 39C17.89 38.85 17.26 38.71 16.64 38.56C16.52 38.53 16.38 38.5 16.3 38.42C16.13 38.25 15.94 38.2 15.71 38.15C15.4 38.08 15.13 37.84 14.84 37.67L14.75 37.62V37.6ZM23.02 34.88C24.14 34.84 25.13 34.53 25.96 33.71C26.64 33.04 27.19 32.21 27.26 31.34C27.4 29.69 26.91 28.14 25.46 27.13C24.83 26.69 24.05 26.5 23.27 26.42C21.97 26.29 20.89 26.8 20.02 27.67C19.13 28.56 18.63 29.71 18.75 31.02C18.9 32.67 20.51 34.93 23.02 34.89V34.88Z" fill="white"/>
<path d="M11.4 16.6999C11.83 15.6699 12.6 14.8799 13.42 14.1799C14.15 13.5499 14.96 12.9899 15.81 12.5299C17.14 11.8199 18.59 11.5499 20.1 11.6599C20.4 11.6799 20.97 12.0799 20.97 12.2599C20.93 13.2199 20.61 13.6899 19.96 13.6999C17.88 13.7199 16.12 14.5099 14.62 15.9299C13.66 16.8399 13.02 17.9499 12.47 19.1199C12.33 19.4099 12.2 19.6999 12.04 19.9699C11.89 20.2099 11.23 20.1899 10.91 19.9499C10.41 19.5799 10.24 19.0299 10.5 18.4599C10.76 17.8899 11.06 17.3399 11.35 16.7799C11.37 16.7499 11.39 16.7199 11.4 16.6899V16.6999Z" fill="#412B32"/>
<path d="M52.54 18.6701C52.61 19.0701 52.63 19.4401 52.27 19.7701C51.65 20.3201 50.88 20.1901 50.58 19.4001C50.03 17.9301 49.18 16.6701 48 15.6201C47.09 14.8101 46.02 14.3101 44.88 13.9401C44.54 13.8301 44.16 13.8501 43.8 13.8101C43.45 13.7701 43.1 13.7601 42.76 13.6901C42.26 13.5801 41.99 13.0701 42.07 12.4501C42.12 12.0601 42.56 11.7001 42.98 11.6801C45.98 11.5601 48.35 12.8401 50.35 14.9701C51.22 15.9001 51.85 16.9801 52.32 18.1601C52.4 18.3301 52.48 18.5101 52.56 18.6801L52.54 18.6701Z" fill="#412B32"/>
<path d="M25.42 44.8501C25.39 45.0701 25.28 45.1501 25.07 45.0401C25.19 44.9801 25.3 44.9101 25.42 44.8501Z" fill="#FCA932"/>
<path d="M43.53 52.4399C43.53 52.3499 43.53 52.2699 43.52 52.1799C43.7 52.2599 43.72 52.3399 43.53 52.4399Z" fill="#FCA932"/>
<path d="M11.4 16.7C11.4 16.7 11.36 16.76 11.35 16.79C11.37 16.76 11.39 16.73 11.4 16.7Z" fill="#F8AB2D"/>
<path d="M20.22 55.3701C20.22 55.3701 20.26 55.4101 20.28 55.4301C20.26 55.4201 20.24 55.4001 20.22 55.3701Z" fill="#FDAB31"/>
<path d="M35.73 30.6099C35.62 28.3699 37.73 26.2699 40.11 26.4199C42.24 26.5499 43.91 28.1799 44.1 30.0299C44.43 33.3099 41.94 34.7399 40.18 34.8699C37.67 35.0499 35.63 32.8099 35.74 30.6099H35.73Z" fill="#402A32"/>
<path d="M23.01 34.88C20.5 34.93 18.89 32.67 18.74 31.01C18.62 29.7 19.12 28.56 20.01 27.66C20.87 26.79 21.96 26.28 23.26 26.41C24.05 26.49 24.82 26.68 25.45 27.12C26.9 28.13 27.4 29.68 27.25 31.33C27.18 32.19 26.62 33.02 25.95 33.7C25.12 34.52 24.13 34.83 23.01 34.87V34.88Z" fill="#412B33"/>
</svg>
