<svg width="65" height="65" viewBox="0 0 65 65" fill="none" xmlns="http://www.w3.org/2000/svg">
<g clip-path="url(#clip0_3447_742)">
<path d="M47.54 6.31997C47.66 6.39997 47.77 6.47997 47.89 6.54997C47.91 6.60997 47.93 6.60997 47.95 6.54997C47.97 6.54997 47.98 6.54997 48 6.54997C48.01 6.57997 48.02 6.60997 48.06 6.58997C48.14 6.64997 48.22 6.71997 48.3 6.77997C48.3 6.81997 48.3 6.82997 48.34 6.81997C48.7 6.83997 48.91 7.12997 49.19 7.28997C49.2 7.31997 49.21 7.34997 49.25 7.32997L49.36 7.40997C49.38 7.46997 49.43 7.44997 49.47 7.44997C49.68 7.60997 49.89 7.75997 50.1 7.91997C50.12 7.98997 50.13 8.05997 50.21 7.96997C50.38 8.09997 50.55 8.23997 50.72 8.36997C50.74 8.43997 50.75 8.50997 50.83 8.41997C50.95 8.51997 51.06 8.60997 51.18 8.70997C51.18 8.74997 51.19 8.75997 51.23 8.76997C51.32 8.88997 51.45 8.95997 51.57 9.04997C51.57 9.11997 51.6 9.15997 51.68 9.14997C51.72 9.18997 51.76 9.23997 51.8 9.27997C51.8 9.28997 51.8 9.30997 51.8 9.31997C51.81 9.30997 51.83 9.28997 51.84 9.27997C52.12 9.51997 52.41 9.75997 52.68 10.02C53.11 10.44 53.54 10.88 53.95 11.32C54.18 11.56 54.4 11.82 54.62 12.07C54.62 12.11 54.62 12.13 54.66 12.12C54.87 12.37 55.08 12.62 55.3 12.88C54.28 13.76 53.11 14.25 51.76 14.28C51.41 14.28 51.07 14.33 50.76 14.52C50.03 14.96 49.59 16.3 50.28 17.18C50.56 17.54 50.93 17.81 51.38 17.85C51.85 17.89 52.34 17.88 52.82 17.81C53.67 17.68 54.5 17.47 55.28 17.1C56.01 16.76 56.68 16.33 57.33 15.86C57.81 16.59 58.16 17.38 58.56 18.15C59.26 19.48 59.75 20.89 60.2 22.32C60.48 23.2 60.68 24.11 60.92 25.01C60.95 25.1 60.85 25.18 60.92 25.26C60.94 25.3 60.92 25.36 60.98 25.37C61.09 26.04 61.3 26.69 61.31 27.39C61.31 27.65 61.42 27.94 61.48 28.21C61.44 28.21 61.4 28.21 61.36 28.21C60.9 27.89 60.49 27.51 59.99 27.24C59.01 26.72 57.99 26.38 56.89 26.26C55.8 26.14 54.72 26.17 53.64 26.39C53.07 26.5 52.53 26.73 52 26.95C51.88 26.73 51.88 26.48 51.75 26.25C51.52 25.83 51.31 25.39 51.05 24.97C50.84 24.63 50.62 24.29 50.3 24.04C50.28 24.02 50.27 24.01 50.25 23.99C49.69 23.35 49.03 22.83 48.28 22.41C47.1 21.76 45.83 21.45 44.49 21.4C43.65 21.37 42.81 21.4 41.98 21.58C40.26 21.95 38.8 22.8 37.6 24.08C37.17 24.54 36.8 25.04 36.54 25.63C36.19 26.41 35.9 27.21 35.71 28.05C35.63 28.41 35.63 28.79 35.73 29.12C35.99 29.97 36.51 30.59 37.44 30.83C38.26 31.04 38.95 30.86 39.59 30.34C40.12 29.91 40.31 29.32 40.47 28.7C40.74 27.58 41.37 26.7 42.49 26.4C43.71 26.07 44.94 26.03 46.12 26.73C46.92 27.21 47.33 27.86 47.52 28.72C47.66 29.35 47.88 29.96 48.44 30.37C48.36 30.6 48.23 30.81 48.15 31.03C47.83 31.88 47.59 32.74 47.59 33.66C47.59 34.3 47.59 34.95 47.69 35.58C47.91 36.85 48.55 37.89 49.45 38.78C49.72 39.05 50.05 39.26 50.35 39.5C50.36 39.53 50.37 39.56 50.41 39.54C50.48 39.58 50.56 39.63 50.63 39.67C50.64 39.7 50.65 39.73 50.69 39.71C50.78 39.77 50.87 39.83 50.98 39.84C50.98 39.87 50.98 39.9 51.03 39.88C52.07 40.35 53.14 40.54 54.28 40.39C54.89 40.31 55.44 40.09 55.97 39.79C55.99 39.78 56.01 39.77 56.03 39.75C56.11 39.7 56.2 39.67 56.27 39.61C57.11 38.97 57.73 38.19 58.08 37.18C58.2 36.85 58.22 36.5 58.27 36.18C58.32 35.85 58.27 35.47 58.27 35.12C58.26 34.86 58.23 34.61 58.12 34.38C57.81 33.76 57.21 33.25 56.29 33.32C55.69 33.37 55.05 33.86 54.79 34.52C54.74 34.65 54.66 34.76 54.69 34.91C54.74 35.28 54.74 35.65 54.69 36.01C54.63 36.46 54.37 36.75 53.91 36.87C53.54 36.97 53.22 36.86 52.88 36.76C51.94 36.48 51.28 35.69 51.17 34.77C51.07 33.92 51.13 33.06 51.54 32.27C52.08 31.23 52.85 30.43 53.98 30.03C54.88 29.71 55.8 29.74 56.73 29.86C57.82 30 58.68 30.52 59.41 31.31C60.21 32.17 60.6 33.19 60.64 34.35C60.66 35.05 60.61 35.75 60.54 36.45C60.47 37.09 60.3 37.69 60.06 38.27C59.67 39.23 59.07 40.04 58.31 40.76C57.7 41.34 57.04 41.82 56.28 42.17C55.51 42.52 54.71 42.8 53.87 42.81C49.5 42.84 45.12 42.82 40.75 42.82C40.78 42.62 40.82 42.41 40.84 42.21C40.98 40.73 40.7 39.36 39.84 38.13C39.44 37.55 38.94 37.08 38.4 36.63C38.4 36.59 38.39 36.58 38.35 36.58C38.35 36.58 38.34 36.49 38.32 36.49C38.28 36.48 38.27 36.52 38.26 36.55C37.96 36.35 37.66 36.16 37.34 36.02C37.04 35.89 36.75 35.68 36.44 35.65C35.96 35.62 35.48 35.53 35 35.53C34.44 35.53 33.93 35.61 33.48 35.96C33.4 35.95 33.37 35.99 33.36 36.06C33.02 36.41 32.68 36.76 32.6 37.27C32.53 37.27 32.52 37.31 32.52 37.37C32.49 37.56 32.54 37.75 32.46 37.94C32.46 37.99 32.45 38.03 32.51 38.05C32.54 38.16 32.45 38.28 32.51 38.39C32.47 38.5 32.55 38.48 32.6 38.49C32.6 38.53 32.58 38.57 32.59 38.6C32.94 39.53 33.79 40.26 34.83 40.26C35.6 40.26 36.06 40.86 36.08 41.29C36.13 42.12 35.68 42.67 34.94 42.73C34.38 42.77 33.86 42.88 33.41 43.27C32.5 44.07 32.32 44.98 32.64 46C32.9 46.82 34.03 47.57 34.9 47.54C35.26 47.53 35.54 47.67 35.78 47.9C36.16 48.28 36.16 48.77 36.01 49.22C35.85 49.71 35.45 49.97 34.93 49.99C33.91 50.03 33.17 50.48 32.7 51.39C32.46 51.86 32.42 52.37 32.53 52.85C32.63 53.3 32.86 53.73 33.24 54.03C33.21 54.09 33.24 54.13 33.3 54.13C33.45 54.24 33.58 54.38 33.74 54.46C34.31 54.74 34.9 54.79 35.54 54.71C37.28 54.48 38.66 53.66 39.71 52.29C40.7 51 41 49.51 40.82 47.91C40.77 47.41 40.59 46.94 40.46 46.46C40.51 46.46 40.56 46.47 40.57 46.4C40.68 46.4 40.8 46.4 40.91 46.4C45.34 46.37 49.76 46.47 54.19 46.35C55.09 46.33 55.93 46.03 56.78 45.79C57.21 45.67 57.61 45.46 58.01 45.27C58.03 45.26 58.04 45.25 58.06 45.23C58.08 45.23 58.1 45.22 58.12 45.21C58.14 45.2 58.15 45.18 58.17 45.17C58.71 44.91 59.2 44.58 59.69 44.25C59.89 44.12 60.02 43.89 60.28 43.85C60.31 44.07 60.21 44.26 60.14 44.45C59.74 45.59 59.38 46.75 58.86 47.85C58.73 48.13 58.59 48.41 58.46 48.68C58.42 48.68 58.4 48.69 58.41 48.73C58.28 49.19 58 49.57 57.78 49.98C57.02 51.37 56.14 52.68 55.14 53.91C54.71 54.44 54.25 54.94 53.79 55.43C52.94 56.33 52.05 57.18 51.08 57.94C50.56 58.35 50.05 58.76 49.48 59.09C49.44 59.07 49.43 59.1 49.42 59.13L49.31 59.2C49.31 59.2 49.26 59.21 49.24 59.24C48.34 59.87 47.38 60.4 46.4 60.89C44.88 61.65 43.31 62.27 41.68 62.77C41.19 62.92 40.7 63.03 40.21 63.16C40.11 63.05 40.13 63.2 40.09 63.21C39.42 63.35 38.75 63.5 38.08 63.62C37.48 63.73 36.88 63.8 36.28 63.89C35.82 63.97 35.35 63.94 34.9 64.06C34.76 64.1 34.65 64 34.53 63.96C34.46 63.96 34.44 64.01 34.42 64.07C34.19 64.14 33.97 64.17 33.75 64.05C33.72 64.03 33.68 64 33.65 64.03C33.4 64.27 33.08 64.17 32.79 64.18C31.37 64.22 29.94 64.22 28.52 64.17C28.11 64.16 27.68 64.18 27.27 64.07C27.27 64.04 27.25 64.01 27.21 64.02C26.88 64.12 26.55 63.99 26.22 63.99C26.11 63.99 25.98 63.96 25.86 63.96C25.75 63.96 25.65 63.96 25.6 63.84C25.61 63.8 25.6 63.79 25.56 63.8C25.45 63.75 25.37 63.86 25.27 63.86C25.25 63.8 25.23 63.75 25.16 63.74C24.97 63.88 24.75 63.81 24.55 63.78C23.72 63.65 22.88 63.54 22.08 63.32C21.33 63.11 20.58 62.93 19.84 62.7C18.32 62.23 16.87 61.59 15.42 60.94C15.27 60.87 15.13 60.79 14.98 60.71C15.04 60.5 15.23 60.41 15.36 60.27C16.08 59.52 16.67 58.68 17.1 57.73C17.45 56.96 17.66 56.15 17.76 55.31C17.81 54.86 17.88 54.4 17.83 53.96C17.76 53.3 17.42 52.8 16.75 52.53C15.82 52.16 15 52.43 14.52 53.24C14.44 53.38 14.38 53.52 14.35 53.68C14.21 54.38 14.21 55.1 13.99 55.81C13.6 57.11 12.76 57.99 11.65 58.68C11.46 58.49 11.23 58.35 11 58.21C10.98 58.2 10.96 58.18 10.94 58.17C10.87 58.16 10.89 58.03 10.79 58.05H10.77V58.03C10.75 57.97 10.7 57.95 10.65 57.94C10.49 57.79 10.28 57.7 10.15 57.52C10.13 57.46 10.09 57.44 10.03 57.43C9.48995 57.04 9.02995 56.56 8.56995 56.09C6.40996 53.9 4.62996 51.43 3.27996 48.66C2.73996 47.56 2.26996 46.44 1.87996 45.29C1.46996 44.11 1.15996 42.89 0.869956 41.67C0.689956 40.9 0.509956 40.13 0.429956 39.35C0.369956 38.79 0.249956 38.25 0.199956 37.69C0.119956 36.87 0.0599555 36.05 -4.44874e-05 35.23C-0.0400445 34.58 -4.44874e-05 33.93 -4.44874e-05 33.27C0.0599555 33.23 0.129956 33.19 0.179956 33.14C1.11996 32.27 2.04996 31.4 2.98996 30.53C3.88996 29.69 4.78996 28.86 5.69996 28.02C6.78996 27.01 7.87996 26.01 8.95996 24.99C9.55996 24.43 10.14 23.83 10.76 23.28C11.38 22.73 11.99 22.15 12.6 21.59C13.06 21.17 13.48 20.72 13.95 20.32C14.63 19.74 15.26 19.11 15.92 18.51C16.6 17.88 17.27 17.25 17.94 16.63C18.58 16.04 19.22 15.44 19.86 14.85C20.54 14.22 21.22 13.58 21.9 12.95C22.55 12.35 23.2 11.75 23.85 11.15C24.54 10.51 25.22 9.86997 25.91 9.22997C26.56 8.62997 27.2 8.02997 27.86 7.42997C28.53 6.81997 29.17 6.18997 29.83 5.57997C30.49 4.96997 31.16 4.35997 31.82 3.74997C32.28 3.32997 32.73 2.90997 33.18 2.48997C33.21 2.48997 33.25 2.47997 33.28 2.46997C34.01 2.52997 34.75 2.57997 35.48 2.65997C36.11 2.71997 36.72 2.84997 37.35 2.91997C38.2 3.00997 39.03 3.19997 39.86 3.37997C40.49 3.51997 41.12 3.68997 41.74 3.84997C41.77 3.88997 41.77 3.96997 41.86 3.94997C42.48 4.08997 43.08 4.30997 43.68 4.52997C43.73 4.57997 43.76 4.64997 43.85 4.63997C44.32 4.74997 44.73 4.97997 45.17 5.15997C45.27 5.19997 45.2 5.51997 45.44 5.31997C45.68 5.37997 45.92 5.46997 46.12 5.61997C46.13 5.67997 46.17 5.71997 46.23 5.72997L46.57 5.83997C46.57 5.83997 46.59 5.89997 46.63 5.86997C46.65 5.86997 46.67 5.87997 46.69 5.88997C46.69 5.91997 46.69 5.94997 46.74 5.92997C46.76 5.92997 46.78 5.93997 46.8 5.94997C46.8 5.97997 46.8 6.00997 46.85 5.98997C46.87 5.98997 46.89 5.99997 46.91 6.00997C46.91 6.03997 46.91 6.06997 46.96 6.04997C46.98 6.04997 47 6.05997 47.02 6.06997C47.02 6.09997 47.02 6.12997 47.07 6.10997C47.09 6.10997 47.11 6.11997 47.13 6.12997C47.13 6.15997 47.14 6.18997 47.18 6.16997C47.28 6.20997 47.32 6.35997 47.45 6.35997L47.54 6.31997ZM14.88 30.88C14.88 30.88 14.92 30.86 14.94 30.85C15.64 30.6 16.22 30.19 16.5 29.47C16.65 29.08 16.73 28.65 16.88 28.25C17.28 27.19 18.02 26.5 19.14 26.28C19.76 26.16 20.38 26.16 21.02 26.24C22.32 26.39 23.21 27.03 23.67 28.25C23.8 28.58 23.86 28.94 23.97 29.28C24.21 30.06 24.77 30.62 25.51 30.83C27.32 31.33 28.91 29.85 28.53 28.03C28.07 25.82 27.02 23.99 25.06 22.75C24.22 22.22 23.35 21.85 22.39 21.63C21.08 21.33 19.78 21.34 18.46 21.55C17.92 21.63 17.41 21.85 16.88 21.96C16.8 21.95 16.76 22.02 16.72 22.07C16.5 22.17 16.27 22.24 16.07 22.37C14.96 23.03 13.97 23.82 13.26 24.92C13 25.32 12.76 25.73 12.58 26.16C12.32 26.78 12.14 27.43 12 28.08C11.95 28.32 11.9 28.57 11.95 28.8C12 29.01 11.93 29.25 12.06 29.44C12.2 29.64 12.35 29.83 12.48 30.03C12.74 30.44 13.13 30.66 13.57 30.8C14 30.94 14.44 30.96 14.89 30.88H14.88ZM14.32 40.47C12.98 40.29 11.93 41.72 11.92 42.71C11.91 44.01 13.02 45.15 14.16 45.19C15.63 45.24 16.7 44.02 16.7 42.8C16.7 41.5 15.49 40.31 14.32 40.47Z" fill="#FFB02E"/>
<path d="M58.17 45.1901C58.17 45.1901 58.13 45.2001 58.11 45.2101C58.07 45.1901 58.06 45.2101 58.06 45.2501C57.66 45.4401 57.26 45.6501 56.83 45.7701C55.98 46.0101 55.14 46.3001 54.24 46.3301C49.81 46.4501 45.39 46.3501 40.96 46.3801C40.85 46.3801 40.73 46.3801 40.62 46.3801C40.58 46.3201 40.52 46.3301 40.46 46.3301C40.25 45.9401 40.05 45.5501 39.79 45.1901C39.73 45.1101 39.73 45.0501 39.79 44.9701C40.28 44.3201 40.59 43.5901 40.8 42.8101C45.17 42.8101 49.55 42.8301 53.92 42.8001C54.76 42.8001 55.57 42.5101 56.33 42.1601C57.09 41.8101 57.75 41.3301 58.36 40.7501C59.12 40.0301 59.71 39.2201 60.11 38.2601C60.35 37.6801 60.52 37.0801 60.59 36.4401C60.66 35.7401 60.71 35.0401 60.69 34.3401C60.65 33.1801 60.26 32.1501 59.46 31.3001C58.73 30.5201 57.87 30.0001 56.78 29.8501C55.85 29.7301 54.93 29.7001 54.03 30.0201C52.9 30.4201 52.13 31.2201 51.59 32.2601C51.18 33.0501 51.12 33.9101 51.22 34.7601C51.32 35.6801 51.99 36.4701 52.93 36.7501C53.27 36.8501 53.59 36.9601 53.96 36.8601C54.42 36.7401 54.68 36.4501 54.74 36.0001C54.79 35.6401 54.79 35.2701 54.74 34.9001C54.72 34.7501 54.8 34.6401 54.84 34.5101C55.1 33.8501 55.73 33.3601 56.34 33.3101C57.26 33.2401 57.86 33.7501 58.17 34.3701C58.28 34.6001 58.31 34.8501 58.32 35.1101C58.34 35.4701 58.38 35.8401 58.32 36.1701C58.27 36.5001 58.25 36.8401 58.13 37.1701C57.78 38.1801 57.16 38.9701 56.32 39.6001C56.25 39.6601 56.16 39.6901 56.08 39.7401C56.04 39.7201 56.03 39.7401 56.02 39.7801C55.49 40.0801 54.94 40.3001 54.33 40.3801C53.19 40.5301 52.12 40.3301 51.08 39.8701C51.06 39.8601 51.05 39.8501 51.03 39.8301C50.92 39.8201 50.83 39.7501 50.74 39.7001C50.72 39.6901 50.7 39.6801 50.68 39.6601L50.46 39.5301C50.46 39.5301 50.42 39.5101 50.4 39.4901C50.1 39.2501 49.77 39.0401 49.5 38.7701C48.61 37.8801 47.97 36.8401 47.74 35.5701C47.63 34.9301 47.63 34.2901 47.64 33.6501C47.64 32.7301 47.88 31.8601 48.2 31.0201C48.29 30.8001 48.41 30.5801 48.49 30.3601C48.59 30.3201 48.61 30.2201 48.65 30.1401C49.05 29.4601 49.53 28.8401 50.11 28.2901C50.69 27.7501 51.34 27.3201 52.03 26.9501C52.57 26.7301 53.1 26.5001 53.67 26.3901C54.74 26.1801 55.82 26.1401 56.92 26.2601C58.03 26.3801 59.05 26.7201 60.02 27.2401C60.52 27.5101 60.93 27.8901 61.39 28.2101C61.43 28.2501 61.47 28.2801 61.51 28.3201C62.14 28.9501 62.72 29.6201 63.17 30.3901C63.91 31.6701 64.23 33.0601 64.24 34.5301C64.25 35.5701 64.2 36.6001 64.01 37.6101C63.81 38.6301 63.45 39.6001 62.95 40.5101C62.57 41.2001 62.14 41.8501 61.63 42.4501C61.31 42.8201 60.98 43.1701 60.61 43.4901C60.57 43.4901 60.56 43.4901 60.57 43.5301C60.54 43.6301 60.37 43.6201 60.38 43.7501C60.36 43.7601 60.29 43.7501 60.33 43.8101C60.07 43.8501 59.94 44.0801 59.74 44.2101C59.24 44.5401 58.76 44.8801 58.22 45.1301C58.18 45.1101 58.17 45.1301 58.17 45.1701V45.1901Z" fill="#00A6ED"/>
<path d="M33.2401 2.45988C32.7901 2.87988 32.3301 3.29988 31.8801 3.71988C31.2201 4.32988 30.5501 4.92988 29.8901 5.54988C29.2301 6.15988 28.5801 6.78988 27.9201 7.39988C27.2701 7.99988 26.6201 8.59988 25.9701 9.19988C25.2801 9.83988 24.6001 10.4899 23.9101 11.1199C23.2601 11.7199 22.6101 12.3199 21.9601 12.9199C21.2801 13.5499 20.6001 14.1899 19.9201 14.8199C19.2801 15.4099 18.6401 16.0099 18.0001 16.5999C17.3301 17.2299 16.6501 17.8599 15.9801 18.4799C15.3301 19.0899 14.6901 19.7099 14.0101 20.2899C13.5401 20.6899 13.1201 21.1499 12.6601 21.5599C12.0501 22.1199 11.4401 22.6999 10.8201 23.2499C10.2001 23.7999 9.62006 24.3899 9.02006 24.9599C7.94006 25.9699 6.85006 26.9799 5.76006 27.9899C4.86006 28.8299 3.96006 29.6599 3.05006 30.4999C2.11006 31.3699 1.18006 32.2399 0.240059 33.1099C0.190059 33.1599 0.120059 33.1999 0.0600586 33.2399C0.0600586 31.1999 0.0600586 29.1599 0.0600586 27.1199C0.150059 27.0599 0.230059 26.9799 0.290059 26.8899C0.370059 26.8099 0.460059 26.7399 0.540059 26.6599C8.48006 18.7199 16.4301 10.7799 24.3701 2.82988C24.4501 2.74988 24.5201 2.65988 24.6001 2.57988C24.6801 2.52988 24.7401 2.46988 24.7801 2.38988C26.5001 2.38988 28.2101 2.38988 29.9301 2.37988C29.9501 2.37988 29.9701 2.37988 29.9901 2.37988C30.6201 2.37988 31.2401 2.37988 31.8701 2.37988C31.9101 2.37988 31.9501 2.37988 31.9801 2.37988C32.4001 2.37988 32.8101 2.39988 33.2301 2.39988C33.2301 2.41988 33.2301 2.43988 33.2301 2.44988L33.2401 2.45988Z" fill="#BB1D80"/>
<path d="M24.6001 2.58989C24.5201 2.66989 24.4501 2.75989 24.3701 2.83989C16.4301 10.7799 8.48006 18.7299 0.540059 26.6699C0.460059 26.7499 0.370059 26.8199 0.290059 26.8999C0.210059 26.8999 0.130059 26.8999 0.0600586 26.8999C0.0600586 25.0699 0.0600586 23.2499 0.0600586 21.4199C0.0600586 21.1099 0.0600586 20.7999 0.0600586 20.4799C0.0600586 20.4599 0.0600586 20.4399 0.0600586 20.4299V20.4199C0.130059 20.4199 0.170059 20.3499 0.210059 20.2999C3.34006 17.1399 6.54006 14.0299 9.63006 10.8299C10.2301 10.2099 10.8601 9.62989 11.4701 9.01989C13.6101 6.89989 15.7401 4.75989 17.8701 2.61989C17.9401 2.54989 18.0001 2.47989 18.0601 2.40989C18.0801 2.40989 18.0901 2.39989 18.1101 2.38989C18.4001 2.38989 18.6901 2.39989 18.9901 2.39989C20.8601 2.39989 22.7301 2.39989 24.6001 2.40989C24.6001 2.46989 24.6001 2.52989 24.6001 2.58989Z" fill="#5092FF"/>
<path d="M18.06 2.40991C18 2.47991 17.9401 2.54991 17.8701 2.61991C15.7401 4.74991 13.61 6.89991 11.47 9.01991C10.86 9.61991 10.23 10.2099 9.63005 10.8299C6.52005 14.0199 3.33005 17.1199 0.200049 20.2899C0.160049 20.3399 0.120049 20.3999 0.0500488 20.4099C0.0500488 18.6799 0.0500488 16.9599 0.0600488 15.2299C0.240049 15.1199 0.330049 14.9199 0.480049 14.7799C2.43005 12.8599 4.34005 10.8899 6.31005 8.98991C7.52005 7.80991 8.71005 6.60991 9.88005 5.38991C10.78 4.45991 11.71 3.54991 12.62 2.63991C12.69 2.56991 12.76 2.48991 12.82 2.40991C14.56 2.40991 16.3001 2.40991 18.0401 2.40991H18.06Z" fill="#BB1D80"/>
<path d="M12.8299 2.40011C12.7599 2.48011 12.6999 2.56011 12.6299 2.63011C11.7199 3.55011 10.7799 4.45011 9.88995 5.38011C8.71995 6.60011 7.52995 7.81011 6.31995 8.98011C4.34995 10.8901 2.43995 12.8501 0.489946 14.7701C0.339946 14.9201 0.249946 15.1101 0.0699463 15.2201C0.0699463 13.4801 0.0699463 11.7501 0.0699463 10.0101C0.0699463 9.50011 0.0699463 8.99011 0.0699463 8.48011C0.979946 7.59011 1.88995 6.69011 2.78995 5.80011C3.92995 4.67011 5.05995 3.53011 6.18995 2.39011C6.20995 2.39011 6.21995 2.38011 6.23995 2.37011C6.33995 2.37011 6.44995 2.38011 6.54995 2.38011C8.51995 2.38011 10.4999 2.38011 12.4699 2.38011C12.5699 2.38011 12.6799 2.37011 12.7799 2.36011L12.8299 2.38011V2.40011Z" fill="#5092FF"/>
<path d="M57.37 15.8501C56.72 16.3201 56.05 16.7501 55.32 17.0901C54.53 17.4501 53.71 17.6601 52.86 17.8001C52.38 17.8801 51.9 17.8901 51.42 17.8401C50.97 17.8001 50.6 17.5401 50.32 17.1701C49.63 16.2901 50.07 14.9501 50.8 14.5101C51.11 14.3201 51.44 14.2801 51.8 14.2701C53.15 14.2401 54.32 13.7501 55.34 12.8701C55.98 12.2901 56.49 11.6201 56.78 10.8101C56.99 10.2301 57.09 9.63007 57.09 9.01007C57.09 8.16007 57.65 7.39007 58.45 7.20007C59.69 6.91007 60.64 7.83007 60.66 8.80007C60.7 10.8401 60.13 12.6801 58.85 14.2901C58.4 14.8601 57.9 15.3501 57.36 15.8301L57.37 15.8501Z" fill="#F60A8C"/>
<path d="M11.71 58.6501C12.81 57.9601 13.65 57.0801 14.05 55.7801C14.26 55.0801 14.27 54.3601 14.41 53.6501C14.44 53.4901 14.5 53.3401 14.58 53.2101C15.06 52.4001 15.88 52.1301 16.81 52.5001C17.48 52.7701 17.82 53.2601 17.89 53.9301C17.94 54.3701 17.88 54.8301 17.82 55.2801C17.72 56.1201 17.51 56.9301 17.16 57.7001C16.73 58.6501 16.14 59.4901 15.42 60.2401C15.29 60.3801 15.1 60.4801 15.04 60.6801C14.95 60.6701 14.9 60.7201 14.84 60.7701C13.73 61.7401 12.46 62.4001 11.04 62.7701C10.27 62.9701 9.48002 63.0901 8.68002 63.0101C8.10002 62.9501 7.39002 62.3601 7.31002 61.7301C7.29002 61.5501 7.20002 61.3901 7.19002 61.1901C7.17002 60.2301 8.09002 59.4001 8.95002 59.4301C9.82002 59.4601 10.65 59.2101 11.42 58.7801C11.51 58.7301 11.61 58.6801 11.71 58.6401V58.6501Z" fill="#F60A8C"/>
<path d="M52.3199 2.4C52.4299 3.75 51.1599 4.78 49.9599 4.79C48.8299 4.8 47.5099 3.63 47.5999 2.36C47.6699 1.16 48.6699 0 49.9899 0C51.3099 0 52.4899 1.25 52.3199 2.4Z" fill="#00A5EC"/>
<path d="M54.75 59.5099C56.08 59.5099 57.11 60.5299 57.11 61.8399C57.11 63.1499 56.02 64.2499 54.7 64.2199C53.37 64.1899 52.36 63.1199 52.34 61.8299C52.32 60.5999 53.48 59.3599 54.75 59.5099Z" fill="#00A5EC"/>
<path d="M6.18002 2.40991C5.05001 3.54991 3.91002 4.67991 2.78001 5.81991C1.88002 6.71991 0.970015 7.60991 0.0600151 8.49991C0.0600151 7.73991 -0.00998492 6.98991 0.140015 6.23991C0.410015 4.86991 1.17001 3.83991 2.34001 3.08991C3.03001 2.64991 3.79002 2.43991 4.60002 2.41991C5.13002 2.40991 5.66002 2.41991 6.19002 2.41991L6.18002 2.40991Z" fill="#BB1D80"/>
<path d="M24.59 2.40988C22.72 2.40988 20.85 2.40988 18.98 2.39988C18.69 2.39988 18.4 2.39988 18.1 2.38988C18.19 2.32988 18.28 2.34988 18.38 2.34988C20.4 2.34988 22.41 2.34988 24.43 2.34988C24.52 2.34988 24.62 2.32988 24.71 2.38988C24.67 2.38988 24.63 2.40988 24.59 2.41988V2.40988Z" fill="#402A32"/>
<path d="M12.78 2.37988C12.68 2.37988 12.57 2.39988 12.47 2.39988C10.5 2.39988 8.51999 2.39988 6.54999 2.39988C6.44999 2.39988 6.33999 2.39988 6.23999 2.38988C6.32999 2.32988 6.41999 2.34988 6.51999 2.34988C8.51999 2.34988 10.51 2.34988 12.51 2.34988C12.6 2.34988 12.7 2.32988 12.79 2.38988L12.78 2.37988Z" fill="#402A32"/>
<path d="M31.86 2.3899C31.23 2.3899 30.61 2.3899 29.98 2.3899C29.98 2.3799 29.98 2.3699 29.98 2.3599C30.6 2.3299 31.23 2.3299 31.85 2.3599C31.85 2.3699 31.85 2.3799 31.85 2.3899H31.86Z" fill="#412A32"/>
<path d="M45.5 5.28988C45.26 5.47988 45.32 5.16988 45.23 5.12988C45.35 5.12988 45.44 5.19988 45.5 5.28988Z" fill="#060401"/>
<path d="M0.0600586 26.8899C0.140059 26.8899 0.220059 26.8899 0.290059 26.8899C0.230059 26.9799 0.150059 27.0599 0.0600586 27.1199C0.0600586 27.0399 0.0600586 26.9599 0.0600586 26.8799V26.8899Z" fill="#5092FF"/>
<path d="M24.59 2.40988C24.59 2.40988 24.67 2.38988 24.71 2.37988C24.73 2.37988 24.75 2.38988 24.78 2.39988C24.74 2.48988 24.68 2.53988 24.6 2.58988C24.6 2.52988 24.6 2.46988 24.6 2.40988H24.59Z" fill="#5092FF"/>
<path d="M34.48 64.0499C34.5 63.9999 34.53 63.9499 34.59 63.9399C34.58 63.9999 34.6 64.0999 34.48 64.0499Z" fill="#060401"/>
<path d="M25.22 63.72C25.29 63.72 25.31 63.78 25.33 63.84C25.21 63.88 25.23 63.78 25.22 63.72Z" fill="#060401"/>
<path d="M43.91 4.61C43.82 4.63 43.79 4.56 43.74 4.5C43.82 4.5 43.88 4.52 43.91 4.61Z" fill="#060401"/>
<path d="M46.2901 5.70007C46.2201 5.70007 46.1901 5.65007 46.1801 5.59007C46.2701 5.58007 46.2701 5.65007 46.2901 5.70007Z" fill="#F7AB2D"/>
<path d="M50.21 7.96992C50.13 8.05992 50.11 7.98992 50.1 7.91992C50.14 7.93992 50.18 7.94992 50.21 7.96992Z" fill="#060401"/>
<path d="M50.84 8.42012C50.75 8.51012 50.74 8.43012 50.73 8.37012C50.77 8.39012 50.81 8.40012 50.84 8.42012Z" fill="#060401"/>
<path d="M10.73 57.9199C10.79 57.9199 10.83 57.9499 10.85 58.0099C10.76 58.0499 10.73 58.0099 10.73 57.9199Z" fill="#F7AB2D"/>
<path d="M51.69 9.15005C51.61 9.16005 51.58 9.13005 51.58 9.05005C51.64 9.05005 51.68 9.09005 51.69 9.15005Z" fill="#060401"/>
<path d="M10.1 57.3999C10.16 57.3999 10.2 57.4299 10.22 57.4899C10.13 57.5299 10.1 57.4799 10.1 57.3999Z" fill="#F7AB2D"/>
<path d="M33.24 2.4601C33.24 2.4601 33.24 2.4201 33.24 2.4101C33.3 2.3501 33.33 2.3801 33.35 2.4501C33.32 2.4501 33.28 2.4601 33.25 2.4701L33.24 2.4601Z" fill="#402A32"/>
<path d="M41.92 3.93008C41.83 3.95008 41.83 3.87008 41.8 3.83008C41.86 3.83008 41.9 3.87008 41.92 3.93008Z" fill="#060401"/>
<path d="M40.15 63.1999C40.15 63.1999 40.17 63.0399 40.27 63.1499C40.23 63.1699 40.19 63.1899 40.15 63.1999Z" fill="#060401"/>
<path d="M61.01 25.36C60.95 25.34 60.96 25.29 60.95 25.25C61.01 25.26 61.07 25.28 61.01 25.36Z" fill="#060401"/>
<path d="M47.95 6.56001C47.93 6.62001 47.91 6.62001 47.89 6.56001C47.9 6.54001 47.92 6.53001 47.93 6.51001C47.93 6.53001 47.94 6.54001 47.95 6.56001Z" fill="#060401"/>
<path d="M61.51 28.32C61.51 28.32 61.43 28.25 61.39 28.21C61.43 28.21 61.47 28.21 61.51 28.21C61.51 28.25 61.51 28.29 61.51 28.33V28.32Z" fill="#F8B033"/>
<path d="M49.48 7.4399C49.48 7.4399 49.39 7.4599 49.37 7.3999L49.48 7.4399Z" fill="#060401"/>
<path d="M31.86 2.39011C31.86 2.39011 31.86 2.37011 31.86 2.36011C31.9 2.36011 31.94 2.38011 31.97 2.39011C31.93 2.39011 31.89 2.39011 31.86 2.39011Z" fill="#402A32"/>
<path d="M47.54 6.32005C47.54 6.32005 47.54 6.31005 47.53 6.30005C47.53 6.30005 47.54 6.31005 47.55 6.32005H47.54Z" fill="#060401"/>
<path d="M27.26 64C27.26 64 27.31 64.01 27.32 64.05C27.3 64.03 27.28 64.02 27.26 64Z" fill="#060401"/>
<path d="M46.81 5.90011C46.81 5.90011 46.76 5.90011 46.76 5.86011C46.78 5.87011 46.79 5.88011 46.81 5.90011Z" fill="#060401"/>
<path d="M46.92 5.95992C46.92 5.95992 46.87 5.95992 46.87 5.91992C46.89 5.92992 46.9 5.93992 46.92 5.95992Z" fill="#060401"/>
<path d="M60.57 43.5401C60.57 43.5401 60.57 43.4901 60.61 43.5001C60.6 43.5101 60.58 43.5301 60.57 43.5401Z" fill="#060401"/>
<path d="M60.33 43.83C60.29 43.76 60.36 43.78 60.38 43.77C60.38 43.8 60.41 43.86 60.33 43.83Z" fill="#F7AB2D"/>
<path d="M47.03 6.01998C47.03 6.01998 46.98 6.01998 46.98 5.97998C47 5.98998 47.01 5.99998 47.03 6.01998Z" fill="#060401"/>
<path d="M47.15 6.08004C47.15 6.08004 47.1 6.08004 47.1 6.04004C47.12 6.05004 47.13 6.06004 47.15 6.08004Z" fill="#060401"/>
<path d="M58.47 48.7099C58.47 48.7099 58.48 48.6599 58.52 48.6599C58.5 48.6799 58.49 48.6999 58.47 48.7099Z" fill="#060401"/>
<path d="M0.04 20.4199C0.04 20.4199 0.04 20.4599 0.04 20.4699C0.03 20.4699 0.01 20.4499 0 20.4399C0.01 20.4399 0.03 20.4199 0.04 20.4199Z" fill="#5092FF"/>
<path d="M54.71 12.1201C54.71 12.1201 54.66 12.1001 54.67 12.0701C54.68 12.0901 54.7 12.1001 54.71 12.1201Z" fill="#060401"/>
<path d="M51.87 9.28003C51.87 9.28003 51.84 9.31003 51.83 9.32003C51.83 9.31003 51.83 9.29003 51.83 9.28003C51.85 9.28003 51.86 9.28003 51.88 9.28003H51.87Z" fill="#060401"/>
<path d="M51.24 8.76996C51.24 8.76996 51.19 8.74996 51.19 8.70996C51.21 8.72996 51.22 8.74996 51.24 8.76996Z" fill="#060401"/>
<path d="M11.01 58.1399C11.01 58.1399 11.05 58.1699 11.07 58.1799C11.03 58.1999 11.02 58.1799 11.01 58.1399Z" fill="#F7AB2D"/>
<path d="M49.47 59.11C49.47 59.11 49.49 59.05 49.53 59.07C49.51 59.08 49.49 59.1 49.47 59.11Z" fill="#060401"/>
<path d="M49.3 59.2201C49.3 59.2201 49.32 59.1601 49.37 59.1801C49.35 59.1901 49.33 59.2101 49.3 59.2201Z" fill="#060401"/>
<path d="M49.2499 7.33004C49.2499 7.33004 49.1999 7.33004 49.1899 7.29004L49.2499 7.33004Z" fill="#060401"/>
<path d="M47.26 6.1401C47.26 6.1401 47.21 6.1401 47.21 6.1001C47.23 6.1101 47.25 6.1301 47.26 6.1401Z" fill="#060401"/>
<path d="M48.34 6.82003C48.34 6.82003 48.29 6.82003 48.3 6.78003C48.31 6.79003 48.33 6.81003 48.34 6.82003Z" fill="#060401"/>
<path d="M25.62 63.78C25.62 63.78 25.67 63.78 25.66 63.82C25.65 63.81 25.63 63.79 25.62 63.78Z" fill="#060401"/>
<path d="M48.06 6.59005C48.06 6.59005 48.01 6.59005 48 6.55005C48.02 6.56005 48.04 6.57005 48.06 6.59005Z" fill="#060401"/>
<path d="M29.9901 2.36011C29.9901 2.36011 29.9901 2.38011 29.9901 2.39011C29.9701 2.39011 29.9501 2.39011 29.9301 2.39011C29.9501 2.39011 29.9701 2.37011 29.9901 2.36011Z" fill="#402A32"/>
<path d="M46.69 5.85007C46.69 5.85007 46.64 5.85007 46.63 5.82007C46.65 5.83007 46.67 5.84007 46.69 5.85007Z" fill="#060401"/>
<path d="M40.79 42.8C40.58 43.58 40.27 44.32 39.78 44.96C39.72 45.04 39.72 45.1 39.78 45.18C40.05 45.53 40.25 45.93 40.45 46.32C40.47 46.36 40.49 46.39 40.51 46.43C40.64 46.91 40.81 47.38 40.87 47.88C41.04 49.48 40.75 50.96 39.76 52.26C38.71 53.63 37.33 54.46 35.59 54.68C34.95 54.76 34.36 54.71 33.79 54.43C33.63 54.35 33.5 54.21 33.35 54.1C33.34 54.06 33.35 54.01 33.29 54C32.91 53.69 32.68 53.26 32.58 52.82C32.48 52.34 32.51 51.83 32.75 51.36C33.22 50.45 33.96 49.99 34.98 49.96C35.5 49.94 35.9 49.68 36.06 49.19C36.21 48.74 36.22 48.25 35.83 47.87C35.59 47.64 35.31 47.5 34.95 47.51C34.08 47.54 32.95 46.79 32.69 45.97C32.36 44.94 32.54 44.03 33.46 43.24C33.91 42.85 34.43 42.74 34.99 42.7C35.73 42.65 36.18 42.09 36.13 41.26C36.11 40.83 35.64 40.23 34.88 40.23C33.83 40.23 32.98 39.5 32.64 38.57C32.63 38.54 32.64 38.5 32.65 38.46C32.66 38.38 32.61 38.37 32.56 38.36C32.51 38.25 32.59 38.13 32.56 38.02C32.62 37.95 32.57 37.92 32.51 37.91C32.58 37.73 32.54 37.53 32.57 37.34C32.62 37.33 32.67 37.31 32.65 37.24C32.73 36.73 33.07 36.38 33.41 36.03C33.47 36.03 33.51 35.99 33.53 35.93C33.98 35.58 34.49 35.5 35.05 35.5C35.54 35.5 36.01 35.59 36.49 35.62C36.8 35.64 37.09 35.85 37.39 35.99C37.71 36.14 38.02 36.32 38.31 36.52C38.34 36.52 38.37 36.54 38.4 36.55C38.4 36.55 38.43 36.59 38.45 36.6C38.98 37.05 39.48 37.52 39.89 38.1C40.75 39.33 41.03 40.7 40.89 42.18C40.87 42.39 40.83 42.59 40.8 42.79L40.79 42.8Z" fill="#402A32"/>
<path d="M16.86 21.96C17.39 21.84 17.9 21.63 18.44 21.55C19.76 21.35 21.06 21.34 22.37 21.63C23.33 21.85 24.2 22.22 25.04 22.75C27.01 24 28.06 25.83 28.51 28.03C28.89 29.85 27.3 31.33 25.49 30.83C24.75 30.63 24.2 30.06 23.95 29.28C23.84 28.94 23.78 28.58 23.65 28.25C23.18 27.04 22.3 26.39 21 26.24C20.36 26.17 19.74 26.16 19.12 26.28C18 26.5 17.26 27.19 16.86 28.25C16.71 28.65 16.64 29.07 16.48 29.47C16.2 30.19 15.62 30.6 14.92 30.85C14.9 30.85 14.88 30.87 14.86 30.88C14.41 30.96 13.97 30.94 13.54 30.8C13.1 30.66 12.71 30.44 12.45 30.03C12.32 29.82 12.16 29.64 12.03 29.44C11.9 29.25 11.97 29.01 11.92 28.8C11.87 28.57 11.92 28.32 11.97 28.08C12.12 27.42 12.3 26.77 12.55 26.16C12.73 25.73 12.98 25.32 13.23 24.92C13.94 23.82 14.93 23.03 16.04 22.37C16.24 22.25 16.47 22.17 16.69 22.07C16.76 22.07 16.83 22.05 16.85 21.96H16.86Z" fill="#402A32"/>
<path d="M52.02 26.9499C51.32 27.3199 50.67 27.7499 50.1 28.2899C49.52 28.8299 49.04 29.4599 48.64 30.1399C48.59 30.2199 48.58 30.3199 48.48 30.3599C47.92 29.9499 47.71 29.3499 47.56 28.7099C47.36 27.8499 46.96 27.1999 46.16 26.7199C44.97 26.0199 43.75 26.0599 42.53 26.3899C41.4 26.6899 40.78 27.5699 40.51 28.6899C40.36 29.3099 40.16 29.9099 39.63 30.3299C38.99 30.8499 38.29 31.0299 37.48 30.8199C36.56 30.5799 36.04 29.9599 35.77 29.1099C35.67 28.7799 35.67 28.3999 35.75 28.0399C35.93 27.1999 36.23 26.3999 36.58 25.6199C36.84 25.0299 37.22 24.5299 37.64 24.0699C38.83 22.7899 40.29 21.9399 42.02 21.5699C42.85 21.3899 43.69 21.3499 44.53 21.3899C45.87 21.4399 47.14 21.7499 48.32 22.3999C49.07 22.8099 49.73 23.3299 50.29 23.9799C50.29 24.0199 50.29 24.0299 50.34 24.0299C50.67 24.2799 50.88 24.6199 51.09 24.9599C51.34 25.3699 51.55 25.8099 51.79 26.2399C51.92 26.4699 51.92 26.7199 52.04 26.9399L52.02 26.9499Z" fill="#412A32"/>
<path d="M14.32 40.4701C15.49 40.3201 16.7 41.5001 16.7 42.8001C16.7 44.0201 15.63 45.2401 14.16 45.1901C13.02 45.1501 11.91 44.0101 11.92 42.7101C11.92 41.7201 12.98 40.2901 14.32 40.4701Z" fill="#00A6ED"/>
<path d="M16.86 21.9599C16.84 22.0399 16.77 22.0599 16.7 22.0699C16.74 22.0199 16.78 21.9499 16.86 21.9599Z" fill="#412A32"/>
<path d="M40.5099 46.4301C40.5099 46.4301 40.47 46.3601 40.45 46.3201C40.51 46.3201 40.57 46.3201 40.61 46.3701C40.6 46.4401 40.55 46.4301 40.5 46.4301H40.5099Z" fill="#3FA8BD"/>
<path d="M32.54 38.3701C32.59 38.3701 32.65 38.3901 32.63 38.4701C32.58 38.4601 32.49 38.4701 32.54 38.3701Z" fill="#412A32"/>
<path d="M33.51 35.94C33.49 36 33.45 36.03 33.39 36.04C33.39 35.97 33.43 35.93 33.51 35.94Z" fill="#412A32"/>
<path d="M32.5 37.9199C32.56 37.9399 32.6 37.9599 32.55 38.0299C32.49 38.0099 32.49 37.9699 32.5 37.9199Z" fill="#412A32"/>
<path d="M32.6301 37.25C32.6501 37.32 32.61 37.34 32.55 37.35C32.55 37.29 32.5601 37.25 32.6301 37.25Z" fill="#412A32"/>
<path d="M38.39 36.5501C38.39 36.5501 38.33 36.5301 38.3 36.5201C38.3 36.4901 38.3201 36.4501 38.3601 36.4601C38.3801 36.4601 38.38 36.5201 38.39 36.5501Z" fill="#412A32"/>
<path d="M33.28 54.01C33.34 54.01 33.33 54.07 33.34 54.11C33.27 54.11 33.25 54.07 33.28 54.01Z" fill="#F7AB2D"/>
<path d="M38.44 36.6101C38.44 36.6101 38.41 36.5801 38.39 36.5601C38.42 36.5601 38.44 36.5701 38.44 36.6101Z" fill="#412A32"/>
<path d="M14.88 30.8801C14.88 30.8801 14.92 30.8601 14.94 30.8501C14.92 30.8501 14.9 30.8701 14.88 30.8801Z" fill="#F7AB2D"/>
<path d="M50.33 24.04C50.33 24.04 50.28 24.04 50.28 23.99C50.3 24.01 50.31 24.02 50.33 24.04Z" fill="#FDAC30"/>
<path d="M50.38 39.5C50.38 39.5 50.42 39.52 50.44 39.54C50.4 39.56 50.39 39.53 50.38 39.5Z" fill="#00A5EC"/>
<path d="M50.66 39.6699C50.66 39.6699 50.7 39.6899 50.72 39.7099C50.68 39.7299 50.67 39.6999 50.66 39.6699Z" fill="#00A5EC"/>
<path d="M56.01 39.7899C56.01 39.7899 56.03 39.7299 56.07 39.7499C56.05 39.7599 56.03 39.7699 56.01 39.7899Z" fill="#F8B033"/>
<path d="M51.02 39.8501C51.02 39.8501 51.05 39.8701 51.07 39.8901C51.03 39.9101 51.02 39.8901 51.02 39.8501Z" fill="#00A5EC"/>
<path d="M58.17 45.1901C58.17 45.1901 58.17 45.1301 58.22 45.1501C58.2 45.1601 58.19 45.1801 58.17 45.1901Z" fill="#F8B033"/>
<path d="M58.06 45.2499C58.06 45.2499 58.06 45.1899 58.11 45.2099C58.09 45.2199 58.08 45.2299 58.06 45.2499Z" fill="#F8B033"/>
</g>
<defs>
<clipPath id="clip0_3447_742">
<rect width="64.25" height="64.22" fill="white"/>
</clipPath>
</defs>
</svg>
