<svg width="66" height="66" viewBox="0 0 66 66" fill="none" xmlns="http://www.w3.org/2000/svg">
<g clip-path="url(#clip0_3447_744)">
<path d="M56.79 48.5199C55.94 50.4599 54.72 52.1599 53.37 53.7799C51.13 56.4599 48.42 58.5499 45.31 60.1199C42.3 61.6399 39.12 62.5599 35.79 63.0599C32.62 63.5399 29.43 63.5199 26.27 63.2999C22.22 63.0199 18.3 62.0199 14.69 60.0799C12.78 59.0499 10.98 57.8399 9.34001 56.3999C6.21001 53.6599 4.02001 50.2799 2.41001 46.4699C1.43001 44.1599 0.790013 41.7499 0.380013 39.2899C-0.0299874 36.7999 -0.0899874 34.2599 0.0600126 31.7399C0.110013 30.8799 0.210013 29.9999 0.260013 29.1699C0.350013 27.6799 0.670013 26.2699 0.930013 24.8299C1.24001 23.1499 1.81001 21.5599 2.44001 19.9899C3.47001 17.4299 4.91001 15.0999 6.65001 12.9599C6.70001 12.8999 6.76001 12.8699 6.82001 12.8199C6.91001 12.8199 6.97001 12.7999 6.94001 12.6899C7.95001 11.4199 9.12001 10.3299 10.43 9.32993C12.19 7.98993 14.03 6.82993 16.02 5.87993C17.87 5.00993 19.82 4.44993 21.8 4.03993C25.05 3.36993 28.36 2.99993 31.68 3.20993C33.67 3.33993 35.65 3.53993 37.62 3.94993C39.77 4.39993 41.9 4.89993 43.9 5.78993C45.14 6.33993 46.36 6.92993 47.49 7.68993C47.52 7.75993 47.54 7.82993 47.65 7.78993C48.7 8.50993 49.79 9.16993 50.73 10.0499C54.01 13.1399 56.59 16.6799 58.09 20.9699C58.87 23.2199 59.49 25.5199 59.8 27.8699C60.13 30.3599 60.37 32.8799 60.16 35.4199C59.88 38.7699 59.33 42.0699 58.23 45.2599C57.86 46.3199 57.41 47.3399 56.91 48.3499C56.83 48.3699 56.77 48.4099 56.8 48.5099L56.79 48.5199ZM45.33 41.8699C45.34 41.4999 45.1 41.3099 44.85 41.0999C43.59 40.0799 42.1 39.7499 40.55 39.7499C33.58 39.7199 26.61 39.7199 19.64 39.7499C17.93 39.7499 16.3 40.1599 15.04 41.4599C12.17 44.0699 12.14 48.2599 15.04 50.9299C16.13 51.9799 17.43 52.5999 18.95 52.6199C21 52.6599 23.06 52.6599 25.11 52.6599C30.49 52.6599 35.87 52.6799 41.26 52.6099C42.82 52.5899 44.28 52.0599 45.31 50.7499C45.39 50.6999 45.5 50.6799 45.56 50.6099C47.41 48.4699 47.75 45.4899 46.52 43.0899C46.27 42.5999 45.95 42.0699 45.34 41.8699H45.33ZM51.48 21.8099C51.6 21.7499 51.62 21.6999 51.48 21.6499C51.09 20.7499 50.92 19.7599 50.44 18.8799C48.52 15.3699 43.99 13.2299 40 14.1099C36.8 14.8099 33.18 17.5199 32.43 21.8399C32.2 23.1899 32.2 24.5299 32.55 25.8799C33.38 29.0799 35.36 31.3899 38.36 32.5799C42.46 34.2199 46.68 33.0199 49.59 29.5399C50.84 28.0299 51.4 26.2399 51.61 24.3499C51.7 23.5199 51.55 22.6599 51.51 21.8099H51.48ZM8.59001 23.6699C8.62001 29.0299 13.13 33.3299 18.29 33.2599C23.72 33.1899 27.96 28.8799 27.95 23.5399C27.94 18.0199 23.55 13.9499 18.24 13.8999C12.94 13.8599 8.43001 18.3699 8.59001 23.6599V23.6699Z" fill="#FFB02E"/>
<path d="M47.65 7.79995C47.55 7.84995 47.52 7.77995 47.49 7.69995C47.54 7.72995 47.59 7.76995 47.65 7.79995Z" fill="#050401"/>
<path d="M6.94999 12.6899C6.97999 12.7999 6.91999 12.8299 6.82999 12.8199C6.86999 12.7799 6.90999 12.7399 6.94999 12.6899Z" fill="#050401"/>
<path d="M56.79 48.5201C56.76 48.4201 56.83 48.3801 56.9 48.3601C56.86 48.4101 56.82 48.4701 56.79 48.5201Z" fill="#050401"/>
<path d="M8.59001 23.6699C8.43001 18.3799 12.94 13.8699 18.24 13.9099C23.55 13.9499 27.94 18.0299 27.95 23.5499C27.95 28.8899 23.72 33.1999 18.29 33.2699C13.13 33.3299 8.62001 29.0399 8.59001 23.6799V23.6699ZM21.31 28.9899C24.12 28.8199 25.71 27.2099 25.75 24.6099C25.79 22.5999 24.32 20.2599 21.03 20.4399C18.86 20.5599 17.12 22.5499 17.15 24.6699C17.18 27.0399 19 28.8399 21.31 28.9799V28.9899Z" fill="#FFFFFE"/>
<path d="M51.48 21.8101C51.52 22.6601 51.67 23.5201 51.58 24.3501C51.37 26.2501 50.82 28.0401 49.56 29.5401C46.66 33.0201 42.44 34.2201 38.33 32.5801C35.33 31.3801 33.35 29.0801 32.52 25.8801C32.17 24.5401 32.17 23.1901 32.4 21.8401C33.15 17.5201 36.78 14.8101 39.97 14.1101C43.96 13.2301 48.49 15.3701 50.41 18.8801C50.89 19.7601 51.06 20.7401 51.45 21.6501C51.45 21.7001 51.45 21.7601 51.45 21.8101H51.48ZM38.71 20.4701C36.56 20.1401 34.42 22.4301 34.4 24.6601C34.38 26.9501 36.57 29.0701 38.63 28.9801C40.74 28.8901 43.11 27.4901 42.97 24.3001C42.88 22.3401 40.95 20.2301 38.71 20.4801V20.4701Z" fill="#FFFFFE"/>
<path d="M45.31 50.7499C44.27 52.0499 42.82 52.5899 41.26 52.6099C35.88 52.6799 30.5 52.6599 25.11 52.6599C23.06 52.6599 21 52.6599 18.95 52.6199C17.43 52.5899 16.13 51.9799 15.04 50.9299C15.04 50.4699 15.05 49.9999 15.07 49.5399C15.11 48.1399 15.99 47.2399 17.38 47.2399C25.89 47.2299 34.4 47.2299 42.9 47.2399C44.29 47.2399 45.2 48.2699 45.17 49.6499C45.17 50.0199 45.01 50.4199 45.31 50.7599V50.7499Z" fill="white"/>
<path d="M15.04 41.46C16.3 40.16 17.93 39.76 19.64 39.75C26.61 39.72 33.58 39.72 40.55 39.75C42.1 39.75 43.59 40.09 44.85 41.1C45.1 41.3 45.35 41.5 45.33 41.87C45.11 42.17 45.17 42.52 45.16 42.85C45.14 43.94 44.63 44.67 43.65 45.01C43.3 45.13 42.93 45.12 42.56 45.12C34.27 45.12 25.97 45.12 17.68 45.12C17.51 45.12 17.34 45.12 17.17 45.12C15.92 45.03 15.08 44.11 15.07 42.85C15.07 42.39 15.05 41.92 15.04 41.46Z" fill="white"/>
<path d="M15.04 41.4599C15.04 41.9199 15.06 42.3899 15.07 42.8499C15.07 44.1099 15.92 45.0199 17.17 45.1199C17.34 45.1299 17.51 45.1199 17.68 45.1199C25.97 45.1199 34.27 45.1199 42.56 45.1199C42.93 45.1199 43.3 45.1199 43.65 45.0099C44.62 44.6699 45.14 43.9399 45.16 42.8499C45.16 42.5099 45.11 42.1699 45.33 41.8699C45.94 42.0599 46.26 42.59 46.51 43.09C47.75 45.49 47.4 48.48 45.55 50.61C45.49 50.68 45.38 50.71 45.3 50.75C45.01 50.41 45.16 50.0099 45.16 49.6399C45.19 48.2599 44.28 47.24 42.89 47.2299C34.38 47.2199 25.87 47.2199 17.37 47.2299C15.98 47.2299 15.1 48.1399 15.06 49.5299C15.05 49.9899 15.04 50.4599 15.03 50.9199C12.13 48.2499 12.16 44.06 15.03 41.45L15.04 41.4599Z" fill="#BB1D80"/>
<path d="M51.48 21.8099C51.48 21.7599 51.48 21.6999 51.48 21.6499C51.63 21.6999 51.61 21.7499 51.48 21.8099Z" fill="#FFFFFE"/>
<path d="M21.31 28.99C19 28.85 17.18 27.05 17.15 24.68C17.12 22.56 18.86 20.57 21.03 20.45C24.32 20.27 25.78 22.6 25.75 24.62C25.7 27.21 24.12 28.82 21.31 29V28.99Z" fill="#412B33"/>
<path d="M38.71 20.48C40.95 20.24 42.88 22.35 42.97 24.3C43.11 27.49 40.74 28.9 38.63 28.98C36.57 29.07 34.38 26.95 34.4 24.66C34.42 22.44 36.56 20.14 38.71 20.47V20.48Z" fill="#412B33"/>
</g>
<defs>
<clipPath id="clip0_3447_744">
<rect width="65.21" height="65.75" fill="white"/>
</clipPath>
</defs>
</svg>
