<svg width="61" height="61" viewBox="0 0 61 61" fill="none" xmlns="http://www.w3.org/2000/svg">
<path d="M47.5675 55.52C45.1975 57.04 42.6675 58.19 39.9475 58.91C39.0275 59.15 38.1175 59.55 37.1875 59.59C35.6675 59.66 34.2275 60.17 32.6475 59.99C30.7575 59.78 28.8075 60.09 26.8975 60.05C24.5675 60 22.2975 59.53 20.0575 58.89C17.1775 58.07 14.4475 56.9 12.0375 55.13C10.5475 54.04 9.0675 52.9 7.7975 51.58C4.8675 48.53 2.8575 44.92 1.5775 40.87C1.0375 39.15 0.547499 37.42 0.357499 35.67C0.0374987 32.85 -0.0525013 29.99 0.0274987 27.15C0.117499 24.13 0.807499 21.17 1.7975 18.32C2.8575 15.24 4.4275 12.42 6.4875 9.86C8.9275 6.82 11.9075 4.52 15.4075 2.88C16.7175 2.27 18.0875 1.78 19.4675 1.33C21.7575 0.57 24.1275 0.24 26.5275 0.14C28.4875 0.0600001 30.4575 0.01 32.4275 0C33.5175 0 34.6075 0.0700001 35.6975 0.15C36.0175 0.17 36.3175 0.39 36.6275 0.42C38.3575 0.55 39.9775 1.08 41.5575 1.76C41.5775 1.79 41.5975 1.83 41.6175 1.86C41.6575 1.83 41.6975 1.79 41.7275 1.76C43.9175 2.36 45.8675 3.44 47.7975 4.62C49.6475 5.74 51.1775 7.17 52.6775 8.68C53.0975 9.1 53.4475 9.59 53.8275 10.05L53.8475 10.07C54.9975 11.94 56.2675 13.75 57.2575 15.71C58.4875 18.17 59.2175 20.83 59.6175 23.56C59.8575 25.15 59.9275 26.77 60.0775 28.38C60.1375 29.01 60.1775 29.63 60.2175 30.26C60.1175 30.36 60.0175 30.45 59.9075 30.55C60.3375 32.58 59.9875 34.59 59.5975 36.55C59.1975 38.56 58.5875 40.54 57.9975 42.51C57.7475 43.34 57.3275 44.13 56.9775 44.93C56.9375 44.98 56.8975 45.04 56.8675 45.09C55.8075 47.32 54.5375 49.42 52.7575 51.13C51.2775 52.56 49.6675 53.87 48.1175 55.23C48.0175 55.32 47.8575 55.35 47.7275 55.41C47.6775 55.44 47.6275 55.48 47.5675 55.51V55.52ZM40.2375 36.7C39.4375 36.27 38.6475 35.8 37.8275 35.42C37.3375 35.19 36.7975 35.08 36.2675 34.96C35.3775 34.76 34.4875 34.58 33.5875 34.41C32.9375 34.29 32.2775 34.19 31.6175 34.1C31.5375 34.09 31.4575 34.2 31.3675 34.23C31.0575 34.33 30.7575 34.48 30.4475 34.52C29.7375 34.59 28.9775 34.48 28.3175 34.68C27.2175 35.02 26.1275 35.48 25.1075 36.02C23.8775 36.68 22.5875 37.33 21.5675 38.26C20.5275 39.2 19.7675 40.46 18.9375 41.62C18.5875 42.11 18.3375 42.69 18.5575 43.33C18.8575 44.18 19.3975 44.78 20.3175 44.95C21.3075 45.13 21.9375 44.58 22.5375 43.91C23.3575 42.99 24.1175 42 25.0375 41.19C26.8475 39.61 29.0175 38.86 31.4175 38.78C31.8275 38.77 32.2375 38.62 32.6375 38.67C33.7575 38.81 34.8575 39.03 35.9675 39.22C36.1175 39.32 36.2675 39.42 36.4275 39.52C36.7475 39.67 37.0775 39.81 37.3975 39.97C37.9475 40.25 38.4675 40.7 39.0475 40.8C40.0575 40.98 41.1875 40.43 41.5075 39.35C41.8575 38.17 41.3975 37.17 40.3075 36.72C40.3075 36.68 40.3075 36.64 40.3175 36.6C40.2975 36.63 40.2775 36.67 40.2475 36.7H40.2375ZM9.3775 24.25C9.9375 25.65 10.8275 26.77 12.0175 27.71C13.8275 29.14 15.8575 30.04 18.1375 30.06C19.3475 30.06 20.6175 29.68 21.7775 29.25C27.0875 27.28 29.3775 21.17 26.9675 16.09C24.6175 11.13 18.6775 9.35 13.8475 11.67C12.0675 12.52 10.7775 13.93 9.7675 15.7C8.9275 17.17 8.5375 18.69 8.5475 20.27C8.5575 21.54 9.0075 22.81 9.2675 24.08C9.3075 24.13 9.3375 24.19 9.3775 24.24V24.25ZM41.8975 10.72C35.8375 10.67 32.1575 15.29 32.2275 20.36C32.2875 25.43 35.8175 29.86 41.8175 30.03C46.8575 30.17 51.3075 26.17 51.5575 20.72C51.8175 15.04 47.2375 10.58 41.8975 10.72Z" fill="#FFB02E"/>
<path d="M59.8975 30.54C59.9975 30.44 60.0975 30.35 60.2075 30.25C60.1075 30.35 60.0075 30.44 59.8975 30.54Z" fill="#020200"/>
<path d="M41.7175 1.76001C41.7175 1.76001 41.6375 1.83001 41.6075 1.86001C41.5875 1.83001 41.5675 1.79001 41.5475 1.76001C41.6075 1.76001 41.6675 1.76001 41.7275 1.76001H41.7175Z" fill="#020100"/>
<path d="M53.8175 10.05C53.8175 10.05 53.8675 10.01 53.8975 9.98999C53.8775 10.02 53.8575 10.04 53.8375 10.07L53.8175 10.05Z" fill="#040301"/>
<path d="M56.8575 45.0899C56.8975 45.0399 56.9375 44.9799 56.9675 44.9299C56.9275 44.9799 56.8875 45.0399 56.8575 45.0899Z" fill="#020200"/>
<path d="M9.26753 24.0898C9.00753 22.8198 8.56753 21.5498 8.54753 20.2798C8.52753 18.6898 8.92753 17.1698 9.76753 15.7098C10.7775 13.9398 12.0775 12.5298 13.8475 11.6798C18.6775 9.35982 24.6175 11.1398 26.9675 16.0998C29.3775 21.1798 27.0875 27.2898 21.7775 29.2598C20.6175 29.6898 19.3575 30.0798 18.1375 30.0698C15.8575 30.0498 13.8275 29.1598 12.0175 27.7198C10.8275 26.7798 9.93753 25.6598 9.37753 24.2598C9.33753 24.2098 9.30753 24.1498 9.26753 24.0998V24.0898ZM22.4575 21.3498C22.6275 19.6198 21.1175 18.2498 19.2175 18.1998C17.6775 18.1498 16.1175 19.6598 16.0975 21.4098C16.0775 23.2198 17.8575 24.6998 19.2375 24.6798C20.7275 24.6598 22.6675 23.3698 22.4475 21.3498H22.4575Z" fill="white"/>
<path d="M41.9075 10.72C47.2375 10.58 51.8275 15.04 51.5675 20.72C51.3175 26.17 46.8675 30.17 41.8275 30.03C35.8275 29.86 32.2975 25.43 32.2375 20.36C32.1775 15.3 35.8575 10.67 41.9075 10.72ZM44.0575 21.49C44.1275 19.45 42.5075 18.21 40.7475 18.21C39.0075 18.21 37.5875 19.68 37.5975 21.46C37.5975 23.01 39.2275 24.75 40.6475 24.66C42.6675 24.54 44.0475 23.23 44.0575 21.48V21.49Z" fill="#FFFFFE"/>
<path d="M35.9575 39.21C34.8475 39.02 33.7375 38.81 32.6275 38.66C32.2375 38.61 31.8175 38.76 31.4075 38.77C29.0075 38.85 26.8375 39.6 25.0275 41.18C24.1075 41.98 23.3475 42.98 22.5275 43.9C21.9375 44.57 21.2975 45.12 20.3075 44.94C19.3875 44.77 18.8375 44.17 18.5475 43.32C18.3175 42.67 18.5775 42.09 18.9275 41.61C19.7575 40.45 20.5175 39.2 21.5575 38.25C22.5775 37.32 23.8675 36.67 25.0975 36.01C26.1175 35.47 27.1975 35.01 28.3075 34.67C28.9675 34.47 29.7275 34.58 30.4375 34.51C30.7475 34.48 31.0575 34.33 31.3575 34.22C31.4475 34.19 31.5275 34.08 31.6075 34.09C32.2675 34.18 32.9275 34.28 33.5775 34.4C34.4775 34.57 35.3675 34.75 36.2575 34.95C36.7875 35.07 37.3275 35.19 37.8175 35.41C38.6475 35.79 39.4275 36.26 40.2275 36.69L40.2875 36.71C41.3775 37.16 41.8475 38.16 41.4875 39.34C41.1675 40.42 40.0375 40.97 39.0275 40.79C38.4475 40.69 37.9275 40.24 37.3775 39.96C37.0575 39.8 36.7275 39.66 36.4075 39.51C36.3275 39.31 36.4075 38.85 35.9475 39.21H35.9575Z" fill="#412A32"/>
<path d="M35.9575 39.2098C36.4075 38.8598 36.3275 39.3098 36.4175 39.5098C36.2675 39.4098 36.1175 39.3098 35.9575 39.2098Z" fill="#F8AB2E"/>
<path d="M40.2975 36.7199L40.2375 36.6999C40.2575 36.6699 40.2775 36.6299 40.3075 36.5999C40.3075 36.6399 40.3075 36.6799 40.2975 36.7199Z" fill="#FBAD2E"/>
<path d="M22.4575 21.3499C22.6675 23.3699 20.7275 24.6499 19.2475 24.6799C17.8675 24.6999 16.0875 23.2299 16.1075 21.4099C16.1275 19.6599 17.6875 18.1499 19.2275 18.1999C21.1275 18.2599 22.6375 19.6199 22.4675 21.3499H22.4575Z" fill="#412B33"/>
<path d="M44.0575 21.49C44.0475 23.24 42.6575 24.54 40.6475 24.67C39.2275 24.76 37.6075 23.02 37.5975 21.47C37.5975 19.69 39.0075 18.23 40.7475 18.22C42.5175 18.22 44.1275 19.46 44.0575 21.5V21.49Z" fill="#402A32"/>
</svg>
