<svg width="17" height="21" viewBox="0 0 17 21" fill="none" xmlns="http://www.w3.org/2000/svg">
<path d="M13.8495 4.86428L15.4037 3.12348V2.48747V1.85126V0.579255C15.4037 0.228013 14.9959 0 14.6446 0H12.7366C12.3854 0 11.9581 0.228013 11.9581 0.579255V1.82411H10.134V0.579255C10.134 0.228013 9.90764 0 9.5564 0H7.01238C6.66114 0 6.48582 0.228013 6.48582 0.579255V1.82411H4.45904V0.579255C4.45904 0.228013 4.1836 0 3.83236 0H1.92435C1.5731 0 1.21619 0.228013 1.21619 0.579255V1.85126V2.48727V3.12327L2.71925 4.86428H13.8495Z" fill="#0C0A29"/>
<path d="M0.652017 16.6196C0.300979 16.6196 0 16.7646 0 17.1158V19.6598C0 20.011 0.300979 20.2678 0.652017 20.2678H15.9163C16.2678 20.2678 16.6196 20.011 16.6196 19.6598V17.1158C16.6196 16.7646 16.2678 16.6196 15.9165 16.6196H0.652017Z" fill="#0C0A29"/>
<path d="M13.3725 5.87744H3.19625L1.99902 16.0114H14.5695L13.3725 5.87744ZM9.52589 11.3498H7.09375V9.4833C7.09375 8.82763 7.65415 8.21128 8.30982 8.21128C8.96548 8.21128 9.52589 8.82763 9.52589 9.4833V11.3498Z" fill="#0C0A29"/>
</svg>
