<svg width="15" height="22" viewBox="0 0 15 22" fill="none" xmlns="http://www.w3.org/2000/svg">
<path d="M13.0134 6.28045C13.0862 6.3541 13.159 6.42781 13.2318 6.50146C13.5858 7.1291 13.9397 7.7568 14.2936 8.38451C14.322 8.49609 14.3503 8.60768 14.3787 8.71926C14.4112 8.87575 14.4437 9.0323 14.4763 9.18879C14.4759 9.70728 14.4754 10.2258 14.475 10.7443C14.262 11.3515 14.0489 11.9587 13.8358 12.566C13.7943 12.635 13.7528 12.704 13.7114 12.773C13.5414 13.03 13.3713 13.2869 13.2012 13.5438L13.2148 13.5674L13.1984 13.5466C12.8506 13.8147 12.5023 14.0825 12.1539 14.3502C12.1306 14.3652 12.1072 14.3802 12.0839 14.3951C11.9274 14.4898 11.7709 14.5845 11.6145 14.6792C11.5918 14.6976 11.5691 14.7161 11.5464 14.7346C10.9171 14.9179 10.2878 15.1012 9.65848 15.2846C9.58929 15.3006 9.52014 15.3167 9.45102 15.3329L8.84244 15.3325C8.68921 15.2912 8.53595 15.2498 8.38269 15.2084C8.37952 15.0621 8.37347 14.9159 8.37338 14.7696C8.3728 12.1681 8.37347 9.56648 8.37247 6.9649C8.37219 6.42964 8.14777 6.18395 7.62024 6.13168C7.6232 4.08774 7.62622 2.04387 7.62921 0C7.87582 0.0119699 8.12228 0.0240073 8.36884 0.0360448C9.20755 0.154797 9.95325 0.512269 10.6736 0.934528C10.7387 0.983421 10.8039 1.03232 10.869 1.08121C11.059 1.22647 11.2489 1.37173 11.4387 1.51693C11.4481 1.51395 11.4574 1.51091 11.4666 1.50786C11.4575 1.51158 11.4485 1.51523 11.4399 1.51828C11.5071 1.62804 11.5712 1.74016 11.6413 1.84836C11.8834 2.22213 12.1275 2.59448 12.3709 2.96737C12.3894 2.99104 12.408 3.01464 12.4265 3.03831C12.4522 3.08173 12.4779 3.12508 12.5035 3.16849C12.5166 3.19358 12.5296 3.21867 12.5426 3.24376C12.6476 3.60211 12.7525 3.96053 12.8574 4.31889C12.8721 4.65857 12.8755 4.99927 12.9052 5.33768C12.9271 5.58566 12.9835 5.83067 13.0245 6.07696C12.9697 6.09942 12.9151 6.12187 12.8603 6.14425C12.9113 6.18963 12.9624 6.23507 13.0134 6.28045Z" fill="#59B386"/>
<path d="M7.63008 0C7.627 2.04387 7.62404 4.08781 7.62102 6.13168L7.62559 6.14709C7.14284 6.17874 6.87926 6.44194 6.87803 6.90728C6.87523 8.03434 6.87691 9.16133 6.87684 10.2884C6.87678 10.4082 6.87684 10.5279 6.87684 10.6809C6.71956 10.6809 6.6093 10.6806 6.49916 10.681C5.57747 10.6841 5.5392 10.655 5.30818 9.77362C5.20256 9.3705 4.89381 9.15051 4.48518 9.1871C4.18349 9.21415 3.86449 9.50474 3.83763 9.77693C3.73799 10.7881 4.37852 11.794 5.35463 12.0547C5.82411 12.18 6.32609 12.1834 6.81337 12.2421C6.83143 12.2614 6.8495 12.2807 6.86763 12.3C6.86879 13.2921 6.86998 14.2842 6.87123 15.2763C6.82924 15.2751 6.78715 15.2738 6.74519 15.2726C6.6327 15.2929 6.52025 15.3132 6.40776 15.3335C6.38505 15.3404 6.36235 15.3472 6.33964 15.3541C6.13673 15.3472 5.93385 15.3404 5.73091 15.3336L5.45677 15.2833C4.91759 15.1291 4.34999 15.0363 3.84691 14.8039C3.29906 14.5507 2.81123 14.168 2.29719 13.8417L2.29481 13.8403C2.22462 13.7223 2.15455 13.6042 2.08446 13.486C2.06178 13.452 2.03905 13.4179 2.0164 13.3839C1.40504 12.654 1.0377 11.8108 0.85478 10.882C0.837416 10.8361 0.820082 10.7902 0.802717 10.7443C0.79402 10.5639 0.785261 10.3835 0.776625 10.2032C0.736097 9.38403 0.843306 8.57697 1.21004 7.84884C1.50136 7.27064 1.91618 6.75458 2.27614 6.21087C2.29902 6.16583 2.32188 6.12072 2.34468 6.07561C2.31993 5.64767 2.29509 5.2198 2.27034 4.79186C2.37718 4.3836 2.44169 3.95837 2.59791 3.56999C3.39281 1.59388 4.82127 0.379316 6.94911 0.034016C7.17607 0.0226548 7.40312 0.0113612 7.63008 0Z" fill="#8FCCA3"/>
<path d="M8.36969 21.4061C8.12241 21.4261 7.87515 21.4461 7.62787 21.4661C7.62686 15.3599 7.62585 12.2535 7.62476 6.14717L7.62024 6.13184C8.14777 6.1841 8.37219 6.42979 8.37247 6.96504C8.37347 9.56664 8.3728 12.1682 8.37338 14.7697C8.37347 14.916 8.37952 15.0623 8.38269 15.2086L8.37906 15.2761C8.38113 15.3448 8.3833 15.4134 8.38538 15.482C8.38672 16.657 8.38812 14.832 8.38956 16.0069V16.4236C8.59186 16.3075 8.74728 16.2184 8.90268 16.1293C8.92722 16.1123 8.95172 16.0953 8.97629 16.0784C9.33914 15.843 9.61194 15.5361 9.74112 15.1151C9.75702 15.0926 9.77286 15.0699 9.78876 15.0472C9.80783 14.9578 9.82678 14.8684 9.84586 14.7789V14.3732C9.89606 14.2407 9.9462 14.1082 9.99637 13.9758C10.0388 13.9048 10.0814 13.8338 10.1238 13.7629L10.1532 13.7675C10.1719 13.7571 10.1851 13.742 10.1928 13.7222C10.2162 13.7137 10.2396 13.7052 10.2629 13.6967C10.2851 13.6788 10.3073 13.6608 10.3296 13.6428C10.5277 13.6404 10.7387 13.5952 10.9199 13.6496C11.0584 13.6912 11.1591 13.8586 11.2767 13.9701C11.3259 14.1045 11.3751 14.2388 11.4244 14.3732C11.4955 14.9551 11.2478 15.4675 11.0708 15.9954C10.8869 16.2667 10.703 16.5381 10.5192 16.8094C10.502 16.8262 10.4846 16.8429 10.4673 16.8596C10.398 16.9296 10.3286 16.9996 10.2591 17.0696C9.98175 17.2468 9.71463 17.4432 9.42487 17.5969C8.91101 17.8694 8.60587 18.292 8.44769 18.8374C8.422 18.9641 8.37537 19.0906 8.37405 19.2175C8.36661 19.947 8.36993 20.6765 8.36969 21.4061ZM8.40833 16.4449C8.4137 16.4393 8.42505 16.4325 8.42499 16.4259C8.42493 16.4192 8.41351 16.4126 8.40698 16.4061C8.40073 16.4128 8.39438 16.4194 8.388 16.4261C8.39474 16.4324 8.40152 16.4387 8.40833 16.4449Z" fill="#45354D"/>
<path d="M7.62522 6.14697C7.62617 12.2533 7.62727 15.3596 7.62837 21.4659C7.37101 21.4631 7.11372 21.4604 6.85652 21.4574C6.86241 21.3115 6.87352 21.1656 6.87342 21.0198C6.87138 18.1964 6.86802 18.3731 6.86497 15.5498L6.8708 15.2761C6.86964 14.284 6.86848 13.292 6.86735 12.2999C6.84922 12.2806 6.83116 12.2613 6.81291 12.242C6.32572 12.1834 5.82374 12.1798 5.35429 12.0545C4.37822 11.7939 3.73762 10.788 3.83735 9.7768C3.86418 9.50462 4.18312 9.21409 4.48481 9.18705C4.89344 9.1504 5.20219 9.37038 5.30787 9.77357C5.53883 10.6549 5.5771 10.684 6.4987 10.6808C6.60887 10.6804 6.71919 10.6808 6.87641 10.6808V10.2883C6.8766 9.16126 6.87486 8.03422 6.87776 6.90716C6.87889 6.44189 7.14247 6.1787 7.62522 6.14697Z" fill="#5F5166"/>
</svg>
