<svg width="18" height="29" viewBox="0 0 18 29" fill="none" xmlns="http://www.w3.org/2000/svg">
<g clip-path="url(#clip0_4397_278)">
<path d="M9.29179 29H8.72696C8.28527 28.804 8.10904 28.4489 8.11073 27.981C8.11299 27.3489 8.1096 26.7168 8.1096 26.0847C8.1096 25.396 8.10283 24.7072 8.11299 24.0185C8.11695 23.7715 8.0582 23.6282 7.77974 23.6112C7.55664 23.5976 7.33466 23.5393 7.11494 23.4894C3.23851 22.6143 0.279366 19.1332 0.0206743 14.8835C-0.14821 12.1064 0.699035 9.65893 2.58218 7.59324C2.69458 7.46977 2.73694 7.33949 2.71322 7.1809C2.65109 6.77648 2.67255 6.37377 2.71322 5.96822C2.91995 3.94049 3.8265 2.3132 5.46846 1.10619C6.28972 0.502969 7.22395 0.17332 8.21862 0C8.72696 0 9.23531 0 9.74366 0C9.77981 0.0101953 9.81539 0.0243555 9.8521 0.0300195C11.6878 0.309824 13.1106 1.25176 14.1527 2.77199C15.0429 4.0702 15.3999 5.52303 15.2971 7.09141C15.2829 7.30721 15.3225 7.48449 15.4767 7.65838C17.4993 9.94836 18.3053 12.6201 17.8964 15.6453C17.3626 19.5948 14.3504 23.0103 10.2142 23.6112C9.9261 23.6531 9.86961 23.7692 9.87131 24.0304C9.88204 25.3325 9.8651 26.6353 9.88204 27.9374C9.88825 28.4223 9.73236 28.7819 9.29123 28.9994L9.29179 29ZM8.18247 12.4978C8.18247 13.8753 8.1836 15.2533 8.18021 16.6308C8.18021 16.7271 8.23556 16.8693 8.12203 16.9101C8.01697 16.948 7.95315 16.8132 7.88254 16.7435C7.36064 16.2258 6.84664 15.7002 6.31966 15.1876C6.04684 14.922 5.63282 14.8795 5.32782 15.0562C5.03015 15.229 4.8929 15.5609 4.96124 15.9353C4.99908 16.142 5.1273 16.2898 5.26851 16.4314C6.1536 17.3184 7.03473 18.2105 7.92716 19.0907C8.10847 19.2697 8.19038 19.4527 8.18755 19.7109C8.17625 20.8902 8.18981 22.07 8.17738 23.2498C8.17456 23.5246 8.27058 23.6248 8.53549 23.614C8.79813 23.6027 9.06247 23.6214 9.32568 23.6152C9.80296 23.6038 9.80409 23.5999 9.80409 23.1116C9.80409 20.5543 9.80805 17.997 9.79957 15.4397C9.79845 15.1338 9.88769 14.9101 10.1091 14.6943C10.9722 13.852 11.8177 12.9911 12.6683 12.1364C12.7548 12.0497 12.8446 11.9631 12.9135 11.8634C13.0931 11.6023 13.1157 11.3185 12.9841 11.0308C12.8542 10.7464 12.6169 10.6071 12.3136 10.5844C12.0318 10.5629 11.8053 10.6841 11.6099 10.8818C11.1326 11.3644 10.6547 11.8458 10.1707 12.321C10.0831 12.4071 10.0052 12.5895 9.87187 12.5249C9.75439 12.4683 9.80635 12.2842 9.80635 12.1551C9.80353 10.9662 9.80522 9.77674 9.80409 8.58785C9.80409 8.46551 9.80522 8.34203 9.79449 8.22025C9.75665 7.78412 9.44373 7.49412 9.01164 7.48902C8.51572 7.48336 8.18642 7.8368 8.18473 8.39357C8.18134 9.76201 8.1836 11.1304 8.18303 12.4983L8.18247 12.4978Z" fill="#0E1626"/>
</g>
<defs>
<clipPath id="clip0_4397_278">
<rect width="18" height="29" fill="white"/>
</clipPath>
</defs>
</svg>
