<svg width="10" height="16" viewBox="0 0 10 16" fill="none" xmlns="http://www.w3.org/2000/svg">
<g clip-path="url(#clip0_2002_26069)">
<path d="M4.99691 15.9986C6.11078 15.9986 7.22513 16.003 8.339 15.9966C8.91504 15.9931 9.42469 15.8192 9.76573 15.2956C9.94962 15.0134 10.0303 14.7024 9.98258 14.3542C9.77624 12.845 9.14574 11.5518 8.14125 10.4534C7.71376 9.98595 7.26477 9.53934 6.82534 9.08378C6.20965 8.44541 6.20679 7.55716 6.82152 6.92077C7.5036 6.21484 8.22007 5.54319 8.79181 4.72945C9.45908 3.77959 9.84597 2.71399 9.99166 1.553C10.0676 0.944932 9.60524 0.29265 8.98048 0.100891C8.76602 0.0348173 8.54678 0.00054032 8.32181 0.000540281C6.10171 0.00153362 3.88113 0.00103637 1.66103 0.00103598C1.3797 0.00103593 1.1041 0.0447533 0.846646 0.163982C0.19848 0.464041 -0.0933619 1.08204 0.0303483 1.82971C0.268693 3.2689 0.890111 4.5044 1.85496 5.55511C2.2834 6.02209 2.73239 6.4682 3.17135 6.92475C3.77509 7.55219 3.77796 8.44591 3.17565 9.07037C2.49452 9.7773 1.77662 10.448 1.20392 11.2602C0.564355 12.1663 0.179372 13.1808 0.016972 14.2866C-0.0933643 15.0412 0.332696 15.7035 1.04248 15.9091C1.2579 15.9712 1.47761 16 1.70211 15.9995C2.80022 15.9976 3.89832 15.9986 4.99643 15.9986L4.99691 15.9986ZM4.99739 14.7074C4.00293 14.7074 3.00847 14.7089 2.01449 14.7064C1.70879 14.7054 1.60037 14.5981 1.61422 14.2906C1.65482 13.375 1.90702 12.534 2.46395 11.8097C3.12406 10.9517 3.97857 10.3004 4.72322 9.53238C4.89995 9.35006 5.09531 9.35702 5.27777 9.54331C5.94217 10.2209 6.67631 10.8215 7.30681 11.5364C7.97933 12.2995 8.31703 13.2081 8.37243 14.234C8.39249 14.6076 8.29649 14.7069 7.933 14.7074C6.9543 14.7089 5.97608 14.7079 4.99739 14.7074Z" fill="#FFCC40"/>
</g>
<defs>
<clipPath id="clip0_2002_26069">
<rect width="10" height="16" fill="white" transform="matrix(1 1.74846e-07 1.74846e-07 -1 0 16)"/>
</clipPath>
</defs>
</svg>
